<?xml version="1.0" standalone="no"?>
  <!DOCTYPE svg PUBLIC "-//W3C//DTD SVG 1.1//EN" "http://www.w3.org/Graphics/SVG/1.1/DTD/svg11.dtd" >
  <svg>
  <metadata>
  Created by font-carrier
  </metadata>
  <defs>
  <font id="FuturaLight" horiz-adv-x="4887" vert-adv-y="4887" >
    <font-face
      
      font-family="Futura (Light)"
      
      font-weight="400"
      
      font-stretch="normal"
      
      units-per-em="4096"
      
      ascent="3432"
      
      descent="-1126"
      
    />
      <missing-glyph />

      

      
      <glyph glyph-name="uniad" unicode="&#xad;" d="M512 0L512 2560L2560 2560L2560 0L512 0M2496 64L2496 2496L576 2496L576 64L2496 64Z"  horiz-adv-x="3072" vert-adv-y="4096"  />

      
      <glyph glyph-name="uni0132" unicode="&#x0132;" d="M512 0L512 2560L2560 2560L2560 0L512 0M2496 64L2496 2496L576 2496L576 64L2496 64Z"  horiz-adv-x="3072" vert-adv-y="4096"  />

      
      <glyph glyph-name="uni0133" unicode="&#x0133;" d="M512 0L512 2560L2560 2560L2560 0L512 0M2496 64L2496 2496L576 2496L576 64L2496 64Z"  horiz-adv-x="3072" vert-adv-y="4096"  />

      
      <glyph glyph-name="uni0134" unicode="&#x0134;" d="M512 0L512 2560L2560 2560L2560 0L512 0M2496 64L2496 2496L576 2496L576 64L2496 64Z"  horiz-adv-x="3072" vert-adv-y="4096"  />

      
      <glyph glyph-name="uni0135" unicode="&#x0135;" d="M512 0L512 2560L2560 2560L2560 0L512 0M2496 64L2496 2496L576 2496L576 64L2496 64Z"  horiz-adv-x="3072" vert-adv-y="4096"  />

      
      <glyph glyph-name="uni0136" unicode="&#x0136;" d="M512 0L512 2560L2560 2560L2560 0L512 0M2496 64L2496 2496L576 2496L576 64L2496 64Z"  horiz-adv-x="3072" vert-adv-y="4096"  />

      
      <glyph glyph-name="uni0137" unicode="&#x0137;" d="M512 0L512 2560L2560 2560L2560 0L512 0M2496 64L2496 2496L576 2496L576 64L2496 64Z"  horiz-adv-x="3072" vert-adv-y="4096"  />

      
      <glyph glyph-name="uni0138" unicode="&#x0138;" d="M512 0L512 2560L2560 2560L2560 0L512 0M2496 64L2496 2496L576 2496L576 64L2496 64Z"  horiz-adv-x="3072" vert-adv-y="4096"  />

      
      <glyph glyph-name="uni0139" unicode="&#x0139;" d="M512 0L512 2560L2560 2560L2560 0L512 0M2496 64L2496 2496L576 2496L576 64L2496 64Z"  horiz-adv-x="3072" vert-adv-y="4096"  />

      
      <glyph glyph-name="uni013A" unicode="&#x013A;" d="M512 0L512 2560L2560 2560L2560 0L512 0M2496 64L2496 2496L576 2496L576 64L2496 64Z"  horiz-adv-x="3072" vert-adv-y="4096"  />

      
      <glyph glyph-name="uni013B" unicode="&#x013B;" d="M512 0L512 2560L2560 2560L2560 0L512 0M2496 64L2496 2496L576 2496L576 64L2496 64Z"  horiz-adv-x="3072" vert-adv-y="4096"  />

      
      <glyph glyph-name="uni013C" unicode="&#x013C;" d="M512 0L512 2560L2560 2560L2560 0L512 0M2496 64L2496 2496L576 2496L576 64L2496 64Z"  horiz-adv-x="3072" vert-adv-y="4096"  />

      
      <glyph glyph-name="uni013D" unicode="&#x013D;" d="M512 0L512 2560L2560 2560L2560 0L512 0M2496 64L2496 2496L576 2496L576 64L2496 64Z"  horiz-adv-x="3072" vert-adv-y="4096"  />

      
      <glyph glyph-name="uni013E" unicode="&#x013E;" d="M512 0L512 2560L2560 2560L2560 0L512 0M2496 64L2496 2496L576 2496L576 64L2496 64Z"  horiz-adv-x="3072" vert-adv-y="4096"  />

      
      <glyph glyph-name="uni013F" unicode="&#x013F;" d="M512 0L512 2560L2560 2560L2560 0L512 0M2496 64L2496 2496L576 2496L576 64L2496 64Z"  horiz-adv-x="3072" vert-adv-y="4096"  />

      
      <glyph glyph-name="uni0140" unicode="&#x0140;" d="M512 0L512 2560L2560 2560L2560 0L512 0M2496 64L2496 2496L576 2496L576 64L2496 64Z"  horiz-adv-x="3072" vert-adv-y="4096"  />

      
      <glyph glyph-name="uni0143" unicode="&#x0143;" d="M512 0L512 2560L2560 2560L2560 0L512 0M2496 64L2496 2496L576 2496L576 64L2496 64Z"  horiz-adv-x="3072" vert-adv-y="4096"  />

      
      <glyph glyph-name="uni0144" unicode="&#x0144;" d="M512 0L512 2560L2560 2560L2560 0L512 0M2496 64L2496 2496L576 2496L576 64L2496 64Z"  horiz-adv-x="3072" vert-adv-y="4096"  />

      
      <glyph glyph-name="uni0145" unicode="&#x0145;" d="M512 0L512 2560L2560 2560L2560 0L512 0M2496 64L2496 2496L576 2496L576 64L2496 64Z"  horiz-adv-x="3072" vert-adv-y="4096"  />

      
      <glyph glyph-name="uni0146" unicode="&#x0146;" d="M512 0L512 2560L2560 2560L2560 0L512 0M2496 64L2496 2496L576 2496L576 64L2496 64Z"  horiz-adv-x="3072" vert-adv-y="4096"  />

      
      <glyph glyph-name="uni0147" unicode="&#x0147;" d="M512 0L512 2560L2560 2560L2560 0L512 0M2496 64L2496 2496L576 2496L576 64L2496 64Z"  horiz-adv-x="3072" vert-adv-y="4096"  />

      
      <glyph glyph-name="uni0148" unicode="&#x0148;" d="M512 0L512 2560L2560 2560L2560 0L512 0M2496 64L2496 2496L576 2496L576 64L2496 64Z"  horiz-adv-x="3072" vert-adv-y="4096"  />

      
      <glyph glyph-name="uni0149" unicode="&#x0149;" d="M512 0L512 2560L2560 2560L2560 0L512 0M2496 64L2496 2496L576 2496L576 64L2496 64Z"  horiz-adv-x="3072" vert-adv-y="4096"  />

      
      <glyph glyph-name="uni014A" unicode="&#x014A;" d="M512 0L512 2560L2560 2560L2560 0L512 0M2496 64L2496 2496L576 2496L576 64L2496 64Z"  horiz-adv-x="3072" vert-adv-y="4096"  />

      
      <glyph glyph-name="uni014B" unicode="&#x014B;" d="M512 0L512 2560L2560 2560L2560 0L512 0M2496 64L2496 2496L576 2496L576 64L2496 64Z"  horiz-adv-x="3072" vert-adv-y="4096"  />

      
      <glyph glyph-name="uni014C" unicode="&#x014C;" d="M512 0L512 2560L2560 2560L2560 0L512 0M2496 64L2496 2496L576 2496L576 64L2496 64Z"  horiz-adv-x="3072" vert-adv-y="4096"  />

      
      <glyph glyph-name="uni014D" unicode="&#x014D;" d="M512 0L512 2560L2560 2560L2560 0L512 0M2496 64L2496 2496L576 2496L576 64L2496 64Z"  horiz-adv-x="3072" vert-adv-y="4096"  />

      
      <glyph glyph-name="uni014E" unicode="&#x014E;" d="M512 0L512 2560L2560 2560L2560 0L512 0M2496 64L2496 2496L576 2496L576 64L2496 64Z"  horiz-adv-x="3072" vert-adv-y="4096"  />

      
      <glyph glyph-name="uni014F" unicode="&#x014F;" d="M512 0L512 2560L2560 2560L2560 0L512 0M2496 64L2496 2496L576 2496L576 64L2496 64Z"  horiz-adv-x="3072" vert-adv-y="4096"  />

      
      <glyph glyph-name="uni0150" unicode="&#x0150;" d="M512 0L512 2560L2560 2560L2560 0L512 0M2496 64L2496 2496L576 2496L576 64L2496 64Z"  horiz-adv-x="3072" vert-adv-y="4096"  />

      
      <glyph glyph-name="uni0151" unicode="&#x0151;" d="M512 0L512 2560L2560 2560L2560 0L512 0M2496 64L2496 2496L576 2496L576 64L2496 64Z"  horiz-adv-x="3072" vert-adv-y="4096"  />

      
      <glyph glyph-name="uni0154" unicode="&#x0154;" d="M512 0L512 2560L2560 2560L2560 0L512 0M2496 64L2496 2496L576 2496L576 64L2496 64Z"  horiz-adv-x="3072" vert-adv-y="4096"  />

      
      <glyph glyph-name="uni0155" unicode="&#x0155;" d="M512 0L512 2560L2560 2560L2560 0L512 0M2496 64L2496 2496L576 2496L576 64L2496 64Z"  horiz-adv-x="3072" vert-adv-y="4096"  />

      
      <glyph glyph-name="uni0156" unicode="&#x0156;" d="M512 0L512 2560L2560 2560L2560 0L512 0M2496 64L2496 2496L576 2496L576 64L2496 64Z"  horiz-adv-x="3072" vert-adv-y="4096"  />

      
      <glyph glyph-name="uni0157" unicode="&#x0157;" d="M512 0L512 2560L2560 2560L2560 0L512 0M2496 64L2496 2496L576 2496L576 64L2496 64Z"  horiz-adv-x="3072" vert-adv-y="4096"  />

      
      <glyph glyph-name="uni0158" unicode="&#x0158;" d="M512 0L512 2560L2560 2560L2560 0L512 0M2496 64L2496 2496L576 2496L576 64L2496 64Z"  horiz-adv-x="3072" vert-adv-y="4096"  />

      
      <glyph glyph-name="uni0159" unicode="&#x0159;" d="M512 0L512 2560L2560 2560L2560 0L512 0M2496 64L2496 2496L576 2496L576 64L2496 64Z"  horiz-adv-x="3072" vert-adv-y="4096"  />

      
      <glyph glyph-name="uni015A" unicode="&#x015A;" d="M512 0L512 2560L2560 2560L2560 0L512 0M2496 64L2496 2496L576 2496L576 64L2496 64Z"  horiz-adv-x="3072" vert-adv-y="4096"  />

      
      <glyph glyph-name="uni015B" unicode="&#x015B;" d="M512 0L512 2560L2560 2560L2560 0L512 0M2496 64L2496 2496L576 2496L576 64L2496 64Z"  horiz-adv-x="3072" vert-adv-y="4096"  />

      
      <glyph glyph-name="uni015C" unicode="&#x015C;" d="M512 0L512 2560L2560 2560L2560 0L512 0M2496 64L2496 2496L576 2496L576 64L2496 64Z"  horiz-adv-x="3072" vert-adv-y="4096"  />

      
      <glyph glyph-name="uni015D" unicode="&#x015D;" d="M512 0L512 2560L2560 2560L2560 0L512 0M2496 64L2496 2496L576 2496L576 64L2496 64Z"  horiz-adv-x="3072" vert-adv-y="4096"  />

      
      <glyph glyph-name="uni015E" unicode="&#x015E;" d="M512 0L512 2560L2560 2560L2560 0L512 0M2496 64L2496 2496L576 2496L576 64L2496 64Z"  horiz-adv-x="3072" vert-adv-y="4096"  />

      
      <glyph glyph-name="uni015F" unicode="&#x015F;" d="M512 0L512 2560L2560 2560L2560 0L512 0M2496 64L2496 2496L576 2496L576 64L2496 64Z"  horiz-adv-x="3072" vert-adv-y="4096"  />

      
      <glyph glyph-name="uni0179" unicode="&#x0179;" d="M512 0L512 2560L2560 2560L2560 0L512 0M2496 64L2496 2496L576 2496L576 64L2496 64Z"  horiz-adv-x="3072" vert-adv-y="4096"  />

      
      <glyph glyph-name="uni017A" unicode="&#x017A;" d="M512 0L512 2560L2560 2560L2560 0L512 0M2496 64L2496 2496L576 2496L576 64L2496 64Z"  horiz-adv-x="3072" vert-adv-y="4096"  />

      
      <glyph glyph-name="uni017B" unicode="&#x017B;" d="M512 0L512 2560L2560 2560L2560 0L512 0M2496 64L2496 2496L576 2496L576 64L2496 64Z"  horiz-adv-x="3072" vert-adv-y="4096"  />

      
      <glyph glyph-name="uni017C" unicode="&#x017C;" d="M512 0L512 2560L2560 2560L2560 0L512 0M2496 64L2496 2496L576 2496L576 64L2496 64Z"  horiz-adv-x="3072" vert-adv-y="4096"  />

      
      <glyph glyph-name="uni017F" unicode="&#x017F;" d="M512 0L512 2560L2560 2560L2560 0L512 0M2496 64L2496 2496L576 2496L576 64L2496 64Z"  horiz-adv-x="3072" vert-adv-y="4096"  />

      
      <glyph glyph-name="uni0180" unicode="&#x0180;" d="M512 0L512 2560L2560 2560L2560 0L512 0M2496 64L2496 2496L576 2496L576 64L2496 64Z"  horiz-adv-x="3072" vert-adv-y="4096"  />

      
      <glyph glyph-name="uni0181" unicode="&#x0181;" d="M512 0L512 2560L2560 2560L2560 0L512 0M2496 64L2496 2496L576 2496L576 64L2496 64Z"  horiz-adv-x="3072" vert-adv-y="4096"  />

      
      <glyph glyph-name="uni0182" unicode="&#x0182;" d="M512 0L512 2560L2560 2560L2560 0L512 0M2496 64L2496 2496L576 2496L576 64L2496 64Z"  horiz-adv-x="3072" vert-adv-y="4096"  />

      
      <glyph glyph-name="uni0183" unicode="&#x0183;" d="M512 0L512 2560L2560 2560L2560 0L512 0M2496 64L2496 2496L576 2496L576 64L2496 64Z"  horiz-adv-x="3072" vert-adv-y="4096"  />

      
      <glyph glyph-name="uni0184" unicode="&#x0184;" d="M512 0L512 2560L2560 2560L2560 0L512 0M2496 64L2496 2496L576 2496L576 64L2496 64Z"  horiz-adv-x="3072" vert-adv-y="4096"  />

      
      <glyph glyph-name="uni0185" unicode="&#x0185;" d="M512 0L512 2560L2560 2560L2560 0L512 0M2496 64L2496 2496L576 2496L576 64L2496 64Z"  horiz-adv-x="3072" vert-adv-y="4096"  />

      
      <glyph glyph-name="uni0186" unicode="&#x0186;" d="M512 0L512 2560L2560 2560L2560 0L512 0M2496 64L2496 2496L576 2496L576 64L2496 64Z"  horiz-adv-x="3072" vert-adv-y="4096"  />

      
      <glyph glyph-name="uni0187" unicode="&#x0187;" d="M512 0L512 2560L2560 2560L2560 0L512 0M2496 64L2496 2496L576 2496L576 64L2496 64Z"  horiz-adv-x="3072" vert-adv-y="4096"  />

      
      <glyph glyph-name="uni0188" unicode="&#x0188;" d="M512 0L512 2560L2560 2560L2560 0L512 0M2496 64L2496 2496L576 2496L576 64L2496 64Z"  horiz-adv-x="3072" vert-adv-y="4096"  />

      
      <glyph glyph-name="uni0189" unicode="&#x0189;" d="M512 0L512 2560L2560 2560L2560 0L512 0M2496 64L2496 2496L576 2496L576 64L2496 64Z"  horiz-adv-x="3072" vert-adv-y="4096"  />

      
      <glyph glyph-name="uni018A" unicode="&#x018A;" d="M512 0L512 2560L2560 2560L2560 0L512 0M2496 64L2496 2496L576 2496L576 64L2496 64Z"  horiz-adv-x="3072" vert-adv-y="4096"  />

      
      <glyph glyph-name="uni018B" unicode="&#x018B;" d="M512 0L512 2560L2560 2560L2560 0L512 0M2496 64L2496 2496L576 2496L576 64L2496 64Z"  horiz-adv-x="3072" vert-adv-y="4096"  />

      
      <glyph glyph-name="uni018C" unicode="&#x018C;" d="M512 0L512 2560L2560 2560L2560 0L512 0M2496 64L2496 2496L576 2496L576 64L2496 64Z"  horiz-adv-x="3072" vert-adv-y="4096"  />

      
      <glyph glyph-name="uni018D" unicode="&#x018D;" d="M512 0L512 2560L2560 2560L2560 0L512 0M2496 64L2496 2496L576 2496L576 64L2496 64Z"  horiz-adv-x="3072" vert-adv-y="4096"  />

      
      <glyph glyph-name="uni018E" unicode="&#x018E;" d="M512 0L512 2560L2560 2560L2560 0L512 0M2496 64L2496 2496L576 2496L576 64L2496 64Z"  horiz-adv-x="3072" vert-adv-y="4096"  />

      
      <glyph glyph-name="uni018F" unicode="&#x018F;" d="M512 0L512 2560L2560 2560L2560 0L512 0M2496 64L2496 2496L576 2496L576 64L2496 64Z"  horiz-adv-x="3072" vert-adv-y="4096"  />

      
      <glyph glyph-name="uni0190" unicode="&#x0190;" d="M512 0L512 2560L2560 2560L2560 0L512 0M2496 64L2496 2496L576 2496L576 64L2496 64Z"  horiz-adv-x="3072" vert-adv-y="4096"  />

      
      <glyph glyph-name="uni0191" unicode="&#x0191;" d="M512 0L512 2560L2560 2560L2560 0L512 0M2496 64L2496 2496L576 2496L576 64L2496 64Z"  horiz-adv-x="3072" vert-adv-y="4096"  />

      
      <glyph glyph-name="uni02C8" unicode="&#x02C8;" d="M512 0L512 2560L2560 2560L2560 0L512 0M2496 64L2496 2496L576 2496L576 64L2496 64Z"  horiz-adv-x="3072" vert-adv-y="4096"  />

      
      <glyph glyph-name="uni02C9" unicode="&#x02C9;" d="M512 0L512 2560L2560 2560L2560 0L512 0M2496 64L2496 2496L576 2496L576 64L2496 64Z"  horiz-adv-x="3072" vert-adv-y="4096"  />

      
      <glyph glyph-name="uni02CA" unicode="&#x02CA;" d="M512 0L512 2560L2560 2560L2560 0L512 0M2496 64L2496 2496L576 2496L576 64L2496 64Z"  horiz-adv-x="3072" vert-adv-y="4096"  />

      
      <glyph glyph-name="uni02CB" unicode="&#x02CB;" d="M512 0L512 2560L2560 2560L2560 0L512 0M2496 64L2496 2496L576 2496L576 64L2496 64Z"  horiz-adv-x="3072" vert-adv-y="4096"  />

      
      <glyph glyph-name="uni02CC" unicode="&#x02CC;" d="M512 0L512 2560L2560 2560L2560 0L512 0M2496 64L2496 2496L576 2496L576 64L2496 64Z"  horiz-adv-x="3072" vert-adv-y="4096"  />

      
      <glyph glyph-name="uni02CD" unicode="&#x02CD;" d="M512 0L512 2560L2560 2560L2560 0L512 0M2496 64L2496 2496L576 2496L576 64L2496 64Z"  horiz-adv-x="3072" vert-adv-y="4096"  />

      
      <glyph glyph-name="uni02CE" unicode="&#x02CE;" d="M512 0L512 2560L2560 2560L2560 0L512 0M2496 64L2496 2496L576 2496L576 64L2496 64Z"  horiz-adv-x="3072" vert-adv-y="4096"  />

      
      <glyph glyph-name="uni02CF" unicode="&#x02CF;" d="M512 0L512 2560L2560 2560L2560 0L512 0M2496 64L2496 2496L576 2496L576 64L2496 64Z"  horiz-adv-x="3072" vert-adv-y="4096"  />

      
      <glyph glyph-name="uni02D0" unicode="&#x02D0;" d="M512 0L512 2560L2560 2560L2560 0L512 0M2496 64L2496 2496L576 2496L576 64L2496 64Z"  horiz-adv-x="3072" vert-adv-y="4096"  />

      
      <glyph glyph-name="uni02D1" unicode="&#x02D1;" d="M512 0L512 2560L2560 2560L2560 0L512 0M2496 64L2496 2496L576 2496L576 64L2496 64Z"  horiz-adv-x="3072" vert-adv-y="4096"  />

      
      <glyph glyph-name="uni02D2" unicode="&#x02D2;" d="M512 0L512 2560L2560 2560L2560 0L512 0M2496 64L2496 2496L576 2496L576 64L2496 64Z"  horiz-adv-x="3072" vert-adv-y="4096"  />

      
      <glyph glyph-name="uni02D3" unicode="&#x02D3;" d="M512 0L512 2560L2560 2560L2560 0L512 0M2496 64L2496 2496L576 2496L576 64L2496 64Z"  horiz-adv-x="3072" vert-adv-y="4096"  />

      
      <glyph glyph-name="uni02D4" unicode="&#x02D4;" d="M512 0L512 2560L2560 2560L2560 0L512 0M2496 64L2496 2496L576 2496L576 64L2496 64Z"  horiz-adv-x="3072" vert-adv-y="4096"  />

      
      <glyph glyph-name="uni02D5" unicode="&#x02D5;" d="M512 0L512 2560L2560 2560L2560 0L512 0M2496 64L2496 2496L576 2496L576 64L2496 64Z"  horiz-adv-x="3072" vert-adv-y="4096"  />

      
      <glyph glyph-name="uni02D6" unicode="&#x02D6;" d="M512 0L512 2560L2560 2560L2560 0L512 0M2496 64L2496 2496L576 2496L576 64L2496 64Z"  horiz-adv-x="3072" vert-adv-y="4096"  />

      
      <glyph glyph-name="uni02D7" unicode="&#x02D7;" d="M512 0L512 2560L2560 2560L2560 0L512 0M2496 64L2496 2496L576 2496L576 64L2496 64Z"  horiz-adv-x="3072" vert-adv-y="4096"  />

      
      <glyph glyph-name="uni2015" unicode="&#x2015;" d="M512 0L512 2560L2560 2560L2560 0L512 0M2496 64L2496 2496L576 2496L576 64L2496 64Z"  horiz-adv-x="3072" vert-adv-y="4096"  />

      
      <glyph glyph-name="uni2016" unicode="&#x2016;" d="M512 0L512 2560L2560 2560L2560 0L512 0M2496 64L2496 2496L576 2496L576 64L2496 64Z"  horiz-adv-x="3072" vert-adv-y="4096"  />

      
      <glyph glyph-name="uni2017" unicode="&#x2017;" d="M512 0L512 2560L2560 2560L2560 0L512 0M2496 64L2496 2496L576 2496L576 64L2496 64Z"  horiz-adv-x="3072" vert-adv-y="4096"  />

      
      <glyph glyph-name="uni201B" unicode="&#x201B;" d="M512 0L512 2560L2560 2560L2560 0L512 0M2496 64L2496 2496L576 2496L576 64L2496 64Z"  horiz-adv-x="3072" vert-adv-y="4096"  />

      
      <glyph glyph-name="uni201F" unicode="&#x201F;" d="M512 0L512 2560L2560 2560L2560 0L512 0M2496 64L2496 2496L576 2496L576 64L2496 64Z"  horiz-adv-x="3072" vert-adv-y="4096"  />

      
      <glyph glyph-name="uni2023" unicode="&#x2023;" d="M512 0L512 2560L2560 2560L2560 0L512 0M2496 64L2496 2496L576 2496L576 64L2496 64Z"  horiz-adv-x="3072" vert-adv-y="4096"  />

      
      <glyph glyph-name="uni2024" unicode="&#x2024;" d="M512 0L512 2560L2560 2560L2560 0L512 0M2496 64L2496 2496L576 2496L576 64L2496 64Z"  horiz-adv-x="3072" vert-adv-y="4096"  />

      
      <glyph glyph-name="uni2025" unicode="&#x2025;" d="M512 0L512 2560L2560 2560L2560 0L512 0M2496 64L2496 2496L576 2496L576 64L2496 64Z"  horiz-adv-x="3072" vert-adv-y="4096"  />

      
      <glyph glyph-name="uni2027" unicode="&#x2027;" d="M512 0L512 2560L2560 2560L2560 0L512 0M2496 64L2496 2496L576 2496L576 64L2496 64Z"  horiz-adv-x="3072" vert-adv-y="4096"  />

      
      <glyph glyph-name="uni2028" unicode="&#x2028;" d="M512 0L512 2560L2560 2560L2560 0L512 0M2496 64L2496 2496L576 2496L576 64L2496 64Z"  horiz-adv-x="3072" vert-adv-y="4096"  />

      
      <glyph glyph-name="uni2029" unicode="&#x2029;" d="M512 0L512 2560L2560 2560L2560 0L512 0M2496 64L2496 2496L576 2496L576 64L2496 64Z"  horiz-adv-x="3072" vert-adv-y="4096"  />

      
      <glyph glyph-name="uni202A" unicode="&#x202A;" d="M512 0L512 2560L2560 2560L2560 0L512 0M2496 64L2496 2496L576 2496L576 64L2496 64Z"  horiz-adv-x="3072" vert-adv-y="4096"  />

      
      <glyph glyph-name="uni202B" unicode="&#x202B;" d="M512 0L512 2560L2560 2560L2560 0L512 0M2496 64L2496 2496L576 2496L576 64L2496 64Z"  horiz-adv-x="3072" vert-adv-y="4096"  />

      
      <glyph glyph-name="uni202C" unicode="&#x202C;" d="M512 0L512 2560L2560 2560L2560 0L512 0M2496 64L2496 2496L576 2496L576 64L2496 64Z"  horiz-adv-x="3072" vert-adv-y="4096"  />

      
      <glyph glyph-name="uni202D" unicode="&#x202D;" d="M512 0L512 2560L2560 2560L2560 0L512 0M2496 64L2496 2496L576 2496L576 64L2496 64Z"  horiz-adv-x="3072" vert-adv-y="4096"  />

      
      <glyph glyph-name="uni202E" unicode="&#x202E;" d="M512 0L512 2560L2560 2560L2560 0L512 0M2496 64L2496 2496L576 2496L576 64L2496 64Z"  horiz-adv-x="3072" vert-adv-y="4096"  />

      
      <glyph glyph-name="uni202F" unicode="&#x202F;" d="M512 0L512 2560L2560 2560L2560 0L512 0M2496 64L2496 2496L576 2496L576 64L2496 64Z"  horiz-adv-x="3072" vert-adv-y="4096"  />

      
      <glyph glyph-name="uni2031" unicode="&#x2031;" d="M512 0L512 2560L2560 2560L2560 0L512 0M2496 64L2496 2496L576 2496L576 64L2496 64Z"  horiz-adv-x="3072" vert-adv-y="4096"  />

      
      <glyph glyph-name="uni2032" unicode="&#x2032;" d="M512 0L512 2560L2560 2560L2560 0L512 0M2496 64L2496 2496L576 2496L576 64L2496 64Z"  horiz-adv-x="3072" vert-adv-y="4096"  />

      
      <glyph glyph-name="uni2033" unicode="&#x2033;" d="M512 0L512 2560L2560 2560L2560 0L512 0M2496 64L2496 2496L576 2496L576 64L2496 64Z"  horiz-adv-x="3072" vert-adv-y="4096"  />

      
      <glyph glyph-name="uni2034" unicode="&#x2034;" d="M512 0L512 2560L2560 2560L2560 0L512 0M2496 64L2496 2496L576 2496L576 64L2496 64Z"  horiz-adv-x="3072" vert-adv-y="4096"  />

      
      <glyph glyph-name="uni2035" unicode="&#x2035;" d="M512 0L512 2560L2560 2560L2560 0L512 0M2496 64L2496 2496L576 2496L576 64L2496 64Z"  horiz-adv-x="3072" vert-adv-y="4096"  />

      
      <glyph glyph-name="uni2036" unicode="&#x2036;" d="M512 0L512 2560L2560 2560L2560 0L512 0M2496 64L2496 2496L576 2496L576 64L2496 64Z"  horiz-adv-x="3072" vert-adv-y="4096"  />

      
      <glyph glyph-name="uni2037" unicode="&#x2037;" d="M512 0L512 2560L2560 2560L2560 0L512 0M2496 64L2496 2496L576 2496L576 64L2496 64Z"  horiz-adv-x="3072" vert-adv-y="4096"  />

      
      <glyph glyph-name="uni2038" unicode="&#x2038;" d="M512 0L512 2560L2560 2560L2560 0L512 0M2496 64L2496 2496L576 2496L576 64L2496 64Z"  horiz-adv-x="3072" vert-adv-y="4096"  />

      
      <glyph glyph-name="uni203B" unicode="&#x203B;" d="M512 0L512 2560L2560 2560L2560 0L512 0M2496 64L2496 2496L576 2496L576 64L2496 64Z"  horiz-adv-x="3072" vert-adv-y="4096"  />

      
      <glyph glyph-name="uni203C" unicode="&#x203C;" d="M512 0L512 2560L2560 2560L2560 0L512 0M2496 64L2496 2496L576 2496L576 64L2496 64Z"  horiz-adv-x="3072" vert-adv-y="4096"  />

      
      <glyph glyph-name="uni203D" unicode="&#x203D;" d="M512 0L512 2560L2560 2560L2560 0L512 0M2496 64L2496 2496L576 2496L576 64L2496 64Z"  horiz-adv-x="3072" vert-adv-y="4096"  />

      
      <glyph glyph-name="uni203E" unicode="&#x203E;" d="M512 0L512 2560L2560 2560L2560 0L512 0M2496 64L2496 2496L576 2496L576 64L2496 64Z"  horiz-adv-x="3072" vert-adv-y="4096"  />

      
      <glyph glyph-name="uni203F" unicode="&#x203F;" d="M512 0L512 2560L2560 2560L2560 0L512 0M2496 64L2496 2496L576 2496L576 64L2496 64Z"  horiz-adv-x="3072" vert-adv-y="4096"  />

      
      <glyph glyph-name="uni2040" unicode="&#x2040;" d="M512 0L512 2560L2560 2560L2560 0L512 0M2496 64L2496 2496L576 2496L576 64L2496 64Z"  horiz-adv-x="3072" vert-adv-y="4096"  />

      
      <glyph glyph-name="uni2041" unicode="&#x2041;" d="M512 0L512 2560L2560 2560L2560 0L512 0M2496 64L2496 2496L576 2496L576 64L2496 64Z"  horiz-adv-x="3072" vert-adv-y="4096"  />

      
      <glyph glyph-name="uni2042" unicode="&#x2042;" d="M512 0L512 2560L2560 2560L2560 0L512 0M2496 64L2496 2496L576 2496L576 64L2496 64Z"  horiz-adv-x="3072" vert-adv-y="4096"  />

      
      <glyph glyph-name="uni2043" unicode="&#x2043;" d="M512 0L512 2560L2560 2560L2560 0L512 0M2496 64L2496 2496L576 2496L576 64L2496 64Z"  horiz-adv-x="3072" vert-adv-y="4096"  />

      
      <glyph glyph-name="uni41" unicode="&#x41;" d="M1991 1016L635 1016L221 0L20 0L1315 3191L2605 0L2404 0L1991 1016M1917 1200L1315 2691L709 1200L1917 1200Z"  horiz-adv-x="2626" vert-adv-y="4096"  />

      
      <glyph glyph-name="unic6" unicode="&#xc6;" d="M1966 1016L643 1016L242 0L20 0L1266 3088L2613 3088L2683 2904L1409 2904L1868 1782L3109 1782L3187 1597L1946 1597L2519 184L3797 184L3871 0L2376 0L1966 1016M1888 1200L1298 2654L721 1200L1888 1200Z"  horiz-adv-x="3858" vert-adv-y="4096"  />

      
      <glyph glyph-name="unic1" unicode="&#xc1;" d="M1991 1016L635 1016L221 0L20 0L1315 3191L2605 0L2404 0L1991 1016M1917 1200L1315 2691L709 1200L1917 1200M1393 4121L1643 4043L1135 3449L979 3518L1393 4121Z"  horiz-adv-x="2626" vert-adv-y="4096"  />

      
      <glyph glyph-name="unic2" unicode="&#xc2;" d="M1991 1016L635 1016L221 0L20 0L1315 3191L2605 0L2404 0L1991 1016M1917 1200L1315 2691L709 1200L1917 1200M749 3604L1314 4039L1880 3604L1724 3486L1314 3801L897 3486L749 3604Z"  horiz-adv-x="2626" vert-adv-y="4096"  />

      
      <glyph glyph-name="unic4" unicode="&#xc4;" d="M1991 1016L635 1016L221 0L20 0L1315 3191L2605 0L2404 0L1991 1016M1917 1200L1315 2691L709 1200L1917 1200M930 3957Q998 3957 1046 3909Q1094 3861 1094 3793Q1094 3725 1045 3677Q996 3629 930 3629Q864 3629 815 3678Q766 3727 766 3793Q766 3859 814 3908Q862 3957 930 3957M1696 3957Q1764 3957 1812 3909Q1860 3861 1860 3793Q1860 3725 1811 3677Q1762 3629 1696 3629Q1630 3629 1581 3678Q1532 3727 1532 3793Q1532 3859 1580 3908Q1628 3957 1696 3957Z"  horiz-adv-x="2626" vert-adv-y="4096"  />

      
      <glyph glyph-name="unic0" unicode="&#xc0;" d="M1991 1016L635 1016L221 0L20 0L1315 3191L2605 0L2404 0L1991 1016M1917 1200L1315 2691L709 1200L1917 1200M979 4043L1229 4121L1643 3518L1487 3449L979 4043Z"  horiz-adv-x="2626" vert-adv-y="4096"  />

      
      <glyph glyph-name="unic5" unicode="&#xc5;" d="M1991 1016L635 1016L221 0L20 0L1315 3191L2605 0L2404 0L1991 1016M1917 1200L1315 2691L709 1200L1917 1200M1315 4121Q1462 4121 1566.50 4016.50Q1671 3912 1671 3764Q1671 3617 1566.50 3512.50Q1462 3408 1315 3408Q1166 3408 1062 3512Q958 3616 958 3764Q958 3913 1062 4017Q1166 4121 1315 4121M1315 3957Q1234 3957 1178 3900Q1122 3843 1122 3764Q1122 3686 1179 3629Q1236 3572 1315 3572Q1393 3572 1450 3628Q1507 3684 1507 3764Q1507 3845 1451 3901Q1395 3957 1315 3957Z"  horiz-adv-x="2626" vert-adv-y="4096"  />

      
      <glyph glyph-name="unic3" unicode="&#xc3;" d="M1991 1016L635 1016L221 0L20 0L1315 3191L2605 0L2404 0L1991 1016M1917 1200L1315 2691L709 1200L1917 1200M844 3596L721 3686Q765 3794 849.50 3871.50Q934 3949 1041 3949Q1137 3949 1327 3871Q1359 3859 1415 3835.50Q1471 3812 1510.50 3800.50Q1550 3789 1585 3789Q1655 3789 1707 3838Q1759 3887 1782 3957L1901 3867Q1874 3755 1778 3677.50Q1682 3600 1569 3600Q1499 3600 1303 3682Q1115 3764 1024 3764Q901 3764 844 3596Z"  horiz-adv-x="2626" vert-adv-y="4096"  />

      
      <glyph glyph-name="uni42" unicode="&#x42;" d="M528 1503L528 184L999 184Q1219 184 1361.50 204Q1504 224 1630 303Q1933 507 1933 852Q1933 1028 1849 1180Q1765 1332 1614 1405Q1417 1503 963 1503L528 1503M1122 0L332 0L332 3088L950 3088Q1163 3088 1313.50 3053.50Q1464 3019 1589 2908Q1847 2684 1847 2269Q1847 1841 1491 1638Q1678 1600 1824 1490.50Q1970 1381 2050 1218Q2130 1055 2130 860Q2130 465 1843 221Q1693 94 1523 47Q1353 0 1122 0M528 2904L528 1688L868 1688L967 1688Q1115 1688 1219.50 1709.50Q1324 1731 1421 1802Q1550 1896 1600.50 2012Q1651 2128 1651 2298Q1651 2458 1588 2592Q1525 2726 1397 2806Q1292 2872 1172 2888Q1052 2904 868 2904L528 2904Z"  horiz-adv-x="2314" vert-adv-y="4096"  />

      
      <glyph glyph-name="uni43" unicode="&#x43;" d="M2785 2728L2785 2458Q2607 2676 2321 2810.50Q2035 2945 1749 2945Q1465 2945 1209.50 2831.50Q954 2718 758.50 2518.50Q563 2319 453.50 2060.50Q344 1802 344 1524Q344 1257 454 1008.50Q564 760 758 569Q960 378 1222 260.50Q1484 143 1749 143Q1928 143 2126 203.50Q2324 264 2499 372Q2674 480 2785 614L2785 344Q2322-41 1757-41Q1335-41 963 173.50Q591 388 369 753Q147 1118 147 1540Q147 1969 366.50 2335Q586 2701 958 2915Q1330 3129 1761 3129Q1947 3129 2129.50 3082.50Q2312 3036 2479.50 2946Q2647 2856 2785 2728Z"  horiz-adv-x="3027" vert-adv-y="4096"  />

      
      <glyph glyph-name="unic7" unicode="&#xc7;" d="M2785 2728L2785 2458Q2607 2676 2321 2810.50Q2035 2945 1749 2945Q1465 2945 1209.50 2831.50Q954 2718 758.50 2518.50Q563 2319 453.50 2060.50Q344 1802 344 1524Q344 1257 454 1008.50Q564 760 758 569Q960 378 1222 260.50Q1484 143 1749 143Q1928 143 2126 203.50Q2324 264 2499 372Q2674 480 2785 614L2785 344Q2322-41 1757-41Q1335-41 963 173.50Q591 388 369 753Q147 1118 147 1540Q147 1969 366.50 2335Q586 2701 958 2915Q1330 3129 1761 3129Q1947 3129 2129.50 3082.50Q2312 3036 2479.50 2946Q2647 2856 2785 2728M1819-172L1364-750L1208-672L1589-82L1819-172Z"  horiz-adv-x="3027" vert-adv-y="4096"  />

      
      <glyph glyph-name="uni44" unicode="&#x44;" d="M332 0L332 3088L889 3088Q1130 3088 1323 3055.50Q1516 3023 1694.50 2936.50Q1873 2850 2036 2699Q2274 2478 2400.50 2176Q2527 1874 2527 1540Q2527 1217 2404.50 924Q2282 631 2052 410Q1928 290 1794.50 209.50Q1661 129 1518 83.50Q1375 38 1224 19Q1073 0 889 0L332 0M528 184L885 184Q1209 184 1459.50 266.50Q1710 349 1921 557Q2119 755 2225 1009Q2331 1263 2331 1540Q2331 1836 2215 2104Q2099 2372 1884 2568Q1676 2756 1437.50 2830Q1199 2904 885 2904L528 2904L528 184Z"  horiz-adv-x="2671" vert-adv-y="4096"  />

      
      <glyph glyph-name="uni45" unicode="&#x45;" d="M1806 2904L528 2904L528 1782L1774 1782L1774 1597L528 1597L528 184L1806 184L1806 0L332 0L332 3088L1806 3088L1806 2904Z"  horiz-adv-x="2077" vert-adv-y="4096"  />

      
      <glyph glyph-name="unic9" unicode="&#xc9;" d="M1806 2904L528 2904L528 1782L1774 1782L1774 1597L528 1597L528 184L1806 184L1806 0L332 0L332 3088L1806 3088L1806 2904M1118 4121L1368 4043L860 3449L704 3518L1118 4121Z"  horiz-adv-x="2077" vert-adv-y="4096"  />

      
      <glyph glyph-name="unica" unicode="&#xca;" d="M1806 2904L528 2904L528 1782L1774 1782L1774 1597L528 1597L528 184L1806 184L1806 0L332 0L332 3088L1806 3088L1806 2904M475 3604L1040 4039L1606 3604L1450 3486L1040 3801L623 3486L475 3604Z"  horiz-adv-x="2077" vert-adv-y="4096"  />

      
      <glyph glyph-name="unicb" unicode="&#xcb;" d="M1806 2904L528 2904L528 1782L1774 1782L1774 1597L528 1597L528 184L1806 184L1806 0L332 0L332 3088L1806 3088L1806 2904M655 3957Q723 3957 771 3909Q819 3861 819 3793Q819 3725 770 3677Q721 3629 655 3629Q589 3629 540 3678Q491 3727 491 3793Q491 3859 539 3908Q587 3957 655 3957M1421 3957Q1489 3957 1537 3909Q1585 3861 1585 3793Q1585 3725 1536 3677Q1487 3629 1421 3629Q1355 3629 1306 3678Q1257 3727 1257 3793Q1257 3859 1305 3908Q1353 3957 1421 3957Z"  horiz-adv-x="2077" vert-adv-y="4096"  />

      
      <glyph glyph-name="unic8" unicode="&#xc8;" d="M1806 2904L528 2904L528 1782L1774 1782L1774 1597L528 1597L528 184L1806 184L1806 0L332 0L332 3088L1806 3088L1806 2904M704 4043L954 4121L1368 3518L1212 3449L704 4043Z"  horiz-adv-x="2077" vert-adv-y="4096"  />

      
      <glyph glyph-name="unid0" unicode="&#xd0;" d="M1925 1487L3228 1487Q3228 1276 3202.50 1099.50Q3177 923 3105.50 761.50Q3034 600 2904 459Q2687 223 2374.50 91Q2062-41 1733-41Q1418-41 1129.50 83Q841 207 619.50 427Q398 647 272.50 933Q147 1219 147 1532Q147 1965 364 2333Q581 2701 951.50 2915Q1322 3129 1757 3129Q2030 3129 2276 3042.50Q2522 2956 2727 2794Q2932 2632 3097 2408L2937 2281Q2838 2432 2706 2557.50Q2574 2683 2425 2768.50Q2276 2854 2103 2899.50Q1930 2945 1745 2945Q1378 2945 1053 2750Q728 2555 536 2232Q344 1909 344 1544Q344 1172 533 848Q722 524 1045 333.50Q1368 143 1745 143Q2231 143 2654 483Q2783 593 2865 718.50Q2947 844 2986 988Q3025 1132 3031 1303L1925 1303L1925 1487M1093 3793L1273 3793Q1353 3543 1675 3543Q1997 3543 2076 3793L2252 3793Q2229 3589 2060 3474Q1891 3359 1675 3359Q1458 3359 1289 3473.50Q1120 3588 1093 3793Z"  horiz-adv-x="3375" vert-adv-y="4096"  />

      
      <glyph glyph-name="uni46" unicode="&#x46;" d="M1577 2904L528 2904L528 1782L1548 1782L1548 1597L528 1597L528 0L332 0L332 3088L1577 3088L1577 2904Z"  horiz-adv-x="1819" vert-adv-y="4096"  />

      
      <glyph glyph-name="uni47" unicode="&#x47;" d="M1925 1487L3228 1487Q3228 1276 3202.50 1099.50Q3177 923 3105.50 761.50Q3034 600 2904 459Q2687 223 2374.50 91Q2062-41 1733-41Q1418-41 1129.50 83Q841 207 619.50 427Q398 647 272.50 933Q147 1219 147 1532Q147 1965 364 2333Q581 2701 951.50 2915Q1322 3129 1757 3129Q2030 3129 2276 3042.50Q2522 2956 2727 2794Q2932 2632 3097 2408L2937 2281Q2838 2432 2706 2557.50Q2574 2683 2425 2768.50Q2276 2854 2103 2899.50Q1930 2945 1745 2945Q1378 2945 1053 2750Q728 2555 536 2232Q344 1909 344 1544Q344 1172 533 848Q722 524 1045 333.50Q1368 143 1745 143Q2231 143 2654 483Q2783 593 2865 718.50Q2947 844 2986 988Q3025 1132 3031 1303L1925 1303L1925 1487Z"  horiz-adv-x="3375" vert-adv-y="4096"  />

      
      <glyph glyph-name="uni48" unicode="&#x48;" d="M528 1778L2404 1778L2404 3088L2601 3088L2601 0L2404 0L2404 1593L528 1593L528 0L332 0L332 3088L528 3088L528 1778Z"  horiz-adv-x="2933" vert-adv-y="4096"  />

      
      <glyph glyph-name="uni49" unicode="&#x49;" d="M528 3088L528 0L332 0L332 3088L528 3088Z"  horiz-adv-x="860" vert-adv-y="4096"  />

      
      <glyph glyph-name="unicd" unicode="&#xcd;" d="M528 3088L528 0L332 0L332 3088L528 3088M512 4121L762 4043L254 3449L98 3518L512 4121Z"  horiz-adv-x="860" vert-adv-y="4096"  />

      
      <glyph glyph-name="unice" unicode="&#xce;" d="M528 3088L528 0L332 0L332 3088L528 3088M-135 3604L430 4039L996 3604L840 3486L430 3801L13 3486L-135 3604Z"  horiz-adv-x="861" vert-adv-y="4096"  />

      
      <glyph glyph-name="unicf" unicode="&#xcf;" d="M528 3088L528 0L332 0L332 3088L528 3088M49 3957Q117 3957 165 3909Q213 3861 213 3793Q213 3725 164 3677Q115 3629 49 3629Q-17 3629-66 3678Q-115 3727-115 3793Q-115 3859-67 3908Q-19 3957 49 3957M815 3957Q883 3957 931 3909Q979 3861 979 3793Q979 3725 930 3677Q881 3629 815 3629Q749 3629 700 3678Q651 3727 651 3793Q651 3859 699 3908Q747 3957 815 3957Z"  horiz-adv-x="860" vert-adv-y="4096"  />

      
      <glyph glyph-name="unicc" unicode="&#xcc;" d="M528 3088L528 0L332 0L332 3088L528 3088M98 4043L348 4121L762 3518L606 3449L98 4043Z"  horiz-adv-x="860" vert-adv-y="4096"  />

      
      <glyph glyph-name="uni4a" unicode="&#x4a;" d="M365 3088L561 3088L561 57Q561-157 516-311Q471-465 350.50-556Q230-647 16-647Q-150-647-286-556Q-422-465-496-311L-348-201Q-293-316-189.50-389.50Q-86-463 33-463Q239-463 302-319.50Q365-176 365 57L365 3088Z"  horiz-adv-x="893" vert-adv-y="4096"  />

      
      <glyph glyph-name="uni4b" unicode="&#x4b;" d="M528 1647L1995 3088L2257 3088L745 1602L2351 0L2093 0L610 1475L528 1393L528 0L332 0L332 3088L528 3088L528 1647Z"  horiz-adv-x="2331" vert-adv-y="4096"  />

      
      <glyph glyph-name="uni4c" unicode="&#x4c;" d="M528 3088L528 184L1315 184L1315 0L332 0L332 3088L528 3088Z"  horiz-adv-x="1339" vert-adv-y="4096"  />

      
      <glyph glyph-name="uni0141" unicode="&#x0141;" d="M528 1786L1053 2171L1053 1942L528 1552L528 184L1315 184L1315 0L332 0L332 1454L0 1208L0 1442L332 1683L332 3088L528 3088L528 1786Z"  horiz-adv-x="1339" vert-adv-y="4096"  />

      
      <glyph glyph-name="uni4d" unicode="&#x4d;" d="M3449 0L2920 2556L2912 2556L1835-102L762 2556L754 2556L225 0L37 0L700 3191L1835 381L2974 3191L3637 0L3449 0Z"  horiz-adv-x="3674" vert-adv-y="4096"  />

      
      <glyph glyph-name="uni4e" unicode="&#x4e;" d="M3121 3088L3121-102L528 2654L528 0L332 0L332 3129L2925 393L2925 3088L3121 3088Z"  horiz-adv-x="3453" vert-adv-y="4096"  />

      
      <glyph glyph-name="unid1" unicode="&#xd1;" d="M3121 3088L3121-102L528 2654L528 0L332 0L332 3129L2925 393L2925 3088L3121 3088M1257 3596L1134 3686Q1178 3794 1262.50 3871.50Q1347 3949 1454 3949Q1550 3949 1740 3871Q1772 3859 1828 3835.50Q1884 3812 1923.50 3800.50Q1963 3789 1998 3789Q2068 3789 2120 3838Q2172 3887 2195 3957L2314 3867Q2287 3755 2191 3677.50Q2095 3600 1982 3600Q1912 3600 1716 3682Q1528 3764 1437 3764Q1314 3764 1257 3596Z"  horiz-adv-x="3453" vert-adv-y="4096"  />

      
      <glyph glyph-name="uni4f" unicode="&#x4f;" d="M1749 3129Q2175 3129 2544.50 2915Q2914 2701 3132.50 2335Q3351 1969 3351 1544Q3351 1119 3132.50 753.50Q2914 388 2544.50 173.50Q2175-41 1749-41Q1323-41 953.50 173.50Q584 388 365.50 753.50Q147 1119 147 1544Q147 1863 272 2152Q397 2441 621 2662Q845 2883 1136.50 3006Q1428 3129 1749 3129M1749 2945Q1372 2945 1048.50 2755Q725 2565 534.50 2241Q344 1917 344 1544Q344 1171 534.50 847Q725 523 1048.50 333Q1372 143 1749 143Q2124 143 2448.50 334.50Q2773 526 2963.50 848.50Q3154 1171 3154 1544Q3154 1824 3043 2081Q2932 2338 2738.50 2531Q2545 2724 2288 2834.50Q2031 2945 1749 2945Z"  horiz-adv-x="3498" vert-adv-y="4096"  />

      
      <glyph glyph-name="uni0152" unicode="&#x0152;" d="M3142 0L3142 795L3133 795Q3011 540 2793.50 350Q2576 160 2303 59.50Q2030-41 1745-41Q1442-41 1152.50 77Q863 195 639 406Q403 632 275 925Q147 1218 147 1544Q147 1976 366 2340Q585 2704 957.50 2916.50Q1330 3129 1761 3129Q2045 3129 2313.50 3025Q2582 2921 2796 2729Q3010 2537 3133 2286L3142 2286L3142 3088L4616 3088L4616 2904L3338 2904L3338 1782L4588 1782L4588 1597L3338 1597L3338 184L4616 184L4616 0L3142 0M1757 2945Q1385 2945 1058.50 2754Q732 2563 538 2239.50Q344 1916 344 1544Q344 1356 394.50 1175Q445 994 541.50 834Q638 674 774 545Q898 422 1058 330.50Q1218 239 1396 191Q1574 143 1749 143Q2030 143 2294.50 258Q2559 373 2757 578Q2877 704 2964 860Q3051 1016 3094.50 1191Q3138 1366 3138 1544Q3138 1916 2953 2239.50Q2768 2563 2449 2754Q2130 2945 1757 2945Z"  horiz-adv-x="4887" vert-adv-y="4096"  />

      
      <glyph glyph-name="unid3" unicode="&#xd3;" d="M1749 3129Q2175 3129 2544.50 2915Q2914 2701 3132.50 2335Q3351 1969 3351 1544Q3351 1119 3132.50 753.50Q2914 388 2544.50 173.50Q2175-41 1749-41Q1323-41 953.50 173.50Q584 388 365.50 753.50Q147 1119 147 1544Q147 1863 272 2152Q397 2441 621 2662Q845 2883 1136.50 3006Q1428 3129 1749 3129M1749 2945Q1372 2945 1048.50 2755Q725 2565 534.50 2241Q344 1917 344 1544Q344 1171 534.50 847Q725 523 1048.50 333Q1372 143 1749 143Q2124 143 2448.50 334.50Q2773 526 2963.50 848.50Q3154 1171 3154 1544Q3154 1824 3043 2081Q2932 2338 2738.50 2531Q2545 2724 2288 2834.50Q2031 2945 1749 2945M1831 4121L2081 4043L1573 3449L1417 3518L1831 4121Z"  horiz-adv-x="3498" vert-adv-y="4096"  />

      
      <glyph glyph-name="unid4" unicode="&#xd4;" d="M1749 3129Q2175 3129 2544.50 2915Q2914 2701 3132.50 2335Q3351 1969 3351 1544Q3351 1119 3132.50 753.50Q2914 388 2544.50 173.50Q2175-41 1749-41Q1323-41 953.50 173.50Q584 388 365.50 753.50Q147 1119 147 1544Q147 1863 272 2152Q397 2441 621 2662Q845 2883 1136.50 3006Q1428 3129 1749 3129M1749 2945Q1372 2945 1048.50 2755Q725 2565 534.50 2241Q344 1917 344 1544Q344 1171 534.50 847Q725 523 1048.50 333Q1372 143 1749 143Q2124 143 2448.50 334.50Q2773 526 2963.50 848.50Q3154 1171 3154 1544Q3154 1824 3043 2081Q2932 2338 2738.50 2531Q2545 2724 2288 2834.50Q2031 2945 1749 2945M1184 3604L1749 4039L2315 3604L2159 3486L1749 3801L1332 3486L1184 3604Z"  horiz-adv-x="3498" vert-adv-y="4096"  />

      
      <glyph glyph-name="unid6" unicode="&#xd6;" d="M1749 3129Q2175 3129 2544.50 2915Q2914 2701 3132.50 2335Q3351 1969 3351 1544Q3351 1119 3132.50 753.50Q2914 388 2544.50 173.50Q2175-41 1749-41Q1323-41 953.50 173.50Q584 388 365.50 753.50Q147 1119 147 1544Q147 1863 272 2152Q397 2441 621 2662Q845 2883 1136.50 3006Q1428 3129 1749 3129M1749 2945Q1372 2945 1048.50 2755Q725 2565 534.50 2241Q344 1917 344 1544Q344 1171 534.50 847Q725 523 1048.50 333Q1372 143 1749 143Q2124 143 2448.50 334.50Q2773 526 2963.50 848.50Q3154 1171 3154 1544Q3154 1824 3043 2081Q2932 2338 2738.50 2531Q2545 2724 2288 2834.50Q2031 2945 1749 2945M1368 3957Q1436 3957 1484 3909Q1532 3861 1532 3793Q1532 3725 1483 3677Q1434 3629 1368 3629Q1302 3629 1253 3678Q1204 3727 1204 3793Q1204 3859 1252 3908Q1300 3957 1368 3957M2134 3957Q2202 3957 2250 3909Q2298 3861 2298 3793Q2298 3725 2249 3677Q2200 3629 2134 3629Q2068 3629 2019 3678Q1970 3727 1970 3793Q1970 3859 2018 3908Q2066 3957 2134 3957Z"  horiz-adv-x="3498" vert-adv-y="4096"  />

      
      <glyph glyph-name="unid2" unicode="&#xd2;" d="M1749 3129Q2175 3129 2544.50 2915Q2914 2701 3132.50 2335Q3351 1969 3351 1544Q3351 1119 3132.50 753.50Q2914 388 2544.50 173.50Q2175-41 1749-41Q1323-41 953.50 173.50Q584 388 365.50 753.50Q147 1119 147 1544Q147 1863 272 2152Q397 2441 621 2662Q845 2883 1136.50 3006Q1428 3129 1749 3129M1749 2945Q1372 2945 1048.50 2755Q725 2565 534.50 2241Q344 1917 344 1544Q344 1171 534.50 847Q725 523 1048.50 333Q1372 143 1749 143Q2124 143 2448.50 334.50Q2773 526 2963.50 848.50Q3154 1171 3154 1544Q3154 1824 3043 2081Q2932 2338 2738.50 2531Q2545 2724 2288 2834.50Q2031 2945 1749 2945M1417 4043L1667 4121L2081 3518L1925 3449L1417 4043Z"  horiz-adv-x="3498" vert-adv-y="4096"  />

      
      <glyph glyph-name="unid8" unicode="&#xd8;" d="M692 631L2646 2609Q2243 2945 1749 2945Q1372 2945 1048.50 2755Q725 2565 534.50 2241Q344 1917 344 1544Q344 1301 436.50 1060.50Q529 820 692 631M2769 2490L811 508Q937 399 1091.50 315.50Q1246 232 1415 187.50Q1584 143 1749 143Q2124 143 2448.50 334.50Q2773 526 2963.50 848.50Q3154 1171 3154 1544Q3154 1715 3108.50 1886.50Q3063 2058 2977 2210.50Q2891 2363 2769 2490M3162 3113L3285 2990L2916 2621Q3120 2409 3235.50 2123.50Q3351 1838 3351 1544Q3351 1119 3132.50 753.50Q2914 388 2544.50 173.50Q2175-41 1749-41Q1156-41 676 373L668 377L299 0L188 119L545 500Q421 641 331.50 811Q242 981 194.50 1168.50Q147 1356 147 1544Q147 1863 272 2152Q397 2441 621 2662Q845 2883 1136.50 3006Q1428 3129 1749 3129Q2027 3129 2298.50 3026Q2570 2923 2789 2740L3162 3113Z"  horiz-adv-x="3498" vert-adv-y="4096"  />

      
      <glyph glyph-name="unid5" unicode="&#xd5;" d="M1749 3129Q2175 3129 2544.50 2915Q2914 2701 3132.50 2335Q3351 1969 3351 1544Q3351 1119 3132.50 753.50Q2914 388 2544.50 173.50Q2175-41 1749-41Q1323-41 953.50 173.50Q584 388 365.50 753.50Q147 1119 147 1544Q147 1863 272 2152Q397 2441 621 2662Q845 2883 1136.50 3006Q1428 3129 1749 3129M1749 2945Q1372 2945 1048.50 2755Q725 2565 534.50 2241Q344 1917 344 1544Q344 1171 534.50 847Q725 523 1048.50 333Q1372 143 1749 143Q2124 143 2448.50 334.50Q2773 526 2963.50 848.50Q3154 1171 3154 1544Q3154 1824 3043 2081Q2932 2338 2738.50 2531Q2545 2724 2288 2834.50Q2031 2945 1749 2945M1282 3596L1159 3686Q1203 3794 1287.50 3871.50Q1372 3949 1479 3949Q1575 3949 1765 3871Q1797 3859 1853 3835.50Q1909 3812 1948.50 3800.50Q1988 3789 2023 3789Q2093 3789 2145 3838Q2197 3887 2220 3957L2339 3867Q2312 3755 2216 3677.50Q2120 3600 2007 3600Q1937 3600 1741 3682Q1553 3764 1462 3764Q1339 3764 1282 3596Z"  horiz-adv-x="3498" vert-adv-y="4096"  />

      
      <glyph glyph-name="uni50" unicode="&#x50;" d="M528 1466L528 0L332 0L332 3088L877 3088Q1097 3088 1255.50 3053.50Q1414 3019 1544 2908Q1823 2672 1823 2273Q1823 2098 1756.50 1933Q1690 1768 1565 1663Q1338 1466 877 1466L528 1466M528 1651L885 1651Q1057 1651 1186.50 1685Q1316 1719 1425 1819Q1626 2001 1626 2281Q1626 2432 1566 2565Q1506 2698 1393 2781Q1290 2860 1163 2882Q1036 2904 852 2904L528 2904L528 1651Z"  horiz-adv-x="1933" vert-adv-y="4096"  />

      
      <glyph glyph-name="uni51" unicode="&#x51;" d="M2130 1266L2757 586Q3154 1017 3154 1520Q3154 1901 2969 2229.50Q2784 2558 2461 2751.50Q2138 2945 1753 2945Q1377 2945 1052.50 2754.50Q728 2564 536 2240.50Q344 1917 344 1544Q344 1164 535.50 842Q727 520 1053.50 331.50Q1380 143 1761 143Q2216 143 2621 467L1851 1266L2130 1266M3039 0L2761 328Q2618 211 2452.50 129Q2287 47 2107 3Q1927-41 1749-41Q1318-41 948.50 171Q579 383 363 747.50Q147 1112 147 1544Q147 1865 272 2155Q397 2445 621 2665Q845 2885 1137 3007Q1429 3129 1753 3129Q2176 3129 2545 2917Q2914 2705 3132.50 2341.50Q3351 1978 3351 1556Q3351 953 2900 438L3305 0L3039 0Z"  horiz-adv-x="3498" vert-adv-y="4096"  />

      
      <glyph glyph-name="uni52" unicode="&#x52;" d="M848 1462L1860 0L1634 0L627 1462L528 1462L528 0L332 0L332 3088L717 3088Q960 3088 1122 3060.50Q1284 3033 1421 2933Q1733 2713 1733 2269Q1733 2008 1620.50 1826Q1508 1644 1307.50 1553Q1107 1462 848 1462M528 1647L778 1647Q961 1647 1087 1673Q1213 1699 1319 1790Q1536 1966 1536 2277Q1536 2393 1499.50 2503.50Q1463 2614 1389.50 2700Q1316 2786 1208 2834Q1044 2904 655 2904L528 2904L528 1647Z"  horiz-adv-x="1999" vert-adv-y="4096"  />

      
      <glyph glyph-name="uni53" unicode="&#x53;" d="M1901 2695L1761 2580Q1532 2945 1135 2945Q973 2945 839.50 2865.50Q706 2786 629.50 2650Q553 2514 553 2355Q553 2142 697 2023.50Q841 1905 1110 1778L1700 1470Q2052 1248 2052 856Q2052 607 1916 401Q1780 195 1557 77Q1334-41 1085-41Q769-41 527.50 138.50Q286 318 176 623L348 700Q453 440 640 291.50Q827 143 1094 143Q1295 143 1470 240Q1645 337 1750 504.50Q1855 672 1855 872Q1855 1031 1764 1146Q1673 1261 1558 1329Q1443 1397 1233 1499L676 1794Q356 1992 356 2347Q356 2573 457 2752Q558 2931 738.50 3030Q919 3129 1147 3129Q1381 3129 1585.50 3012Q1790 2895 1901 2695Z"  horiz-adv-x="2228" vert-adv-y="4096"  />

      
      <glyph glyph-name="uni0160" unicode="&#x0160;" d="M1901 2695L1761 2580Q1532 2945 1135 2945Q973 2945 839.50 2865.50Q706 2786 629.50 2650Q553 2514 553 2355Q553 2142 697 2023.50Q841 1905 1110 1778L1700 1470Q2052 1248 2052 856Q2052 607 1916 401Q1780 195 1557 77Q1334-41 1085-41Q769-41 527.50 138.50Q286 318 176 623L348 700Q453 440 640 291.50Q827 143 1094 143Q1295 143 1470 240Q1645 337 1750 504.50Q1855 672 1855 872Q1855 1031 1764 1146Q1673 1261 1558 1329Q1443 1397 1233 1499L676 1794Q356 1992 356 2347Q356 2573 457 2752Q558 2931 738.50 3030Q919 3129 1147 3129Q1381 3129 1585.50 3012Q1790 2895 1901 2695M1680 3924L1114 3486L549 3924L705 4039L1114 3727L1532 4039L1680 3924Z"  horiz-adv-x="2228" vert-adv-y="4096"  />

      
      <glyph glyph-name="uni54" unicode="&#x54;" d="M1020 2904L1020 0L823 0L823 2904L25 2904L25 3088L1819 3088L1819 2904L1020 2904Z"  horiz-adv-x="1843" vert-adv-y="4096"  />

      
      <glyph glyph-name="unide" unicode="&#xde;" d="M1901 2695L1761 2580Q1532 2945 1135 2945Q973 2945 839.50 2865.50Q706 2786 629.50 2650Q553 2514 553 2355Q553 2142 697 2023.50Q841 1905 1110 1778L1700 1470Q2052 1248 2052 856Q2052 607 1916 401Q1780 195 1557 77Q1334-41 1085-41Q769-41 527.50 138.50Q286 318 176 623L348 700Q453 440 640 291.50Q827 143 1094 143Q1295 143 1470 240Q1645 337 1750 504.50Q1855 672 1855 872Q1855 1031 1764 1146Q1673 1261 1558 1329Q1443 1397 1233 1499L676 1794Q356 1992 356 2347Q356 2573 457 2752Q558 2931 738.50 3030Q919 3129 1147 3129Q1381 3129 1585.50 3012Q1790 2895 1901 2695M1508-221L1053-799L897-721L1278-131L1508-221Z"  horiz-adv-x="2228" vert-adv-y="4096"  />

      
      <glyph glyph-name="uni55" unicode="&#x55;" d="M2204 1221L2204 3088L2400 3088L2400 1163Q2400 859 2366 676Q2332 493 2191 319Q2039 146 1814.50 52.50Q1590-41 1352-41Q1113-41 889.50 52.50Q666 146 512 319Q371 495 337 677Q303 859 303 1163L303 3088L500 3088L500 1221Q500 938 526.50 759Q553 580 659 442Q768 302 965.50 222.50Q1163 143 1352 143Q1542 143 1738.50 222.50Q1935 302 2044 442Q2150 579 2177 758.50Q2204 938 2204 1221Z"  horiz-adv-x="2703" vert-adv-y="4096"  />

      
      <glyph glyph-name="unida" unicode="&#xda;" d="M1925 1487L3228 1487Q3228 1276 3202.50 1099.50Q3177 923 3105.50 761.50Q3034 600 2904 459Q2687 223 2374.50 91Q2062-41 1733-41Q1418-41 1129.50 83Q841 207 619.50 427Q398 647 272.50 933Q147 1219 147 1532Q147 1965 364 2333Q581 2701 951.50 2915Q1322 3129 1757 3129Q2030 3129 2276 3042.50Q2522 2956 2727 2794Q2932 2632 3097 2408L2937 2281Q2838 2432 2706 2557.50Q2574 2683 2425 2768.50Q2276 2854 2103 2899.50Q1930 2945 1745 2945Q1378 2945 1053 2750Q728 2555 536 2232Q344 1909 344 1544Q344 1172 533 848Q722 524 1045 333.50Q1368 143 1745 143Q2231 143 2654 483Q2783 593 2865 718.50Q2947 844 2986 988Q3025 1132 3031 1303L1925 1303L1925 1487M1093 3793L1273 3793Q1353 3543 1675 3543Q1997 3543 2076 3793L2252 3793Q2229 3589 2060 3474Q1891 3359 1675 3359Q1458 3359 1289 3473.50Q1120 3588 1093 3793Z"  horiz-adv-x="3375" vert-adv-y="4096"  />

      
      <glyph glyph-name="unidb" unicode="&#xdb;" d="M2204 1221L2204 3088L2400 3088L2400 1163Q2400 859 2366 676Q2332 493 2191 319Q2039 146 1814.50 52.50Q1590-41 1352-41Q1113-41 889.50 52.50Q666 146 512 319Q371 495 337 677Q303 859 303 1163L303 3088L500 3088L500 1221Q500 938 526.50 759Q553 580 659 442Q768 302 965.50 222.50Q1163 143 1352 143Q1542 143 1738.50 222.50Q1935 302 2044 442Q2150 579 2177 758.50Q2204 938 2204 1221M786 3604L1351 4039L1917 3604L1761 3486L1351 3801L934 3486L786 3604Z"  horiz-adv-x="2703" vert-adv-y="4096"  />

      
      <glyph glyph-name="unidc" unicode="&#xdc;" d="M2204 1221L2204 3088L2400 3088L2400 1163Q2400 859 2366 676Q2332 493 2191 319Q2039 146 1814.50 52.50Q1590-41 1352-41Q1113-41 889.50 52.50Q666 146 512 319Q371 495 337 677Q303 859 303 1163L303 3088L500 3088L500 1221Q500 938 526.50 759Q553 580 659 442Q768 302 965.50 222.50Q1163 143 1352 143Q1542 143 1738.50 222.50Q1935 302 2044 442Q2150 579 2177 758.50Q2204 938 2204 1221M971 3957Q1039 3957 1087 3909Q1135 3861 1135 3793Q1135 3725 1086 3677Q1037 3629 971 3629Q905 3629 856 3678Q807 3727 807 3793Q807 3859 855 3908Q903 3957 971 3957M1737 3957Q1805 3957 1853 3909Q1901 3861 1901 3793Q1901 3725 1852 3677Q1803 3629 1737 3629Q1671 3629 1622 3678Q1573 3727 1573 3793Q1573 3859 1621 3908Q1669 3957 1737 3957Z"  horiz-adv-x="2703" vert-adv-y="4096"  />

      
      <glyph glyph-name="unid9" unicode="&#xd9;" d="M2204 1221L2204 3088L2400 3088L2400 1163Q2400 859 2366 676Q2332 493 2191 319Q2039 146 1814.50 52.50Q1590-41 1352-41Q1113-41 889.50 52.50Q666 146 512 319Q371 495 337 677Q303 859 303 1163L303 3088L500 3088L500 1221Q500 938 526.50 759Q553 580 659 442Q768 302 965.50 222.50Q1163 143 1352 143Q1542 143 1738.50 222.50Q1935 302 2044 442Q2150 579 2177 758.50Q2204 938 2204 1221M1020 4043L1270 4121L1684 3518L1528 3449L1020 4043Z"  horiz-adv-x="2703" vert-adv-y="4096"  />

      
      <glyph glyph-name="uni56" unicode="&#x56;" d="M217 3088L1135 451L1143 451L2056 3088L2253 3088L1130-102L20 3088L217 3088Z"  horiz-adv-x="2273" vert-adv-y="4096"  />

      
      <glyph glyph-name="uni57" unicode="&#x57;" d="M246 3088L1114 434L2269 3244L3424 434L4280 3088L4477 3088L3437-102L2257 2753L1081-102L49 3088L246 3088Z"  horiz-adv-x="4526" vert-adv-y="4096"  />

      
      <glyph glyph-name="uni58" unicode="&#x58;" d="M893 1577L82 3088L299 3088L1008 1761L1716 3088L1933 3088L1126 1577L1974 0L1761 0L1008 1397L262 0L49 0L893 1577Z"  horiz-adv-x="2023" vert-adv-y="4096"  />

      
      <glyph glyph-name="uni59" unicode="&#x59;" d="M1044 1319L16 3088L233 3088L1143 1524L2052 3088L2269 3088L1241 1319L1241 0L1044 0L1044 1319Z"  horiz-adv-x="2290" vert-adv-y="4096"  />

      
      <glyph glyph-name="unidd" unicode="&#xdd;" d="M528 3088L528 0L332 0L332 3088L528 3088M438 3756Q503 3756 546.50 3714Q590 3672 590 3608Q590 3545 546 3502Q502 3460 438 3460Q376 3460 331.50 3503Q287 3546 287 3608Q287 3671 331 3713Q375 3756 438 3756Z"  horiz-adv-x="860" vert-adv-y="4096"  />

      
      <glyph glyph-name="uni0178" unicode="&#x0178;" d="M1044 1319L16 3088L233 3088L1143 1524L2052 3088L2269 3088L1241 1319L1241 0L1044 0L1044 1319M762 3957Q830 3957 878 3909Q926 3861 926 3793Q926 3725 877 3677Q828 3629 762 3629Q696 3629 647 3678Q598 3727 598 3793Q598 3859 646 3908Q694 3957 762 3957M1528 3957Q1596 3957 1644 3909Q1692 3861 1692 3793Q1692 3725 1643 3677Q1594 3629 1528 3629Q1462 3629 1413 3678Q1364 3727 1364 3793Q1364 3859 1412 3908Q1460 3957 1528 3957Z"  horiz-adv-x="2290" vert-adv-y="4096"  />

      
      <glyph glyph-name="uni5a" unicode="&#x5a;" d="M393 184L2224 184L2224 0L49 0L1933 2904L229 2904L229 3088L2277 3088L393 184Z"  horiz-adv-x="2327" vert-adv-y="4096"  />

      
      <glyph glyph-name="uni017D" unicode="&#x017D;" d="M393 184L2224 184L2224 0L49 0L1933 2904L229 2904L229 3088L2277 3088L393 184M1729 3924L1163 3486L598 3924L754 4039L1163 3727L1581 4039L1729 3924Z"  horiz-adv-x="2327" vert-adv-y="4096"  />

      
      <glyph glyph-name="uni61" unicode="&#x61;" d="M1049 1761Q889 1761 754.50 1695.50Q620 1630 521.50 1516Q423 1402 369 1256Q315 1110 315 958Q315 740 407.50 549Q500 358 669.50 244.50Q839 131 1061 131Q1293 131 1463 246Q1633 361 1719.50 555Q1806 749 1806 979Q1806 1141 1752.50 1284.50Q1699 1428 1599 1535Q1499 1642 1359.50 1701.50Q1220 1761 1049 1761M1978 1892L1978 0L1794 0L1794 340L1786 340Q1686 165 1483.50 62Q1281-41 1065-41Q787-41 574 91.50Q361 224 246 453.50Q131 683 131 958Q131 1166 196 1345Q261 1524 382.50 1656Q504 1788 676 1860.50Q848 1933 1057 1933Q1278 1933 1472.50 1837Q1667 1741 1786 1565L1794 1565L1794 1892L1978 1892Z"  horiz-adv-x="2294" vert-adv-y="4096"  />

      
      <glyph glyph-name="unie1" unicode="&#xe1;" d="M1049 1761Q889 1761 754.50 1695.50Q620 1630 521.50 1516Q423 1402 369 1256Q315 1110 315 958Q315 740 407.50 549Q500 358 669.50 244.50Q839 131 1061 131Q1293 131 1463 246Q1633 361 1719.50 555Q1806 749 1806 979Q1806 1141 1752.50 1284.50Q1699 1428 1599 1535Q1499 1642 1359.50 1701.50Q1220 1761 1049 1761M1978 1892L1978 0L1794 0L1794 340L1786 340Q1686 165 1483.50 62Q1281-41 1065-41Q787-41 574 91.50Q361 224 246 453.50Q131 683 131 958Q131 1166 196 1345Q261 1524 382.50 1656Q504 1788 676 1860.50Q848 1933 1057 1933Q1278 1933 1472.50 1837Q1667 1741 1786 1565L1794 1565L1794 1892L1978 1892M1229 2925L1479 2847L971 2253L815 2322L1229 2925Z"  horiz-adv-x="2294" vert-adv-y="4096"  />

      
      <glyph glyph-name="unie2" unicode="&#xe2;" d="M1049 1761Q889 1761 754.50 1695.50Q620 1630 521.50 1516Q423 1402 369 1256Q315 1110 315 958Q315 740 407.50 549Q500 358 669.50 244.50Q839 131 1061 131Q1293 131 1463 246Q1633 361 1719.50 555Q1806 749 1806 979Q1806 1141 1752.50 1284.50Q1699 1428 1599 1535Q1499 1642 1359.50 1701.50Q1220 1761 1049 1761M1978 1892L1978 0L1794 0L1794 340L1786 340Q1686 165 1483.50 62Q1281-41 1065-41Q787-41 574 91.50Q361 224 246 453.50Q131 683 131 958Q131 1166 196 1345Q261 1524 382.50 1656Q504 1788 676 1860.50Q848 1933 1057 1933Q1278 1933 1472.50 1837Q1667 1741 1786 1565L1794 1565L1794 1892L1978 1892M581 2408L1146 2843L1712 2408L1556 2290L1146 2605L729 2290L581 2408Z"  horiz-adv-x="2294" vert-adv-y="4096"  />

      
      <glyph glyph-name="unib4" unicode="&#xb4;" d="M721 2925L971 2847L463 2253L307 2322L721 2925Z"  horiz-adv-x="1282" vert-adv-y="4096"  />

      
      <glyph glyph-name="unie4" unicode="&#xe4;" d="M1049 1761Q889 1761 754.50 1695.50Q620 1630 521.50 1516Q423 1402 369 1256Q315 1110 315 958Q315 740 407.50 549Q500 358 669.50 244.50Q839 131 1061 131Q1293 131 1463 246Q1633 361 1719.50 555Q1806 749 1806 979Q1806 1141 1752.50 1284.50Q1699 1428 1599 1535Q1499 1642 1359.50 1701.50Q1220 1761 1049 1761M1978 1892L1978 0L1794 0L1794 340L1786 340Q1686 165 1483.50 62Q1281-41 1065-41Q787-41 574 91.50Q361 224 246 453.50Q131 683 131 958Q131 1166 196 1345Q261 1524 382.50 1656Q504 1788 676 1860.50Q848 1933 1057 1933Q1278 1933 1472.50 1837Q1667 1741 1786 1565L1794 1565L1794 1892L1978 1892M766 2761Q834 2761 882 2713Q930 2665 930 2597Q930 2529 881 2481Q832 2433 766 2433Q700 2433 651 2482Q602 2531 602 2597Q602 2663 650 2712Q698 2761 766 2761M1532 2761Q1600 2761 1648 2713Q1696 2665 1696 2597Q1696 2529 1647 2481Q1598 2433 1532 2433Q1466 2433 1417 2482Q1368 2531 1368 2597Q1368 2663 1416 2712Q1464 2761 1532 2761Z"  horiz-adv-x="2294" vert-adv-y="4096"  />

      
      <glyph glyph-name="unie6" unicode="&#xe6;" d="M1704 1098L3162 1098Q3140 1269 3037.50 1423Q2935 1577 2776.50 1669Q2618 1761 2441 1761Q2255 1761 2090.50 1670.50Q1926 1580 1823 1427.50Q1720 1275 1704 1098M909 971Q759 971 613 932Q467 893 368.50 800Q270 707 270 553Q270 396 362 301.50Q454 207 593 169Q732 131 889 131Q1025 131 1173 175.50Q1321 220 1420.50 315Q1520 410 1520 553Q1520 770 1334 870.50Q1148 971 909 971M3125 557L3285 451Q3192 304 3062 192.50Q2932 81 2773.50 20Q2615-41 2441-41Q2195-41 1979.50 84.50Q1764 210 1667 426L1659 426Q1618 267 1496.50 162.50Q1375 58 1209.50 8.50Q1044-41 872-41Q683-41 502.50 23Q322 87 204 220.50Q86 354 86 549Q86 750 210 884.50Q334 1019 524 1081Q714 1143 909 1143Q1287 1143 1520 942Q1520 1172 1452.50 1357.50Q1385 1543 1234.50 1652Q1084 1761 848 1761Q581 1761 213 1589L213 1778Q519 1933 885 1933Q1061 1933 1207 1871.50Q1353 1810 1459.50 1692.50Q1566 1575 1626 1409Q1692 1562 1817 1682.50Q1942 1803 2102 1868Q2262 1933 2429 1933Q2705 1933 2913.50 1795.50Q3122 1658 3233 1426Q3344 1194 3346 926L1704 926Q1710 710 1804 528.50Q1898 347 2065.50 239Q2233 131 2449 131Q2661 131 2840 249Q3019 367 3125 557Z"  horiz-adv-x="3478" vert-adv-y="4096"  />

      
      <glyph glyph-name="unie0" unicode="&#xe0;" d="M1049 1761Q889 1761 754.50 1695.50Q620 1630 521.50 1516Q423 1402 369 1256Q315 1110 315 958Q315 740 407.50 549Q500 358 669.50 244.50Q839 131 1061 131Q1293 131 1463 246Q1633 361 1719.50 555Q1806 749 1806 979Q1806 1141 1752.50 1284.50Q1699 1428 1599 1535Q1499 1642 1359.50 1701.50Q1220 1761 1049 1761M1978 1892L1978 0L1794 0L1794 340L1786 340Q1686 165 1483.50 62Q1281-41 1065-41Q787-41 574 91.50Q361 224 246 453.50Q131 683 131 958Q131 1166 196 1345Q261 1524 382.50 1656Q504 1788 676 1860.50Q848 1933 1057 1933Q1278 1933 1472.50 1837Q1667 1741 1786 1565L1794 1565L1794 1892L1978 1892M815 2847L1065 2925L1479 2322L1323 2253L815 2847Z"  horiz-adv-x="2294" vert-adv-y="4096"  />

      
      <glyph glyph-name="uni26" unicode="&#x26;" d="M1294 2961Q1184 2961 1094 2899.50Q1004 2838 952.50 2738Q901 2638 901 2531Q901 2392 994 2245Q1087 2098 1176 1962Q1300 2054 1415 2141Q1530 2228 1600.50 2331Q1671 2434 1671 2576Q1671 2679 1621.50 2767.50Q1572 2856 1485.50 2908.50Q1399 2961 1294 2961M2425 0L2036 512Q1845 349 1659 221.50Q1473 94 1279.50 16.50Q1086-61 897-61Q676-61 489.50 49Q303 159 196.50 347Q90 535 90 754Q90 946 171.50 1108.50Q253 1271 386 1403Q519 1535 662 1635.50Q805 1736 1028 1876Q962 1968 909 2042Q856 2116 809 2198Q762 2280 733.50 2369Q705 2458 705 2552Q705 2711 787.50 2848.50Q870 2986 1008.50 3066Q1147 3146 1307 3146Q1464 3146 1592.50 3068.50Q1721 2991 1794.50 2858.50Q1868 2726 1868 2572Q1868 2336 1722.50 2171.50Q1577 2007 1290 1810L2052 770L2445 1200L2597 1118L2167 627L2638 0L2425 0M1143 1720L946 1589Q747 1463 612.50 1356Q478 1249 382.50 1102Q287 955 287 774Q287 602 365 451.50Q443 301 582 212Q721 123 897 123Q1134 123 1378 271Q1622 419 1921 668L1143 1720Z"  horiz-adv-x="2630" vert-adv-y="4096"  />

      
      <glyph glyph-name="unie5" unicode="&#xe5;" d="M1049 1761Q889 1761 754.50 1695.50Q620 1630 521.50 1516Q423 1402 369 1256Q315 1110 315 958Q315 740 407.50 549Q500 358 669.50 244.50Q839 131 1061 131Q1293 131 1463 246Q1633 361 1719.50 555Q1806 749 1806 979Q1806 1141 1752.50 1284.50Q1699 1428 1599 1535Q1499 1642 1359.50 1701.50Q1220 1761 1049 1761M1978 1892L1978 0L1794 0L1794 340L1786 340Q1686 165 1483.50 62Q1281-41 1065-41Q787-41 574 91.50Q361 224 246 453.50Q131 683 131 958Q131 1166 196 1345Q261 1524 382.50 1656Q504 1788 676 1860.50Q848 1933 1057 1933Q1278 1933 1472.50 1837Q1667 1741 1786 1565L1794 1565L1794 1892L1978 1892M1147 2925Q1294 2925 1398.50 2820.50Q1503 2716 1503 2568Q1503 2421 1398.50 2316.50Q1294 2212 1147 2212Q998 2212 894 2316Q790 2420 790 2568Q790 2717 894 2821Q998 2925 1147 2925M1147 2761Q1066 2761 1010 2704Q954 2647 954 2568Q954 2490 1011 2433Q1068 2376 1147 2376Q1225 2376 1282 2432Q1339 2488 1339 2568Q1339 2649 1283 2705Q1227 2761 1147 2761Z"  horiz-adv-x="2294" vert-adv-y="4096"  />

      
      <glyph glyph-name="uni5e" unicode="&#x5e;" d="M414 1233L221 1233L1163 3088L1376 3088L2318 1233L2130 1233L1270 2904L414 1233Z"  horiz-adv-x="2540" vert-adv-y="4096"  />

      
      <glyph glyph-name="uni7e" unicode="&#x7e;" d="M823 1286Q981 1286 1303 1139Q1324 1129 1437.50 1074.50Q1551 1020 1614 997.50Q1677 975 1724 975Q1851 975 1944.50 1062Q2038 1149 2122 1303L2318 1208Q2191 1006 2049 884Q1907 762 1720 762Q1568 762 1274 918Q968 1073 823 1073Q697 1073 605.50 996Q514 919 414 770L221 864Q260 912 336 1003Q412 1094 478 1151Q544 1208 632 1247Q720 1286 823 1286Z"  horiz-adv-x="2540" vert-adv-y="4096"  />

      
      <glyph glyph-name="uni2a" unicode="&#x2a;" d="M1184 2474L1167 3088L1368 3088L1352 2474L1933 2679L1995 2486L1405 2310L1782 1823L1618 1704L1270 2212L918 1704L758 1819L1130 2310L541 2486L602 2679L1184 2474Z"  horiz-adv-x="2535" vert-adv-y="4096"  />

      
      <glyph glyph-name="uni40" unicode="&#x40;" d="M1380 791Q1569 797 1735 948Q1901 1099 1958 1278L2150 1880Q2159 1916 2159 1933Q2159 2014 2106 2105Q2053 2196 1956 2257Q1859 2318 1733 2318Q1580 2318 1436.50 2214.50Q1293 2111 1182.50 1944Q1072 1777 1009 1590Q946 1403 946 1245Q946 1057 1062.50 924Q1179 791 1380 791M2257 2216L2318 2408L2499 2408L2077 1081Q2040 957 2040 918Q2040 791 2216 791Q2381 791 2550 953.50Q2719 1116 2830 1359Q2941 1602 2941 1823Q2941 2071 2839.50 2281Q2738 2491 2561.50 2642.50Q2385 2794 2163.50 2875.50Q1942 2957 1708 2957Q1339 2957 1022.50 2759.50Q706 2562 521 2231Q336 1900 336 1528Q336 1250 445.50 996.50Q555 743 749.50 547Q944 351 1194.50 241Q1445 131 1716 131Q2068 131 2367.50 274.50Q2667 418 2834 688L3064 688Q2887 355 2531.50 157Q2176-41 1716-41Q1287-41 930.50 173.50Q574 388 369 756.50Q164 1125 164 1556Q164 1877 284.50 2164.50Q405 2452 619.50 2669.50Q834 2887 1114 3008Q1394 3129 1700 3129Q1991 3129 2250 3031Q2509 2933 2702.50 2755Q2896 2577 3004.50 2332.50Q3113 2088 3113 1806Q3113 1566 3028.50 1350Q2944 1134 2803.50 969Q2663 804 2493 711Q2323 618 2159 618Q2049 618 1965.50 670.50Q1882 723 1851 819Q1615 618 1319 618Q1149 618 1025.50 696Q902 774 838 911Q774 1048 774 1221Q774 1511 899 1806.50Q1024 2102 1251.50 2296Q1479 2490 1765 2490Q1913 2490 2042.50 2419Q2172 2348 2257 2216Z"  horiz-adv-x="3277" vert-adv-y="4096"  />

      
      <glyph glyph-name="unie3" unicode="&#xe3;" d="M1049 1761Q889 1761 754.50 1695.50Q620 1630 521.50 1516Q423 1402 369 1256Q315 1110 315 958Q315 740 407.50 549Q500 358 669.50 244.50Q839 131 1061 131Q1293 131 1463 246Q1633 361 1719.50 555Q1806 749 1806 979Q1806 1141 1752.50 1284.50Q1699 1428 1599 1535Q1499 1642 1359.50 1701.50Q1220 1761 1049 1761M1978 1892L1978 0L1794 0L1794 340L1786 340Q1686 165 1483.50 62Q1281-41 1065-41Q787-41 574 91.50Q361 224 246 453.50Q131 683 131 958Q131 1166 196 1345Q261 1524 382.50 1656Q504 1788 676 1860.50Q848 1933 1057 1933Q1278 1933 1472.50 1837Q1667 1741 1786 1565L1794 1565L1794 1892L1978 1892M680 2400L557 2490Q601 2598 685.50 2675.50Q770 2753 877 2753Q973 2753 1163 2675Q1195 2663 1251 2639.50Q1307 2616 1346.50 2604.50Q1386 2593 1421 2593Q1491 2593 1543 2642Q1595 2691 1618 2761L1737 2671Q1710 2559 1614 2481.50Q1518 2404 1405 2404Q1335 2404 1139 2486Q951 2568 860 2568Q737 2568 680 2400Z"  horiz-adv-x="2294" vert-adv-y="4096"  />

      
      <glyph glyph-name="uni62" unicode="&#x62;" d="M1233 131Q1457 131 1626.50 244.50Q1796 358 1887 548Q1978 738 1978 958Q1978 1113 1925 1258.50Q1872 1404 1773 1517.50Q1674 1631 1537.50 1696Q1401 1761 1241 1761Q1008 1761 837 1655Q666 1549 576.50 1365Q487 1181 487 954Q487 732 577.50 543Q668 354 838.50 242.50Q1009 131 1233 131M315 0L315 3379L500 3379L500 1565L508 1565Q626 1740 821 1836.50Q1016 1933 1237 1933Q1511 1933 1723 1805.50Q1935 1678 2049 1455.50Q2163 1233 2163 958Q2163 683 2048 453.50Q1933 224 1720 91.50Q1507-41 1229-41Q1013-41 811.50 61.50Q610 164 508 340L500 340L500 0L315 0Z"  horiz-adv-x="2294" vert-adv-y="4096"  />

      
      <glyph glyph-name="uni5c" unicode="&#x5c;" d="M143 3305L287 3379L2478 78L2327 0L143 3305Z"  horiz-adv-x="2621" vert-adv-y="4096"  />

      
      <glyph glyph-name="uni7c" unicode="&#x7c;" d="M557 0L557 3379L754 3379L754 0L557 0Z"  horiz-adv-x="1311" vert-adv-y="4096"  />

      
      <glyph glyph-name="uni7b" unicode="&#x7b;" d="M168 1044L168 1225Q329 1338 398 1435Q467 1532 467 1696L467 2417Q467 2661 519.50 2803Q572 2945 699.50 3013.50Q827 3082 1061 3088L1061 2900Q887 2900 775.50 2834Q664 2768 664 2572L664 1810Q664 1608 631 1486.50Q598 1365 535.50 1289.50Q473 1214 365 1143L365 1122Q525 1019 594.50 876Q664 733 664 434L664-324Q664-519 775.50-585Q887-651 1061-651L1061-831Q828-823 699.50-755Q571-687 519-546Q467-405 467-164L467 557Q467 723 395.50 828Q324 933 168 1044Z"  horiz-adv-x="1229" vert-adv-y="4096"  />

      
      <glyph glyph-name="uni7d" unicode="&#x7d;" d="M1061 1225L1061 1044Q905 933 833.50 828Q762 723 762 557L762-164Q762-405 710-546Q658-687 529.50-755Q401-823 168-831L168-651Q342-651 453.50-585Q565-519 565-324L565 434Q565 733 634.50 876Q704 1019 864 1122L864 1143Q756 1214 693.50 1289.50Q631 1365 598 1486.50Q565 1608 565 1810L565 2572Q565 2768 453.50 2834Q342 2900 168 2900L168 3088Q402 3082 529.50 3013.50Q657 2945 709.50 2803Q762 2661 762 2417L762 1696Q762 1532 831 1435Q900 1338 1061 1225Z"  horiz-adv-x="1229" vert-adv-y="4096"  />

      
      <glyph glyph-name="uni5b" unicode="&#x5b;" d="M463 2879L463-623L963-623L963-831L266-831L266 3088L963 3088L963 2879L463 2879Z"  horiz-adv-x="1229" vert-adv-y="4096"  />

      
      <glyph glyph-name="uni5d" unicode="&#x5d;" d="M766-623L766 2879L266 2879L266 3088L963 3088L963-831L266-831L266-623L766-623Z"  horiz-adv-x="1229" vert-adv-y="4096"  />

      
      <glyph glyph-name="uni02D8" unicode="&#x02D8;" d="M307 2761L487 2761Q567 2511 889 2511Q1211 2511 1290 2761L1466 2761Q1443 2557 1274 2442Q1105 2327 889 2327Q672 2327 503 2441.50Q334 2556 307 2761Z"  horiz-adv-x="1778" vert-adv-y="4096"  />

      
      <glyph glyph-name="unia6" unicode="&#xa6;" d="M557 0L557 1339L754 1339L754 0L557 0M557 2040L557 3379L754 3379L754 2040L557 2040Z"  horiz-adv-x="1311" vert-adv-y="4096"  />

      
      <glyph glyph-name="uni2022" unicode="&#x2022;" d="M1274 2318Q1490 2318 1667 2214Q1844 2110 1944 1932Q2044 1754 2044 1544Q2044 1335 1943.50 1158Q1843 981 1666.50 877.50Q1490 774 1274 774Q1057 774 879.50 878Q702 982 601 1158.50Q500 1335 500 1544Q500 1754 600.50 1931.50Q701 2109 879 2213.50Q1057 2318 1274 2318Z"  horiz-adv-x="2540" vert-adv-y="4096"  />

      
      <glyph glyph-name="uni63" unicode="&#x63;" d="M1765 1700L1765 1454Q1484 1761 1098 1761Q880 1761 700.50 1649Q521 1537 418 1350Q315 1163 315 950Q315 738 417 548Q519 358 698.50 244.50Q878 131 1094 131Q1293 131 1476 221.50Q1659 312 1790 471L1790 221Q1489-41 1102-41Q827-41 604.50 91Q382 223 256.50 449.50Q131 676 131 950Q131 1221 258.50 1446.50Q386 1672 609.50 1802.50Q833 1933 1106 1933Q1491 1933 1765 1700Z"  horiz-adv-x="1954" vert-adv-y="4096"  />

      
      <glyph glyph-name="uni02C7" unicode="&#x02C7;" d="M1438 2728L872 2290L307 2728L463 2843L872 2531L1290 2843L1438 2728Z"  horiz-adv-x="1745" vert-adv-y="4096"  />

      
      <glyph glyph-name="unie7" unicode="&#xe7;" d="M1765 1700L1765 1454Q1484 1761 1098 1761Q880 1761 700.50 1649Q521 1537 418 1350Q315 1163 315 950Q315 738 417 548Q519 358 698.50 244.50Q878 131 1094 131Q1293 131 1476 221.50Q1659 312 1790 471L1790 221Q1489-41 1102-41Q827-41 604.50 91Q382 223 256.50 449.50Q131 676 131 950Q131 1221 258.50 1446.50Q386 1672 609.50 1802.50Q833 1933 1106 1933Q1491 1933 1765 1700M1283-172L828-750L672-672L1053-82L1283-172Z"  horiz-adv-x="1954" vert-adv-y="4096"  />

      
      <glyph glyph-name="unib8" unicode="&#xb8;" d="M918-172L463-750L307-672L688-82L918-172Z"  horiz-adv-x="1225" vert-adv-y="4096"  />

      
      <glyph glyph-name="unia2" unicode="&#xa2;" d="M2073 2327L2073 2081Q1812 2369 1479 2392L1479 758Q1655 773 1818 866Q1981 959 2089 1098L2097 1098L2097 848Q1813 603 1479 586L1479 61L1294 61L1294 590Q1058 613 860 749.50Q662 886 550 1099Q438 1312 438 1552Q438 1807 544 2028.50Q650 2250 845 2392Q1040 2534 1294 2560L1294 3039L1479 3039L1479 2564Q1808 2552 2073 2327M1294 762L1294 2384Q1103 2358 949 2240.50Q795 2123 709 1945Q623 1767 623 1573Q623 1381 709 1203Q795 1025 949 906.50Q1103 788 1294 762Z"  horiz-adv-x="2540" vert-adv-y="4096"  />

      
      <glyph glyph-name="uni02C6" unicode="&#x02C6;" d="M307 2408L872 2843L1438 2408L1282 2290L872 2605L455 2290L307 2408Z"  horiz-adv-x="1745" vert-adv-y="4096"  />

      
      <glyph glyph-name="uni3a" unicode="&#x3a;" d="M635 295Q707 295 755 247Q803 199 803 127Q803 55 754 7Q705-41 635-41Q565-41 516 8Q467 57 467 127Q467 197 515 246Q563 295 635 295M635 1933Q706 1933 754.50 1885.50Q803 1838 803 1765Q803 1693 754 1645Q705 1597 635 1597Q565 1597 516 1646Q467 1695 467 1765Q467 1836 515.50 1884.50Q564 1933 635 1933Z"  horiz-adv-x="1270" vert-adv-y="4096"  />

      
      <glyph glyph-name="uni2c" unicode="&#x2c;" d="M627 303L811 246L471-680L348-635L627 303Z"  horiz-adv-x="1270" vert-adv-y="4096"  />

      
      <glyph glyph-name="unia9" unicode="&#xa9;" d="M1642-41Q1214-41 847 172.50Q480 386 266.50 753Q53 1120 53 1548Q53 1976 267 2340.50Q481 2705 847 2917Q1213 3129 1642 3129Q2070 3129 2434 2917Q2798 2705 3011 2341Q3224 1977 3224 1548Q3224 1118 3011 752Q2798 386 2434 172.50Q2070-41 1642-41M1642 156Q2020 156 2339 341.50Q2658 527 2842.50 847Q3027 1167 3027 1548Q3027 1924 2842.50 2243.50Q2658 2563 2339 2748Q2020 2933 1642 2933Q1262 2933 942 2748Q622 2563 436 2244Q250 1925 250 1548Q250 1166 436 846.50Q622 527 942 341.50Q1262 156 1642 156M2249 1262L2445 1262Q2428 1078 2323.50 938Q2219 798 2057 722.50Q1895 647 1712 647Q1518 647 1356 715.50Q1194 784 1077.50 909Q961 1034 898.50 1201.50Q836 1369 836 1561Q836 1823 940.50 2030Q1045 2237 1241.50 2353.50Q1438 2470 1700 2470Q1891 2470 2050.50 2399.50Q2210 2329 2313.50 2194Q2417 2059 2445 1872L2249 1872Q2217 2053 2059 2163Q1901 2273 1704 2273Q1399 2273 1215.50 2070.50Q1032 1868 1032 1565Q1032 1375 1117.50 1208.50Q1203 1042 1358 943Q1513 844 1712 844Q1838 844 1956.50 894Q2075 944 2154 1038Q2233 1132 2249 1262Z"  horiz-adv-x="3277" vert-adv-y="4096"  />

      
      <glyph glyph-name="unia4" unicode="&#xa4;" d="M279 2040L426 2187L598 2015Q773 2141 925 2197Q1077 2253 1270 2253Q1463 2253 1615 2197Q1767 2141 1942 2015L2114 2187L2261 2040L2097 1876Q2314 1542 2314 1229Q2314 915 2097 582L2261 418L2114 270L1942 442Q1765 316 1612 260.50Q1459 205 1270 205Q1081 205 928 260.50Q775 316 598 442L426 270L279 418L442 582Q324 765 274.50 912.50Q225 1060 225 1229Q225 1399 274.50 1545.50Q324 1692 442 1876L279 2040M1270 2056Q1036 2052 841 1943.50Q646 1835 534 1647Q422 1459 422 1229Q426 1009 541.50 818.50Q657 628 850 514.50Q1043 401 1270 401Q1497 401 1690 515Q1883 629 1998.50 819Q2114 1009 2118 1229Q2118 1459 2006 1647Q1894 1835 1699 1943.50Q1504 2052 1270 2056Z"  horiz-adv-x="2540" vert-adv-y="4096"  />

      
      <glyph glyph-name="uni64" unicode="&#x64;" d="M1061 131Q1293 131 1463 246Q1633 361 1719.50 555Q1806 749 1806 979Q1806 1141 1752.50 1284.50Q1699 1428 1599 1535Q1499 1642 1359.50 1701.50Q1220 1761 1049 1761Q889 1761 754.50 1695.50Q620 1630 521.50 1516Q423 1402 369 1256Q315 1110 315 958Q315 740 407.50 549Q500 358 669.50 244.50Q839 131 1061 131M1794 0L1794 340L1786 340Q1686 165 1483.50 62Q1281-41 1065-41Q787-41 574 91.50Q361 224 246 453.50Q131 683 131 958Q131 1166 196 1345Q261 1524 382.50 1656Q504 1788 676 1860.50Q848 1933 1057 1933Q1278 1933 1472.50 1837Q1667 1741 1786 1565L1794 1565L1794 3379L1978 3379L1978 0L1794 0Z"  horiz-adv-x="2294" vert-adv-y="4096"  />

      
      <glyph glyph-name="uni2020" unicode="&#x2020;" d="M1171 3088L1368 3088L1368 2273L2109 2273L2109 2089L1368 2089L1368-729L1171-729L1171 2089L430 2089L430 2273L1171 2273L1171 3088Z"  horiz-adv-x="2540" vert-adv-y="4096"  />

      
      <glyph glyph-name="uni2021" unicode="&#x2021;" d="M1171 3088L1368 3088L1368 2273L2109 2273L2109 2089L1368 2089L1368 336L2109 336L2109 152L1368 152L1368-729L1171-729L1171 152L430 152L430 336L1171 336L1171 2089L430 2089L430 2273L1171 2273L1171 3088Z"  horiz-adv-x="2540" vert-adv-y="4096"  />

      
      <glyph glyph-name="unib0" unicode="&#xb0;" d="M1434 2515Q1434 2349 1350.50 2207Q1267 2065 1125.50 1983Q984 1901 819 1901Q651 1901 510 1983Q369 2065 287 2206Q205 2347 205 2515Q205 2681 287.50 2822Q370 2963 511.50 3046Q653 3129 819 3129Q983 3129 1125 3046Q1267 2963 1350.50 2821Q1434 2679 1434 2515M815 2957Q631 2957 504 2829Q377 2701 377 2515Q377 2329 505 2201Q633 2073 819 2073Q1004 2073 1133 2201Q1262 2329 1262 2515Q1262 2701 1132.50 2829Q1003 2957 815 2957Z"  horiz-adv-x="1638" vert-adv-y="4096"  />

      
      <glyph glyph-name="unia8" unicode="&#xa8;" d="M479 2761Q547 2761 595 2713Q643 2665 643 2597Q643 2529 594 2481Q545 2433 479 2433Q413 2433 364 2482Q315 2531 315 2597Q315 2663 363 2712Q411 2761 479 2761M1245 2761Q1313 2761 1361 2713Q1409 2665 1409 2597Q1409 2529 1360 2481Q1311 2433 1245 2433Q1179 2433 1130 2482Q1081 2531 1081 2597Q1081 2663 1129 2712Q1177 2761 1245 2761Z"  horiz-adv-x="1724" vert-adv-y="4096"  />

      
      <glyph glyph-name="unif7" unicode="&#xf7;" d="M221 950L221 1147L2318 1147L2318 950L221 950M1270 336Q1342 336 1390 288Q1438 240 1438 168Q1438 96 1389 48Q1340 0 1270 0Q1200 0 1151 49Q1102 98 1102 168Q1102 238 1150 287Q1198 336 1270 336M1270 2097Q1342 2097 1390 2049Q1438 2001 1438 1929Q1438 1857 1389 1809Q1340 1761 1270 1761Q1200 1761 1151 1810Q1102 1859 1102 1929Q1102 1999 1150 2048Q1198 2097 1270 2097Z"  horiz-adv-x="2540" vert-adv-y="4096"  />

      
      <glyph glyph-name="uni24" unicode="&#x24;" d="M1421 1483L1421 164Q1584 204 1717 307.50Q1850 411 1926.50 560Q2003 709 2003 877Q2003 1095 1849.50 1224Q1696 1353 1421 1483M1237 1790L1237 2933Q1094 2933 973 2851Q852 2769 782.50 2634.50Q713 2500 713 2355Q713 2212 788 2108.50Q863 2005 956.50 1946Q1050 1887 1237 1790M1237 156L1237 1573Q977 1703 847.50 1783Q718 1863 617 2002.50Q516 2142 516 2347Q516 2563 606.50 2735.50Q697 2908 860.50 3010.50Q1024 3113 1237 3129L1237 3559L1421 3559L1421 3121Q1616 3097 1785.50 2982Q1955 2867 2048 2695L1896 2572Q1812 2717 1689.50 2816.50Q1567 2916 1421 2933L1421 1704Q1738 1543 1864 1467.50Q1990 1392 2095 1243Q2200 1094 2200 860Q2200 647 2094 456Q1988 265 1808.50 136Q1629 7 1421-33L1421-496L1237-496L1237-41Q918-32 685 142Q452 316 340 627L508 705Q600 461 789.50 308.50Q979 156 1237 156Z"  horiz-adv-x="2540" vert-adv-y="4096"  />

      
      <glyph glyph-name="uni02D9" unicode="&#x02D9;" d="M643 2761Q711 2761 759 2713Q807 2665 807 2597Q807 2529 758 2481Q709 2433 643 2433Q577 2433 528 2482Q479 2531 479 2597Q479 2663 527 2712Q575 2761 643 2761Z"  horiz-adv-x="1282" vert-adv-y="4096"  />

      
      <glyph glyph-name="uni0131" unicode="&#x0131;" d="M569 1892L569 0L385 0L385 1892L569 1892Z"  horiz-adv-x="958" vert-adv-y="4096"  />

      
      <glyph glyph-name="uni65" unicode="&#x65;" d="M1958 930L315 930Q315 690 414 508Q513 326 686 228.50Q859 131 1073 131Q1289 131 1463.50 248.50Q1638 366 1741 561L1896 471Q1767 225 1547.50 92Q1328-41 1049-41Q777-41 567.50 93Q358 227 244.50 454Q131 681 131 950Q131 1215 246 1440.50Q361 1666 570.50 1799.50Q780 1933 1049 1933Q1326 1933 1533 1798Q1740 1663 1849 1433.50Q1958 1204 1958 930M315 1102L1774 1102Q1752 1276 1653 1428Q1554 1580 1397.50 1670.50Q1241 1761 1053 1761Q865 1761 701.50 1671.50Q538 1582 434.50 1430Q331 1278 315 1102Z"  horiz-adv-x="2089" vert-adv-y="4096"  />

      
      <glyph glyph-name="unie9" unicode="&#xe9;" d="M1958 930L315 930Q315 690 414 508Q513 326 686 228.50Q859 131 1073 131Q1289 131 1463.50 248.50Q1638 366 1741 561L1896 471Q1767 225 1547.50 92Q1328-41 1049-41Q777-41 567.50 93Q358 227 244.50 454Q131 681 131 950Q131 1215 246 1440.50Q361 1666 570.50 1799.50Q780 1933 1049 1933Q1326 1933 1533 1798Q1740 1663 1849 1433.50Q1958 1204 1958 930M315 1102L1774 1102Q1752 1276 1653 1428Q1554 1580 1397.50 1670.50Q1241 1761 1053 1761Q865 1761 701.50 1671.50Q538 1582 434.50 1430Q331 1278 315 1102M1127 2925L1377 2847L869 2253L713 2322L1127 2925Z"  horiz-adv-x="2089" vert-adv-y="4096"  />

      
      <glyph glyph-name="uniea" unicode="&#xea;" d="M1958 930L315 930Q315 690 414 508Q513 326 686 228.50Q859 131 1073 131Q1289 131 1463.50 248.50Q1638 366 1741 561L1896 471Q1767 225 1547.50 92Q1328-41 1049-41Q777-41 567.50 93Q358 227 244.50 454Q131 681 131 950Q131 1215 246 1440.50Q361 1666 570.50 1799.50Q780 1933 1049 1933Q1326 1933 1533 1798Q1740 1663 1849 1433.50Q1958 1204 1958 930M315 1102L1774 1102Q1752 1276 1653 1428Q1554 1580 1397.50 1670.50Q1241 1761 1053 1761Q865 1761 701.50 1671.50Q538 1582 434.50 1430Q331 1278 315 1102M479 2408L1044 2843L1610 2408L1454 2290L1044 2605L627 2290L479 2408Z"  horiz-adv-x="2089" vert-adv-y="4096"  />

      
      <glyph glyph-name="unieb" unicode="&#xeb;" d="M1958 930L315 930Q315 690 414 508Q513 326 686 228.50Q859 131 1073 131Q1289 131 1463.50 248.50Q1638 366 1741 561L1896 471Q1767 225 1547.50 92Q1328-41 1049-41Q777-41 567.50 93Q358 227 244.50 454Q131 681 131 950Q131 1215 246 1440.50Q361 1666 570.50 1799.50Q780 1933 1049 1933Q1326 1933 1533 1798Q1740 1663 1849 1433.50Q1958 1204 1958 930M315 1102L1774 1102Q1752 1276 1653 1428Q1554 1580 1397.50 1670.50Q1241 1761 1053 1761Q865 1761 701.50 1671.50Q538 1582 434.50 1430Q331 1278 315 1102M663 2761Q731 2761 779 2713Q827 2665 827 2597Q827 2529 778 2481Q729 2433 663 2433Q597 2433 548 2482Q499 2531 499 2597Q499 2663 547 2712Q595 2761 663 2761M1429 2761Q1497 2761 1545 2713Q1593 2665 1593 2597Q1593 2529 1544 2481Q1495 2433 1429 2433Q1363 2433 1314 2482Q1265 2531 1265 2597Q1265 2663 1313 2712Q1361 2761 1429 2761Z"  horiz-adv-x="2089" vert-adv-y="4096"  />

      
      <glyph glyph-name="unie8" unicode="&#xe8;" d="M1958 930L315 930Q315 690 414 508Q513 326 686 228.50Q859 131 1073 131Q1289 131 1463.50 248.50Q1638 366 1741 561L1896 471Q1767 225 1547.50 92Q1328-41 1049-41Q777-41 567.50 93Q358 227 244.50 454Q131 681 131 950Q131 1215 246 1440.50Q361 1666 570.50 1799.50Q780 1933 1049 1933Q1326 1933 1533 1798Q1740 1663 1849 1433.50Q1958 1204 1958 930M315 1102L1774 1102Q1752 1276 1653 1428Q1554 1580 1397.50 1670.50Q1241 1761 1053 1761Q865 1761 701.50 1671.50Q538 1582 434.50 1430Q331 1278 315 1102M713 2847L963 2925L1377 2322L1221 2253L713 2847Z"  horiz-adv-x="2089" vert-adv-y="4096"  />

      
      <glyph glyph-name="uni38" unicode="&#x38;" d="M1270 1511Q1082 1511 920.50 1419.50Q759 1328 664 1170.50Q569 1013 569 827Q569 641 664 483.50Q759 326 920.50 234.50Q1082 143 1270 143Q1456 143 1617.50 234.50Q1779 326 1874.50 484.50Q1970 643 1970 827Q1970 1011 1874.50 1169.50Q1779 1328 1617.50 1419.50Q1456 1511 1270 1511M1270-41Q1090-41 927 22.50Q764 86 639 200Q514 314 443.50 471Q373 628 373 807Q373 1367 877 1610Q679 1708 560.50 1901Q442 2094 442 2314Q442 2542 551 2729.50Q660 2917 850 3023Q1040 3129 1270 3129Q1500 3129 1689.50 3023Q1879 2917 1988 2729.50Q2097 2542 2097 2314Q2097 2172 2044 2033.50Q1991 1895 1891.50 1784Q1792 1673 1663 1610Q2167 1367 2167 807Q2167 569 2044.50 373.50Q1922 178 1716 68.50Q1510-41 1270-41M1270 2945Q1101 2945 955.50 2860Q810 2775 724.50 2630Q639 2485 639 2318Q639 2149 724 2006Q809 1863 954.50 1779.50Q1100 1696 1270 1696Q1438 1696 1584 1779.50Q1730 1863 1815.50 2007Q1901 2151 1901 2318Q1901 2486 1814.50 2630.50Q1728 2775 1582 2860Q1436 2945 1270 2945Z"  horiz-adv-x="2540" vert-adv-y="4096"  />

      
      <glyph glyph-name="uni2026" unicode="&#x2026;" d="M684 307Q756 307 804 259Q852 211 852 139Q852 67 803 19Q754-29 684-29Q614-29 565 20Q516 69 516 139Q516 209 564 258Q612 307 684 307M2048 307Q2120 307 2168 259Q2216 211 2216 139Q2216 67 2167 19Q2118-29 2048-29Q1978-29 1929 20Q1880 69 1880 139Q1880 209 1928 258Q1976 307 2048 307M3412 307Q3484 307 3532 259Q3580 211 3580 139Q3580 67 3531 19Q3482-29 3412-29Q3342-29 3293 20Q3244 69 3244 139Q3244 209 3292 258Q3340 307 3412 307Z"  horiz-adv-x="4096" vert-adv-y="4096"  />

      
      <glyph glyph-name="uni2014" unicode="&#x2014;" d="M0 1401L4096 1401L4096 1217L0 1217L0 1401Z"  horiz-adv-x="4096" vert-adv-y="4096"  />

      
      <glyph glyph-name="uni2013" unicode="&#x2013;" d="M0 1401L2048 1401L2048 1217L0 1217L0 1401Z"  horiz-adv-x="2048" vert-adv-y="4096"  />

      
      <glyph glyph-name="uni3d" unicode="&#x3d;" d="M2318 1495L2318 1298L221 1298L221 1495L2318 1495M2318 799L2318 602L221 602L221 799L2318 799Z"  horiz-adv-x="2540" vert-adv-y="4096"  />

      
      <glyph glyph-name="unif0" unicode="&#xf0;" d="M1077 1761Q918 1761 783.50 1695.50Q649 1630 550.50 1516Q452 1402 398 1256Q344 1110 344 958Q344 740 436.50 549Q529 358 698.50 244.50Q868 131 1090 131Q1322 131 1492 246Q1662 361 1748.50 555Q1835 749 1835 979Q1835 1196 1741 1375.50Q1647 1555 1473.50 1658Q1300 1761 1077 1761M2007 1892L2007 90Q2007-183 1973.50-364Q1940-545 1819-713Q1689-890 1491-983.50Q1293-1077 1065-1077Q815-1077 607-982Q399-887 272.50-703Q146-519 131-266L315-266Q325-457 427-602Q529-747 693-826Q857-905 1049-905Q1235-905 1396-835Q1557-765 1655-623Q1757-473 1790-303Q1823-133 1823 94L1823 328L1815 328Q1689 159 1490 59Q1291-41 1077-41Q810-41 600.50 95Q391 231 275.50 459.50Q160 688 160 950Q160 1219 280 1444.50Q400 1670 615.50 1801.50Q831 1933 1102 1933Q1540 1933 1815 1565L1823 1565L1823 1892L2007 1892M536 2695L716 2695Q796 2445 1118 2445Q1440 2445 1519 2695L1695 2695Q1672 2491 1503 2376Q1334 2261 1118 2261Q901 2261 732 2375.50Q563 2490 536 2695Z"  horiz-adv-x="2322" vert-adv-y="4096"  />

      
      <glyph glyph-name="uni21" unicode="&#x21;" d="M655 295Q728 295 775.50 246.50Q823 198 823 127Q823 56 774.50 7.50Q726-41 655-41Q585-41 536 8Q487 57 487 127Q487 197 535 246Q583 295 655 295M557 586L557 3088L754 3088L754 586L557 586Z"  horiz-adv-x="1311" vert-adv-y="4096"  />

      
      <glyph glyph-name="unia1" unicode="&#xa1;" d="M655 1933Q727 1933 775 1885Q823 1837 823 1765Q823 1694 774.50 1645.50Q726 1597 655 1597Q585 1597 536 1646Q487 1695 487 1765Q487 1836 535.50 1884.50Q584 1933 655 1933M754 1315L754-1188L557-1188L557 1315L754 1315Z"  horiz-adv-x="1311" vert-adv-y="4096"  />

      
      <glyph glyph-name="uni66" unicode="&#x66;" d="M500 1720L500 0L315 0L315 1720L106 1720L106 1892L315 1892L315 2740Q315 3073 389 3203Q451 3313 564 3372.50Q677 3432 811 3432Q901 3432 975 3404L975 3236Q939 3243 917 3248Q895 3253 868 3256.50Q841 3260 823 3260Q613 3260 556.50 3109Q500 2958 500 2703L500 1892L975 1892L975 1720L500 1720Z"  horiz-adv-x="983" vert-adv-y="4096"  />

      
      <glyph glyph-name="uniF001" unicode="&#xF001;" d="M1556 1892L1556 0L1372 0L1372 1892L1556 1892M1466 2691Q1538 2691 1586 2641Q1634 2591 1634 2523Q1634 2452 1585.50 2403.50Q1537 2355 1466 2355Q1396 2355 1347 2404Q1298 2453 1298 2523Q1298 2590 1346.50 2640.50Q1395 2691 1466 2691M500 1720L500 0L315 0L315 1720L106 1720L106 1892L315 1892L315 2740Q315 3073 389 3203Q451 3313 564 3372.50Q677 3432 811 3432Q901 3432 975 3404L975 3236Q939 3243 917 3248Q895 3253 868 3256.50Q841 3260 823 3260Q613 3260 556.50 3109Q500 2958 500 2703L500 1892L975 1892L975 1720L500 1720Z"  horiz-adv-x="1946" vert-adv-y="4096"  />

      
      <glyph glyph-name="uni35" unicode="&#x35;" d="M2175 2904L1143 2904L885 2068Q988 2101 1118 2101Q1410 2101 1650.50 1960.50Q1891 1820 2029 1578Q2167 1336 2167 1049Q2167 741 2019.50 491Q1872 241 1615.50 100Q1359-41 1053-41Q869-41 696 20Q523 81 379 197.50Q235 314 139 471L319 545Q439 364 639.50 253.50Q840 143 1057 143Q1311 143 1520 261.50Q1729 380 1849.50 589.50Q1970 799 1970 1053Q1970 1233 1900 1392Q1830 1551 1703.50 1669.50Q1577 1788 1414 1852.50Q1251 1917 1069 1917Q833 1917 598 1778L999 3088L2175 3088L2175 2904Z"  horiz-adv-x="2540" vert-adv-y="4096"  />

      
      <glyph glyph-name="uniF002" unicode="&#xF002;" d="M500 1720L500 0L315 0L315 1720L106 1720L106 1892L315 1892L315 2740Q315 3073 389 3203Q451 3313 564 3372.50Q677 3432 811 3432Q901 3432 975 3404L975 3236Q939 3243 917 3248Q895 3253 868 3256.50Q841 3260 823 3260Q613 3260 556.50 3109Q500 2958 500 2703L500 1892L975 1892L975 1720L500 1720M1483 3379L1483 0L1298 0L1298 3379L1483 3379Z"  horiz-adv-x="1798" vert-adv-y="4096"  />

      
      <glyph glyph-name="uni0192" unicode="&#x0192;" d="M1511 1991L1987 1991L1950 1806L1479 1806L1184 250Q1127-50 1088.50-190.50Q1050-331 937.50-452Q825-573 614-573Q465-573 287-504L324-332Q469-389 598-389Q776-389 840-287Q911-168 967 123L1290 1806L1008 1806L1044 1991L1323 1991L1487 2867Q1544 3148 1606 3244Q1666 3334 1771.50 3383Q1877 3432 1991 3432Q2123 3432 2257 3371L2220 3203Q2118 3248 2007 3248Q1897 3248 1830.50 3204Q1764 3160 1730.50 3086.50Q1697 3013 1680 2917Q1663 2821 1647 2732L1511 1991Z"  horiz-adv-x="2540" vert-adv-y="4096"  />

      
      <glyph glyph-name="uni34" unicode="&#x34;" d="M1913 770L2347 770L2347 586L1913 586L1913 0L1716 0L1716 586L49 586L49 610L1888 3195L1913 3195L1913 770M1716 770L1716 2597L1692 2597L410 795L410 770L1716 770Z"  horiz-adv-x="2540" vert-adv-y="4096"  />

      
      <glyph glyph-name="uni2044" unicode="&#x2044;" d="M1114 3162L1245 3088L-586-70L-717 4L1114 3162Z"  horiz-adv-x="528" vert-adv-y="4096"  />

      
      <glyph glyph-name="uni67" unicode="&#x67;" d="M1077 1761Q918 1761 783.50 1695.50Q649 1630 550.50 1516Q452 1402 398 1256Q344 1110 344 958Q344 740 436.50 549Q529 358 698.50 244.50Q868 131 1090 131Q1322 131 1492 246Q1662 361 1748.50 555Q1835 749 1835 979Q1835 1196 1741 1375.50Q1647 1555 1473.50 1658Q1300 1761 1077 1761M2007 1892L2007 90Q2007-183 1973.50-364Q1940-545 1819-713Q1689-890 1491-983.50Q1293-1077 1065-1077Q815-1077 607-982Q399-887 272.50-703Q146-519 131-266L315-266Q325-457 427-602Q529-747 693-826Q857-905 1049-905Q1235-905 1396-835Q1557-765 1655-623Q1757-473 1790-303Q1823-133 1823 94L1823 328L1815 328Q1689 159 1490 59Q1291-41 1077-41Q810-41 600.50 95Q391 231 275.50 459.50Q160 688 160 950Q160 1219 280 1444.50Q400 1670 615.50 1801.50Q831 1933 1102 1933Q1540 1933 1815 1565L1823 1565L1823 1892L2007 1892Z"  horiz-adv-x="2322" vert-adv-y="4096"  />

      
      <glyph glyph-name="unidf" unicode="&#xdf;" d="M315 0L315 1720L115 1720L115 1892L315 1892L315 2662Q315 3032 455 3199Q547 3314 693 3373Q839 3432 999 3432Q1184 3432 1334 3345.50Q1484 3259 1567.50 3107Q1651 2955 1651 2769Q1651 2581 1554.50 2428Q1458 2275 1290 2212L1290 2204Q1515 2143 1690 1980.50Q1865 1818 1960.50 1596Q2056 1374 2056 1139Q2056 912 1969 707.50Q1882 503 1728.50 346.50Q1575 190 1372.50 93.50Q1170-3 946-25L946 147Q1201 185 1412.50 321.50Q1624 458 1748 672Q1872 886 1872 1139Q1872 1404 1752 1615Q1632 1826 1421.50 1952Q1211 2078 946 2105L946 2277Q1180 2280 1323 2419Q1466 2558 1466 2789Q1466 2926 1400.50 3034Q1335 3142 1222 3201Q1109 3260 971 3260Q851 3260 742 3210.50Q633 3161 578 3064Q500 2930 500 2597L500 0L315 0Z"  horiz-adv-x="2187" vert-adv-y="4096"  />

      
      <glyph glyph-name="uni60" unicode="&#x60;" d="M307 2847L557 2925L971 2322L815 2253L307 2847Z"  horiz-adv-x="1282" vert-adv-y="4096"  />

      
      <glyph glyph-name="uni3e" unicode="&#x3e;" d="M221 168L2105 1049L221 1884L221 2073L2318 1159L2318 942L221-20L221 168Z"  horiz-adv-x="2540" vert-adv-y="4096"  />

      
      <glyph glyph-name="uniab" unicode="&#xab;" d="M856 1311L1352 729L1233 618L635 1311L1233 2003L1352 1892L856 1311M365 1311L860 729L741 618L143 1311L741 2003L860 1892L365 1311Z"  horiz-adv-x="1626" vert-adv-y="4096"  />

      
      <glyph glyph-name="unibb" unicode="&#xbb;" d="M274 729L770 1311L274 1892L393 2003L991 1311L393 618L274 729M766 729L1262 1311L766 1892L885 2003L1483 1311L885 618L766 729Z"  horiz-adv-x="1626" vert-adv-y="4096"  />

      
      <glyph glyph-name="uni2039" unicode="&#x2039;" d="M365 1311L860 729L741 618L143 1311L741 2003L860 1892L365 1311Z"  horiz-adv-x="1135" vert-adv-y="4096"  />

      
      <glyph glyph-name="uni203A" unicode="&#x203A;" d="M274 729L770 1311L274 1892L393 2003L991 1311L393 618L274 729Z"  horiz-adv-x="1135" vert-adv-y="4096"  />

      
      <glyph glyph-name="uni68" unicode="&#x68;" d="M315 3379L500 3379L500 1597L508 1597Q591 1755 738.50 1844Q886 1933 1069 1933Q1306 1933 1443 1840Q1580 1747 1636 1573.50Q1692 1400 1692 1143L1692 0L1507 0L1507 1143Q1507 1340 1477 1471.50Q1447 1603 1347 1682Q1247 1761 1053 1761Q832 1761 709 1642.50Q586 1524 543 1340.50Q500 1157 500 934L500 0L315 0L315 3379Z"  horiz-adv-x="2007" vert-adv-y="4096"  />

      
      <glyph glyph-name="uni02DD" unicode="&#x02DD;" d="M725 2925L975 2847L467 2253L311 2322L725 2925M1270 2925L1520 2847L1012 2253L856 2322L1270 2925Z"  horiz-adv-x="1827" vert-adv-y="4096"  />

      
      <glyph glyph-name="uni2d" unicode="&#x2d;" d="M0 1401L778 1401L778 1217L0 1217L0 1401Z"  horiz-adv-x="778" vert-adv-y="4096"  />

      
      <glyph glyph-name="uni69" unicode="&#x69;" d="M569 1892L569 0L385 0L385 1892L569 1892M479 2691Q550 2691 598.50 2641.50Q647 2592 647 2523Q647 2451 598 2403Q549 2355 479 2355Q409 2355 360 2404Q311 2453 311 2523Q311 2590 359.50 2640.50Q408 2691 479 2691Z"  horiz-adv-x="958" vert-adv-y="4096"  />

      
      <glyph glyph-name="unied" unicode="&#xed;" d="M569 1892L569 0L385 0L385 1892L569 1892M561 2925L811 2847L303 2253L147 2322L561 2925Z"  horiz-adv-x="958" vert-adv-y="4096"  />

      
      <glyph glyph-name="uniee" unicode="&#xee;" d="M569 1892L569 0L385 0L385 1892L569 1892M-86 2408L479 2843L1045 2408L889 2290L479 2605L62 2290L-86 2408Z"  horiz-adv-x="959" vert-adv-y="4096"  />

      
      <glyph glyph-name="unief" unicode="&#xef;" d="M569 1892L569 0L385 0L385 1892L569 1892M98 2761Q166 2761 214 2713Q262 2665 262 2597Q262 2529 213 2481Q164 2433 98 2433Q32 2433-17 2482Q-66 2531-66 2597Q-66 2663-18 2712Q30 2761 98 2761M864 2761Q932 2761 980 2713Q1028 2665 1028 2597Q1028 2529 979 2481Q930 2433 864 2433Q798 2433 749 2482Q700 2531 700 2597Q700 2663 748 2712Q796 2761 864 2761Z"  horiz-adv-x="958" vert-adv-y="4096"  />

      
      <glyph glyph-name="uniec" unicode="&#xec;" d="M569 1892L569 0L385 0L385 1892L569 1892M147 2847L397 2925L811 2322L655 2253L147 2847Z"  horiz-adv-x="958" vert-adv-y="4096"  />

      
      <glyph glyph-name="uni6a" unicode="&#x6a;" d="M569 1892L569-1106L385-1106L385 1892L569 1892M479 2691Q550 2691 598.50 2641.50Q647 2592 647 2523Q647 2451 598 2403Q549 2355 479 2355Q409 2355 360 2404Q311 2453 311 2523Q311 2590 359.50 2640.50Q408 2691 479 2691Z"  horiz-adv-x="958" vert-adv-y="4096"  />

      
      <glyph glyph-name="uni6b" unicode="&#x6b;" d="M500 3379L500 1090L1278 1892L1516 1892L721 1073L1782 0L1540 0L602 946L500 840L500 0L315 0L315 3379L500 3379Z"  horiz-adv-x="1749" vert-adv-y="4096"  />

      
      <glyph glyph-name="uni6c" unicode="&#x6c;" d="M500 3379L500 0L315 0L315 3379L500 3379Z"  horiz-adv-x="815" vert-adv-y="4096"  />

      
      <glyph glyph-name="uni3c" unicode="&#x3c;" d="M434 1049L2318 168L2318-20L221 942L221 1159L2318 2073L2318 1884L434 1049Z"  horiz-adv-x="2540" vert-adv-y="4096"  />

      
      <glyph glyph-name="uniac" unicode="&#xac;" d="M2122 406L2122 1298L221 1298L221 1495L2318 1495L2318 406L2122 406Z"  horiz-adv-x="2540" vert-adv-y="4096"  />

      
      <glyph glyph-name="uni0142" unicode="&#x0142;" d="M561 1798L868 2032L868 1810L561 1573L561 0L377 0L377 1479L70 1241L70 1466L377 1704L377 3379L561 3379L561 1798Z"  horiz-adv-x="938" vert-adv-y="4096"  />

      
      <glyph glyph-name="uni6d" unicode="&#x6d;" d="M500 1892L500 1655L508 1655Q572 1785 700 1859Q828 1933 983 1933Q1165 1933 1304 1844Q1443 1755 1516 1589Q1591 1755 1736.50 1844Q1882 1933 2068 1933Q2300 1933 2429.50 1837.50Q2559 1742 2606.50 1579Q2654 1416 2654 1188L2654 0L2470 0L2470 1212Q2470 1476 2390.50 1618.50Q2311 1761 2064 1761Q1879 1761 1770.50 1666Q1662 1571 1619.50 1423Q1577 1275 1577 1090L1577 0L1393 0L1393 1167Q1393 1338 1362 1467Q1331 1596 1237.50 1678.50Q1144 1761 971 1761Q703 1761 601.50 1548.50Q500 1336 500 1040L500 0L315 0L315 1892L500 1892Z"  horiz-adv-x="2970" vert-adv-y="4096"  />

      
      <glyph glyph-name="uniaf" unicode="&#xaf;" d="M307 2761L1556 2761L1556 2576L307 2576L307 2761Z"  horiz-adv-x="1868" vert-adv-y="4096"  />

      
      <glyph glyph-name="uni2212" unicode="&#x2212;" d="M221 950L221 1147L2318 1147L2318 950L221 950Z"  horiz-adv-x="2540" vert-adv-y="4096"  />

      
      <glyph glyph-name="unib5" unicode="&#xb5;" d="M471-1106L287-1106L287 1892L471 1892L471 958Q471 625 579 378Q687 131 967 131Q1275 131 1368.50 309Q1462 487 1462 823L1462 1892L1647 1892L1647 758Q1647 565 1627.50 441Q1608 317 1532 213Q1438 89 1285.50 24Q1133-41 967-41Q829-41 681 50Q533 141 479 295L471 295L471-1106Z"  horiz-adv-x="1933" vert-adv-y="4096"  />

      
      <glyph glyph-name="unid7" unicode="&#xd7;" d="M1143 1049L221 1958L344 2097L1270 1171L2195 2097L2318 1958L1401 1049L2318 131L2195 0L1270 922L348 0L221 131L1143 1049Z"  horiz-adv-x="2540" vert-adv-y="4096"  />

      
      <glyph glyph-name="uni6e" unicode="&#x6e;" d="M500 1892L500 1597L508 1597Q591 1755 738.50 1844Q886 1933 1069 1933Q1306 1933 1443 1840Q1580 1747 1636 1573.50Q1692 1400 1692 1143L1692 0L1507 0L1507 1143Q1507 1340 1477 1471.50Q1447 1603 1347 1682Q1247 1761 1053 1761Q832 1761 709 1642.50Q586 1524 543 1340.50Q500 1157 500 934L500 0L315 0L315 1892L500 1892Z"  horiz-adv-x="2007" vert-adv-y="4096"  />

      
      <glyph glyph-name="uni39" unicode="&#x39;" d="M1147-33L987 86L1671 1049L1663 1057Q1460 975 1249 975Q961 975 712.50 1121.50Q464 1268 318 1518Q172 1768 172 2056Q172 2349 322.50 2596.50Q473 2844 727.50 2986.50Q982 3129 1274 3129Q1501 3129 1701 3047Q1901 2965 2052 2814Q2203 2663 2285 2463Q2367 2263 2367 2036Q2367 1701 2142 1376L1147-33M1274 2945Q1034 2945 824.50 2825.50Q615 2706 492 2499Q369 2292 369 2052Q369 1814 492 1607Q615 1400 824 1279.50Q1033 1159 1274 1159Q1516 1159 1722 1279.50Q1928 1400 2049.50 1606Q2171 1812 2171 2052Q2171 2294 2050 2500Q1929 2706 1722 2825.50Q1515 2945 1274 2945Z"  horiz-adv-x="2540" vert-adv-y="4096"  />

      
      <glyph glyph-name="unif1" unicode="&#xf1;" d="M500 1892L500 1597L508 1597Q591 1755 738.50 1844Q886 1933 1069 1933Q1306 1933 1443 1840Q1580 1747 1636 1573.50Q1692 1400 1692 1143L1692 0L1507 0L1507 1143Q1507 1340 1477 1471.50Q1447 1603 1347 1682Q1247 1761 1053 1761Q832 1761 709 1642.50Q586 1524 543 1340.50Q500 1157 500 934L500 0L315 0L315 1892L500 1892M536 2400L413 2490Q457 2598 541.50 2675.50Q626 2753 733 2753Q829 2753 1019 2675Q1051 2663 1107 2639.50Q1163 2616 1202.50 2604.50Q1242 2593 1277 2593Q1347 2593 1399 2642Q1451 2691 1474 2761L1593 2671Q1566 2559 1470 2481.50Q1374 2404 1261 2404Q1191 2404 995 2486Q807 2568 716 2568Q593 2568 536 2400Z"  horiz-adv-x="2007" vert-adv-y="4096"  />

      
      <glyph glyph-name="uni23" unicode="&#x23;" d="M2195 1130L2195 934L1679 934L1528 0L1339 0L1487 934L934 934L799 0L602 0L737 934L242 934L242 1130L766 1130L860 1794L356 1794L356 1991L889 1991L1020 2859L1225 2859L1094 1991L1651 1991L1782 2859L1987 2859L1851 1991L2302 1991L2302 1794L1819 1794L1712 1130L2195 1130M1618 1794L1061 1794L963 1130L1520 1130L1618 1794Z"  horiz-adv-x="2540" vert-adv-y="4096"  />

      
      <glyph glyph-name="uni6f" unicode="&#x6f;" d="M1114 1933Q1322 1933 1504.50 1858Q1687 1783 1822 1649.50Q1957 1516 2033 1335Q2109 1154 2109 946Q2109 670 1977 444Q1845 218 1616.50 88.50Q1388-41 1114-41Q847-41 621 92.50Q395 226 263 452Q131 678 131 942Q131 1210 262 1438Q393 1666 619 1799.50Q845 1933 1114 1933M1102 1761Q883 1761 702 1649Q521 1537 418 1348Q315 1159 315 942Q315 728 419 541Q523 354 704 242.50Q885 131 1102 131Q1328 131 1518 238Q1708 345 1816.50 531.50Q1925 718 1925 942Q1925 1172 1816.50 1359.50Q1708 1547 1520 1654Q1332 1761 1102 1761Z"  horiz-adv-x="2241" vert-adv-y="4096"  />

      
      <glyph glyph-name="unif3" unicode="&#xf3;" d="M1114 1933Q1322 1933 1504.50 1858Q1687 1783 1822 1649.50Q1957 1516 2033 1335Q2109 1154 2109 946Q2109 670 1977 444Q1845 218 1616.50 88.50Q1388-41 1114-41Q847-41 621 92.50Q395 226 263 452Q131 678 131 942Q131 1210 262 1438Q393 1666 619 1799.50Q845 1933 1114 1933M1102 1761Q883 1761 702 1649Q521 1537 418 1348Q315 1159 315 942Q315 728 419 541Q523 354 704 242.50Q885 131 1102 131Q1328 131 1518 238Q1708 345 1816.50 531.50Q1925 718 1925 942Q1925 1172 1816.50 1359.50Q1708 1547 1520 1654Q1332 1761 1102 1761M1200 2925L1450 2847L942 2253L786 2322L1200 2925Z"  horiz-adv-x="2241" vert-adv-y="4096"  />

      
      <glyph glyph-name="unif4" unicode="&#xf4;" d="M1114 1933Q1322 1933 1504.50 1858Q1687 1783 1822 1649.50Q1957 1516 2033 1335Q2109 1154 2109 946Q2109 670 1977 444Q1845 218 1616.50 88.50Q1388-41 1114-41Q847-41 621 92.50Q395 226 263 452Q131 678 131 942Q131 1210 262 1438Q393 1666 619 1799.50Q845 1933 1114 1933M1102 1761Q883 1761 702 1649Q521 1537 418 1348Q315 1159 315 942Q315 728 419 541Q523 354 704 242.50Q885 131 1102 131Q1328 131 1518 238Q1708 345 1816.50 531.50Q1925 718 1925 942Q1925 1172 1816.50 1359.50Q1708 1547 1520 1654Q1332 1761 1102 1761M557 2408L1122 2843L1688 2408L1532 2290L1122 2605L705 2290L557 2408Z"  horiz-adv-x="2241" vert-adv-y="4096"  />

      
      <glyph glyph-name="unif6" unicode="&#xf6;" d="M1114 1933Q1322 1933 1504.50 1858Q1687 1783 1822 1649.50Q1957 1516 2033 1335Q2109 1154 2109 946Q2109 670 1977 444Q1845 218 1616.50 88.50Q1388-41 1114-41Q847-41 621 92.50Q395 226 263 452Q131 678 131 942Q131 1210 262 1438Q393 1666 619 1799.50Q845 1933 1114 1933M1102 1761Q883 1761 702 1649Q521 1537 418 1348Q315 1159 315 942Q315 728 419 541Q523 354 704 242.50Q885 131 1102 131Q1328 131 1518 238Q1708 345 1816.50 531.50Q1925 718 1925 942Q1925 1172 1816.50 1359.50Q1708 1547 1520 1654Q1332 1761 1102 1761M737 2761Q805 2761 853 2713Q901 2665 901 2597Q901 2529 852 2481Q803 2433 737 2433Q671 2433 622 2482Q573 2531 573 2597Q573 2663 621 2712Q669 2761 737 2761M1503 2761Q1571 2761 1619 2713Q1667 2665 1667 2597Q1667 2529 1618 2481Q1569 2433 1503 2433Q1437 2433 1388 2482Q1339 2531 1339 2597Q1339 2663 1387 2712Q1435 2761 1503 2761Z"  horiz-adv-x="2241" vert-adv-y="4096"  />

      
      <glyph glyph-name="uni0153" unicode="&#x0153;" d="M3740 930L2105 930Q2105 704 2204 520.50Q2303 337 2474 234Q2645 131 2851 131Q3309 131 3518 569L3674 475Q3552 227 3332.50 93Q3113-41 2834-41Q2563-41 2336.50 112Q2110 265 2011 516Q1891 265 1649 112Q1407-41 1126-41Q853-41 625 89Q397 219 264 445.50Q131 672 131 942Q131 1215 266 1443.50Q401 1672 631.50 1802.50Q862 1933 1135 1933Q1319 1933 1492.50 1865.50Q1666 1798 1802 1673Q1938 1548 2011 1384Q2109 1644 2329.50 1788.50Q2550 1933 2830 1933Q3112 1933 3319 1800Q3526 1667 3633 1438Q3740 1209 3740 930M2105 1102L3555 1102Q3532 1279 3434.50 1429Q3337 1579 3180.50 1670Q3024 1761 2834 1761Q2645 1761 2484.50 1671.50Q2324 1582 2222.50 1429.50Q2121 1277 2105 1102M1130 1761Q900 1761 713 1650.50Q526 1540 420.50 1349Q315 1158 315 930Q315 721 423 536.50Q531 352 714.50 241.50Q898 131 1110 131Q1329 131 1517 240Q1705 349 1813 536Q1921 723 1921 942Q1921 1158 1816 1347.50Q1711 1537 1529 1649Q1347 1761 1130 1761Z"  horiz-adv-x="3871" vert-adv-y="4096"  />

      
      <glyph glyph-name="uni02DB" unicode="&#x02DB;" d="M627 8L803 8L803 0Q487-231 487-430Q487-546 566-609Q645-672 766-672Q845-672 1004-623L963-803Q834-840 750-840Q572-840 439.50-730Q307-620 307-446Q307-193 627 8Z"  horiz-adv-x="1315" vert-adv-y="4096"  />

      
      <glyph glyph-name="unif2" unicode="&#xf2;" d="M1114 1933Q1322 1933 1504.50 1858Q1687 1783 1822 1649.50Q1957 1516 2033 1335Q2109 1154 2109 946Q2109 670 1977 444Q1845 218 1616.50 88.50Q1388-41 1114-41Q847-41 621 92.50Q395 226 263 452Q131 678 131 942Q131 1210 262 1438Q393 1666 619 1799.50Q845 1933 1114 1933M1102 1761Q883 1761 702 1649Q521 1537 418 1348Q315 1159 315 942Q315 728 419 541Q523 354 704 242.50Q885 131 1102 131Q1328 131 1518 238Q1708 345 1816.50 531.50Q1925 718 1925 942Q1925 1172 1816.50 1359.50Q1708 1547 1520 1654Q1332 1761 1102 1761M786 2847L1036 2925L1450 2322L1294 2253L786 2847Z"  horiz-adv-x="2241" vert-adv-y="4096"  />

      
      <glyph glyph-name="uni31" unicode="&#x31;" d="M1262 2904L774 2904L868 3088L1458 3088L1458 0L1262 0L1262 2904Z"  horiz-adv-x="2540" vert-adv-y="4096"  />

      
      <glyph glyph-name="unibd" unicode="&#xbd;" d="M721 2949L410 2949L471 3088L860 3088L860 1253L721 1253L721 2949M2482 139L3391 139L3391 0L2154 0L2900 758Q3067 929 3163.50 1064.50Q3260 1200 3260 1343Q3260 1519 3128 1628Q2996 1737 2798 1737Q2591 1737 2463 1627Q2335 1517 2335 1331L2195 1331Q2204 1556 2322 1679Q2407 1770 2536.50 1823Q2666 1876 2798 1876Q2961 1876 3099.50 1805Q3238 1734 3319 1609.50Q3400 1485 3400 1335Q3400 1167 3300.50 1017Q3201 867 3039 705L2482 139M2478 3162L2609 3088L778-70L647 4L2478 3162Z"  horiz-adv-x="3809" vert-adv-y="4096"  />

      
      <glyph glyph-name="unibc" unicode="&#xbc;" d="M721 2949L410 2949L471 3088L860 3088L860 1253L721 1253L721 2949M3129 475L3400 475L3400 336L3129 336L3129 0L2990 0L2990 336L1929 336L1929 352L3105 1917L3129 1917L3129 475M2990 475L2990 1503L2970 1503L2208 492L2208 475L2990 475M2658 3162L2789 3088L958-70L827 4L2658 3162Z"  horiz-adv-x="3809" vert-adv-y="4096"  />

      
      <glyph glyph-name="unib9" unicode="&#xb9;" d="M860 2949L549 2949L610 3088L999 3088L999 1253L860 1253L860 2949Z"  horiz-adv-x="1524" vert-adv-y="4096"  />

      
      <glyph glyph-name="uniaa" unicode="&#xaa;" d="M1290 1675L1290 1536L90 1536L90 1675L1290 1675M668 2990Q479 2990 354 2854.50Q229 2719 229 2540Q229 2354 353 2219.50Q477 2085 676 2085Q820 2085 928.50 2149Q1037 2213 1094 2319Q1151 2425 1151 2552Q1151 2736 1014.50 2863Q878 2990 668 2990M1290 3105L1290 1970L1171 1970L1171 2175L1163 2175Q1097 2067 966 2006.50Q835 1946 696 1946Q514 1946 377 2025Q240 2104 165 2241.50Q90 2379 90 2544Q90 2798 253.50 2963.50Q417 3129 692 3129Q838 3129 963 3071.50Q1088 3014 1163 2908L1171 2908L1171 3105L1290 3105Z"  horiz-adv-x="1376" vert-adv-y="4096"  />

      
      <glyph glyph-name="uniba" unicode="&#xba;" d="M1315 1675L1315 1536L29 1536L29 1675L1315 1675M668 3129Q845 3129 994 3051.50Q1143 2974 1229 2838.50Q1315 2703 1315 2540Q1315 2375 1228.50 2238Q1142 2101 993.50 2023.50Q845 1946 668 1946Q494 1946 347.50 2025.50Q201 2105 115 2241.50Q29 2378 29 2535Q29 2696 114.50 2833Q200 2970 345.50 3049.50Q491 3129 668 3129M659 2990Q530 2990 421.50 2926.50Q313 2863 250.50 2756.50Q188 2650 188 2531Q188 2415 251 2312Q314 2209 421.50 2147Q529 2085 659 2085Q794 2085 908 2144.50Q1022 2204 1088.50 2306Q1155 2408 1155 2531Q1155 2725 1012 2857.50Q869 2990 659 2990Z"  horiz-adv-x="1343" vert-adv-y="4096"  />

      
      </font>
</defs>
</svg>
