<svg width="18" height="14" viewBox="0 0 18 14" fill="none" xmlns="http://www.w3.org/2000/svg">
<path d="M17.7549 6.40816L12.3984 1.05166C12.0716 0.724846 11.5415 0.724846 11.2147 1.05166C10.8878 1.37854 10.8878 1.90843 11.2147 2.23531L15.1424 6.16303H0.836954C0.374754 6.16303 0 6.53779 0 6.99999C0 7.46212 0.374754 7.83694 0.836954 7.83694H15.1424L11.2148 11.7647C10.888 12.0915 10.888 12.6214 11.2148 12.9483C11.3782 13.1116 11.5925 13.1934 11.8067 13.1934C12.0209 13.1934 12.2351 13.1116 12.3985 12.9483L17.7549 7.59181C18.0818 7.26493 18.0818 6.73504 17.7549 6.40816Z" fill="white"/>
</svg>
