<svg width="61" height="220" viewBox="0 0 61 220" fill="none" xmlns="http://www.w3.org/2000/svg">
<path d="M10.925 201.5L29 208.8V211.837L10.925 219.138V216.437C10.925 216.146 10.9958 215.908 11.1375 215.725C11.2792 215.542 11.4625 215.404 11.6875 215.312L22.7125 211.05C23.0708 210.908 23.4667 210.775 23.9 210.65C24.325 210.517 24.7708 210.392 25.2375 210.275C24.7708 210.175 24.325 210.067 23.9 209.95C23.4667 209.833 23.0708 209.704 22.7125 209.562L11.6875 205.325C11.4958 205.258 11.3208 205.129 11.1625 204.938C11.0042 204.737 10.925 204.496 10.925 204.212V201.5ZM29 195.004V198.379H10.925L10.925 195.004H29ZM24.7375 177.295C24.7375 177.111 24.8083 176.949 24.95 176.807L26.3875 175.482C27.2958 176.216 27.9917 177.12 28.475 178.195C28.9583 179.261 29.2 180.545 29.2 182.045C29.2 183.386 28.9708 184.595 28.5125 185.67C28.0542 186.736 27.4167 187.649 26.6 188.407C25.7833 189.166 24.8083 189.749 23.675 190.157C22.5417 190.557 21.3042 190.757 19.9625 190.757C18.6042 190.757 17.3625 190.541 16.2375 190.107C15.1042 189.674 14.1292 189.066 13.3125 188.282C12.4958 187.491 11.8625 186.549 11.4125 185.457C10.9542 184.366 10.725 183.157 10.725 181.832C10.725 180.516 10.9417 179.349 11.375 178.332C11.8083 177.307 12.375 176.436 13.075 175.72L14.6375 176.845C14.7375 176.911 14.825 176.999 14.9 177.107C14.975 177.207 15.0125 177.349 15.0125 177.532C15.0125 177.657 14.9792 177.786 14.9125 177.92C14.8375 178.053 14.75 178.199 14.65 178.357C14.5417 178.516 14.425 178.699 14.3 178.907C14.175 179.116 14.0625 179.357 13.9625 179.632C13.8542 179.907 13.7667 180.228 13.7 180.595C13.625 180.953 13.5875 181.37 13.5875 181.845C13.5875 182.653 13.7333 183.395 14.025 184.07C14.3083 184.736 14.725 185.311 15.275 185.795C15.8167 186.278 16.4833 186.653 17.275 186.92C18.0583 187.186 18.9542 187.32 19.9625 187.32C20.9792 187.32 21.8833 187.178 22.675 186.895C23.4667 186.603 24.1333 186.211 24.675 185.72C25.2167 185.228 25.6333 184.649 25.925 183.982C26.2083 183.316 26.35 182.599 26.35 181.832C26.35 181.374 26.325 180.961 26.275 180.595C26.225 180.22 26.1458 179.878 26.0375 179.57C25.9292 179.253 25.7917 178.957 25.625 178.682C25.45 178.399 25.2375 178.12 24.9875 177.845C24.9125 177.761 24.8542 177.674 24.8125 177.582C24.7625 177.491 24.7375 177.395 24.7375 177.295ZM13.6875 159.304V164.754H29V168.116H13.6875V173.566H10.925V159.304H13.6875ZM19.9625 139.062C21.2875 139.062 22.5167 139.282 23.65 139.724C24.775 140.157 25.75 140.774 26.575 141.574C27.4 142.374 28.0458 143.337 28.5125 144.462C28.9708 145.587 29.2 146.837 29.2 148.212C29.2 149.578 28.9708 150.824 28.5125 151.949C28.0458 153.074 27.4 154.041 26.575 154.849C25.75 155.649 24.775 156.27 23.65 156.712C22.5167 157.153 21.2875 157.374 19.9625 157.374C18.6375 157.374 17.4125 157.153 16.2875 156.712C15.1542 156.27 14.175 155.649 13.35 154.849C12.525 154.041 11.8833 153.074 11.425 151.949C10.9583 150.824 10.725 149.578 10.725 148.212C10.725 147.295 10.8333 146.432 11.05 145.624C11.2583 144.816 11.5583 144.074 11.95 143.399C12.3333 142.724 12.8042 142.12 13.3625 141.587C13.9125 141.045 14.5292 140.587 15.2125 140.212C15.8958 139.837 16.6375 139.553 17.4375 139.362C18.2375 139.162 19.0792 139.062 19.9625 139.062ZM19.9625 142.499C18.9708 142.499 18.0833 142.632 17.3 142.899C16.5083 143.166 15.8375 143.545 15.2875 144.037C14.7375 144.528 14.3167 145.128 14.025 145.837C13.7333 146.537 13.5875 147.328 13.5875 148.212C13.5875 149.095 13.7333 149.891 14.025 150.599C14.3167 151.299 14.7375 151.899 15.2875 152.399C15.8375 152.891 16.5083 153.27 17.3 153.537C18.0833 153.803 18.9708 153.937 19.9625 153.937C20.9542 153.937 21.8458 153.803 22.6375 153.537C23.4208 153.27 24.0875 152.891 24.6375 152.399C25.1792 151.899 25.5958 151.299 25.8875 150.599C26.1792 149.891 26.325 149.095 26.325 148.212C26.325 147.328 26.1792 146.537 25.8875 145.837C25.5958 145.128 25.1792 144.528 24.6375 144.037C24.0875 143.545 23.4208 143.166 22.6375 142.899C21.8458 142.632 20.9542 142.499 19.9625 142.499ZM19.525 129.396C19.525 128.763 19.4458 128.213 19.2875 127.746C19.1292 127.271 18.9125 126.884 18.6375 126.584C18.3542 126.275 18.0208 126.046 17.6375 125.896C17.2542 125.746 16.8333 125.671 16.375 125.671C15.4583 125.671 14.7542 125.975 14.2625 126.584C13.7708 127.184 13.525 128.104 13.525 129.346V131.496H19.525V129.396ZM29 120.746V123.784C29 124.359 28.775 124.775 28.325 125.034L22.5375 128.834C22.3208 128.975 22.1667 129.134 22.075 129.309C21.9833 129.475 21.9375 129.725 21.9375 130.059V131.496H29L29 134.859H10.925V129.346C10.925 128.121 11.0542 127.071 11.3125 126.196C11.5625 125.313 11.9167 124.592 12.375 124.034C12.8333 123.467 13.3833 123.05 14.025 122.784C14.6583 122.517 15.3583 122.384 16.125 122.384C16.7333 122.384 17.3083 122.475 17.85 122.659C18.3917 122.834 18.8833 123.092 19.325 123.434C19.7667 123.767 20.1542 124.184 20.4875 124.684C20.8208 125.175 21.0833 125.738 21.275 126.371C21.4 126.154 21.55 125.954 21.725 125.771C21.8917 125.588 22.0917 125.421 22.325 125.271L29 120.746ZM22 110.612H29V113.962H22L10.925 120.549V117.587C10.925 117.295 10.9958 117.066 11.1375 116.899C11.2792 116.724 11.4583 116.578 11.675 116.462L17.7125 113.162C18.0708 112.97 18.4083 112.803 18.725 112.662C19.0417 112.512 19.3583 112.378 19.675 112.262C19.3583 112.153 19.0417 112.028 18.725 111.887C18.4083 111.745 18.0708 111.583 17.7125 111.399L11.675 108.112C11.4917 108.02 11.3208 107.883 11.1625 107.699C11.0042 107.516 10.925 107.283 10.925 106.999V104.024L22 110.612ZM19.9625 78.5596C21.2875 78.5596 22.5042 78.7804 23.6125 79.2221C24.7208 79.6637 25.675 80.2846 26.475 81.0846C27.275 81.8846 27.8958 82.8471 28.3375 83.9721C28.7792 85.0971 29 86.3471 29 87.7221V94.6096H10.925V87.7221C10.925 86.3471 11.15 85.0971 11.6 83.9721C12.0417 82.8471 12.6625 81.8846 13.4625 81.0846C14.2542 80.2846 15.2042 79.6637 16.3125 79.2221C17.4208 78.7804 18.6375 78.5596 19.9625 78.5596ZM19.9625 82.0096C18.9708 82.0096 18.0833 82.1429 17.3 82.4096C16.5083 82.6679 15.8417 83.0471 15.3 83.5471C14.75 84.0387 14.3292 84.6387 14.0375 85.3471C13.7458 86.0471 13.6 86.8387 13.6 87.7221L13.6 91.2346H26.325V87.7221C26.325 86.8387 26.1792 86.0471 25.8875 85.3471C25.5958 84.6387 25.1792 84.0387 24.6375 83.5471C24.0875 83.0471 23.4208 82.6679 22.6375 82.4096C21.8458 82.1429 20.9542 82.0096 19.9625 82.0096ZM13.6 70.966H18.6125V64.641H21.2V70.966H26.3125V62.941H29L29 74.341H10.925L10.925 62.941H13.6V70.966ZM14.2125 49.0861C14.3875 49.1861 14.5167 49.2945 14.6 49.4111C14.675 49.5195 14.7125 49.657 14.7125 49.8236C14.7125 49.9986 14.65 50.1903 14.525 50.3986C14.3917 50.5986 14.2458 50.8403 14.0875 51.1236C13.9292 51.407 13.7875 51.7403 13.6625 52.1236C13.5292 52.4986 13.4625 52.9445 13.4625 53.4611C13.4625 53.9278 13.5208 54.3361 13.6375 54.6861C13.7458 55.0361 13.9 55.332 14.1 55.5736C14.3 55.807 14.5417 55.982 14.825 56.0986C15.1 56.2153 15.4042 56.2736 15.7375 56.2736C16.1625 56.2736 16.5167 56.157 16.8 55.9236C17.0833 55.682 17.325 55.3653 17.525 54.9736C17.725 54.582 17.9042 54.1361 18.0625 53.6361C18.2208 53.1361 18.3917 52.6236 18.575 52.0986C18.75 51.5736 18.9583 51.0611 19.2 50.5611C19.4333 50.0611 19.7333 49.6153 20.1 49.2236C20.4583 48.832 20.9 48.5195 21.425 48.2861C21.95 48.0445 22.5875 47.9236 23.3375 47.9236C24.1542 47.9236 24.9208 48.0653 25.6375 48.3486C26.3458 48.6236 26.9667 49.032 27.5 49.5736C28.025 50.107 28.4417 50.7611 28.75 51.5361C29.05 52.3111 29.2 53.1986 29.2 54.1986C29.2 54.7736 29.1417 55.3403 29.025 55.8986C28.9167 56.457 28.7583 56.9945 28.55 57.5111C28.3417 58.0195 28.0917 58.4986 27.8 58.9486C27.5083 59.3986 27.1833 59.7986 26.825 60.1486L25.2125 59.1611C25.0958 59.0778 25 58.9695 24.925 58.8361C24.8417 58.7028 24.8 58.5611 24.8 58.4111C24.8 58.2028 24.8875 57.9778 25.0625 57.7361C25.2292 57.4945 25.4167 57.207 25.625 56.8736C25.8333 56.5403 26.025 56.1528 26.2 55.7111C26.3667 55.2611 26.45 54.7236 26.45 54.0986C26.45 53.1403 26.225 52.3986 25.775 51.8736C25.3167 51.3486 24.6625 51.0861 23.8125 51.0861C23.3375 51.0861 22.95 51.207 22.65 51.4486C22.35 51.682 22.1 51.9945 21.9 52.3861C21.6917 52.7778 21.5167 53.2236 21.375 53.7236C21.2333 54.2236 21.0792 54.732 20.9125 55.2486C20.7458 55.7653 20.5458 56.2736 20.3125 56.7736C20.0792 57.2736 19.775 57.7195 19.4 58.1111C19.025 58.5028 18.5583 58.8195 18 59.0611C17.4333 59.2945 16.7375 59.4111 15.9125 59.4111C15.2542 59.4111 14.6125 59.282 13.9875 59.0236C13.3625 58.757 12.8083 58.3736 12.325 57.8736C11.8417 57.3736 11.4542 56.757 11.1625 56.0236C10.8708 55.2903 10.725 54.4486 10.725 53.4986C10.725 52.432 10.8917 51.4486 11.225 50.5486C11.5583 49.6486 12.025 48.882 12.625 48.2486L14.2125 49.0861ZM29 40.3654V43.7404H10.925V40.3654H29ZM19.9375 20.1686H27.25C27.925 21.0852 28.4208 22.0644 28.7375 23.1061C29.0458 24.1394 29.2 25.2477 29.2 26.4311C29.2 27.9061 28.9708 29.2436 28.5125 30.4436C28.0542 31.6352 27.4167 32.6561 26.6 33.5061C25.7833 34.3477 24.8083 34.9977 23.675 35.4561C22.5417 35.9144 21.3042 36.1436 19.9625 36.1436C18.6042 36.1436 17.3583 35.9227 16.225 35.4811C15.0917 35.0394 14.1167 34.4144 13.3 33.6061C12.4833 32.7894 11.85 31.8019 11.4 30.6436C10.95 29.4852 10.725 28.1852 10.725 26.7436C10.725 26.0102 10.7833 25.3269 10.9 24.6936C11.0167 24.0519 11.1792 23.4602 11.3875 22.9186C11.5875 22.3686 11.8333 21.8686 12.125 21.4186C12.4167 20.9686 12.7375 20.5561 13.0875 20.1811L14.6125 21.1436C14.8542 21.2936 15.0042 21.4894 15.0625 21.7311C15.1125 21.9727 15.05 22.2352 14.875 22.5186C14.7167 22.7936 14.5583 23.0686 14.4 23.3436C14.2417 23.6186 14.1042 23.9269 13.9875 24.2686C13.8708 24.6019 13.775 24.9811 13.7 25.4061C13.625 25.8227 13.5875 26.3061 13.5875 26.8561C13.5875 27.7477 13.7375 28.5561 14.0375 29.2811C14.3375 29.9977 14.7667 30.6102 15.325 31.1186C15.8833 31.6269 16.5542 32.0186 17.3375 32.2936C18.1208 32.5686 18.9958 32.7061 19.9625 32.7061C20.9958 32.7061 21.9208 32.5602 22.7375 32.2686C23.5458 31.9686 24.2333 31.5519 24.8 31.0186C25.3583 30.4769 25.7875 29.8269 26.0875 29.0686C26.3792 28.3102 26.525 27.4644 26.525 26.5311C26.525 25.8644 26.4542 25.2686 26.3125 24.7436C26.1708 24.2186 25.9792 23.7061 25.7375 23.2061H22.4625V25.4811C22.4625 25.6977 22.4042 25.8686 22.2875 25.9936C22.1625 26.1102 22.0125 26.1686 21.8375 26.1686H19.9375V20.1686ZM10.925 0.441405H29V2.1664C29 2.43307 28.9583 2.65807 28.875 2.84141C28.7833 3.01641 28.6333 3.18724 28.425 3.35391L16.375 12.7914C16.925 12.7414 17.4333 12.7164 17.9 12.7164H29V15.6789H10.925V13.9164C10.925 13.7747 10.9333 13.6539 10.95 13.5539C10.9583 13.4456 10.9833 13.3539 11.025 13.2789C11.0583 13.1956 11.1125 13.1164 11.1875 13.0414C11.2542 12.9664 11.3458 12.8831 11.4625 12.7914L23.5625 3.31641C23.2708 3.34141 22.9833 3.36224 22.7 3.3789C22.4167 3.39557 22.1542 3.40391 21.9125 3.40391H10.925V0.441405Z" fill="#1A1A18"/>
<path d="M57.192 208.152C57.192 209.357 56.792 210.36 55.992 211.16C55.1813 211.96 54.184 212.36 53 212.36C51.816 212.36 50.824 211.96 50.024 211.16C49.2133 210.36 48.808 209.357 48.808 208.152C48.808 207.363 49 206.653 49.384 206.024C49.7573 205.395 50.264 204.936 50.904 204.648L51.4 205.512C50.92 205.725 50.5413 206.072 50.264 206.552C49.976 207.021 49.832 207.555 49.832 208.152C49.832 209.037 50.1413 209.784 50.76 210.392C51.368 211 52.1147 211.304 53 211.304C53.8853 211.304 54.6373 211 55.256 210.392C55.864 209.784 56.168 209.037 56.168 208.152C56.168 207.555 56.0293 207.021 55.752 206.552C55.464 206.083 55.08 205.715 54.6 205.448L55.112 204.568C55.752 204.899 56.2587 205.384 56.632 206.024C57.0053 206.664 57.192 207.373 57.192 208.152ZM49 189.928H50.024V192.76H57V193.816H50.024V196.648H49V189.928ZM49 175.361V174.241L57.736 177.665C58.5253 177.975 59.144 178.417 59.592 178.993C60.0507 179.559 60.2533 180.193 60.2 180.897H59.208C59.3147 179.937 58.76 179.207 57.544 178.705L57.048 178.497L49 182.081V180.961L55.704 177.953L49 175.361ZM55.976 159.209V158.089H59.144V159.145H57V165.673H59.144V166.729H55.976V165.753C55.2613 165.209 54.2533 164.937 52.952 164.937H49V159.209H55.976ZM55.976 164.473V160.265H50.024V163.881H52.952C54.1787 163.881 55.1867 164.079 55.976 164.473ZM47.08 147.9C47.2293 148.049 47.304 148.231 47.304 148.444C47.304 148.657 47.2293 148.839 47.08 148.988C46.9307 149.137 46.7493 149.212 46.536 149.212C46.3227 149.212 46.1413 149.137 45.992 148.988C45.8427 148.839 45.768 148.657 45.768 148.444C45.768 148.231 45.8427 148.049 45.992 147.9C46.1413 147.751 46.3227 147.676 46.536 147.676C46.7493 147.676 46.9307 147.751 47.08 147.9ZM57 148.972H49V147.916H57V148.972ZM49 132.395H57V133.451H53.928V134.827L57 137.291V138.635L53.896 136.107C53.8 136.747 53.5333 137.275 53.096 137.691C52.6587 138.107 52.12 138.315 51.48 138.315C50.7547 138.315 50.1627 138.059 49.704 137.547C49.2347 137.024 49 136.39 49 135.643V132.395ZM52.936 135.643V133.451H50.024V135.643C50.024 136.091 50.1573 136.475 50.424 136.795C50.6907 137.104 51.0427 137.259 51.48 137.259C51.9173 137.259 52.2693 137.104 52.536 136.795C52.8027 136.475 52.936 136.091 52.936 135.643ZM55.976 104.395V103.275H59.144V104.331H57V110.859H59.144V111.915H55.976V110.939C55.2613 110.395 54.2533 110.123 52.952 110.123H49V104.395H55.976ZM55.976 109.659V105.451H50.024V109.067H52.952C54.1787 109.067 55.1867 109.264 55.976 109.659ZM49 88.3335V87.4375H57V88.4935H50.84L57 93.2615V94.1575H49V93.1015H55.16L49 88.3335ZM52.888 73.5564C53.24 72.6284 53.88 72.1644 54.808 72.1644C55.4693 72.1644 56.0347 72.4257 56.504 72.9484C56.9627 73.4604 57.192 74.1964 57.192 75.1564C57.192 76.767 56.552 77.823 55.272 78.3244L54.744 77.4284C55.6933 77.0977 56.168 76.3404 56.168 75.1564C56.168 74.5377 56.0347 74.063 55.768 73.7324C55.5013 73.391 55.16 73.2204 54.744 73.2204C54.3707 73.2204 54.0667 73.359 53.832 73.6364C53.5973 73.9137 53.48 74.287 53.48 74.7564V75.9244H52.456V75.0764C52.456 74.6177 52.344 74.2604 52.12 74.0044C51.8853 73.7377 51.5653 73.6044 51.16 73.6044C50.776 73.6044 50.4613 73.759 50.216 74.0684C49.96 74.3777 49.832 74.7937 49.832 75.3164C49.832 76.319 50.232 76.9857 51.032 77.3164L50.52 78.1964C49.3787 77.663 48.808 76.703 48.808 75.3164C48.808 74.4737 49.032 73.8017 49.48 73.3004C49.9173 72.799 50.456 72.5484 51.096 72.5484C51.9173 72.5484 52.5147 72.8844 52.888 73.5564ZM49 56.1594V55.1034H57V56.1594H55.432C56.6053 56.8954 57.192 57.9727 57.192 59.3914C57.192 60.5327 56.7867 61.5087 55.976 62.3194C55.1653 63.1194 54.1733 63.5194 53 63.5194C51.8267 63.5194 50.8347 63.1194 50.024 62.3194C49.2133 61.5087 48.808 60.5327 48.808 59.3914C48.808 57.9727 49.3947 56.8954 50.568 56.1594H49ZM55.256 61.5514C55.864 60.9434 56.168 60.1967 56.168 59.3114C56.168 58.426 55.864 57.6794 55.256 57.0714C54.6373 56.4634 53.8853 56.1594 53 56.1594C52.1147 56.1594 51.368 56.4634 50.76 57.0714C50.1413 57.6794 49.832 58.426 49.832 59.3114C49.832 60.1967 50.1413 60.9434 50.76 61.5514C51.368 62.1594 52.1147 62.4634 53 62.4634C53.8853 62.4634 54.6373 62.1594 55.256 61.5514ZM47.72 44.0675H46.792V39.9075H47.72V44.0675ZM49 39.5235V38.6275H57V39.6835H50.84L57 44.4515V45.3475H49V44.2915H55.16L49 39.5235ZM49 23.2104V22.1544H57V23.2104H53.512V27.8184H57V28.8744H49V27.8184H52.488V23.2104H49ZM49 6.64126V5.52126L57.736 8.94526C58.5253 9.25459 59.144 9.69726 59.592 10.2733C60.0507 10.8386 60.2533 11.4733 60.2 12.1773H59.208C59.3147 11.2173 58.76 10.4866 57.544 9.98526L57.048 9.77726L49 13.3613V12.2413L55.704 9.23326L49 6.64126Z" fill="#1A1A18"/>
</svg>
