<svg width="25" height="25" viewBox="0 0 25 25" fill="none" xmlns="http://www.w3.org/2000/svg">
<path d="M18.2451 0H6.75493C3.03027 0 0 3.03027 0 6.75493V18.2451C0 21.9697 3.03027 25 6.75493 25H18.2451C21.9697 25 25 21.9697 25 18.2451V6.75493C25 3.03027 21.9697 0 18.2451 0ZM22.9803 18.2451C22.9803 20.8561 20.8561 22.9803 18.2451 22.9803H6.75493C4.14395 22.9803 2.01973 20.8561 2.01973 18.2451V6.75493C2.01973 4.14395 4.1439 2.01973 6.75493 2.01973H18.2451C20.8561 2.01973 22.9803 4.1439 22.9803 6.75493V18.2451Z" fill="#9ABBCA"/>
<path d="M18.0948 11.6279C17.9171 10.4293 17.3702 9.343 16.5135 8.48622C15.6567 7.62948 14.5703 7.0826 13.3718 6.90492C12.8261 6.82401 12.2728 6.82401 11.7272 6.90492C10.2459 7.1246 8.93894 7.9079 8.0469 9.11058C7.15486 10.3133 6.78449 11.7914 7.00417 13.2725C7.22385 14.7537 8.00715 16.0607 9.20984 16.9528C10.1862 17.677 11.3439 18.0573 12.5376 18.0573C12.8143 18.0573 13.093 18.0369 13.3718 17.9955C14.853 17.7758 16.16 16.9925 17.052 15.7898C17.9441 14.5872 18.3145 13.1091 18.0948 11.6279ZM13.0755 15.9976C12.128 16.1383 11.1824 15.9013 10.4131 15.3306C9.64368 14.7599 9.1426 13.9238 9.00212 12.9763C8.86159 12.0288 9.09846 11.0832 9.66911 10.3139C10.2398 9.54447 11.0759 9.0434 12.0235 8.90287C12.198 8.87699 12.3737 8.86405 12.5494 8.86405C12.7252 8.86405 12.901 8.87699 13.0755 8.90292C14.6492 9.13627 15.8635 10.3504 16.0968 11.9243C16.3869 13.8802 15.0316 15.7076 13.0755 15.9976Z" fill="#9ABBCA"/>
<path d="M19.5336 5.46646C19.3455 5.27842 19.0852 5.17065 18.8195 5.17065C18.5538 5.17065 18.2935 5.27837 18.1054 5.46646C17.9173 5.65454 17.8096 5.9144 17.8096 6.18057C17.8096 6.44673 17.9173 6.70659 18.1054 6.89468C18.2935 7.08272 18.5538 7.19048 18.8195 7.19048C19.0852 7.19048 19.3455 7.08276 19.5336 6.89468C19.7216 6.70659 19.8294 6.44629 19.8294 6.18057C19.8294 5.91479 19.7216 5.65449 19.5336 5.46646Z" fill="#9ABBCA"/>
</svg>
