<svg width="25" height="25" viewBox="0 0 25 25" fill="none" xmlns="http://www.w3.org/2000/svg">
<path d="M18.2451 0H6.75493C3.03027 0 0 3.03027 0 6.75493V18.2451C0 21.9697 3.03027 25 6.75493 25H18.2451C21.9697 25 25 21.9697 25 18.2451V6.75493C25 3.03027 21.9697 0 18.2451 0ZM22.9803 18.2451C22.9803 20.8561 20.8561 22.9803 18.2451 22.9803H6.75493C4.14395 22.9803 2.01973 20.8561 2.01973 18.2451V6.75493C2.01973 4.14395 4.1439 2.01973 6.75493 2.01973H18.2451C20.8561 2.01973 22.9803 4.1439 22.9803 6.75493V18.2451Z" fill="#9ABBCA"/>
<path d="M18.095 11.6279C17.9172 10.4293 17.3704 9.343 16.5136 8.48622C15.6568 7.62948 14.5705 7.0826 13.372 6.90492C12.8263 6.82401 12.273 6.82401 11.7274 6.90492C10.2461 7.1246 8.93912 7.9079 8.04708 9.11058C7.15504 10.3133 6.78468 11.7914 7.00436 13.2725C7.22403 14.7537 8.00733 16.0607 9.21002 16.9528C10.1864 17.677 11.3441 18.0573 12.5378 18.0573C12.8145 18.0573 13.0932 18.0369 13.3719 17.9955C14.8532 17.7758 16.1602 16.9925 17.0522 15.7898C17.9443 14.5872 18.3147 13.1091 18.095 11.6279ZM13.0757 15.9976C12.1282 16.1383 11.1826 15.9013 10.4132 15.3306C9.64386 14.7599 9.14278 13.9238 9.0023 12.9763C8.86178 12.0288 9.09864 11.0832 9.6693 10.3139C10.24 9.54447 11.0761 9.0434 12.0236 8.90287C12.1982 8.87699 12.3739 8.86405 12.5496 8.86405C12.7254 8.86405 12.9011 8.87699 13.0756 8.90292C14.6494 9.13627 15.8636 10.3504 16.097 11.9243C16.3871 13.8802 15.0317 15.7076 13.0757 15.9976Z" fill="#9ABBCA"/>
<path d="M19.5337 5.46646C19.3456 5.27842 19.0853 5.17065 18.8195 5.17065C18.5538 5.17065 18.2935 5.27837 18.1054 5.46646C17.9174 5.65454 17.8096 5.9144 17.8096 6.18057C17.8096 6.44673 17.9174 6.70659 18.1054 6.89468C18.2935 7.08272 18.5538 7.19048 18.8195 7.19048C19.0853 7.19048 19.3456 7.08276 19.5337 6.89468C19.7217 6.70659 19.8295 6.44629 19.8295 6.18057C19.8295 5.91479 19.7217 5.65449 19.5337 5.46646Z" fill="#9ABBCA"/>
</svg>
