<svg width="25" height="25" viewBox="0 0 25 25" fill="none" xmlns="http://www.w3.org/2000/svg">
<path d="M18.2451 0H6.75493C3.03027 0 0 3.03027 0 6.75493V18.2451C0 21.9697 3.03027 25 6.75493 25H18.2451C21.9697 25 25 21.9697 25 18.2451V6.75493C25 3.03027 21.9697 0 18.2451 0ZM22.9803 18.2451C22.9803 20.8561 20.8561 22.9803 18.2451 22.9803H6.75493C4.14395 22.9803 2.01973 20.8561 2.01973 18.2451V6.75493C2.01973 4.14395 4.1439 2.01973 6.75493 2.01973H18.2451C20.8561 2.01973 22.9803 4.1439 22.9803 6.75493V18.2451Z" fill="white"/>
<path d="M18.095 11.628C17.9172 10.4294 17.3704 9.34307 16.5136 8.48628C15.6568 7.62954 14.5705 7.08267 13.372 6.90498C12.8263 6.82407 12.273 6.82407 11.7274 6.90498C10.2461 7.12466 8.93912 7.90796 8.04708 9.11064C7.15504 10.3133 6.78468 11.7915 7.00436 13.2726C7.22403 14.7538 8.00733 16.0608 9.21002 16.9529C10.1864 17.6771 11.3441 18.0573 12.5378 18.0573C12.8145 18.0573 13.0932 18.0369 13.3719 17.9956C14.8532 17.7759 16.1602 16.9926 17.0522 15.7899C17.9443 14.5873 18.3147 13.1092 18.095 11.628ZM13.0757 15.9977C12.1282 16.1384 11.1826 15.9013 10.4132 15.3307C9.64386 14.76 9.14278 13.9239 9.0023 12.9764C8.86178 12.0289 9.09864 11.0833 9.6693 10.3139C10.24 9.54453 11.0761 9.04346 12.0236 8.90293C12.1982 8.87705 12.3739 8.86411 12.5496 8.86411C12.7254 8.86411 12.9011 8.87705 13.0756 8.90298C14.6494 9.13633 15.8636 10.3505 16.097 11.9243C16.3871 13.8803 15.0317 15.7076 13.0757 15.9977Z" fill="white"/>
<path d="M19.5337 5.46636C19.3456 5.27833 19.0853 5.17056 18.8195 5.17056C18.5538 5.17056 18.2935 5.27828 18.1054 5.46636C17.9174 5.65445 17.8096 5.91431 17.8096 6.18047C17.8096 6.44664 17.9174 6.7065 18.1054 6.89459C18.2935 7.08262 18.5538 7.19039 18.8195 7.19039C19.0853 7.19039 19.3456 7.08267 19.5337 6.89459C19.7217 6.7065 19.8295 6.4462 19.8295 6.18047C19.8295 5.9147 19.7217 5.6544 19.5337 5.46636Z" fill="white"/>
</svg>
