<svg width="25" height="25" viewBox="0 0 25 25" fill="none" xmlns="http://www.w3.org/2000/svg">
<path d="M18.2451 0H6.75493C3.03027 0 0 3.03027 0 6.75493V18.2451C0 21.9697 3.03027 25 6.75493 25H18.2451C21.9697 25 25 21.9697 25 18.2451V6.75493C25 3.03027 21.9697 0 18.2451 0ZM22.9803 18.2451C22.9803 20.8561 20.8561 22.9803 18.2451 22.9803H6.75493C4.14395 22.9803 2.01973 20.8561 2.01973 18.2451V6.75493C2.01973 4.14395 4.1439 2.01973 6.75493 2.01973H18.2451C20.8561 2.01973 22.9803 4.1439 22.9803 6.75493V18.2451Z" fill="#1A1A18"/>
<path d="M18.0948 11.628C17.9171 10.4294 17.3702 9.34307 16.5135 8.48628C15.6567 7.62954 14.5703 7.08267 13.3718 6.90498C12.8261 6.82407 12.2728 6.82407 11.7272 6.90498C10.2459 7.12466 8.93894 7.90796 8.0469 9.11064C7.15486 10.3133 6.78449 11.7915 7.00417 13.2726C7.22385 14.7538 8.00715 16.0608 9.20984 16.9529C10.1862 17.6771 11.3439 18.0573 12.5376 18.0573C12.8143 18.0573 13.093 18.0369 13.3718 17.9956C14.853 17.7759 16.16 16.9926 17.052 15.7899C17.9441 14.5873 18.3145 13.1092 18.0948 11.628ZM13.0755 15.9977C12.128 16.1384 11.1824 15.9013 10.4131 15.3307C9.64368 14.76 9.1426 13.9239 9.00212 12.9764C8.86159 12.0289 9.09846 11.0833 9.66911 10.3139C10.2398 9.54453 11.0759 9.04346 12.0235 8.90293C12.198 8.87705 12.3737 8.86411 12.5494 8.86411C12.7252 8.86411 12.901 8.87705 13.0755 8.90298C14.6492 9.13633 15.8635 10.3505 16.0968 11.9243C16.3869 13.8803 15.0316 15.7076 13.0755 15.9977Z" fill="#1A1A18"/>
<path d="M19.5336 5.46636C19.3455 5.27833 19.0852 5.17056 18.8195 5.17056C18.5538 5.17056 18.2935 5.27828 18.1054 5.46636C17.9173 5.65445 17.8096 5.91431 17.8096 6.18047C17.8096 6.44664 17.9173 6.7065 18.1054 6.89459C18.2935 7.08262 18.5538 7.19039 18.8195 7.19039C19.0852 7.19039 19.3455 7.08267 19.5336 6.89459C19.7216 6.7065 19.8294 6.4462 19.8294 6.18047C19.8294 5.9147 19.7216 5.6544 19.5336 5.46636Z" fill="#1A1A18"/>
</svg>
