<svg width="99" height="80" viewBox="0 0 99 80" fill="none" xmlns="http://www.w3.org/2000/svg">
<g clip-path="url(#clip0)">
<path fill-rule="evenodd" clip-rule="evenodd" d="M13.1791 31.2671C12.945 32.4473 12.639 33.6122 12.2629 34.7552C11.5821 37.2767 10.8593 39.7226 10.2793 42.2358L8.73275 48.9599C8.3575 50.4338 8.14609 51.9447 8.10237 53.465C8.06526 53.9799 8.13098 54.4971 8.29569 54.9863C8.6974 55.8958 9.38062 56.6521 10.2447 57.1439C11.1087 57.6357 12.1079 57.837 13.095 57.718C13.8221 57.5533 14.512 57.2539 15.1291 56.8355C16.7828 55.7781 18.211 54.4041 19.3316 52.7926C23.7375 46.2064 27.0868 38.9719 29.2581 31.3511C29.9443 28.8501 30.3031 26.2706 30.3255 23.6772C30.3172 22.3326 30.0238 21.005 29.4645 19.7822C28.9052 18.5593 28.0929 17.469 27.0811 16.5833C26.6438 16.255 26.1734 15.9733 25.6775 15.7428L25.5346 15.81C25.8032 16.6701 26.1261 17.5123 26.5012 18.3316C26.9801 19.7166 27.1939 21.1793 27.1316 22.6434C27.0328 24.7176 26.6713 26.7708 26.0557 28.7539C24.1646 35.831 18.6424 49.0523 13.0698 53.6583C12.6327 54.0197 12.1032 54.2971 11.6661 54.6585C11.7435 53.8656 11.8897 53.081 12.1032 52.3135L13.0278 47.9092C13.5153 45.5053 14.1457 43.1351 14.7088 40.7144C15.3896 37.9407 15.9191 35.1502 16.3898 32.4102C16.4907 31.8134 16.8773 30.3005 16.8773 29.7625C16.8773 28.9893 15.1375 26.9889 14.3138 27.1149C13.9776 27.1654 11.2627 29.0985 10.6827 29.4347C8.21163 30.9393 3.95864 33.3515 1.28581 33.7718C0.949604 33.8222 0.562968 33.7718 0.218358 33.839C0.130207 33.8402 0.0447689 33.8697 -0.0253906 33.9231C0.127929 34.5905 0.527072 35.1757 1.09251 35.562C1.65795 35.9483 2.34818 36.1074 3.02567 36.0076C4.76553 35.7302 7.0013 34.5114 8.6403 33.6709C10.044 32.9145 11.6409 31.7462 13.1454 31.2671H13.1791ZM25.2152 39.3948C23.8116 43.0595 19.7939 51.0023 16.9278 53.6835C16.976 53.5681 17.0411 53.4604 17.1211 53.3641C18.4519 51.5237 19.6647 49.6006 20.7521 47.6066C22.1053 45.2616 23.4165 42.8745 24.5344 40.4202C25.0639 39.2687 25.4506 38.092 25.9381 36.9573C26.1175 36.4033 26.3453 35.8661 26.6189 35.352C26.7431 35.2099 26.8426 35.0479 26.913 34.8729V34.9233L25.232 39.4032L25.2152 39.3948ZM19.8359 46.0517C20.0811 45.5206 20.3619 45.0067 20.6764 44.5135C20.5401 44.9513 20.3266 45.3612 20.0461 45.7239C19.4157 46.7913 17.4825 50.767 16.6084 51.2545C17.5749 49.4558 18.7433 47.7663 19.8527 46.0433L19.8359 46.0517ZM18.7937 49.5902C18.8861 49.4305 19.2812 48.8338 19.6342 48.1446C19.0543 49.254 18.0877 51.246 17.4068 51.5991C17.8439 50.9014 18.323 50.2458 18.7601 49.5902H18.7937ZM21.1639 45.539L21.1135 45.6398C20.8337 46.3864 20.4427 47.0863 19.9536 47.7159C19.9032 47.7747 19.9032 47.8168 19.8527 47.8252C20.301 47.1254 20.7052 46.3983 21.0631 45.6482L21.1639 45.539ZM21.8532 42.4963C21.8442 42.4489 21.8271 42.4034 21.8027 42.3618C21.8027 42.261 21.8532 42.2105 21.9456 42.1433C21.9337 42.2661 21.8995 42.3857 21.8448 42.4963H21.8532ZM21.0126 44.0345L20.9622 44.0933C20.9078 44.264 20.8057 44.4156 20.668 44.5304C20.7653 44.3561 20.8808 44.1926 21.0126 44.0429V44.0345ZM22.3659 43.236V43.3789C22.3659 43.4797 22.3154 43.5301 22.223 43.5974L22.3659 43.236ZM21.4497 45.0767C21.4949 44.9036 21.5782 44.7428 21.6935 44.606H21.7439C21.6196 44.7481 21.5202 44.91 21.4497 45.0851V45.0767ZM21.3489 45.186C21.3993 45.1271 21.3993 45.0851 21.4497 45.0767C21.5001 45.0683 21.3993 45.1775 21.3489 45.186ZM15.7426 52.2799C15.7931 52.221 15.8435 52.2126 15.8435 52.1706C15.8435 52.1286 15.7931 52.2294 15.7931 52.2715L15.7426 52.2799ZM22.7693 40.4707V40.4202H22.8197L22.7693 40.4707ZM37.3942 40.6892L37.3438 40.9834L37.7304 40.5379L37.68 40.8321L37.8229 40.5127H37.722L37.8229 40.3446V40.4875L37.9238 40.2774H37.9742L38.1675 39.9075H38.2684C37.239 42.3039 36.025 44.6167 34.6374 46.825C33.9145 48.1025 33.2337 49.4221 32.4604 50.6577C31.3402 52.491 30.1283 54.2668 28.8294 55.9781C28.709 56.1205 28.5616 56.2376 28.3957 56.3228C28.2298 56.4079 28.0487 56.4593 27.8628 56.474C26.4592 56.6926 25.4421 56.079 25.4421 54.6249C25.5442 51.8969 25.9846 49.1922 26.7533 46.5728C27.3247 44.5983 27.713 42.5753 27.9133 40.5295V40.3446C27.9133 40.1009 27.7704 39.8823 27.7704 39.6386C27.7704 39.3948 28.0645 39.3024 28.2074 39.2351C30.3423 39.1931 32.0822 40.0336 32.0822 42.3534C31.9534 44.2035 31.5628 46.0259 30.9223 47.7663L29.838 51.557C29.838 51.6075 29.7876 51.6159 29.7876 51.6579C29.812 51.6995 29.8291 51.745 29.838 51.7924C31.1913 49.8844 32.3596 47.8084 33.5699 45.8247C34.2927 44.648 35.1669 43.5385 35.9402 42.3955C36.3182 41.7218 36.7394 41.0733 37.2009 40.4539L36.9572 40.9246L37.2934 40.4875C36.5201 41.9164 35.5535 43.278 34.9231 44.7825C35.2686 44.3599 35.5752 43.907 35.8393 43.4293C36.2378 42.4468 36.7573 41.5178 37.3858 40.664L37.3942 40.6892ZM30.9559 31.4436L31.0988 31.6117H31.3425V31.9395C31.4737 31.8656 31.5881 31.7655 31.6788 31.6453L32.1662 31.8134L32.0654 32.1664H32.6453V32.6539L32.8891 32.5699C33.0324 32.6362 33.1542 32.7415 33.2404 32.8738C33.3266 33.0061 33.3738 33.16 33.3766 33.3179C33.3766 34.4778 32.8471 35.5789 32.8471 36.7472C32.8471 37.3776 33.0404 38.0248 33.0404 38.6552C32.9162 38.7632 32.7652 38.8358 32.6033 38.8653C32.2671 38.9157 32.0234 38.6636 31.6788 38.7644C30.5188 38.2685 29.5018 36.2429 29.5018 34.8897C29.5018 34.1668 30.0313 31.5276 30.9559 31.4184V31.4436ZM29.5943 52.759C30.0313 51.8176 30.7122 50.9855 31.2753 50.0777C32.1158 48.59 33.0152 47.1359 33.8389 45.6566C34.4562 44.6241 35.1711 43.653 35.9738 42.7569C33.9902 45.9256 32.0486 49.0943 30.0902 52.2547C29.9388 52.4358 29.776 52.6071 29.6027 52.7674L29.5943 52.759ZM27.7367 54.4988C28.0723 52.6897 28.5243 50.9041 29.09 49.1532C29.326 47.9653 29.6837 46.8049 30.1574 45.6903C29.3842 48.6236 28.5604 51.5738 27.8292 54.482H27.7283L27.7367 54.4988ZM35.1164 45.3877V45.581L35.3014 45.3877C35.2792 45.3988 35.2547 45.4045 35.2299 45.4045C35.2051 45.4045 35.1807 45.3988 35.1585 45.3877C35.2895 45.1357 35.4019 44.8744 35.4947 44.606L34.9147 45.5222L35.1585 45.3877H35.1164ZM36.1419 43.7067H36.0494L36.1923 43.4377V43.2444C36.0129 43.4907 35.866 43.759 35.7552 44.0429L35.9486 43.9168L36.0494 43.7067C36.0998 43.7067 36.0998 43.8411 36.0998 43.8916C36.1323 43.8356 36.1469 43.7711 36.1419 43.7067ZM36.4361 43.0342L36.5789 42.8157C36.5789 42.6224 36.6798 42.4627 36.6798 42.2694L36.2427 43.1603L36.4361 43.0342V43.1771L36.5285 43.0174H36.4361V43.0342ZM32.0318 50.0273L32.4688 49.4221C32.2251 49.5062 32.0318 49.6323 32.0318 49.9264V50.0273ZM33.8725 47.3125L34.0658 47.1359C34.2222 46.8693 34.3517 46.5877 34.4524 46.2954C34.2863 46.6465 34.0923 46.9838 33.8725 47.304V47.3125ZM37.411 40.6556C37.5672 40.4532 37.6815 40.2218 37.7473 39.9748H37.6464C37.5857 40.2194 37.5041 40.4585 37.4026 40.6892L37.411 40.6556ZM31.435 50.9183L31.8721 50.3635C31.6283 50.4476 31.5359 50.7081 31.435 50.9183ZM37.3186 40.975C37.3025 41.1326 37.2345 41.2805 37.1253 41.3952L37.3186 41.3196L37.369 41.1179L37.3186 40.9834V40.975ZM30.3255 45.1355C30.2751 45.2364 30.2751 45.3877 30.2247 45.4381V45.1439H30.3255V45.1355ZM36.6714 42.8661H36.5705V43.009L36.6714 42.8493C36.6652 42.7783 36.683 42.7073 36.7218 42.6476H36.6714C36.6714 42.698 36.621 42.7989 36.6714 42.8409V42.8661ZM35.9486 44.1437L36.0914 43.9756H35.9906C35.9723 43.9961 35.9585 44.0201 35.9498 44.0461C35.9411 44.0721 35.9378 44.0996 35.9402 44.1269L35.9486 44.1437ZM37.3522 41.5045L37.4951 41.286L37.3942 41.3532L37.3438 41.5045H37.3522ZM37.8817 40.3026H37.9322V40.1597L37.8817 40.311V40.3026ZM37.8817 40.353V40.3026H37.8229V40.3446L37.8733 40.2858L37.8817 40.353ZM36.2007 43.5638H36.1419V43.6646C36.1923 43.6058 36.1923 43.6058 36.1923 43.5638H36.2007ZM37.9406 40.2858H37.8901V40.3446L37.9406 40.2858ZM43.6477 47.0687L42.8071 46.5308C42.5642 46.6533 42.3359 46.8027 42.1263 46.9762C40.9802 48.0851 39.5853 48.9036 38.0582 49.3633C38.0004 49.1952 37.9664 49.0198 37.9574 48.8422C37.9574 45.3541 38.6382 41.0338 41.6388 38.3358C41.9241 38.0649 42.2844 37.8863 42.6727 37.8231L43.0089 37.7726C42.7089 38.4546 42.5434 39.1881 42.5214 39.9327C42.4888 40.272 42.5317 40.6142 42.6469 40.9349C42.7621 41.2556 42.9468 41.5469 43.1878 41.7878C43.4288 42.0288 43.72 42.2135 44.0407 42.3287C44.3615 42.444 44.7037 42.4868 45.0429 42.4543C44.8836 42.0163 44.7709 41.5627 44.7067 41.1011C44.7067 40.2606 45.0933 39.4873 45.0933 38.6636C45.0832 38.3675 44.9994 38.0786 44.8496 37.8231C44.441 37.0271 43.8026 36.3723 43.0172 35.9436C42.2319 35.515 41.3358 35.3323 40.4453 35.4192C36.7639 35.9992 34.2927 43.0763 34.2927 46.1694C34.2927 48.9346 36.2343 51.5823 39.235 51.1116C41.0962 50.559 42.7386 49.4395 43.9334 47.9092C44.0763 47.6907 44.1267 47.4385 44.2696 47.2284C44.1961 47.2248 44.1241 47.2065 44.0577 47.1748C43.9914 47.143 43.932 47.0984 43.883 47.0435L43.4964 47.489L43.6392 47.0267L43.6477 47.0687ZM40.4957 38.0584H40.4453L40.0082 38.2685C39.1677 38.7392 38.1675 41.0254 37.8733 41.8995H37.9238C38.0236 41.6108 38.1714 41.3408 38.3608 41.1011C38.9518 40.0048 39.6683 38.9809 40.4957 38.05V38.0584ZM37.3438 39.1343C37.5371 38.8149 38.2684 37.5877 38.6046 37.5289C38.2738 38.1286 37.848 38.6708 37.3438 39.1343ZM38.4113 39.1343C38.4711 38.923 38.5777 38.7279 38.7232 38.5635C38.8687 38.3991 39.0494 38.2696 39.2518 38.1845C39.008 38.5123 38.7222 38.7981 38.4113 39.1343ZM43.4543 38.3862H43.4039C43.4039 38.3358 43.4039 38.3358 43.4543 38.2853V38.3862ZM43.7065 46.951V47.0687H43.6561C43.6561 47.0183 43.7065 47.0099 43.7065 46.9678V46.951ZM61.5674 25.0052C61.5674 25.3919 61.954 25.4255 62.2482 25.4339C61.1303 26.9636 56.8269 28.0311 55.0786 28.5942C53.457 34.5024 52.2105 40.5073 51.3468 46.5728C50.8281 49.7413 50.5471 52.9442 50.5062 56.1546C50.5195 57.4025 50.6832 58.6442 50.9937 59.8529C51.0345 59.9746 51.0516 60.103 51.0442 60.2311C51.0442 60.6682 50.4138 60.9119 50.0776 60.9624C49.9347 60.9624 49.8843 60.8447 49.8338 60.7607L49.5396 61.2397C48.9597 61.038 48.3293 60.996 47.7494 60.7943C45.9591 60.1555 45.9591 56.8607 45.9591 55.1628C46.0625 49.9566 46.5485 44.7651 47.4132 39.6302C47.6065 38.4366 47.7073 37.2095 47.9427 36.0076C48.1864 34.6123 48.5226 33.2002 48.7159 31.805C48.803 31.4764 48.8676 31.1422 48.9093 30.8048C48.9093 30.561 48.4722 30.6283 48.3293 30.6535C47.8418 30.7291 47.3123 30.8636 46.8248 30.9393L46.8752 30.8804C46.3155 30.7567 45.8077 30.4632 45.4211 30.0399L45.4716 29.7457L45.0345 29.5692C45.0501 29.3769 45.1235 29.1937 45.245 29.0437C45.3664 28.8937 45.5304 28.784 45.7153 28.7287C46.7828 28.2664 47.8922 27.9975 48.9597 27.5856C50.049 26.0494 50.9598 24.3941 51.6746 22.6518C52.2627 21.3023 52.9249 19.9863 53.6582 18.7098C53.8515 18.34 54.0448 18.0206 54.4987 17.9533L55.0786 18.1551L54.7424 18.9956C55.0366 18.6594 55.2299 18.34 55.4653 18.0122L55.6586 18.2727L56.0452 18.1635L55.8015 18.8779L56.1881 18.4745L56.7176 18.5837V19.0712L57.1043 18.9115C57.3984 19.1048 57.8775 19.273 57.8775 19.71C57.8775 19.9033 56.1377 25.1649 56.1377 25.1649C56.4822 25.0907 56.8219 24.9953 57.1547 24.8792C57.9707 24.5899 58.8165 24.3926 59.6762 24.2908C60.0264 24.1742 60.4062 24.1825 60.751 24.3142C61.0958 24.446 61.3843 24.6932 61.5674 25.0137V25.0052ZM49.1194 56.9447C49.5906 47.5586 51.0185 38.2451 53.3808 29.149L52.9437 29.2666C51.8169 33.4122 50.944 37.6225 50.3297 41.8743C49.584 46.121 49.1458 50.416 49.0185 54.7258C49.0036 55.464 49.0373 56.2025 49.1194 56.9363V56.9447ZM51.8342 29.586C50.9601 30.8384 48.7496 44.6144 48.7496 46.598V46.8418C49.1866 43.9672 49.5901 41.0927 50.1028 38.2517C50.6155 35.4108 51.2627 32.4942 51.8427 29.5944L51.8342 29.586ZM48.1948 42.5131C48.8756 38.3862 49.4556 34.2257 50.4726 30.0903C49.7918 31.2671 48.1948 40.7144 48.1948 42.2694V42.5131ZM54.5407 25.3835C55.0282 24.0471 55.3812 22.7275 55.8939 21.3406C55.751 21.6096 55.5577 21.8281 55.4064 22.0466C54.862 23.2778 54.4097 24.5477 54.0532 25.8458H54.1541C54.3978 25.8458 54.4903 25.602 54.5407 25.4003V25.3835ZM47.6149 47.0183C47.7578 45.6903 47.9511 44.3034 48.1444 42.9586H48.0015L47.5224 47.0687H47.6233L47.6149 47.0183ZM53.3304 24.7531C53.0208 25.1911 52.8376 25.7057 52.8008 26.2408C53.1108 25.803 53.294 25.2883 53.3304 24.7531ZM53.2799 32.3177C53.3838 32.0446 53.4653 31.7635 53.5237 31.4772C53.4225 31.59 53.3481 31.7241 53.3059 31.8696C53.2637 32.0151 53.2548 32.1683 53.2799 32.3177ZM53.5741 31.4772C53.6169 31.1925 53.6815 30.9115 53.7674 30.6367C53.6221 30.793 53.5359 30.9951 53.5237 31.2082C53.5156 31.3062 53.533 31.4047 53.5741 31.494V31.4772ZM48.6319 48.1109V47.4301H48.5815C48.5815 47.6739 48.531 47.8756 48.531 48.1193H48.6319V48.1109ZM48.4386 49.5902L48.489 48.6657H48.4386L48.3881 49.5902H48.4386ZM52.8429 34.6543C52.742 34.7216 52.6495 34.7804 52.6495 34.9233C52.6495 35.0662 52.7 35.0578 52.7 35.1586L52.8429 34.6543ZM52.5487 35.6714L52.6916 35.2091C52.6394 35.2214 52.5925 35.2501 52.5578 35.2909C52.523 35.3317 52.5022 35.3825 52.4983 35.436C52.4983 35.5369 52.5487 35.5705 52.5487 35.6714ZM53.9523 29.544C54.0166 29.5073 54.0689 29.453 54.1032 29.3874C54.1374 29.3219 54.1522 29.2479 54.1457 29.1742V28.9809L53.9523 29.544ZM47.2282 50.5989V49.9264H47.1778V50.5568L47.2282 50.5989ZM47.4216 48.4892V47.9092H47.3711V48.4892H47.4216ZM51.2711 42.3702H51.372V42.0761H51.2711V42.3702ZM52.8176 34.1332C52.8099 34.2779 52.8269 34.4229 52.8681 34.5619C52.8681 34.419 52.9185 34.2677 52.9185 34.1164H52.8176V34.1332ZM51.8006 39.378H51.9015C51.9095 39.28 51.8922 39.1816 51.8511 39.0922H51.8006V39.3864V39.378ZM51.6577 40.1261H51.7586V39.7899H51.7082L51.6577 40.1345V40.1261ZM52.0444 37.9828C52.0948 37.9828 52.0948 37.9828 52.1452 37.9828V37.6466H52.1116L52.0612 37.9407L52.0444 37.9828ZM48.2453 51.8092H48.2957V51.3217H48.2453V51.8092ZM53.9103 29.8466C53.8413 30.0253 53.7933 30.2115 53.7674 30.4013L53.9103 30.0399V29.8466ZM51.3888 41.6138H51.4896C51.4972 41.532 51.4796 41.4499 51.4392 41.3784H51.3888V41.6222V41.6138ZM49.9431 26.9804C49.8909 26.9928 49.8441 27.0215 49.8093 27.0623C49.7745 27.1031 49.7537 27.1539 49.7498 27.2074V27.3083L49.9431 26.9889V26.9804ZM51.1534 43.2107H51.2039V42.8241H51.1534V43.2107ZM51.9939 38.7224V38.3358H51.9435V38.7224H51.9939ZM54.6079 19.2225V19.1217C54.5077 19.3035 54.426 19.495 54.3642 19.6932L54.6079 19.2225ZM52.2377 37.3776V37.0414H52.1873V37.3776H52.2377ZM50.9265 44.9926V44.6564H50.8761V44.9926H50.9265ZM52.1116 30.8132V31.099L52.2125 30.8384H52.1116V30.8132ZM52.3554 36.6968H52.4058V36.4026H52.3554V36.6968ZM52.9353 33.8474H53.0362V33.6037C52.9824 33.6813 52.9478 33.7706 52.9353 33.8643V33.8474ZM52.5487 36.0916V35.7974L52.4478 36.058H52.5487V36.0916ZM53.322 32.3849V32.3345L53.2715 32.3934C53.2715 32.5362 53.2211 32.6455 53.2211 32.7884L53.322 32.3849ZM50.1364 50.5905H50.1868V50.3467C50.1424 50.4228 50.1246 50.5115 50.1364 50.5989V50.5905ZM51.5401 40.7312H51.5905V40.5379H51.5401V40.7312ZM50.7668 45.8416H50.8172C50.7668 45.8416 50.7668 45.7071 50.7668 45.6566H50.7164C50.7164 45.7071 50.7164 45.7995 50.7668 45.8416ZM51.061 44.0008V43.8075H51.0105V44.0008H51.061ZM50.5315 47.8168V47.6234H50.481V47.8168H50.5315ZM51.2711 34.5703C51.2776 34.6574 51.2601 34.7445 51.2207 34.8224H51.2711L51.3215 34.5703H51.2711ZM51.1282 35.2259H51.103V35.3688H51.1534V35.2175L51.1282 35.2259ZM51.7586 32.4606V32.3177L51.6577 32.4774H51.7586V32.4606ZM54.2801 21.9374V22.0382L54.423 21.9206H54.2801V21.9374ZM50.0355 52.0613V51.9185H49.9851V52.0613H50.0355ZM50.3297 48.9683H50.3802V48.8254H50.3297V48.9683ZM52.0108 31.7041L51.8679 31.8722H51.9183L52.0192 31.6621L52.0108 31.7041ZM51.5737 33.3852H51.5233V33.528H51.5737V33.3852ZM54.2885 19.8781C54.3406 19.8185 54.3754 19.7459 54.3894 19.668C54.3374 19.7276 54.3025 19.8002 54.2885 19.8781ZM50.6575 46.7745L50.708 46.5728H50.6575V46.7661V46.7745ZM48.3293 50.4812V50.582H48.3797V50.4812H48.3293ZM53.7086 20.9119C53.7698 20.8385 53.8052 20.7469 53.8095 20.6514L53.7086 20.9119ZM53.0782 33.3599V33.2591C53.06 33.2795 53.0461 33.3035 53.0374 33.3295C53.0287 33.3555 53.0255 33.3831 53.0278 33.4104L53.0782 33.3515V33.3599ZM52.3049 30.3341H52.2545V30.435C52.3049 30.3761 52.3049 30.3761 52.3049 30.3341ZM53.7926 20.6598C53.8447 20.6002 53.8795 20.5275 53.8935 20.4497L53.7926 20.6598ZM51.3972 34.066L51.3468 34.1668H51.3972V34.066ZM51.7838 25.871C51.7334 25.871 51.7334 25.871 51.7334 25.9298L51.7838 25.871ZM53.1875 32.78C53.1692 32.8005 53.1553 32.8244 53.1467 32.8504C53.138 32.8765 53.1347 32.904 53.137 32.9313L53.1875 32.78ZM53.5741 31.4604L53.5237 31.5192H53.5741V31.4688V31.4604ZM53.3304 24.7363C53.3304 24.6859 53.3808 24.6774 53.3808 24.6354C53.3808 24.5934 53.3304 24.6943 53.3304 24.7363ZM53.6666 21.0044C53.6666 21.0548 53.6161 21.0632 53.6161 21.1053C53.6161 21.1473 53.6666 21.0464 53.6666 21.0044ZM58.8946 34.7132C56.5663 35.083 54.5323 40.7733 54.5323 42.7653V43.3452C54.5323 46.3459 56.7597 48.5144 59.8107 48.0353C60.1551 47.9712 60.4949 47.8841 60.8277 47.7747C61.918 47.3621 62.8744 46.6586 63.593 45.7407C66.3499 42.7401 69.4766 37.697 69.4766 33.7718C69.4766 31.6873 67.0055 29.5104 64.921 29.8382C62.8366 30.166 60.9454 33.2759 59.7855 34.9569L58.945 34.7048L58.8946 34.7132ZM57.9952 46.0517C62.4415 44.1437 65.8792 38.0836 66.6525 33.6205C66.7232 33.2936 66.771 32.9622 66.7954 32.6287C66.7957 32.4186 66.7467 32.2113 66.6525 32.0235C65.0555 32.2757 61.7103 36.8229 61.7103 38.3694C61.7166 38.5912 61.7834 38.807 61.9033 38.9936C62.0233 39.1803 62.192 39.3306 62.3911 39.4284C62.3385 39.5194 62.2683 39.599 62.1846 39.6625C62.1009 39.726 62.0054 39.7721 61.9036 39.7983C60.5504 40.0084 59.92 39.0418 59.1887 38.2433C58.378 40.0741 57.9026 42.0356 57.7851 44.0345C57.7558 44.7135 57.8266 45.3932 57.9952 46.0517ZM67.2409 38.4871C67.2913 39.9832 64.6269 43.1099 63.6603 44.3707C63.7305 44.1801 63.8297 44.0015 63.9544 43.8411C65.1855 42.1492 66.2842 40.3648 67.2409 38.5039V38.4871ZM61.3573 36.6463C62.2658 35.2248 63.2536 33.8554 64.3159 32.5446V32.4942H64.2654C64.215 32.4942 64.215 32.5531 64.1646 32.5615C63.1475 33.4524 61.601 35.3436 61.3573 36.6379V36.6463ZM59.1299 36.5119L59.1803 36.411C58.5811 37.1567 58.1354 38.0137 57.8691 38.9325C58.3579 38.1779 58.7798 37.382 59.1299 36.5539V36.5119ZM60.8698 34.5451L61.0126 34.4274C61.6598 33.4622 62.3881 32.554 63.1896 31.7125H63.0887C62.2366 32.562 61.4889 33.5101 60.8614 34.5367L60.8698 34.5451ZM63.7275 41.9416C64.0373 41.3533 64.3943 40.7911 64.795 40.2606C64.533 40.8753 64.1725 41.4431 63.7275 41.9416ZM64.4503 42.1181V42.0677L65.5682 40.3866C65.274 40.9666 64.8454 41.5213 64.5008 42.0677L64.4503 42.1181ZM57.2556 36.9826L57.9952 35.9739C57.6643 36.2393 57.4091 36.5872 57.2556 36.9826ZM61.6598 34.7384C61.9036 34.3097 62.2398 33.9651 62.5004 33.5953C62.1645 33.9321 61.8812 34.3174 61.6598 34.7384ZM58.5079 36.3017L58.0709 37.0498C58.2841 36.8466 58.4356 36.5873 58.5079 36.3017ZM65.5598 40.4034C65.5575 40.3761 65.5608 40.3486 65.5695 40.3226C65.5781 40.2966 65.592 40.2726 65.6103 40.2521L65.5598 40.4034ZM75.73 29.7457C75.2425 33.8138 71.6199 43.1939 68.1654 45.7155L66.4844 45.4045L66.5853 45.2448C67.3706 44.3136 68.0684 43.312 68.6697 42.2526C71.0376 38.1443 72.6756 33.6568 73.5111 28.9893C71.6703 28.0227 69.1068 27.0225 69.1068 24.4505C69.1068 23.1393 70.2667 21.3574 71.6703 21.1389C72.0758 21.0698 72.4922 21.1045 72.8807 21.2398C73.6421 21.4564 74.3174 21.9044 74.8128 22.5219C75.3083 23.1393 75.5995 23.8956 75.646 24.6859C75.7468 25.7365 75.8897 26.7787 75.9402 27.8378C77.6515 28.476 79.2776 29.3229 80.7815 30.3593C81.1516 30.6411 81.4475 31.0088 81.6437 31.4305C81.84 31.8522 81.9306 32.3154 81.9078 32.78C81.9078 34.2341 80.9916 36.7976 80.5041 38.3274C79.6636 41.0338 78.0835 45.2952 78.0835 47.9596C78.07 48.5869 78.1844 49.2103 78.4197 49.792L79.7729 49.918L79.7225 50.3131H79.7729L80.0166 49.9853L80.4033 49.9264C80.4969 50.0964 80.546 50.2872 80.5462 50.4812C80.5462 51.3973 79.0921 51.9185 78.3692 52.0361C75.2257 52.5488 73.965 49.3549 73.965 46.6905C73.965 43.4461 75.999 37.8483 77.1589 34.5619C77.5688 33.556 77.8512 32.5028 77.9994 31.4268C77.9994 30.2669 76.6462 29.9895 75.7721 29.7457H75.73ZM76.8227 47.6991C76.9656 47.0015 77.016 46.3122 77.1589 45.6146C77.7283 43.0672 78.4553 40.5577 79.3358 38.1004C79.9189 36.5797 80.3414 35.0021 80.5966 33.3936H80.4957C79.3442 36.8397 78.2768 40.3446 77.2598 43.7991C76.9558 44.7827 76.7917 45.8041 76.7723 46.8334C76.7658 47.1144 76.7827 47.3956 76.8227 47.6739V47.6991ZM73.4606 27.0561C73.4606 26.8628 73.5111 26.6106 73.5111 26.4173C73.5111 25.5011 73.2673 23.4503 72.7378 22.8619C72.2654 23.3308 71.9889 23.9618 71.9645 24.627C71.9618 25.1324 72.1015 25.6282 72.3676 26.0579C72.6337 26.4875 73.0154 26.8334 73.4691 27.0561H73.4606ZM79.277 34.5703L79.1341 34.7384L76.7639 42.0845C76.4277 43.2023 76.2764 44.3875 76.041 45.4969L76.1503 45.3877C76.5873 43.8663 76.9236 42.3114 77.411 40.7817C78.1807 38.7591 78.8125 36.6867 79.3022 34.5787L79.277 34.5703ZM78.4365 34.0324C78.1288 34.5511 77.9154 35.1202 77.8061 35.7134L75.4779 43.1519L74.9483 45.1691C75.3632 44.1905 75.7032 43.1818 75.9654 42.1517C76.8059 39.4537 77.7052 36.7892 78.4365 34.0576V34.0324ZM74.8055 31.3511C74.7046 31.4184 74.7046 31.5108 74.6626 31.6201C73.9461 34.1093 73.0902 36.5562 72.099 38.9494C73.116 37.6718 74.6206 32.9313 74.8139 31.3847L74.8055 31.3511ZM72.8219 34.0828L72.3848 35.5117C72.6215 35.0393 72.7994 34.5397 72.9143 34.0239L72.8219 34.0912V34.0828ZM71.3005 23.9546C71.4014 23.694 71.4434 23.3999 71.5443 23.1141C71.3746 23.2827 71.2703 23.5061 71.2501 23.7445C71.2426 23.8262 71.2602 23.9083 71.3005 23.9798V23.9546ZM71.0063 38.7224L70.6197 39.5629C70.8471 39.3395 70.9846 39.0404 71.0063 38.7224ZM72.8975 33.9231L73.0404 33.2675C72.9728 33.3611 72.9253 33.4676 72.9007 33.5804C72.8761 33.6932 72.875 33.8099 72.8975 33.9231ZM70.2835 22.8115L69.9893 23.2906L70.0902 23.3747C70.1263 23.1784 70.1915 22.9886 70.2835 22.8115ZM75.9486 45.892H76.0494C76.0494 45.7911 75.999 45.7575 75.999 45.6566C75.9595 45.7345 75.9421 45.8217 75.9486 45.9088V45.892ZM74.8895 30.9981V30.8048H74.8055V30.9981H74.8895ZM78.5205 33.7214H78.4701V33.9147C78.5089 33.8549 78.5267 33.7839 78.5205 33.713V33.7214ZM78.2263 43.7067V43.5638H78.1675V43.7067H78.2263ZM78.0835 44.0176V44.1605H78.1675V44.0176H78.0835ZM78.613 42.0929L78.5626 42.1937H78.6634C78.6661 42.1689 78.6629 42.1439 78.6542 42.1205C78.6454 42.0971 78.6313 42.0762 78.613 42.0592V42.0929ZM78.7559 41.8743V41.7314H78.7054V41.8743H78.7559ZM79.2854 34.4778L79.3863 34.3181H79.2854V34.461V34.4778ZM74.9736 30.4097V30.2585H74.9231V30.4013L74.9736 30.4097ZM73.2925 32.6119H73.2421C73.2483 32.6829 73.2305 32.7539 73.1917 32.8136C73.2437 32.754 73.2786 32.6814 73.2925 32.6035V32.6119ZM77.7893 45.3877V45.2868H77.7473V45.3877H77.7893ZM80.1175 37.655V37.5541H80.0671V37.655H80.1175ZM79.5376 39.1006V39.2015H79.588V39.1006H79.5376ZM73.4859 31.8218L73.385 32.0319L73.5279 31.8134L73.4859 31.8218ZM78.4197 42.9838V42.8661C78.3692 42.8661 78.3692 42.925 78.3692 42.967L78.4197 42.9838ZM79.4367 39.4368V39.5041C79.4871 39.5041 79.4871 39.4453 79.4871 39.4032L79.4367 39.4368ZM73.5531 31.4436L73.6035 31.3847L73.5531 31.2923V31.4352V31.4436ZM77.6716 45.8584V45.7575H77.6212C77.6212 45.8079 77.6212 45.8079 77.6716 45.85V45.8584ZM80.1427 37.2347V37.2851H80.1932V37.2347H80.1427ZM79.0248 40.7985V40.748H79.008C79.008 40.7985 79.008 40.7985 79.0585 40.748L79.0248 40.7985ZM77.7641 40.7985H77.7473H77.7977V40.748L77.7641 40.7985ZM77.5203 41.4625V41.5129L77.5708 41.4541L77.5203 41.4625ZM79.0669 40.4959L79.1173 40.4371C79.0669 40.4371 79.0669 40.4371 79.0669 40.4959ZM77.6632 41.1011H77.6128H77.6632V41.0506V41.1011ZM80.8572 34.8813H80.9076V34.8308L80.8572 34.8897V34.8813ZM78.4869 42.572V42.5215L78.4365 42.5804L78.4869 42.572ZM80.2772 36.8649H80.2268H80.2772V36.8144V36.8649ZM79.3442 39.7899V39.8403L79.3947 39.7815L79.3442 39.7899ZM79.1509 36.6211V36.5707L79.1005 36.6295L79.1509 36.6211ZM73.1917 32.864L73.1412 33.0153C73.1595 32.9949 73.1734 32.9709 73.1821 32.9449C73.1907 32.9189 73.194 32.8914 73.1917 32.864ZM78.4197 38.8233V38.7728L78.3692 38.8317L78.4197 38.8233ZM77.016 43.3536H77.0664V43.3032L77.016 43.362V43.3536ZM97.0706 25.2742C96.9572 25.417 96.8057 25.5248 96.6336 25.5852C96.5635 25.6406 96.5134 25.7173 96.4907 25.8037C96.4907 25.7029 96.4907 25.6608 96.6336 25.5852L96.5327 24.8287L95.9528 25.4507C95.3082 26.321 94.7719 27.2666 94.3558 28.2664C92.593 32.5665 90.227 36.5937 87.3291 40.2269V39.6974C87.9595 36.8817 88.8756 34.1248 88.8756 31.2923C88.8756 29.2582 87.9511 26.8796 85.7237 26.7955C85.7237 27.3755 85.8666 27.9807 85.8666 28.5606C85.8666 30.2416 85.1438 32.1664 84.6563 33.839C84.0511 35.8983 83.2106 38.5123 83.2106 40.4959C83.2106 42.6308 84.3285 43.0174 85.875 43.5638L86.3625 43.7319C86.5837 43.8504 86.8371 43.8946 87.0854 43.8579C88.9261 43.5722 92.0276 38.3778 92.9689 36.7388C92.9655 37.7766 92.8671 38.812 92.6748 39.8319C91.7082 45.5053 91.0778 51.1284 88.8504 56.7094C88.1696 58.3904 86.9593 61.0296 85.606 62.3997L84.5386 63.4419C84.1828 62.5947 83.9534 61.6998 83.8578 60.7859C83.8685 60.1511 83.9502 59.5196 84.1015 58.9031C84.1015 58.8527 84.152 58.8023 84.152 58.7518C84.646 56.4702 85.3726 54.2452 86.3205 52.1118C86.8127 50.5103 87.7342 49.0743 88.9849 47.9596C88.4441 47.63 87.8276 47.4448 87.1946 47.4217C85.211 47.7327 82.1515 56.1126 81.6725 57.9281C81.4001 59.0276 81.2701 60.1576 81.2858 61.2902C81.2858 62.6938 81.58 64.005 82.8324 64.6522C83.7289 65.1095 84.7417 65.288 85.7405 65.1649C87.0276 64.8654 88.1833 64.1578 89.0353 63.1477C92.5739 59.441 94.6079 53.3053 95.4821 48.6657C95.8687 46.6148 96.1125 44.4631 96.3226 42.4291C96.5327 40.395 96.7092 38.1509 96.9025 35.9907C97.0186 34.1879 97.229 32.3923 97.5329 30.6115C97.6338 29.9643 97.7767 29.3171 97.9196 28.6615L98.3062 26.5686C97.9196 26.0979 97.4657 25.7281 97.0959 25.3078L97.0706 25.2742ZM87.2366 49.0103C87.1978 49.07 87.1801 49.141 87.1862 49.212C87.1865 49.1994 87.1839 49.1869 87.1786 49.1754C87.1734 49.164 87.1657 49.1538 87.156 49.1457C87.1463 49.1377 87.1349 49.1319 87.1227 49.1288C87.1105 49.1257 87.0977 49.1254 87.0854 49.128C87.1358 49.0271 87.1862 49.0187 87.2282 49.0103H87.2366ZM86.4634 50.4392L86.6063 50.0777C86.6063 50.2206 86.5054 50.3383 86.5054 50.4812C86.4045 50.4812 86.4045 50.5905 86.2617 50.6157C86.3121 50.5148 86.4045 50.498 86.455 50.4392H86.4634ZM82.1011 58.8359V58.4997C82.1515 58.4997 82.1515 58.6342 82.1515 58.6846C82.1539 58.7119 82.1506 58.7394 82.1419 58.7654C82.1332 58.7914 82.1194 58.8154 82.1011 58.8359ZM82.202 58.0962V57.802C82.202 57.9029 82.2524 57.8945 82.2524 57.9365C82.2524 57.9786 82.202 58.0374 82.202 58.0878V58.0962ZM84.1856 55.6503C84.1794 55.5793 84.1972 55.5083 84.236 55.4486C84.2422 55.5196 84.2244 55.5906 84.1856 55.6503ZM84.4293 55.0788L84.2864 55.2469C84.3962 55.0413 84.462 54.8152 84.4798 54.5829L84.5806 54.3223L84.4377 55.0704L84.4293 55.0788ZM84.7235 54.0113C84.7481 53.9777 84.7839 53.9539 84.8244 53.9441L84.7235 54.0113ZM85.1606 53.2128V53.0195C85.1606 53.07 85.211 53.112 85.211 53.154L85.1606 53.2128ZM85.7405 49.3465C85.7928 49.2882 85.8595 49.2447 85.9339 49.2204C85.9076 49.2256 85.8837 49.239 85.8656 49.2586C85.8475 49.2782 85.8361 49.3031 85.833 49.3297C85.8084 49.3633 85.7726 49.3871 85.7321 49.3969V49.3465H85.7405ZM85.7405 49.5398L85.6901 49.6911C85.6878 49.6638 85.6911 49.6363 85.6997 49.6103C85.7084 49.5842 85.7223 49.5603 85.7405 49.5398ZM85.4464 50.2122L85.3455 50.5652C85.2446 50.5652 85.2026 50.6409 85.1017 50.6493C85.2951 50.4728 85.2951 50.3803 85.438 50.2122H85.4464ZM84.8916 51.3721L84.5974 51.9521C84.547 51.9521 84.547 51.8176 84.547 51.7672C84.54 51.6704 84.5713 51.5747 84.6342 51.5008C84.6971 51.4269 84.7865 51.3807 84.8832 51.3721H84.8916ZM84.5974 52.0025C84.5426 52.0475 84.4749 52.074 84.4041 52.0782C84.459 52.0332 84.5266 52.0067 84.5974 52.0025ZM84.2612 52.49C84.2667 52.3661 84.3012 52.2451 84.3621 52.137C84.3502 52.2598 84.316 52.3794 84.2612 52.49C84.2397 52.573 84.2229 52.6572 84.2108 52.7422C84.199 52.6548 84.2168 52.5661 84.2612 52.49ZM84.2108 53.0279C84.002 53.3233 83.8085 53.6291 83.6309 53.9441C83.6309 53.4566 83.6813 53.2128 84.2108 53.0279ZM82.7063 56.7514H82.6559C82.6559 56.8523 82.6559 56.8943 82.555 56.9615C82.555 56.8607 82.555 56.7682 82.6559 56.7514C82.7063 56.6001 82.7987 56.4824 82.7987 56.4404C82.786 56.5471 82.7517 56.65 82.6979 56.743L82.7063 56.7514ZM82.8071 55.9613C82.8576 55.9613 82.8576 56.0538 82.8576 56.2471C82.8165 56.1578 82.7991 56.0593 82.8071 55.9613ZM83.0509 55.684L83.1013 55.4318C83.1131 55.5191 83.0954 55.6079 83.0509 55.684ZM83.1518 55.3814L83.2022 54.9863C83.2064 55.1199 83.1894 55.2532 83.1518 55.3814ZM83.4459 58.1467V57.9533C83.4459 58.0038 83.4964 58.0458 83.4964 58.0878L83.4459 58.1467ZM83.3955 54.5241C83.4964 54.3644 83.5888 54.1542 83.6393 54.0534C83.6457 54.1404 83.6283 54.2276 83.5888 54.3055L83.3955 54.5325V54.5241ZM83.6393 57.1044C83.6447 56.9644 83.6791 56.8271 83.7401 56.701C83.752 56.7804 83.7688 56.859 83.7906 56.9363C83.7929 56.9569 83.791 56.9777 83.7849 56.9974C83.7789 57.0172 83.7689 57.0355 83.7555 57.0513C83.7421 57.067 83.7256 57.0799 83.7071 57.089C83.6885 57.0982 83.6683 57.1034 83.6477 57.1044H83.6393ZM91.725 50.893V51.0863C91.6746 51.0863 91.6746 51.0863 91.6746 51.0863C91.6984 51.0385 91.7153 50.9876 91.725 50.9351V50.893ZM91.5821 51.4478C91.5878 51.5484 91.5706 51.649 91.5317 51.742C91.5133 51.725 91.4992 51.7041 91.4905 51.6807C91.4817 51.6573 91.4786 51.6323 91.4812 51.6075C91.4812 51.557 91.4812 51.557 91.5821 51.4478ZM89.5985 57.3314L89.5481 57.3902C89.5481 57.2473 89.5985 57.2389 89.6489 57.1801C89.6307 57.2005 89.6168 57.2245 89.6081 57.2505C89.5994 57.2765 89.5962 57.304 89.5985 57.3314ZM90.2793 55.5327C90.3445 55.2544 90.4583 54.9897 90.6155 54.751C90.5227 55.0194 90.4103 55.2807 90.2793 55.5327ZM90.8088 58.693C90.8031 58.5924 90.8203 58.4918 90.8593 58.3988C90.865 58.4994 90.8477 58.6 90.8088 58.693ZM90.8593 54.129L90.7164 54.1963C90.6865 54.2229 90.6622 54.2551 90.6449 54.2912C90.6276 54.3273 90.6176 54.3664 90.6155 54.4064C90.6191 54.3107 90.6546 54.219 90.7164 54.1458L91.2039 52.4648C91.103 53.0111 91.0106 53.5575 90.8677 54.1458L90.8593 54.129ZM91.2459 57.7012C91.4896 57.2305 91.6325 56.7178 91.8259 56.2555C92.2125 55.1796 93.717 50.0021 94.0028 49.5314C93.759 50.6325 92.4058 56.9027 91.2375 57.718L91.2459 57.7012ZM94.0112 49.4221C94.0112 49.3213 93.9608 49.2372 93.9608 49.1364C93.9608 49.0355 94.0616 48.9262 94.2045 48.901C94.1125 49.0602 94.0471 49.2334 94.0112 49.4137V49.4221ZM94.112 48.3883L94.2129 48.859C94.1161 48.7151 94.0662 48.5448 94.07 48.3715L94.112 48.3883Z" fill="#1A1A18"/>
<path fill-rule="evenodd" clip-rule="evenodd" d="M15.054 0H94.0117V19.3318L91.9272 21.576V2.08447H16.0962V21.7861C15.4196 21.5912 14.7144 21.5145 14.0117 21.5592V0H15.054ZM94.0117 65.8794V80H14.0117V63.1897C14.7288 63.0662 15.4286 62.8574 16.0962 62.5678V77.9155H91.9272V68.0311C92.3223 67.6949 92.7005 67.3335 93.0619 66.9552C93.4234 66.577 93.7091 66.2492 94.0117 65.8794Z" fill="#1A1A18"/>
<path fill-rule="evenodd" clip-rule="evenodd" d="M39.0762 8.78336H39.5048V12.9859H39.0846V8.78336H39.0762ZM41.2867 12.9859V8.78336H41.3792L44.1949 12.0193V8.78336H44.6152V12.9859H44.5479L41.749 9.78357V12.9859H41.2867ZM46.0356 9.17V8.75814H48.347V9.17H47.4057V12.9859H46.977V9.19521L46.0356 9.17ZM49.7843 8.75814H52.205V9.17H50.2046V10.498H52.1798V10.9267H50.2046V12.6077H52.1798V13.0195H49.7843V8.81698V8.75814ZM53.7767 8.75814H54.6173C54.9378 8.7478 55.2586 8.76749 55.5754 8.81698C55.816 8.86717 56.0323 8.99757 56.189 9.18681C56.349 9.38335 56.4326 9.63112 56.4244 9.88443C56.4298 10.0972 56.3744 10.3072 56.2647 10.4896C56.1549 10.6657 55.9934 10.8037 55.8024 10.8846C55.534 10.9852 55.2482 11.0309 54.9619 11.0191L56.4832 12.9859H55.9621L54.4407 11.0191H54.197V12.9859H53.7935V8.78336L53.7767 8.75814ZM54.197 9.17V10.6073H54.9282C55.1417 10.6166 55.3551 10.5881 55.5586 10.5232C55.69 10.4724 55.8019 10.3812 55.878 10.2627C55.9552 10.1454 55.9961 10.008 55.9957 9.86762C55.9965 9.7298 55.9555 9.59498 55.878 9.48098C55.8062 9.36716 55.7003 9.27891 55.5754 9.22883C55.374 9.16826 55.1636 9.14267 54.9535 9.15319L54.197 9.17ZM58.0802 8.75814H58.5004V12.9607H58.0802V8.75814ZM62.2827 8.64888C62.5796 8.64114 62.875 8.69376 63.151 8.80357C63.4269 8.91337 63.6777 9.07807 63.8881 9.28767C64.3023 9.70761 64.5346 10.2738 64.5346 10.8636C64.5346 11.4535 64.3023 12.0196 63.8881 12.4396C63.6841 12.6489 63.4394 12.8144 63.1691 12.9257C62.8988 13.037 62.6086 13.0918 62.3163 13.0868C62.0214 13.0931 61.7283 13.0389 61.4551 12.9276C61.1819 12.8163 60.9343 12.6502 60.7278 12.4396C60.529 12.2412 60.3716 12.0053 60.2648 11.7456C60.1581 11.4859 60.104 11.2075 60.1058 10.9267C60.1035 10.5319 60.2049 10.1435 60.4 9.80038C60.5903 9.46218 60.8675 9.18099 61.2029 8.98592C61.5384 8.79085 61.9199 8.689 62.3079 8.6909L62.2827 8.64888ZM62.2827 9.06073C61.9692 9.06022 61.6614 9.14444 61.3918 9.30448C61.1187 9.46069 60.8924 9.68703 60.7362 9.96008C60.5763 10.2562 60.5008 10.5906 60.5176 10.9267C60.5165 11.1614 60.5618 11.394 60.6509 11.6111C60.7399 11.8283 60.871 12.0257 61.0366 12.1921C61.2021 12.3584 61.399 12.4904 61.6157 12.5805C61.8324 12.6706 62.0648 12.717 62.2995 12.717C62.6176 12.7198 62.9307 12.6386 63.2073 12.4816C63.483 12.3289 63.7101 12.1017 63.8629 11.826C64.0262 11.5539 64.116 11.244 64.1234 10.9267C64.1322 10.5936 64.0478 10.2646 63.8797 9.97689C63.7203 9.70558 63.491 9.48206 63.2157 9.32969C62.9402 9.16905 62.6268 9.0849 62.3079 9.08594L62.2827 9.06073ZM66.2079 8.75814H67.0484C67.369 8.7478 67.6898 8.76749 68.0066 8.81698C68.2471 8.86717 68.4635 8.99757 68.6202 9.18681C68.7802 9.38335 68.8638 9.63112 68.8555 9.88443C68.861 10.0972 68.8056 10.3072 68.6958 10.4896C68.5861 10.6657 68.4246 10.8037 68.2336 10.8846C67.9652 10.9852 67.6794 11.0309 67.393 11.0191L68.9228 13.0111H68.4017L66.8803 11.0443H66.6366V13.0111H66.2163V8.80857L66.2079 8.75814ZM66.6282 9.17V10.6073H67.3594C67.5729 10.6166 67.7863 10.5881 67.9898 10.5232C68.1212 10.4724 68.2331 10.3812 68.3092 10.2627C68.3864 10.1454 68.4273 10.008 68.4269 9.86762C68.4277 9.7298 68.3867 9.59498 68.3092 9.48098C68.2374 9.36716 68.1315 9.27891 68.0066 9.22883C67.8051 9.16826 67.5948 9.14267 67.3846 9.15319L66.6282 9.17Z" fill="#1A1A18"/>
<path fill-rule="evenodd" clip-rule="evenodd" d="M41.832 73.5785V69.3759H42.6725C43.1371 69.3548 43.6021 69.4058 44.051 69.5272C44.4459 69.6609 44.7837 69.9246 45.0092 70.2753C45.2539 70.6442 45.3853 71.0766 45.3874 71.5192C45.395 71.9098 45.2993 72.2954 45.11 72.6371C44.9466 72.9398 44.6983 73.1881 44.3956 73.3515C44.0099 73.5221 43.5896 73.5998 43.1684 73.5785H41.832ZM42.2355 73.175H42.723C43.1295 73.1931 43.5366 73.1564 43.9333 73.0658C44.2385 72.9714 44.5024 72.7757 44.6814 72.511C44.8677 72.2177 44.9614 71.875 44.9503 71.5276C44.9611 71.1583 44.8585 70.7946 44.6562 70.4854C44.4566 70.1921 44.1583 69.9804 43.8156 69.8886C43.3971 69.7913 42.9676 69.749 42.5381 69.7626H42.2355V73.175ZM47.0684 69.3507H49.4891V69.7626H47.4635V71.0906H49.4387V71.5024H47.4635V73.1834H49.4387V73.5953H47.0684V69.3927V69.3507ZM50.5986 72.7884L50.96 72.5699C51.2122 73.035 51.4923 73.2675 51.8005 73.2675C51.9413 73.2682 52.0801 73.2335 52.204 73.1666C52.323 73.1062 52.4222 73.0128 52.4897 72.8977C52.555 72.7915 52.5899 72.6693 52.5906 72.5447C52.5888 72.393 52.5388 72.2458 52.4477 72.1244C52.2412 71.8635 51.9976 71.6342 51.7249 71.4436C51.4843 71.2767 51.2642 71.082 51.0693 70.8636C50.9234 70.6794 50.8435 70.4515 50.8423 70.2164C50.8409 70.0393 50.8874 69.8651 50.9768 69.7121C51.0652 69.5626 51.1932 69.4404 51.3466 69.3591C51.5061 69.2709 51.6855 69.2246 51.8678 69.2246C52.0656 69.2239 52.26 69.2762 52.4309 69.3759C52.6512 69.5182 52.8401 69.7041 52.9856 69.9223L52.641 70.1828C52.5295 70.0196 52.3901 69.8773 52.2292 69.7626C52.1176 69.6955 51.9896 69.6606 51.8594 69.6617C51.7048 69.6549 51.5538 69.7093 51.4391 69.813C51.3864 69.8623 51.3448 69.9223 51.3173 69.989C51.2897 70.0557 51.2768 70.1275 51.2794 70.1996C51.2797 70.2924 51.2998 70.3841 51.3382 70.4686C51.3905 70.5757 51.4617 70.6725 51.5484 70.7544C51.6072 70.8048 51.7837 70.9477 52.0947 71.1746C52.386 71.371 52.6418 71.6154 52.8512 71.8975C52.9798 72.0859 53.0499 72.3081 53.0529 72.5363C53.0592 72.6937 53.0308 72.8505 52.9698 72.9958C52.9088 73.141 52.8167 73.2711 52.6999 73.3768C52.5889 73.4855 52.4575 73.5712 52.3132 73.6289C52.169 73.6866 52.0147 73.7152 51.8594 73.713C51.611 73.7141 51.3681 73.6409 51.1617 73.5028C50.9157 73.3232 50.7168 73.0867 50.5818 72.8136L50.5986 72.7884ZM54.7255 69.3507H55.1458V73.5533H54.7255V69.3507ZM61.0209 70.0567L60.6931 70.3677C60.4707 70.1444 60.2085 69.9648 59.9199 69.8382C59.6549 69.7219 59.3687 69.6618 59.0794 69.6617C58.7473 69.6615 58.4205 69.7453 58.1296 69.9054C57.84 70.0578 57.5984 70.2877 57.432 70.5694C57.2603 70.8295 57.1642 71.1321 57.1546 71.4436C57.154 71.7635 57.2412 72.0775 57.4067 72.3513C57.5764 72.6357 57.8205 72.8682 58.1128 73.0237C58.4175 73.1873 58.7587 73.2712 59.1046 73.2675C59.5067 73.281 59.9004 73.1498 60.214 72.8977C60.5106 72.6635 60.7037 72.3226 60.752 71.9479H59.4072V71.536H61.2311C61.2487 71.8265 61.2063 72.1174 61.1065 72.3907C61.0067 72.664 60.8517 72.9139 60.6511 73.1246C60.4462 73.3211 60.2034 73.4739 59.9375 73.5736C59.6716 73.6733 59.3882 73.7179 59.1046 73.7046C58.7515 73.7146 58.4007 73.6441 58.0789 73.4985C57.7571 73.3528 57.4726 73.1359 57.247 72.8641C56.9013 72.4721 56.7127 71.9662 56.7175 71.4436C56.716 71.0505 56.8205 70.6643 57.0201 70.3257C57.2162 69.9724 57.5073 69.6812 57.8606 69.4852C58.2267 69.2864 58.6377 69.1851 59.0541 69.191C59.4025 69.1886 59.748 69.2542 60.0712 69.3843C60.4152 69.5326 60.7287 69.7435 60.9957 70.0063L61.0209 70.0567ZM62.8869 73.5785V69.3759H62.9793L65.7951 72.6119V69.3507H66.2153V73.5533H66.1229L63.3239 70.3509V73.5533L62.8869 73.5785Z" fill="#1A1A18"/>
</g>
<defs>
<clipPath id="clip0">
<rect width="98.2812" height="80" fill="white"/>
</clipPath>
</defs>
</svg>
