<svg width="172" height="140" viewBox="0 0 172 140" fill="none" xmlns="http://www.w3.org/2000/svg">
<g clip-path="url(#clip0)">
<path fill-rule="evenodd" clip-rule="evenodd" d="M23.0639 54.7173C22.6542 56.7828 22.1187 58.8213 21.4606 60.8215C20.2691 65.2342 19.0042 69.5145 17.9893 73.9125L15.2828 85.6797C14.6261 88.2591 14.2561 90.9031 14.1796 93.5637C14.1147 94.4648 14.2297 95.3698 14.5179 96.226C15.2209 97.8175 16.4166 99.1412 17.9287 100.002C19.4408 100.862 21.1894 101.215 22.9168 101.006C24.1892 100.718 25.3965 100.194 26.4763 99.462C29.3703 97.6116 31.8698 95.2071 33.8308 92.3869C41.5412 80.861 47.4023 68.2007 51.2021 54.8644C52.403 50.4876 53.0309 45.9735 53.0702 41.4351C53.0556 39.0819 52.542 36.7587 51.5633 34.6187C50.5846 32.4787 49.163 30.5707 47.3925 29.0207C46.6272 28.4462 45.8039 27.9532 44.9361 27.5498L44.686 27.6675C45.1562 29.1726 45.7211 30.6465 46.3776 32.0802C47.2156 34.5039 47.5898 37.0637 47.4807 39.6259C47.3079 43.2556 46.6753 46.8488 45.598 50.3193C42.2885 62.7042 32.6247 85.8415 22.8726 93.902C22.1078 94.5345 21.1811 95.0199 20.4162 95.6523C20.5515 94.2648 20.8075 92.8917 21.1811 91.5485L22.7991 83.841C23.6522 79.6343 24.7554 75.4863 25.7409 71.2502C26.9323 66.3962 27.859 61.5128 28.6827 56.7177C28.8592 55.6734 29.5358 53.0257 29.5358 52.0844C29.5358 50.7311 26.491 47.2304 25.0496 47.451C24.4612 47.5393 19.7102 50.9224 18.6953 51.5107C14.3708 54.1436 6.92811 58.3651 2.25065 59.1005C1.6623 59.1888 0.985683 59.1005 0.382615 59.2182C0.22835 59.2203 0.0788339 59.2719 -0.0439453 59.3653C0.224364 60.5333 0.922865 61.5573 1.91239 62.2334C2.90191 62.9094 4.1098 63.1878 5.29541 63.0131C8.34017 62.5277 12.2528 60.3949 15.121 58.924C17.5774 57.6002 20.3721 55.5557 23.005 54.7173H23.0639ZM44.1271 68.9408C41.6707 75.354 34.6398 89.2539 29.6241 93.9461C29.7085 93.744 29.8225 93.5557 29.9624 93.3872C32.2914 90.1663 34.4137 86.801 36.3166 83.3115C38.6848 79.2077 40.9794 75.0304 42.9357 70.7353C43.8623 68.7202 44.539 66.661 45.3921 64.6753C45.706 63.7056 46.1047 62.7655 46.5835 61.8658C46.8009 61.6172 46.975 61.3338 47.0983 61.0274V61.1157L44.1565 68.9556L44.1271 68.9408ZM34.7134 80.5904C35.1424 79.661 35.6339 78.7617 36.1843 77.8986C35.9456 78.6647 35.572 79.382 35.0811 80.0167C33.9779 81.8847 30.5948 88.8421 29.0651 89.6952C30.7566 86.5475 32.8012 83.591 34.7428 80.5756L34.7134 80.5904ZM32.8894 86.7828C33.0512 86.5034 33.7426 85.459 34.3603 84.2529C33.3454 86.1945 31.6539 89.6805 30.4625 90.2983C31.2273 89.0774 32.0657 87.9301 32.8306 86.7828H32.8894ZM37.0374 79.6931L36.9491 79.8696C36.4595 81.176 35.7751 82.4009 34.9193 83.5027C34.831 83.6057 34.831 83.6792 34.7428 83.694C35.5273 82.4693 36.2347 81.197 36.8609 79.8843L37.0374 79.6931ZM38.2435 74.3685C38.2278 74.2855 38.198 74.2059 38.1553 74.1331C38.1553 73.9566 38.2435 73.8684 38.4053 73.7507C38.3844 73.9656 38.3246 74.1749 38.2288 74.3685H38.2435ZM36.7726 77.0602L36.6844 77.1632C36.5891 77.4619 36.4104 77.7273 36.1695 77.928C36.3397 77.623 36.5418 77.337 36.7726 77.0749V77.0602ZM39.1408 75.6628V75.9129C39.1408 76.0894 39.0525 76.1777 38.8907 76.2953L39.1408 75.6628ZM37.5375 78.8841C37.6166 78.5812 37.7623 78.2998 37.964 78.0604H38.0523C37.8348 78.309 37.6608 78.5924 37.5375 78.8988V78.8841ZM37.361 79.0753C37.4492 78.9724 37.4492 78.8988 37.5375 78.8841C37.6257 78.8694 37.4492 79.0606 37.361 79.0753ZM27.5501 91.4897C27.6383 91.3867 27.7266 91.372 27.7266 91.2985C27.7266 91.2249 27.6383 91.4014 27.6383 91.475L27.5501 91.4897ZM39.8468 70.8236V70.7353H39.935L39.8468 70.8236ZM65.4404 71.206L65.3521 71.7208L66.0288 70.9413L65.9405 71.4561L66.1906 70.8971H66.014L66.1906 70.603V70.853L66.3671 70.4853H66.4553L66.7936 69.8381H66.9701C65.1688 74.0317 63.0443 78.0791 60.6159 81.9436C59.3509 84.1793 58.1595 86.4887 56.8062 88.6509C54.8458 91.8592 52.7251 94.9667 50.452 97.9616C50.2413 98.2108 49.9833 98.4158 49.693 98.5647C49.4027 98.7137 49.0857 98.8037 48.7604 98.8295C46.304 99.2119 44.5242 98.1382 44.5242 95.5935C44.7029 90.8196 45.4736 86.0863 46.8188 81.5023C47.8188 78.0469 48.4983 74.5067 48.8487 70.9266V70.603C48.8487 70.1764 48.5986 69.794 48.5986 69.3674C48.5986 68.9408 49.1134 68.7791 49.3635 68.6614C53.0996 68.5878 56.1443 70.0587 56.1443 74.1184C55.9189 77.356 55.2354 80.5453 54.1145 83.591L52.217 90.2247C52.217 90.313 52.1288 90.3277 52.1288 90.4012C52.1715 90.474 52.2013 90.5536 52.217 90.6366C54.5852 87.2976 56.6297 83.6645 58.7478 80.1932C60.0128 78.134 61.5425 76.1924 62.8957 74.1919C63.5574 73.0131 64.2944 71.8782 65.1021 70.7942L64.6755 71.6179L65.2639 70.853C63.9107 73.3535 62.2191 75.7364 61.116 78.3693C61.7206 77.6298 62.2572 76.8372 62.7192 76.0012C63.4165 74.2818 64.3257 72.6561 65.4257 71.1619L65.4404 71.206ZM54.1733 55.0262L54.4234 55.3203H54.8499V55.894C55.0794 55.7647 55.2797 55.5895 55.4383 55.3792L56.2914 55.6734L56.1149 56.2911H57.1298V57.1443L57.5564 56.9972C57.8072 57.1132 58.0203 57.2975 58.1712 57.5291C58.322 57.7606 58.4046 58.0299 58.4095 58.3063C58.4095 60.3361 57.4828 62.263 57.4828 64.3075C57.4828 65.4107 57.8212 66.5433 57.8212 67.6465C57.6039 67.8355 57.3396 67.9625 57.0563 68.0142C56.4679 68.1024 56.0414 67.6612 55.4383 67.8377C53.4085 66.9698 51.6287 63.425 51.6287 61.0568C51.6287 59.7919 52.5553 55.1733 54.1733 54.982V55.0262ZM51.7905 92.3281C52.5553 90.6807 53.7468 89.2245 54.7323 87.636C56.2032 85.0325 57.777 82.4878 59.2185 79.899C60.2989 78.092 61.5499 76.3927 62.9546 74.8244C59.4833 80.3697 56.0855 85.915 52.6583 91.4456C52.3934 91.7626 52.1084 92.0622 51.8052 92.3428L51.7905 92.3281ZM48.5398 95.3729C49.1269 92.2068 49.918 89.082 50.9079 86.018C51.3211 83.9392 51.947 81.9085 52.776 79.9579C51.4227 85.0913 49.9813 90.2541 48.7016 95.3435H48.5251L48.5398 95.3729ZM61.4543 79.4283V79.7667L61.7779 79.4283C61.739 79.4478 61.6962 79.4579 61.6528 79.4579C61.6094 79.4579 61.5666 79.4478 61.5278 79.4283C61.7571 78.9874 61.9538 78.5302 62.1162 78.0604L61.1012 79.6637L61.5278 79.4283H61.4543ZM63.2488 76.4865H63.087L63.337 76.0159V75.6776C63.0231 76.1086 62.766 76.5782 62.5721 77.0749L62.9105 76.8543L63.087 76.4865C63.1752 76.4865 63.1752 76.7219 63.1752 76.8102C63.2319 76.7122 63.2576 76.5994 63.2488 76.4865ZM63.7636 75.3098L64.0136 74.9274C64.0136 74.5891 64.1901 74.3096 64.1901 73.9713L63.4253 75.5305L63.7636 75.3098V75.5599L63.9254 75.2804H63.7636V75.3098ZM56.0561 87.5477L56.8209 86.4887C56.3944 86.6357 56.0561 86.8564 56.0561 87.3712V87.5477ZM59.2773 82.7967L59.6156 82.4878C59.8894 82.0211 60.116 81.5284 60.2923 81.0169C60.0014 81.6313 59.662 82.2216 59.2773 82.782V82.7967ZM65.4698 71.1472C65.7431 70.7931 65.9431 70.388 66.0582 69.9558H65.8817C65.7754 70.3839 65.6327 70.8022 65.4551 71.206L65.4698 71.1472ZM55.0117 89.1068L55.7766 88.1361C55.35 88.2831 55.1882 88.7391 55.0117 89.1068ZM65.308 71.7061C65.2799 71.982 65.1609 72.2407 64.9697 72.4416L65.308 72.3092L65.3963 71.9562L65.308 71.7208V71.7061ZM53.0702 78.9871C52.9819 79.1636 52.9819 79.4283 52.8936 79.5166V79.0018H53.0702V78.9871ZM64.1754 75.0157H63.9989V75.2657L64.1754 74.9862C64.1646 74.862 64.1957 74.7378 64.2637 74.6332H64.1754C64.1754 74.7215 64.0872 74.898 64.1754 74.9715V75.0157ZM62.9105 77.2514L63.1605 76.9572H62.984C62.9521 76.9931 62.9278 77.035 62.9126 77.0805C62.8974 77.126 62.8917 77.1742 62.8957 77.222L62.9105 77.2514ZM65.3669 72.6328L65.6169 72.2504L65.4404 72.368L65.3521 72.6328H65.3669ZM66.2935 70.5294H66.3818V70.2794L66.2935 70.5441V70.5294ZM66.2935 70.6177V70.5294H66.1906V70.603L66.2788 70.5L66.2935 70.6177ZM63.3517 76.2365H63.2488V76.413C63.337 76.31 63.337 76.31 63.337 76.2365H63.3517ZM66.3965 70.5H66.3082V70.603L66.3965 70.5ZM76.3839 82.3701L74.913 81.4288C74.4879 81.6432 74.0882 81.9047 73.7215 82.2083C71.7158 84.1489 69.2748 85.5812 66.6024 86.3857C66.5012 86.0915 66.4418 85.7845 66.4259 85.4737C66.4259 79.3695 67.6173 71.8091 72.8684 67.0875C73.3677 66.6135 73.9981 66.3009 74.6776 66.1903L75.266 66.102C74.7411 67.2955 74.4514 68.579 74.4129 69.8822C74.3559 70.4759 74.431 71.0747 74.6326 71.636C74.8342 72.1972 75.1574 72.707 75.5791 73.1287C76.0008 73.5503 76.5105 73.8736 77.0718 74.0752C77.633 74.2768 78.2319 74.3519 78.8256 74.2949C78.5468 73.5284 78.3496 72.7346 78.2372 71.9268C78.2372 70.4559 78.9138 69.1026 78.9138 67.6612C78.8961 67.143 78.7495 66.6375 78.4873 66.1903C77.7722 64.7973 76.655 63.6514 75.2806 62.9012C73.9062 62.1511 72.3381 61.8313 70.7798 61.9835C64.3372 62.9984 60.0128 75.3834 60.0128 80.7963C60.0128 85.6355 63.4106 90.2689 68.6617 89.4452C71.9188 88.4781 74.7931 86.5191 76.884 83.841C77.134 83.4586 77.2223 83.0173 77.4723 82.6496C77.3437 82.6432 77.2177 82.6113 77.1015 82.5558C76.9854 82.5002 76.8814 82.4221 76.7957 82.326L76.1191 83.1056L76.3692 82.2966L76.3839 82.3701ZM70.868 66.6021H70.7798L70.0149 66.9698C68.544 67.7935 66.7936 71.7944 66.2788 73.3241H66.3671C66.5418 72.8187 66.8004 72.3463 67.1319 71.9268C68.1662 70.0082 69.42 68.2164 70.868 66.5874V66.6021ZM65.3521 68.4849C65.6905 67.9259 66.9701 65.7784 67.5585 65.6755C66.9797 66.725 66.2346 67.6738 65.3521 68.4849ZM67.2202 68.4849C67.3249 68.1152 67.5115 67.7738 67.7661 67.4861C68.0207 67.1983 68.3369 66.9716 68.6911 66.8228C68.2645 67.3964 67.7644 67.8965 67.2202 68.4849ZM76.0456 67.1758H75.9573C75.9573 67.0875 75.9573 67.0875 76.0456 66.9993V67.1758ZM76.4868 82.1642V82.3701H76.3986C76.3986 82.2819 76.4868 82.2672 76.4868 82.1936V82.1642ZM107.743 43.7591C107.743 44.4357 108.42 44.4945 108.935 44.5092C106.979 47.1863 99.4475 49.0543 96.3881 50.0398C93.5501 60.3792 91.3689 70.8876 89.8573 81.5023C88.9496 87.0472 88.4579 92.6523 88.3864 98.2705C88.4096 100.454 88.696 102.627 89.2395 104.742C89.3108 104.955 89.3407 105.18 89.3278 105.404C89.3278 106.169 88.2246 106.596 87.6362 106.684C87.3862 106.684 87.2979 106.478 87.2097 106.331L86.6949 107.169C85.6799 106.816 84.5768 106.743 83.5619 106.39C80.4288 105.272 80.4288 99.5061 80.4288 96.5349C80.6098 87.424 81.4603 78.3388 82.9735 69.3527C83.3118 67.264 83.4883 65.1165 83.9002 63.0131C84.3267 60.5714 84.9151 58.1003 85.2534 55.6586C85.4057 55.0835 85.5187 54.4987 85.5917 53.9083C85.5917 53.4817 84.8268 53.5994 84.5768 53.6435C83.7236 53.7759 82.797 54.0112 81.9439 54.1436L82.0321 54.0407C81.0526 53.8242 80.1639 53.3105 79.4875 52.5698L79.5757 52.055L78.8109 51.7461C78.8382 51.4094 78.9666 51.0889 79.1792 50.8264C79.3918 50.564 79.6786 50.3718 80.0023 50.2752C81.8703 49.4662 83.8119 48.9955 85.6799 48.2747C87.5861 45.5863 89.1801 42.6896 90.4309 39.6406C91.4602 37.2789 92.6191 34.9759 93.9023 32.7421C94.2406 32.0949 94.5789 31.5359 95.3731 31.4183L96.3881 31.7713L95.7997 33.2422C96.3145 32.6538 96.6528 32.0949 97.0647 31.5212L97.403 31.9772L98.0796 31.786L97.653 33.0363L98.3297 32.3302L99.2563 32.5214V33.3746L99.9329 33.0951C100.448 33.4334 101.286 33.7276 101.286 34.4924C101.286 34.8307 98.2414 44.0386 98.2414 44.0386C98.8444 43.9087 99.4388 43.7417 100.021 43.5385C101.449 43.0322 102.929 42.6869 104.434 42.5088C105.047 42.3047 105.711 42.3192 106.315 42.5498C106.918 42.7805 107.423 43.213 107.743 43.7738V43.7591ZM85.9594 99.6532C86.7841 83.2275 89.2829 66.9289 93.4169 51.0106L92.652 51.2165C90.6801 58.4712 89.1524 65.8394 88.0775 73.28C86.7725 80.7117 86.0056 88.2279 85.7829 95.77C85.7567 97.062 85.8157 98.3543 85.9594 99.6385V99.6532ZM90.7104 51.7755C89.1807 53.9671 85.3122 78.0751 85.3122 81.5464V81.973C86.0771 76.9425 86.7831 71.9121 87.6804 66.9404C88.5776 61.9688 89.7102 56.8648 90.7251 51.7902L90.7104 51.7755ZM84.3414 74.3979C85.5329 67.1758 86.5478 59.8948 88.3276 52.658C87.1361 54.7173 84.3414 71.2502 84.3414 73.9713V74.3979ZM95.4467 44.421C96.2998 42.0823 96.9176 39.773 97.8148 37.346C97.5648 37.8167 97.2265 38.1991 96.9617 38.5815C96.009 40.7361 95.2175 42.9583 94.5936 45.23H94.7701C95.1966 45.23 95.3584 44.8034 95.4467 44.4504V44.421ZM83.3265 82.2819C83.5766 79.9579 83.9149 77.5309 84.2532 75.1775H84.0031L83.1647 82.3701H83.3412L83.3265 82.2819ZM93.3286 43.3178C92.7869 44.0843 92.4663 44.9849 92.4019 45.9213C92.9444 45.1552 93.265 44.2544 93.3286 43.3178ZM93.2403 56.5559C93.4221 56.078 93.5648 55.586 93.6669 55.085C93.4899 55.2824 93.3596 55.5171 93.2858 55.7718C93.212 56.0264 93.1964 56.2944 93.2403 56.5559ZM93.7552 55.085C93.83 54.5867 93.9431 54.095 94.0935 53.6141C93.8391 53.8876 93.6882 54.2414 93.6669 54.6143C93.6528 54.7858 93.6832 54.9581 93.7552 55.1144V55.085ZM85.1063 84.1941V83.0026H85.018C85.018 83.4292 84.9298 83.7822 84.9298 84.2088H85.1063V84.1941ZM84.768 86.7828L84.8562 85.1648H84.768L84.6797 86.7828H84.768ZM92.4755 60.645C92.299 60.7627 92.1372 60.8656 92.1372 61.1157C92.1372 61.3657 92.2254 61.351 92.2254 61.5275L92.4755 60.645ZM91.9607 62.4248L92.2107 61.6158C92.1194 61.6374 92.0374 61.6876 91.9766 61.759C91.9158 61.8304 91.8793 61.9194 91.8724 62.0129C91.8724 62.1894 91.9607 62.2483 91.9607 62.4248ZM94.4171 51.7019C94.5295 51.6377 94.6211 51.5426 94.681 51.4279C94.741 51.3132 94.7668 51.1837 94.7554 51.0547V50.7164L94.4171 51.7019ZM82.6499 88.5479V87.3712H82.5616V88.4744L82.6499 88.5479ZM82.9882 84.856V83.841H82.8999V84.856H82.9882ZM89.7249 74.1478H89.9014V73.633H89.7249V74.1478ZM92.4314 59.733C92.4177 59.9863 92.4476 60.24 92.5196 60.4832C92.5196 60.2331 92.6079 59.9684 92.6079 59.7036H92.4314V59.733ZM90.6516 68.9114H90.8281C90.8422 68.7399 90.8118 68.5677 90.7398 68.4113H90.6516V68.9261V68.9114ZM90.4015 70.2205H90.578V69.6322H90.4898L90.4015 70.2352V70.2205ZM91.0781 66.4697C91.1664 66.4697 91.1664 66.4697 91.2546 66.4697V65.8814H91.1958L91.1076 66.3962L91.0781 66.4697ZM84.4297 90.666H84.5179V89.8129H84.4297V90.666ZM94.3435 52.2315C94.2227 52.5442 94.1388 52.87 94.0935 53.2022L94.3435 52.5698V52.2315ZM89.9308 72.824H90.1073C90.1205 72.681 90.0897 72.5373 90.0191 72.4122H89.9308V72.8387V72.824ZM87.4009 47.2157C87.3096 47.2373 87.2276 47.2875 87.1668 47.3589C87.1059 47.4303 87.0694 47.5193 87.0626 47.6128V47.7894L87.4009 47.2304V47.2157ZM89.519 75.6187H89.6072V74.9421H89.519V75.6187ZM90.9899 67.7641V67.0875H90.9016V67.7641H90.9899ZM95.5644 33.6393V33.4628C95.3889 33.781 95.246 34.1161 95.1378 34.463L95.5644 33.6393ZM91.4164 65.4107V64.8223H91.3282V65.4107H91.4164ZM89.1218 78.737V78.1487H89.0336V78.737H89.1218ZM91.1958 53.923V54.4231L91.3723 53.9671H91.1958V53.923ZM91.6224 64.2193H91.7106V63.7045H91.6224V64.2193ZM92.6373 59.2329H92.8138V58.8064C92.7197 58.9423 92.6592 59.0985 92.6373 59.2623V59.2329ZM91.9607 63.1602V62.6454L91.7842 63.1014H91.9607V63.1602ZM93.3139 56.6736V56.5853L93.2256 56.6883C93.2256 56.9383 93.1374 57.1295 93.1374 57.3796L93.3139 56.6736ZM87.7392 88.5332H87.8275V88.1066C87.7496 88.2398 87.7186 88.3951 87.7392 88.5479V88.5332ZM90.1956 71.2796H90.2839V70.9413H90.1956V71.2796ZM88.8424 80.2226H88.9306C88.8424 80.2226 88.8424 79.9873 88.8424 79.899H88.7541C88.7541 79.9873 88.7541 80.1491 88.8424 80.2226ZM89.3572 77.0014V76.6631H89.2689V77.0014H89.3572ZM88.4305 83.6792V83.3409H88.3423V83.6792H88.4305ZM89.7249 60.4979C89.7363 60.6503 89.7057 60.8029 89.6367 60.9392H89.7249L89.8132 60.4979H89.7249ZM89.4749 61.6452H89.4307V61.8953H89.519V61.6305L89.4749 61.6452ZM90.578 56.8059V56.5559L90.4015 56.8354H90.578V56.8059ZM94.9907 38.3903V38.5668L95.2408 38.3609H94.9907V38.3903ZM87.5627 91.1073V90.8572H87.4744V91.1073H87.5627ZM88.0775 85.6944H88.1658V85.4443H88.0775V85.6944ZM91.0193 55.4821L90.7692 55.7763H90.8575L91.034 55.4086L91.0193 55.4821ZM90.2544 58.4239H90.1662V58.674H90.2544V58.4239ZM95.0054 34.7866C95.0965 34.6823 95.1575 34.5552 95.1819 34.4189C95.0909 34.5232 95.0299 34.6503 95.0054 34.7866ZM88.6512 81.8553L88.7394 81.5023H88.6512V81.8406V81.8553ZM84.5768 88.342V88.5185H84.665V88.342H84.5768ZM93.9905 36.5958C94.0977 36.4672 94.1597 36.3071 94.167 36.1398L93.9905 36.5958ZM92.8873 58.3798V58.2033C92.8554 58.2391 92.8311 58.2811 92.8159 58.3266C92.8008 58.3721 92.795 58.4202 92.7991 58.4681L92.8873 58.3651V58.3798ZM91.5341 53.0846H91.4459V53.2611C91.5341 53.1581 91.5341 53.1581 91.5341 53.0846ZM94.1376 36.1546C94.2286 36.0502 94.2896 35.9231 94.3141 35.7868L94.1376 36.1546ZM89.9455 59.6154L89.8573 59.7919H89.9455V59.6154ZM90.6222 45.2741C90.5339 45.2741 90.5339 45.2741 90.5339 45.3771L90.6222 45.2741ZM93.0786 57.3649C93.0466 57.4007 93.0223 57.4427 93.0071 57.4882C92.992 57.5337 92.9862 57.5818 92.9903 57.6297L93.0786 57.3649ZM93.7552 55.0556L93.6669 55.1585H93.7552V55.0703V55.0556ZM93.3286 43.2884C93.3286 43.2002 93.4169 43.1854 93.4169 43.1119C93.4169 43.0384 93.3286 43.2149 93.3286 43.2884ZM93.917 36.7576C93.917 36.8459 93.8287 36.8606 93.8287 36.9341C93.8287 37.0077 93.917 36.8312 93.917 36.7576ZM103.066 60.748C98.9916 61.3951 95.432 71.3531 95.432 74.8391V75.8541C95.432 81.1052 99.3299 84.9001 104.669 84.0617C105.272 83.9495 105.867 83.7971 106.449 83.6057C108.357 82.8836 110.031 81.6525 111.288 80.0461C116.113 74.795 121.585 65.9696 121.585 59.1005C121.585 55.4527 117.26 51.6431 113.612 52.2167C109.964 52.7904 106.655 58.2327 104.625 61.1745L103.154 60.7332L103.066 60.748ZM101.492 80.5904C109.273 77.2514 115.289 66.6462 116.642 58.8358C116.766 58.2638 116.85 57.6838 116.892 57.1001C116.893 56.7324 116.807 56.3697 116.642 56.0411C113.848 56.4823 107.993 64.4399 107.993 67.1464C108.005 67.5345 108.121 67.9122 108.331 68.2388C108.541 68.5654 108.836 68.8285 109.185 68.9997C109.093 69.1589 108.97 69.2981 108.824 69.4092C108.677 69.5204 108.51 69.6011 108.332 69.6469C105.964 70.0146 104.86 68.3231 103.581 66.9257C102.162 70.1296 101.33 73.5622 101.124 77.0602C101.073 78.2486 101.197 79.4381 101.492 80.5904ZM117.672 67.3523C117.76 69.9705 113.097 75.4422 111.406 77.6486C111.529 77.315 111.703 77.0025 111.921 76.7219C114.075 73.761 115.998 70.6383 117.672 67.3817V67.3523ZM107.376 64.131C108.966 61.6432 110.694 59.2468 112.553 56.953V56.8648H112.465C112.377 56.8648 112.377 56.9677 112.288 56.9825C110.509 58.5416 107.802 61.8511 107.376 64.1163V64.131ZM103.478 63.8957L103.566 63.7192C102.517 65.0241 101.737 66.5239 101.271 68.1319C102.127 66.8113 102.865 65.4185 103.478 63.9692V63.8957ZM106.523 60.4538L106.773 60.2478C107.905 58.5588 109.18 56.9693 110.582 55.4968H110.406C108.915 56.9834 107.606 58.6425 106.508 60.4391L106.523 60.4538ZM111.524 73.3977C112.066 72.3682 112.69 71.3844 113.392 70.4559C112.933 71.5317 112.302 72.5253 111.524 73.3977ZM112.789 73.7066V73.6183L114.745 70.6765C114.23 71.6914 113.48 72.6622 112.877 73.6183L112.789 73.7066ZM100.198 64.7194L101.492 62.9543C100.913 63.4186 100.466 64.0274 100.198 64.7194ZM107.905 60.7921C108.332 60.0419 108.92 59.4389 109.376 58.7917C108.788 59.381 108.293 60.0554 107.905 60.7921ZM102.389 63.5279L101.624 64.837C101.998 64.4815 102.263 64.0277 102.389 63.5279ZM114.73 70.7059C114.726 70.6581 114.732 70.61 114.747 70.5645C114.762 70.5189 114.786 70.477 114.818 70.4412L114.73 70.7059ZM132.528 52.055C131.675 59.1741 125.335 75.5893 119.29 80.002L116.348 79.4578L116.525 79.1783C117.899 77.5487 119.12 75.7958 120.172 73.9419C124.316 66.7525 127.183 58.8994 128.645 50.7311C125.424 49.0396 120.937 47.2892 120.937 42.7883C120.937 40.4937 122.967 37.3754 125.424 36.993C126.133 36.8721 126.862 36.9329 127.542 37.1695C128.874 37.5485 130.056 38.3326 130.923 39.4132C131.79 40.4937 132.3 41.8171 132.381 43.2002C132.557 45.0388 132.807 46.8627 132.896 48.716C135.891 49.8329 138.736 51.315 141.368 53.1287C142.016 53.6219 142.534 54.2652 142.877 55.0033C143.22 55.7413 143.379 56.5518 143.339 57.3649C143.339 59.9095 141.736 64.3958 140.883 67.0728C139.412 71.8091 136.647 79.2665 136.647 83.9293C136.623 85.027 136.823 86.118 137.235 87.1358L139.603 87.3565L139.515 88.0478H139.603L140.03 87.4742L140.706 87.3712C140.87 87.6686 140.956 88.0025 140.956 88.342C140.956 89.9453 138.412 90.8572 137.147 91.0631C131.645 91.9604 129.439 86.371 129.439 81.7082C129.439 76.0306 132.999 66.2344 135.029 60.4832C135.746 58.7229 136.24 56.8798 136.499 54.9967C136.499 52.9669 134.131 52.4815 132.602 52.055H132.528ZM134.44 83.4733C134.69 82.2525 134.778 81.0463 135.029 79.8255C136.025 75.3676 137.297 70.9758 138.838 66.6757C139.858 64.0143 140.598 61.2537 141.045 58.4386H140.868C138.853 64.4693 136.985 70.603 135.205 76.6483C134.673 78.3696 134.386 80.1571 134.352 81.9583C134.341 82.4502 134.37 82.9422 134.44 83.4292V83.4733ZM128.557 47.3481C128.557 47.0098 128.645 46.5685 128.645 46.2302C128.645 44.6269 128.218 41.0379 127.292 40.0083C126.465 40.8289 125.981 41.9331 125.938 43.0972C125.934 43.9815 126.178 44.8493 126.644 45.6012C127.109 46.353 127.777 46.9584 128.571 47.3481H128.557ZM138.735 60.4979L138.485 60.7921L134.337 73.6477C133.749 75.604 133.484 77.678 133.072 79.6196L133.263 79.4283C134.028 76.766 134.617 74.0449 135.47 71.3678C136.817 67.8283 137.922 64.2015 138.779 60.5126L138.735 60.4979ZM137.264 59.5565C136.726 60.4643 136.352 61.4603 136.161 62.4983L132.087 75.5158L131.16 79.0459C131.886 77.3333 132.481 75.5681 132.94 73.7654C134.411 69.0438 135.985 64.3811 137.264 59.6007V59.5565ZM130.91 54.8644C130.734 54.982 130.734 55.1438 130.66 55.335C129.406 59.6911 127.908 63.9733 126.174 68.1613C127.954 65.9255 130.586 57.6297 130.925 54.9232L130.91 54.8644ZM127.439 59.6448L126.674 62.1453C127.088 61.3187 127.399 60.4443 127.601 59.5418L127.439 59.6595V59.6448ZM124.776 41.9205C124.953 41.4645 125.026 40.9497 125.203 40.4496C124.906 40.7446 124.723 41.1356 124.688 41.5527C124.675 41.6958 124.706 41.8395 124.776 41.9646V41.9205ZM124.262 67.7641L123.585 69.235C123.983 68.844 124.224 68.3207 124.262 67.7641ZM127.571 59.3653L127.821 58.218C127.703 58.3818 127.62 58.5682 127.577 58.7656C127.534 58.963 127.532 59.1672 127.571 59.3653ZM122.997 39.92L122.482 40.7585L122.658 40.9056C122.721 40.5621 122.836 40.2299 122.997 39.92ZM132.91 80.3109H133.087C133.087 80.1344 132.999 80.0755 132.999 79.899C132.93 80.0353 132.899 80.1879 132.91 80.3403V80.3109ZM131.057 54.2466V53.9083H130.91V54.2466H131.057ZM137.411 59.0123H137.323V59.3506C137.391 59.2461 137.422 59.1218 137.411 58.9976V59.0123ZM136.897 76.4865V76.2365H136.794V76.4865H136.897ZM136.647 77.0308V77.2808H136.794V77.0308H136.647ZM137.573 73.6624L137.485 73.8389H137.661C137.666 73.7955 137.661 73.7517 137.645 73.7108C137.63 73.6699 137.605 73.6332 137.573 73.6036V73.6624ZM137.823 73.28V73.0299H137.735V73.28H137.823ZM138.75 60.3361L138.926 60.0566H138.75V60.3067V60.3361ZM131.204 53.217V52.9522H131.116V53.2022L131.204 53.217ZM128.262 57.0707H128.174C128.185 57.1949 128.154 57.3192 128.086 57.4237C128.177 57.3194 128.238 57.1923 128.262 57.056V57.0707ZM136.132 79.4283V79.2518H136.058V79.4283H136.132ZM140.206 65.8961V65.7196H140.118V65.8961H140.206ZM139.191 68.426V68.6025H139.279V68.426H139.191ZM128.601 55.6881L128.424 56.0558L128.674 55.6734L128.601 55.6881ZM137.235 75.2216V75.0157C137.147 75.0157 137.147 75.1186 137.147 75.1922L137.235 75.2216ZM139.015 69.0144V69.1321C139.103 69.1321 139.103 69.0291 139.103 68.9556L139.015 69.0144ZM128.718 55.0262L128.807 54.9232L128.718 54.7614V55.0115V55.0262ZM135.926 80.252V80.0755H135.838C135.838 80.1638 135.838 80.1638 135.926 80.2373V80.252ZM140.25 65.1606V65.2489H140.338V65.1606H140.25ZM138.294 71.3972V71.309H138.265C138.265 71.3972 138.265 71.3972 138.353 71.309L138.294 71.3972ZM136.088 71.3972H136.058H136.146V71.309L136.088 71.3972ZM135.661 72.5593V72.6475L135.749 72.5445L135.661 72.5593ZM138.367 70.8677L138.456 70.7648C138.367 70.7648 138.367 70.7648 138.367 70.8677ZM135.911 71.9268H135.823H135.911V71.8385V71.9268ZM141.5 61.0421H141.589V60.9539L141.5 61.0568V61.0421ZM137.353 74.5008V74.4126L137.264 74.5155L137.353 74.5008ZM140.486 64.5135H140.397H140.486V64.4252V64.5135ZM138.853 69.6322V69.7204L138.941 69.6175L138.853 69.6322ZM138.515 64.0869V63.9986L138.426 64.1016L138.515 64.0869ZM128.086 57.512L127.998 57.7767C128.03 57.7409 128.054 57.699 128.069 57.6535C128.084 57.6079 128.09 57.5598 128.086 57.512ZM137.235 67.9406V67.8524L137.147 67.9553L137.235 67.9406ZM134.778 75.8688H134.867V75.7805L134.778 75.8835V75.8688ZM169.874 44.2298C169.676 44.4797 169.41 44.6684 169.109 44.774C168.987 44.871 168.899 45.0052 168.859 45.1564C168.859 44.9799 168.859 44.9064 169.109 44.774L168.933 43.4502L167.918 44.5387C166.79 46.0617 165.851 47.7164 165.123 49.4662C162.038 56.9913 157.898 64.0389 152.826 70.397V69.4704C153.93 64.5429 155.533 59.7183 155.533 54.7614C155.533 51.2018 153.915 47.0392 150.017 46.8921C150.017 47.907 150.267 48.9661 150.267 49.981C150.267 52.9228 149.002 56.2911 148.149 59.2182C147.09 62.8219 145.619 67.3964 145.619 70.8677C145.619 74.6038 147.575 75.2804 150.282 76.2365L151.135 76.5307C151.522 76.7382 151.965 76.8155 152.4 76.7513C155.621 76.2512 161.049 67.1611 162.696 64.2928C162.69 66.109 162.518 67.9209 162.181 69.7057C160.49 79.6343 159.387 89.4746 155.489 99.2413C154.297 102.183 152.179 106.802 149.811 109.199L147.943 111.023C147.32 109.541 146.919 107.975 146.752 106.375C146.77 105.264 146.913 104.159 147.178 103.08C147.178 102.992 147.266 102.904 147.266 102.816C148.131 98.8227 149.403 94.929 151.061 91.1955C151.923 88.393 153.535 85.8799 155.724 83.9293C154.778 83.3524 153.699 83.0282 152.591 82.9879C149.12 83.5321 143.766 98.197 142.927 101.374C142.451 103.298 142.223 105.276 142.251 107.258C142.251 109.714 142.765 112.009 144.957 113.141C146.526 113.941 148.298 114.254 150.046 114.039C152.299 113.514 154.321 112.276 155.812 110.508C162.005 104.022 165.564 93.2842 167.094 85.1648C167.771 81.5759 168.197 77.8104 168.565 74.2508C168.933 70.6912 169.242 66.7639 169.58 62.9837C169.783 59.8287 170.151 56.6865 170.683 53.57C170.86 52.4374 171.11 51.3048 171.36 50.1575L172.036 46.495C171.36 45.6713 170.565 45.0241 169.918 44.2886L169.874 44.2298ZM152.665 85.7679C152.597 85.8724 152.566 85.9967 152.576 86.1209C152.577 86.0989 152.572 86.077 152.563 86.0569C152.554 86.0368 152.54 86.0191 152.523 86.005C152.507 85.9908 152.487 85.9807 152.465 85.9753C152.444 85.9699 152.421 85.9694 152.4 85.9738C152.488 85.7973 152.576 85.7826 152.65 85.7679H152.665ZM151.311 88.2684L151.561 87.636C151.561 87.886 151.385 88.0919 151.385 88.342C151.208 88.342 151.208 88.5332 150.958 88.5773C151.047 88.4008 151.208 88.3714 151.297 88.2684H151.311ZM143.677 102.963V102.374C143.766 102.374 143.766 102.61 143.766 102.698C143.77 102.746 143.764 102.794 143.749 102.839C143.734 102.885 143.709 102.927 143.677 102.963ZM143.854 101.668V101.153C143.854 101.33 143.942 101.315 143.942 101.389C143.942 101.462 143.854 101.565 143.854 101.654V101.668ZM147.325 97.388C147.314 97.2638 147.346 97.1395 147.413 97.035C147.424 97.1592 147.393 97.2835 147.325 97.388ZM147.752 96.3878L147.502 96.682C147.694 96.3223 147.809 95.9266 147.84 95.52L148.017 95.064L147.767 96.3731L147.752 96.3878ZM148.267 94.5198C148.31 94.4609 148.372 94.4192 148.443 94.4021L148.267 94.5198ZM149.031 93.1224V92.7841C149.031 92.8723 149.12 92.9459 149.12 93.0194L149.031 93.1224ZM150.046 86.3563C150.138 86.2543 150.255 86.1782 150.385 86.1356C150.339 86.1447 150.297 86.1681 150.265 86.2025C150.234 86.2368 150.214 86.2804 150.208 86.3269C150.165 86.3857 150.103 86.4274 150.032 86.4445V86.3563H150.046ZM150.046 86.6946L149.958 86.9593C149.954 86.9115 149.96 86.8634 149.975 86.8179C149.99 86.7723 150.014 86.7304 150.046 86.6946ZM149.532 87.8713L149.355 88.4891C149.179 88.4891 149.105 88.6214 148.929 88.6362C149.267 88.3273 149.267 88.1655 149.517 87.8713H149.532ZM148.561 89.9011L148.046 90.9161C147.958 90.9161 147.958 90.6807 147.958 90.5925C147.945 90.4231 148 90.2557 148.11 90.1263C148.22 89.997 148.377 89.9161 148.546 89.9011H148.561ZM148.046 91.0043C147.95 91.083 147.832 91.1293 147.708 91.1367C147.804 91.058 147.922 91.0116 148.046 91.0043ZM147.458 91.8574C147.467 91.6405 147.528 91.4289 147.634 91.2396C147.613 91.4546 147.553 91.6639 147.458 91.8574C147.42 92.0027 147.39 92.1501 147.369 92.2987C147.349 92.1459 147.38 91.9906 147.458 91.8574ZM147.369 92.7988C147.004 93.3156 146.665 93.8508 146.354 94.4021C146.354 93.549 146.443 93.1224 147.369 92.7988ZM144.736 99.3149H144.648C144.648 99.4914 144.648 99.5649 144.472 99.6826C144.472 99.5061 144.472 99.3443 144.648 99.3149C144.736 99.0501 144.898 98.8442 144.898 98.7706C144.876 98.9573 144.816 99.1375 144.722 99.3002L144.736 99.3149ZM144.913 97.9322C145.001 97.9322 145.001 98.094 145.001 98.4323C144.929 98.276 144.899 98.1038 144.913 97.9322ZM145.34 97.4468L145.428 97.0056C145.448 97.1584 145.417 97.3137 145.34 97.4468ZM145.516 96.9173L145.604 96.226C145.612 96.4596 145.582 96.693 145.516 96.9173ZM146.031 101.757V101.418C146.031 101.507 146.119 101.58 146.119 101.654L146.031 101.757ZM145.943 95.417C146.119 95.1375 146.281 94.7698 146.369 94.5933C146.381 94.7457 146.35 94.8983 146.281 95.0346L145.943 95.4317V95.417ZM146.369 99.9327C146.379 99.6877 146.439 99.4473 146.546 99.2266C146.566 99.3656 146.596 99.5032 146.634 99.6385C146.638 99.6744 146.635 99.7108 146.624 99.7454C146.614 99.78 146.596 99.8121 146.573 99.8397C146.549 99.8672 146.52 99.8897 146.488 99.9057C146.455 99.9217 146.42 99.9309 146.384 99.9327H146.369ZM160.519 89.0627V89.401C160.431 89.401 160.431 89.401 160.431 89.401C160.473 89.3173 160.502 89.2282 160.519 89.1363V89.0627ZM160.269 90.0335C160.279 90.2096 160.249 90.3856 160.181 90.5483C160.149 90.5187 160.124 90.482 160.109 90.4411C160.093 90.4003 160.088 90.3564 160.093 90.313C160.093 90.2247 160.093 90.2247 160.269 90.0335ZM156.798 100.33L156.71 100.433C156.71 100.183 156.798 100.168 156.886 100.065C156.854 100.101 156.83 100.143 156.815 100.188C156.799 100.234 156.794 100.282 156.798 100.33ZM157.989 97.1821C158.103 96.695 158.303 96.2319 158.578 95.8141C158.415 96.2839 158.219 96.7411 157.989 97.1821ZM158.916 102.713C158.906 102.537 158.936 102.361 159.004 102.198C159.014 102.374 158.984 102.55 158.916 102.713ZM159.004 94.7257L158.754 94.8434C158.702 94.8899 158.659 94.9464 158.629 95.0095C158.599 95.0726 158.581 95.1412 158.578 95.2111C158.584 95.0436 158.646 94.8831 158.754 94.7551L159.607 91.8133C159.431 92.7694 159.269 93.7255 159.019 94.7551L159.004 94.7257ZM159.681 100.977C160.107 100.153 160.357 99.256 160.696 98.447C161.372 96.5643 164.005 87.5036 164.505 86.6799C164.079 88.6067 161.711 99.5796 159.666 101.006L159.681 100.977ZM164.52 86.4887C164.52 86.3121 164.432 86.1651 164.432 85.9885C164.432 85.812 164.608 85.6208 164.858 85.5767C164.697 85.8553 164.583 86.1584 164.52 86.4739V86.4887ZM164.697 84.6794L164.873 85.5032C164.704 85.2514 164.616 84.9534 164.623 84.65L164.697 84.6794Z" fill="#1A1A18"/>
<path fill-rule="evenodd" clip-rule="evenodd" d="M26.3444 0H164.52V33.8306L160.873 37.7579V3.64783H28.1683V38.1257C26.9842 37.7847 25.7502 37.6503 24.5205 37.7285V0H26.3444ZM164.52 115.289V140H24.5205V110.582C25.7755 110.366 27.0001 110 28.1683 109.494V136.352H160.873V119.054C161.564 118.466 162.226 117.834 162.858 117.172C163.491 116.51 163.991 115.936 164.52 115.289Z" fill="#1A1A18"/>
<path fill-rule="evenodd" clip-rule="evenodd" d="M68.3818 15.3709H69.132V22.7254H68.3965V15.3709H68.3818ZM72.2503 22.7254V15.3709H72.4121L77.3396 21.0339V15.3709H78.075V22.7254H77.9574L73.0593 17.1213V22.7254H72.2503ZM80.5609 16.0475V15.3268H84.6058V16.0475H82.9584V22.7254H82.2083V16.0917L80.5609 16.0475ZM87.1211 15.3268H91.3572V16.0475H87.8565V18.3716H91.3131V19.1217H87.8565V22.0635H91.3131V22.7842H87.1211V15.4298V15.3268ZM94.1078 15.3268H95.5787C96.1397 15.3087 96.701 15.3432 97.2555 15.4298C97.6765 15.5176 98.055 15.7458 98.3293 16.077C98.6093 16.4209 98.7556 16.8545 98.7411 17.2978C98.7507 17.6702 98.6538 18.0376 98.4617 18.3568C98.2696 18.665 97.987 18.9064 97.6527 19.0482C97.1831 19.2242 96.6829 19.3042 96.1818 19.2835L98.8441 22.7254H97.9322L95.2698 19.2835H94.8433V22.7254H94.1372V15.3709L94.1078 15.3268ZM94.8433 16.0475V18.5628H96.1229C96.4965 18.579 96.8699 18.5292 97.2261 18.4157C97.4561 18.3268 97.6518 18.1671 97.7851 17.9597C97.9201 17.7545 97.9918 17.5141 97.991 17.2684C97.9924 17.0272 97.9206 16.7913 97.7851 16.5918C97.6594 16.3926 97.4741 16.2381 97.2555 16.1505C96.903 16.0445 96.5348 15.9997 96.1671 16.0181L94.8433 16.0475ZM101.639 15.3268H102.374V22.6813H101.639V15.3268ZM108.993 15.1356C109.513 15.122 110.03 15.2141 110.513 15.4063C110.996 15.5984 111.434 15.8867 111.803 16.2535C112.528 16.9884 112.934 17.9791 112.934 19.0114C112.934 20.0437 112.528 21.0344 111.803 21.7693C111.446 22.1357 111.018 22.4252 110.545 22.62C110.071 22.8147 109.564 22.9107 109.052 22.9019C108.536 22.913 108.023 22.8182 107.545 22.6234C107.067 22.4286 106.634 22.1379 106.272 21.7693C105.924 21.4222 105.649 21.0094 105.462 20.5548C105.275 20.1003 105.181 19.6131 105.184 19.1217C105.18 18.431 105.357 17.7513 105.698 17.1507C106.031 16.5589 106.517 16.0668 107.104 15.7254C107.691 15.384 108.358 15.2058 109.037 15.2091L108.993 15.1356ZM108.993 15.8563C108.445 15.8554 107.906 16.0028 107.434 16.2829C106.956 16.5562 106.56 16.9523 106.287 17.4302C106.007 17.9485 105.875 18.5335 105.904 19.1217C105.902 19.5325 105.982 19.9395 106.138 20.3196C106.293 20.6996 106.523 21.0451 106.813 21.3362C107.102 21.6273 107.447 21.8583 107.826 22.016C108.205 22.1736 108.612 22.2547 109.023 22.2547C109.579 22.2596 110.127 22.1176 110.611 21.8429C111.094 21.5756 111.491 21.178 111.759 20.6956C112.044 20.2193 112.201 19.677 112.215 19.1217C112.23 18.5388 112.082 17.9631 111.788 17.4596C111.509 16.9848 111.108 16.5937 110.626 16.327C110.144 16.0459 109.595 15.8986 109.037 15.9004L108.993 15.8563ZM115.862 15.3268H117.333C117.894 15.3087 118.456 15.3432 119.01 15.4298C119.431 15.5176 119.81 15.7458 120.084 16.077C120.364 16.4209 120.51 16.8545 120.496 17.2978C120.505 17.6702 120.408 18.0376 120.216 18.3568C120.024 18.665 119.742 18.9064 119.407 19.0482C118.938 19.2242 118.437 19.3042 117.936 19.2835L120.613 22.7695H119.701L117.039 19.3276H116.613V22.7695H115.877V15.4151L115.862 15.3268ZM116.598 16.0475V18.5628H117.878C118.251 18.579 118.624 18.5292 118.981 18.4157C119.211 18.3268 119.406 18.1671 119.54 17.9597C119.675 17.7545 119.746 17.5141 119.746 17.2684C119.747 17.0272 119.675 16.7913 119.54 16.5918C119.414 16.3926 119.229 16.2381 119.01 16.1505C118.658 16.0445 118.289 15.9997 117.922 16.0181L116.598 16.0475Z" fill="#1A1A18"/>
<path fill-rule="evenodd" clip-rule="evenodd" d="M73.207 128.762V121.408H74.6779C75.4909 121.371 76.3046 121.46 77.0902 121.673C77.7813 121.906 78.3725 122.368 78.767 122.982C79.1953 123.627 79.4253 124.384 79.4289 125.159C79.4421 125.842 79.2747 126.517 78.9435 127.115C78.6575 127.645 78.2229 128.079 77.6933 128.365C77.0183 128.663 76.2828 128.8 75.5458 128.762H73.207ZM73.9131 128.056H74.7662C75.4776 128.088 76.19 128.024 76.8843 127.865C77.4184 127.7 77.8802 127.357 78.1934 126.894C78.5194 126.381 78.6834 125.781 78.6641 125.173C78.6829 124.527 78.5033 123.89 78.1492 123.349C77.8 122.836 77.278 122.466 76.6784 122.305C75.9458 122.135 75.1943 122.061 74.4426 122.084H73.9131V128.056ZM82.3707 121.364H86.6069V122.084H83.062V124.408H86.5187V125.129H83.062V128.071H86.5187V128.792H82.3707V121.437V121.364ZM88.5485 127.38L89.181 126.997C89.6222 127.811 90.1125 128.218 90.6519 128.218C90.8983 128.219 91.1411 128.159 91.3579 128.042C91.5662 127.936 91.7398 127.772 91.858 127.571C91.9723 127.385 92.0334 127.171 92.0345 126.953C92.0314 126.688 91.9438 126.43 91.7845 126.218C91.423 125.761 90.9969 125.36 90.5195 125.026C90.0985 124.734 89.7134 124.393 89.3722 124.011C89.1168 123.689 88.977 123.29 88.9751 122.879C88.9726 122.569 89.0539 122.264 89.2104 121.996C89.365 121.734 89.589 121.521 89.8576 121.378C90.1367 121.224 90.4505 121.143 90.7695 121.143C91.1158 121.142 91.456 121.233 91.755 121.408C92.1407 121.657 92.4711 121.982 92.7258 122.364L92.1228 122.82C91.9276 122.534 91.6836 122.285 91.402 122.084C91.2067 121.967 90.9827 121.906 90.7548 121.908C90.4844 121.896 90.2202 121.991 90.0194 122.173C89.9271 122.259 89.8544 122.364 89.8062 122.481C89.758 122.597 89.7354 122.723 89.7399 122.849C89.7405 123.012 89.7756 123.172 89.8429 123.32C89.9344 123.507 90.059 123.677 90.2106 123.82C90.3136 123.908 90.6225 124.158 91.1667 124.555C91.6764 124.899 92.124 125.327 92.4905 125.82C92.7156 126.15 92.8383 126.539 92.8435 126.938C92.8545 127.214 92.8049 127.488 92.6981 127.742C92.5914 127.997 92.4301 128.224 92.2257 128.409C92.0315 128.6 91.8016 128.75 91.5491 128.851C91.2967 128.952 91.0267 129.001 90.7548 128.998C90.3203 129 89.8951 128.872 89.534 128.63C89.1035 128.315 88.7553 127.902 88.5191 127.424L88.5485 127.38ZM95.7706 121.364H96.506V128.718H95.7706V121.364ZM106.788 122.599L106.214 123.143C105.825 122.753 105.366 122.438 104.861 122.217C104.397 122.013 103.896 121.908 103.39 121.908C102.809 121.907 102.237 122.054 101.728 122.334C101.221 122.601 100.798 123.003 100.507 123.496C100.206 123.952 100.038 124.481 100.021 125.026C100.02 125.586 100.173 126.136 100.463 126.615C100.76 127.112 101.187 127.519 101.698 127.791C102.232 128.078 102.829 128.224 103.434 128.218C104.138 128.242 104.827 128.012 105.376 127.571C105.894 127.161 106.232 126.564 106.317 125.909H103.963V125.188H107.155C107.186 125.696 107.112 126.205 106.937 126.684C106.763 127.162 106.491 127.599 106.14 127.968C105.782 128.312 105.357 128.579 104.892 128.754C104.426 128.928 103.93 129.006 103.434 128.983C102.816 129 102.202 128.877 101.639 128.622C101.076 128.367 100.578 127.988 100.183 127.512C99.5783 126.826 99.2483 125.941 99.2566 125.026C99.254 124.338 99.4369 123.662 99.7861 123.07C100.129 122.452 100.639 121.942 101.257 121.599C101.898 121.251 102.617 121.074 103.346 121.084C103.955 121.08 104.56 121.195 105.126 121.422C105.728 121.682 106.276 122.051 106.743 122.511L106.788 122.599ZM110.053 128.762V121.408H110.215L115.142 127.071V121.364H115.878V128.718H115.716L110.818 123.114V128.718L110.053 128.762Z" fill="#1A1A18"/>
</g>
<defs>
<clipPath id="clip0">
<rect width="171.992" height="140" fill="white"/>
</clipPath>
</defs>
</svg>
