<svg width="99" height="80" viewBox="0 0 99 80" fill="none" xmlns="http://www.w3.org/2000/svg">
<path fill-rule="evenodd" clip-rule="evenodd" d="M13.1792 31.2671C12.9451 32.4473 12.6392 33.6122 12.2631 34.7552C11.5823 37.2767 10.8594 39.7226 10.2795 42.2358L8.73294 48.9599C8.35768 50.4338 8.14627 51.9447 8.10255 53.465C8.06544 53.9799 8.13116 54.4971 8.29587 54.9863C8.69758 55.8958 9.38081 56.6521 10.2449 57.1439C11.1089 57.6357 12.1081 57.837 13.0952 57.718C13.8223 57.5533 14.5122 57.2539 15.1292 56.8355C16.7829 55.7781 18.2112 54.4041 19.3318 52.7926C23.7377 46.2064 27.087 38.9719 29.2583 31.3511C29.9445 28.8501 30.3033 26.2706 30.3257 23.6772C30.3174 22.3326 30.0239 21.005 29.4647 19.7822C28.9054 18.5593 28.0931 17.469 27.0813 16.5833C26.644 16.255 26.1736 15.9733 25.6777 15.7428L25.5348 15.81C25.8034 16.6701 26.1263 17.5123 26.5014 18.3316C26.9803 19.7166 27.1941 21.1793 27.1318 22.6434C27.033 24.7176 26.6715 26.7708 26.0559 28.7539C24.1648 35.831 18.6426 49.0523 13.07 53.6583C12.6329 54.0197 12.1034 54.2971 11.6663 54.6585C11.7436 53.8656 11.8899 53.081 12.1034 52.3135L13.028 47.9092C13.5155 45.5053 14.1458 43.1351 14.709 40.7144C15.3898 37.9407 15.9193 35.1502 16.39 32.4102C16.4909 31.8134 16.8775 30.3005 16.8775 29.7625C16.8775 28.9893 15.1376 26.9889 14.3139 27.1149C13.9777 27.1654 11.2629 29.0985 10.6829 29.4347C8.21182 30.9393 3.95882 33.3515 1.28599 33.7718C0.949787 33.8222 0.563151 33.7718 0.218541 33.839C0.13039 33.8402 0.044952 33.8697 -0.0252075 33.9231C0.128112 34.5905 0.527255 35.1757 1.0927 35.562C1.65814 35.9483 2.34836 36.1074 3.02585 36.0076C4.76572 35.7302 7.00148 34.5114 8.64048 33.6709C10.0441 32.9145 11.6411 31.7462 13.1456 31.2671H13.1792ZM25.2154 39.3948C23.8117 43.0595 19.7941 51.0023 16.9279 53.6835C16.9762 53.5681 17.0413 53.4604 17.1213 53.3641C18.4521 51.5237 19.6649 49.6006 20.7523 47.6066C22.1055 45.2616 23.4167 42.8745 24.5346 40.4202C25.0641 39.2687 25.4507 38.092 25.9382 36.9573C26.1176 36.4033 26.3455 35.8661 26.619 35.352C26.7433 35.2099 26.8428 35.0479 26.9132 34.8729V34.9233L25.2322 39.4032L25.2154 39.3948ZM19.8361 46.0517C20.0813 45.5206 20.3621 45.0067 20.6766 44.5135C20.5403 44.9513 20.3268 45.3612 20.0462 45.7239C19.4159 46.7913 17.4827 50.767 16.6085 51.2545C17.5751 49.4558 18.7434 47.7663 19.8529 46.0433L19.8361 46.0517ZM18.7939 49.5902C18.8863 49.4305 19.2814 48.8338 19.6344 48.1446C19.0544 49.254 18.0878 51.246 17.407 51.5991C17.8441 50.9014 18.3232 50.2458 18.7603 49.5902H18.7939ZM21.1641 45.539L21.1137 45.6398C20.8339 46.3864 20.4428 47.0863 19.9538 47.7159C19.9034 47.7747 19.9034 47.8168 19.8529 47.8252C20.3012 47.1254 20.7054 46.3983 21.0633 45.6482L21.1641 45.539ZM21.8533 42.4963C21.8444 42.4489 21.8273 42.4034 21.8029 42.3618C21.8029 42.261 21.8533 42.2105 21.9458 42.1433C21.9339 42.2661 21.8997 42.3857 21.8449 42.4963H21.8533ZM21.0128 44.0345L20.9624 44.0933C20.9079 44.264 20.8059 44.4156 20.6682 44.5304C20.7654 44.3561 20.881 44.1926 21.0128 44.0429V44.0345ZM22.3661 43.236V43.3789C22.3661 43.4797 22.3156 43.5301 22.2232 43.5974L22.3661 43.236ZM21.4499 45.0767C21.4951 44.9036 21.5784 44.7428 21.6936 44.606H21.7441C21.6198 44.7481 21.5204 44.91 21.4499 45.0851V45.0767ZM21.349 45.186C21.3995 45.1271 21.3995 45.0851 21.4499 45.0767C21.5003 45.0683 21.3995 45.1775 21.349 45.186ZM15.7428 52.2799C15.7932 52.221 15.8437 52.2126 15.8437 52.1706C15.8437 52.1286 15.7932 52.2294 15.7932 52.2715L15.7428 52.2799ZM22.7695 40.4707V40.4202H22.8199L22.7695 40.4707ZM37.3944 40.6892L37.344 40.9834L37.7306 40.5379L37.6802 40.8321L37.8231 40.5127H37.7222L37.8231 40.3446V40.4875L37.9239 40.2774H37.9744L38.1677 39.9075H38.2686C37.2392 42.3039 36.0252 44.6167 34.6375 46.825C33.9147 48.1025 33.2339 49.4221 32.4606 50.6577C31.3404 52.491 30.1285 54.2668 28.8296 55.9781C28.7092 56.1205 28.5618 56.2376 28.3959 56.3228C28.23 56.4079 28.0489 56.4593 27.863 56.474C26.4594 56.6926 25.4423 56.079 25.4423 54.6249C25.5444 51.8969 25.9848 49.1922 26.7535 46.5728C27.3249 44.5983 27.7132 42.5753 27.9134 40.5295V40.3446C27.9134 40.1009 27.7706 39.8823 27.7706 39.6386C27.7706 39.3948 28.0647 39.3024 28.2076 39.2351C30.3425 39.1931 32.0824 40.0336 32.0824 42.3534C31.9535 44.2035 31.563 46.0259 30.9225 47.7663L29.8382 51.557C29.8382 51.6075 29.7878 51.6159 29.7878 51.6579C29.8122 51.6995 29.8292 51.745 29.8382 51.7924C31.1914 49.8844 32.3597 47.8084 33.5701 45.8247C34.2929 44.648 35.1671 43.5385 35.9403 42.3955C36.3184 41.7218 36.7396 41.0733 37.2011 40.4539L36.9574 40.9246L37.2936 40.4875C36.5203 41.9164 35.5537 43.278 34.9233 44.7825C35.2688 44.3599 35.5754 43.907 35.8395 43.4293C36.2379 42.4468 36.7575 41.5178 37.386 40.664L37.3944 40.6892ZM30.9561 31.4436L31.099 31.6117H31.3427V31.9395C31.4739 31.8656 31.5883 31.7655 31.6789 31.6453L32.1664 31.8134L32.0656 32.1664H32.6455V32.6539L32.8893 32.5699C33.0326 32.6362 33.1543 32.7415 33.2406 32.8738C33.3268 33.0061 33.374 33.16 33.3768 33.3179C33.3768 34.4778 32.8472 35.5789 32.8472 36.7472C32.8472 37.3776 33.0406 38.0248 33.0406 38.6552C32.9164 38.7632 32.7654 38.8358 32.6035 38.8653C32.2673 38.9157 32.0235 38.6636 31.6789 38.7644C30.519 38.2685 29.502 36.2429 29.502 34.8897C29.502 34.1668 30.0315 31.5276 30.9561 31.4184V31.4436ZM29.5945 52.759C30.0315 51.8176 30.7123 50.9855 31.2755 50.0777C32.116 48.59 33.0154 47.1359 33.8391 45.6566C34.4564 44.6241 35.1713 43.653 35.974 42.7569C33.9903 45.9256 32.0488 49.0943 30.0904 52.2547C29.939 52.4358 29.7761 52.6071 29.6029 52.7674L29.5945 52.759ZM27.7369 54.4988C28.0724 52.6897 28.5245 50.9041 29.0902 49.1532C29.3262 47.9653 29.6839 46.8049 30.1576 45.6903C29.3843 48.6236 28.5606 51.5738 27.8294 54.482H27.7285L27.7369 54.4988ZM35.1166 45.3877V45.581L35.3015 45.3877C35.2794 45.3988 35.2549 45.4045 35.2301 45.4045C35.2053 45.4045 35.1808 45.3988 35.1587 45.3877C35.2897 45.1357 35.4021 44.8744 35.4949 44.606L34.9149 45.5222L35.1587 45.3877H35.1166ZM36.1421 43.7067H36.0496L36.1925 43.4377V43.2444C36.0131 43.4907 35.8662 43.759 35.7554 44.0429L35.9487 43.9168L36.0496 43.7067C36.1 43.7067 36.1 43.8411 36.1 43.8916C36.1324 43.8356 36.1471 43.7711 36.1421 43.7067ZM36.4362 43.0342L36.5791 42.8157C36.5791 42.6224 36.68 42.4627 36.68 42.2694L36.2429 43.1603L36.4362 43.0342V43.1771L36.5287 43.0174H36.4362V43.0342ZM32.032 50.0273L32.469 49.4221C32.2253 49.5062 32.032 49.6323 32.032 49.9264V50.0273ZM33.8727 47.3125L34.066 47.1359C34.2224 46.8693 34.3519 46.5877 34.4526 46.2954C34.2864 46.6465 34.0925 46.9838 33.8727 47.304V47.3125ZM37.4112 40.6556C37.5674 40.4532 37.6817 40.2218 37.7474 39.9748H37.6466C37.5858 40.2194 37.5043 40.4585 37.4028 40.6892L37.4112 40.6556ZM31.4352 50.9183L31.8723 50.3635C31.6285 50.4476 31.536 50.7081 31.4352 50.9183ZM37.3188 40.975C37.3027 41.1326 37.2347 41.2805 37.1255 41.3952L37.3188 41.3196L37.3692 41.1179L37.3188 40.9834V40.975ZM30.3257 45.1355C30.2753 45.2364 30.2753 45.3877 30.2248 45.4381V45.1439H30.3257V45.1355ZM36.6716 42.8661H36.5707V43.009L36.6716 42.8493C36.6654 42.7783 36.6832 42.7073 36.722 42.6476H36.6716C36.6716 42.698 36.6212 42.7989 36.6716 42.8409V42.8661ZM35.9487 44.1437L36.0916 43.9756H35.9908C35.9725 43.9961 35.9586 44.0201 35.95 44.0461C35.9413 44.0721 35.938 44.0996 35.9403 44.1269L35.9487 44.1437ZM37.3524 41.5045L37.4953 41.286L37.3944 41.3532L37.344 41.5045H37.3524ZM37.8819 40.3026H37.9324V40.1597L37.8819 40.311V40.3026ZM37.8819 40.353V40.3026H37.8231V40.3446L37.8735 40.2858L37.8819 40.353ZM36.2009 43.5638H36.1421V43.6646C36.1925 43.6058 36.1925 43.6058 36.1925 43.5638H36.2009ZM37.9408 40.2858H37.8903V40.3446L37.9408 40.2858ZM43.6478 47.0687L42.8073 46.5308C42.5644 46.6533 42.336 46.8027 42.1265 46.9762C40.9804 48.0851 39.5855 48.9036 38.0584 49.3633C38.0006 49.1952 37.9666 49.0198 37.9576 48.8422C37.9576 45.3541 38.6384 41.0338 41.639 38.3358C41.9243 38.0649 42.2846 37.8863 42.6728 37.8231L43.009 37.7726C42.7091 38.4546 42.5436 39.1881 42.5215 39.9327C42.489 40.272 42.5319 40.6142 42.6471 40.9349C42.7623 41.2556 42.947 41.5469 43.188 41.7878C43.429 42.0288 43.7202 42.2135 44.0409 42.3287C44.3616 42.444 44.7039 42.4868 45.0431 42.4543C44.8838 42.0163 44.7711 41.5627 44.7069 41.1011C44.7069 40.2606 45.0935 39.4873 45.0935 38.6636C45.0834 38.3675 44.9996 38.0786 44.8498 37.8231C44.4412 37.0271 43.8028 36.3723 43.0174 35.9436C42.2321 35.515 41.336 35.3323 40.4455 35.4192C36.764 35.9992 34.2929 43.0763 34.2929 46.1694C34.2929 48.9346 36.2345 51.5823 39.2351 51.1116C41.0964 50.559 42.7388 49.4395 43.9336 47.9092C44.0765 47.6907 44.1269 47.4385 44.2698 47.2284C44.1963 47.2248 44.1243 47.2065 44.0579 47.1748C43.9915 47.143 43.9321 47.0984 43.8832 47.0435L43.4965 47.489L43.6394 47.0267L43.6478 47.0687ZM40.4959 38.0584H40.4455L40.0084 38.2685C39.1679 38.7392 38.1677 41.0254 37.8735 41.8995H37.9239C38.0238 41.6108 38.1716 41.3408 38.361 41.1011C38.952 40.0048 39.6685 38.9809 40.4959 38.05V38.0584ZM37.344 39.1343C37.5373 38.8149 38.2686 37.5877 38.6048 37.5289C38.274 38.1286 37.8482 38.6708 37.344 39.1343ZM38.4114 39.1343C38.4713 38.923 38.5779 38.7279 38.7234 38.5635C38.8689 38.3991 39.0495 38.2696 39.252 38.1845C39.0082 38.5123 38.7224 38.7981 38.4114 39.1343ZM43.4545 38.3862H43.4041C43.4041 38.3358 43.4041 38.3358 43.4545 38.2853V38.3862ZM43.7067 46.951V47.0687H43.6562C43.6562 47.0183 43.7067 47.0099 43.7067 46.9678V46.951ZM61.5676 25.0052C61.5676 25.3919 61.9542 25.4255 62.2484 25.4339C61.1305 26.9636 56.8271 28.0311 55.0788 28.5942C53.4571 34.5024 52.2107 40.5073 51.3469 46.5728C50.8282 49.7413 50.5473 52.9442 50.5064 56.1546C50.5197 57.4025 50.6834 58.6442 50.9939 59.8529C51.0346 59.9746 51.0518 60.103 51.0443 60.2311C51.0443 60.6682 50.414 60.9119 50.0778 60.9624C49.9349 60.9624 49.8844 60.8447 49.834 60.7607L49.5398 61.2397C48.9599 61.038 48.3295 60.996 47.7495 60.7943C45.9592 60.1555 45.9592 56.8607 45.9592 55.1628C46.0626 49.9566 46.5486 44.7651 47.4133 39.6302C47.6067 38.4366 47.7075 37.2095 47.9429 36.0076C48.1866 34.6123 48.5228 33.2002 48.7161 31.805C48.8032 31.4764 48.8678 31.1422 48.9094 30.8048C48.9094 30.561 48.4724 30.6283 48.3295 30.6535C47.842 30.7291 47.3125 30.8636 46.825 30.9393L46.8754 30.8804C46.3157 30.7567 45.8079 30.4632 45.4213 30.0399L45.4717 29.7457L45.0347 29.5692C45.0503 29.3769 45.1237 29.1937 45.2452 29.0437C45.3666 28.8937 45.5306 28.784 45.7155 28.7287C46.7829 28.2664 47.8924 27.9975 48.9599 27.5856C50.0491 26.0494 50.96 24.3941 51.6747 22.6518C52.2629 21.3023 52.9251 19.9863 53.6583 18.7098C53.8517 18.34 54.045 18.0206 54.4989 17.9533L55.0788 18.1551L54.7426 18.9956C55.0368 18.6594 55.2301 18.34 55.4654 18.0122L55.6588 18.2727L56.0454 18.1635L55.8017 18.8779L56.1883 18.4745L56.7178 18.5837V19.0712L57.1045 18.9115C57.3986 19.1048 57.8777 19.273 57.8777 19.71C57.8777 19.9033 56.1379 25.1649 56.1379 25.1649C56.4824 25.0907 56.8221 24.9953 57.1549 24.8792C57.9709 24.5899 58.8166 24.3926 59.6764 24.2908C60.0266 24.1742 60.4064 24.1825 60.7512 24.3142C61.096 24.446 61.3844 24.6932 61.5676 25.0137V25.0052ZM49.1196 56.9447C49.5908 47.5586 51.0187 38.2451 53.381 29.149L52.9439 29.2666C51.8171 33.4122 50.9441 37.6225 50.3299 41.8743C49.5842 46.121 49.146 50.416 49.0187 54.7258C49.0037 55.464 49.0374 56.2025 49.1196 56.9363V56.9447ZM51.8344 29.586C50.9603 30.8384 48.7497 44.6144 48.7497 46.598V46.8418C49.1868 43.9672 49.5903 41.0927 50.103 38.2517C50.6157 35.4108 51.2629 32.4942 51.8428 29.5944L51.8344 29.586ZM48.195 42.5131C48.8758 38.3862 49.4558 34.2257 50.4728 30.0903C49.792 31.2671 48.195 40.7144 48.195 42.2694V42.5131ZM54.5409 25.3835C55.0284 24.0471 55.3814 22.7275 55.8941 21.3406C55.7512 21.6096 55.5579 21.8281 55.4066 22.0466C54.8622 23.2778 54.4099 24.5477 54.0534 25.8458H54.1542C54.398 25.8458 54.4905 25.602 54.5409 25.4003V25.3835ZM47.6151 47.0183C47.7579 45.6903 47.9513 44.3034 48.1446 42.9586H48.0017L47.5226 47.0687H47.6235L47.6151 47.0183ZM53.3305 24.7531C53.021 25.1911 52.8378 25.7057 52.801 26.2408C53.111 25.803 53.2942 25.2883 53.3305 24.7531ZM53.2801 32.3177C53.384 32.0446 53.4655 31.7635 53.5239 31.4772C53.4227 31.59 53.3483 31.7241 53.3061 31.8696C53.2639 32.0151 53.255 32.1683 53.2801 32.3177ZM53.5743 31.4772C53.6171 31.1925 53.6817 30.9115 53.7676 30.6367C53.6223 30.793 53.5361 30.9951 53.5239 31.2082C53.5158 31.3062 53.5332 31.4047 53.5743 31.494V31.4772ZM48.6321 48.1109V47.4301H48.5816C48.5816 47.6739 48.5312 47.8756 48.5312 48.1193H48.6321V48.1109ZM48.4388 49.5902L48.4892 48.6657H48.4388L48.3883 49.5902H48.4388ZM52.843 34.6543C52.7422 34.7216 52.6497 34.7804 52.6497 34.9233C52.6497 35.0662 52.7002 35.0578 52.7002 35.1586L52.843 34.6543ZM52.5489 35.6714L52.6918 35.2091C52.6396 35.2214 52.5927 35.2501 52.558 35.2909C52.5232 35.3317 52.5023 35.3825 52.4984 35.436C52.4984 35.5369 52.5489 35.5705 52.5489 35.6714ZM53.9525 29.544C54.0168 29.5073 54.0691 29.453 54.1034 29.3874C54.1376 29.3219 54.1524 29.2479 54.1458 29.1742V28.9809L53.9525 29.544ZM47.2284 50.5989V49.9264H47.178V50.5568L47.2284 50.5989ZM47.4217 48.4892V47.9092H47.3713V48.4892H47.4217ZM51.2713 42.3702H51.3722V42.0761H51.2713V42.3702ZM52.8178 34.1332C52.81 34.2779 52.8271 34.4229 52.8683 34.5619C52.8683 34.419 52.9187 34.2677 52.9187 34.1164H52.8178V34.1332ZM51.8008 39.378H51.9017C51.9097 39.28 51.8924 39.1816 51.8512 39.0922H51.8008V39.3864V39.378ZM51.6579 40.1261H51.7588V39.7899H51.7084L51.6579 40.1345V40.1261ZM52.0446 37.9828C52.095 37.9828 52.095 37.9828 52.1454 37.9828V37.6466H52.1118L52.0614 37.9407L52.0446 37.9828ZM48.2454 51.8092H48.2959V51.3217H48.2454V51.8092ZM53.9105 29.8466C53.8415 30.0253 53.7935 30.2115 53.7676 30.4013L53.9105 30.0399V29.8466ZM51.389 41.6138H51.4898C51.4973 41.532 51.4798 41.4499 51.4394 41.3784H51.389V41.6222V41.6138ZM49.9433 26.9804C49.8911 26.9928 49.8443 27.0215 49.8095 27.0623C49.7747 27.1031 49.7539 27.1539 49.75 27.2074V27.3083L49.9433 26.9889V26.9804ZM51.1536 43.2107H51.204V42.8241H51.1536V43.2107ZM51.9941 38.7224V38.3358H51.9437V38.7224H51.9941ZM54.6081 19.2225V19.1217C54.5078 19.3035 54.4262 19.495 54.3644 19.6932L54.6081 19.2225ZM52.2379 37.3776V37.0414H52.1874V37.3776H52.2379ZM50.9267 44.9926V44.6564H50.8762V44.9926H50.9267ZM52.1118 30.8132V31.099L52.2127 30.8384H52.1118V30.8132ZM52.3555 36.6968H52.406V36.4026H52.3555V36.6968ZM52.9355 33.8474H53.0364V33.6037C52.9826 33.6813 52.948 33.7706 52.9355 33.8643V33.8474ZM52.5489 36.0916V35.7974L52.448 36.058H52.5489V36.0916ZM53.3221 32.3849V32.3345L53.2717 32.3934C53.2717 32.5362 53.2213 32.6455 53.2213 32.7884L53.3221 32.3849ZM50.1366 50.5905H50.187V50.3467C50.1426 50.4228 50.1248 50.5115 50.1366 50.5989V50.5905ZM51.5403 40.7312H51.5907V40.5379H51.5403V40.7312ZM50.767 45.8416H50.8174C50.767 45.8416 50.767 45.7071 50.767 45.6566H50.7165C50.7165 45.7071 50.7166 45.7995 50.767 45.8416ZM51.0612 44.0008V43.8075H51.0107V44.0008H51.0612ZM50.5316 47.8168V47.6234H50.4812V47.8168H50.5316ZM51.2713 34.5703C51.2778 34.6574 51.2603 34.7445 51.2209 34.8224H51.2713L51.3217 34.5703H51.2713ZM51.1284 35.2259H51.1032V35.3688H51.1536V35.2175L51.1284 35.2259ZM51.7588 32.4606V32.3177L51.6579 32.4774H51.7588V32.4606ZM54.2803 21.9374V22.0382L54.4232 21.9206H54.2803V21.9374ZM50.0357 52.0613V51.9185H49.9853V52.0613H50.0357ZM50.3299 48.9683H50.3803V48.8254H50.3299V48.9683ZM52.0109 31.7041L51.8681 31.8722H51.9185L52.0193 31.6621L52.0109 31.7041ZM51.5739 33.3852H51.5234V33.528H51.5739V33.3852ZM54.2887 19.8781C54.3407 19.8185 54.3756 19.7459 54.3896 19.668C54.3376 19.7276 54.3027 19.8002 54.2887 19.8781ZM50.6577 46.7745L50.7081 46.5728H50.6577V46.7661V46.7745ZM48.3295 50.4812V50.582H48.3799V50.4812H48.3295ZM53.7088 20.9119C53.77 20.8385 53.8054 20.7469 53.8096 20.6514L53.7088 20.9119ZM53.0784 33.3599V33.2591C53.0601 33.2795 53.0463 33.3035 53.0376 33.3295C53.0289 33.3555 53.0256 33.3831 53.028 33.4104L53.0784 33.3515V33.3599ZM52.3051 30.3341H52.2547V30.435C52.3051 30.3761 52.3051 30.3761 52.3051 30.3341ZM53.7928 20.6598C53.8448 20.6002 53.8797 20.5275 53.8937 20.4497L53.7928 20.6598ZM51.3974 34.066L51.3469 34.1668H51.3974V34.066ZM51.784 25.871C51.7336 25.871 51.7336 25.871 51.7336 25.9298L51.784 25.871ZM53.1877 32.78C53.1694 32.8005 53.1555 32.8244 53.1469 32.8504C53.1382 32.8765 53.1349 32.904 53.1372 32.9313L53.1877 32.78ZM53.5743 31.4604L53.5239 31.5192H53.5743V31.4688V31.4604ZM53.3305 24.7363C53.3305 24.6859 53.381 24.6774 53.381 24.6354C53.381 24.5934 53.3305 24.6943 53.3305 24.7363ZM53.6667 21.0044C53.6667 21.0548 53.6163 21.0632 53.6163 21.1053C53.6163 21.1473 53.6667 21.0464 53.6667 21.0044ZM58.8947 34.7132C56.5665 35.083 54.5325 40.7733 54.5325 42.7653V43.3452C54.5325 46.3459 56.7598 48.5144 59.8109 48.0353C60.1553 47.9712 60.4951 47.8841 60.8279 47.7747C61.9182 47.3621 62.8746 46.6586 63.5932 45.7407C66.3501 42.7401 69.4768 37.697 69.4768 33.7718C69.4768 31.6873 67.0057 29.5104 64.9212 29.8382C62.8367 30.166 60.9456 33.2759 59.7857 34.9569L58.9452 34.7048L58.8947 34.7132ZM57.9954 46.0517C62.4417 44.1437 65.8794 38.0836 66.6527 33.6205C66.7234 33.2936 66.7711 32.9622 66.7956 32.6287C66.7959 32.4186 66.7469 32.2113 66.6527 32.0235C65.0557 32.2757 61.7105 36.8229 61.7105 38.3694C61.7168 38.5912 61.7835 38.807 61.9035 38.9936C62.0235 39.1803 62.1921 39.3306 62.3913 39.4284C62.3387 39.5194 62.2685 39.599 62.1848 39.6625C62.1011 39.726 62.0055 39.7721 61.9038 39.7983C60.5506 40.0084 59.9202 39.0418 59.1889 38.2433C58.3782 40.0741 57.9028 42.0356 57.7853 44.0345C57.7559 44.7135 57.8267 45.3932 57.9954 46.0517ZM67.241 38.4871C67.2915 39.9832 64.627 43.1099 63.6604 44.3707C63.7307 44.1801 63.8299 44.0015 63.9546 43.8411C65.1857 42.1492 66.2844 40.3648 67.241 38.5039V38.4871ZM61.3574 36.6463C62.266 35.2248 63.2538 33.8554 64.316 32.5446V32.4942H64.2656C64.2152 32.4942 64.2152 32.5531 64.1647 32.5615C63.1477 33.4524 61.6012 35.3436 61.3574 36.6379V36.6463ZM59.1301 36.5119L59.1805 36.411C58.5813 37.1567 58.1356 38.0137 57.8693 38.9325C58.3581 38.1779 58.78 37.382 59.1301 36.5539V36.5119ZM60.8699 34.5451L61.0128 34.4274C61.66 33.4622 62.3883 32.554 63.1898 31.7125H63.0889C62.2368 32.562 61.4891 33.5101 60.8615 34.5367L60.8699 34.5451ZM63.7277 41.9416C64.0375 41.3533 64.3945 40.7911 64.7951 40.2606C64.5332 40.8753 64.1727 41.4431 63.7277 41.9416ZM64.4505 42.1181V42.0677L65.5684 40.3866C65.2742 40.9666 64.8456 41.5213 64.501 42.0677L64.4505 42.1181ZM57.2557 36.9826L57.9954 35.9739C57.6645 36.2393 57.4093 36.5872 57.2557 36.9826ZM61.66 34.7384C61.9038 34.3097 62.24 33.9651 62.5005 33.5953C62.1647 33.9321 61.8814 34.3174 61.66 34.7384ZM58.5081 36.3017L58.071 37.0498C58.2843 36.8466 58.4358 36.5873 58.5081 36.3017ZM65.56 40.4034C65.5577 40.3761 65.561 40.3486 65.5696 40.3226C65.5783 40.2966 65.5922 40.2726 65.6104 40.2521L65.56 40.4034ZM75.7302 29.7457C75.2427 33.8138 71.6201 43.1939 68.1656 45.7155L66.4846 45.4045L66.5854 45.2448C67.3708 44.3136 68.0686 43.312 68.6699 42.2526C71.0378 38.1443 72.6758 33.6568 73.5113 28.9893C71.6705 28.0227 69.107 27.0225 69.107 24.4505C69.107 23.1393 70.2669 21.3574 71.6705 21.1389C72.076 21.0698 72.4924 21.1045 72.8809 21.2398C73.6423 21.4564 74.3176 21.9044 74.813 22.5219C75.3085 23.1393 75.5996 23.8956 75.6462 24.6859C75.747 25.7365 75.8899 26.7787 75.9403 27.8378C77.6517 28.476 79.2777 29.3229 80.7817 30.3593C81.1518 30.6411 81.4477 31.0088 81.6439 31.4305C81.8401 31.8522 81.9308 32.3154 81.908 32.78C81.908 34.2341 80.9918 36.7976 80.5043 38.3274C79.6638 41.0338 78.0836 45.2952 78.0836 47.9596C78.0702 48.5869 78.1846 49.2103 78.4199 49.792L79.7731 49.918L79.7226 50.3131H79.7731L80.0168 49.9853L80.4035 49.9264C80.4971 50.0964 80.5462 50.2872 80.5463 50.4812C80.5463 51.3973 79.0923 51.9185 78.3694 52.0361C75.2259 52.5488 73.9651 49.3549 73.9651 46.6905C73.9651 43.4461 75.9992 37.8483 77.1591 34.5619C77.569 33.556 77.8514 32.5028 77.9996 31.4268C77.9996 30.2669 76.6464 29.9895 75.7722 29.7457H75.7302ZM76.8229 47.6991C76.9658 47.0015 77.0162 46.3122 77.1591 45.6146C77.7285 43.0672 78.4555 40.5577 79.336 38.1004C79.919 36.5797 80.3416 35.0021 80.5968 33.3936H80.4959C79.3444 36.8397 78.277 40.3446 77.2599 43.7991C76.956 44.7827 76.7919 45.8041 76.7724 46.8334C76.766 47.1144 76.7829 47.3956 76.8229 47.6739V47.6991ZM73.4608 27.0561C73.4608 26.8628 73.5113 26.6106 73.5113 26.4173C73.5113 25.5011 73.2675 23.4503 72.738 22.8619C72.2656 23.3308 71.9891 23.9618 71.9647 24.627C71.962 25.1324 72.1016 25.6282 72.3677 26.0579C72.6338 26.4875 73.0156 26.8334 73.4692 27.0561H73.4608ZM79.2772 34.5703L79.1343 34.7384L76.764 42.0845C76.4278 43.2023 76.2765 44.3875 76.0412 45.4969L76.1505 45.3877C76.5875 43.8663 76.9237 42.3114 77.4112 40.7817C78.1809 38.7591 78.8127 36.6867 79.3024 34.5787L79.2772 34.5703ZM78.4367 34.0324C78.129 34.5511 77.9156 35.1202 77.8063 35.7134L75.4781 43.1519L74.9485 45.1691C75.3634 44.1905 75.7034 43.1818 75.9656 42.1517C76.8061 39.4537 77.7054 36.7892 78.4367 34.0576V34.0324ZM74.8056 31.3511C74.7048 31.4184 74.7048 31.5108 74.6628 31.6201C73.9462 34.1093 73.0904 36.5562 72.0992 38.9494C73.1162 37.6718 74.6207 32.9313 74.8141 31.3847L74.8056 31.3511ZM72.822 34.0828L72.385 35.5117C72.6217 35.0393 72.7995 34.5397 72.9145 34.0239L72.822 34.0912V34.0828ZM71.3007 23.9546C71.4016 23.694 71.4436 23.3999 71.5445 23.1141C71.3747 23.2827 71.2705 23.5061 71.2503 23.7445C71.2428 23.8262 71.2603 23.9083 71.3007 23.9798V23.9546ZM71.0065 38.7224L70.6199 39.5629C70.8473 39.3395 70.9848 39.0404 71.0065 38.7224ZM72.8977 33.9231L73.0406 33.2675C72.973 33.3611 72.9255 33.4676 72.9009 33.5804C72.8763 33.6932 72.8752 33.8099 72.8977 33.9231ZM70.2837 22.8115L69.9895 23.2906L70.0904 23.3747C70.1265 23.1784 70.1916 22.9886 70.2837 22.8115ZM75.9487 45.892H76.0496C76.0496 45.7911 75.9992 45.7575 75.9992 45.6566C75.9597 45.7345 75.9423 45.8217 75.9487 45.9088V45.892ZM74.8897 30.9981V30.8048H74.8056V30.9981H74.8897ZM78.5207 33.7214H78.4703V33.9147C78.5091 33.8549 78.5269 33.7839 78.5207 33.713V33.7214ZM78.2265 43.7067V43.5638H78.1677V43.7067H78.2265ZM78.0836 44.0176V44.1605H78.1677V44.0176H78.0836ZM78.6132 42.0929L78.5627 42.1937H78.6636C78.6663 42.1689 78.6631 42.1439 78.6544 42.1205C78.6456 42.0971 78.6315 42.0762 78.6132 42.0592V42.0929ZM78.7561 41.8743V41.7314H78.7056V41.8743H78.7561ZM79.2856 34.4778L79.3864 34.3181H79.2856V34.461V34.4778ZM74.9737 30.4097V30.2585H74.9233V30.4013L74.9737 30.4097ZM73.2927 32.6119H73.2423C73.2485 32.6829 73.2307 32.7539 73.1919 32.8136C73.2439 32.754 73.2787 32.6814 73.2927 32.6035V32.6119ZM77.7895 45.3877V45.2868H77.7474V45.3877H77.7895ZM80.1177 37.655V37.5541H80.0673V37.655H80.1177ZM79.5377 39.1006V39.2015H79.5882V39.1006H79.5377ZM73.486 31.8218L73.3852 32.0319L73.5281 31.8134L73.486 31.8218ZM78.4199 42.9838V42.8661C78.3694 42.8661 78.3694 42.925 78.3694 42.967L78.4199 42.9838ZM79.4369 39.4368V39.5041C79.4873 39.5041 79.4873 39.4453 79.4873 39.4032L79.4369 39.4368ZM73.5533 31.4436L73.6037 31.3847L73.5533 31.2923V31.4352V31.4436ZM77.6718 45.8584V45.7575H77.6214C77.6214 45.8079 77.6214 45.8079 77.6718 45.85V45.8584ZM80.1429 37.2347V37.2851H80.1933V37.2347H80.1429ZM79.025 40.7985V40.748H79.0082C79.0082 40.7985 79.0082 40.7985 79.0586 40.748L79.025 40.7985ZM77.7643 40.7985H77.7474H77.7979V40.748L77.7643 40.7985ZM77.5205 41.4625V41.5129L77.5709 41.4541L77.5205 41.4625ZM79.067 40.4959L79.1175 40.4371C79.067 40.4371 79.067 40.4371 79.067 40.4959ZM77.6634 41.1011H77.613H77.6634V41.0506V41.1011ZM80.8573 34.8813H80.9078V34.8308L80.8573 34.8897V34.8813ZM78.4871 42.572V42.5215L78.4367 42.5804L78.4871 42.572ZM80.2774 36.8649H80.227H80.2774V36.8144V36.8649ZM79.3444 39.7899V39.8403L79.3948 39.7815L79.3444 39.7899ZM79.1511 36.6211V36.5707L79.1007 36.6295L79.1511 36.6211ZM73.1919 32.864L73.1414 33.0153C73.1597 32.9949 73.1736 32.9709 73.1822 32.9449C73.1909 32.9189 73.1942 32.8914 73.1919 32.864ZM78.4199 38.8233V38.7728L78.3694 38.8317L78.4199 38.8233ZM77.0162 43.3536H77.0666V43.3032L77.0162 43.362V43.3536ZM97.0708 25.2742C96.9574 25.417 96.8059 25.5248 96.6338 25.5852C96.5637 25.6406 96.5135 25.7173 96.4909 25.8037C96.4909 25.7029 96.4909 25.6608 96.6338 25.5852L96.5329 24.8287L95.9529 25.4507C95.3084 26.321 94.7721 27.2666 94.356 28.2664C92.5932 32.5665 90.2272 36.5937 87.3293 40.2269V39.6974C87.9597 36.8817 88.8758 34.1248 88.8758 31.2923C88.8758 29.2582 87.9513 26.8796 85.7239 26.7955C85.7239 27.3755 85.8668 27.9807 85.8668 28.5606C85.8668 30.2416 85.144 32.1664 84.6565 33.839C84.0513 35.8983 83.2108 38.5123 83.2108 40.4959C83.2108 42.6308 84.3287 43.0174 85.8752 43.5638L86.3627 43.7319C86.5839 43.8504 86.8373 43.8946 87.0855 43.8579C88.9263 43.5722 92.0278 38.3778 92.9691 36.7388C92.9657 37.7766 92.8672 38.812 92.6749 39.8319C91.7084 45.5053 91.078 51.1284 88.8506 56.7094C88.1698 58.3904 86.9595 61.0296 85.6062 62.3997L84.5388 63.4419C84.183 62.5947 83.9536 61.6998 83.858 60.7859C83.8686 60.1511 83.9504 59.5196 84.1017 58.9031C84.1017 58.8527 84.1522 58.8023 84.1522 58.7518C84.6462 56.4702 85.3728 54.2452 86.3207 52.1118C86.8128 50.5103 87.7343 49.0743 88.9851 47.9596C88.4443 47.63 87.8278 47.4448 87.1948 47.4217C85.2112 47.7327 82.1517 56.1126 81.6726 57.9281C81.4003 59.0276 81.2703 60.1576 81.286 61.2902C81.286 62.6938 81.5802 64.005 82.8326 64.6522C83.7291 65.1095 84.7419 65.288 85.7407 65.1649C87.0278 64.8654 88.1835 64.1578 89.0355 63.1477C92.5741 59.441 94.6081 53.3053 95.4823 48.6657C95.8689 46.6148 96.1126 44.4631 96.3228 42.4291C96.5329 40.395 96.7094 38.1509 96.9027 35.9907C97.0188 34.1879 97.2292 32.3923 97.5331 30.6115C97.634 29.9643 97.7769 29.3171 97.9197 28.6615L98.3064 26.5686C97.9197 26.0979 97.4659 25.7281 97.096 25.3078L97.0708 25.2742ZM87.2368 49.0103C87.198 49.07 87.1802 49.141 87.1864 49.212C87.1867 49.1994 87.1841 49.1869 87.1788 49.1754C87.1736 49.164 87.1659 49.1538 87.1562 49.1457C87.1465 49.1377 87.1351 49.1319 87.1229 49.1288C87.1107 49.1257 87.0979 49.1254 87.0855 49.128C87.136 49.0271 87.1864 49.0187 87.2284 49.0103H87.2368ZM86.4636 50.4392L86.6064 50.0777C86.6064 50.2206 86.5056 50.3383 86.5056 50.4812C86.4047 50.4812 86.4047 50.5905 86.2618 50.6157C86.3123 50.5148 86.4047 50.498 86.4552 50.4392H86.4636ZM82.1013 58.8359V58.4997C82.1517 58.4997 82.1517 58.6342 82.1517 58.6846C82.154 58.7119 82.1508 58.7394 82.1421 58.7654C82.1334 58.7914 82.1195 58.8154 82.1013 58.8359ZM82.2022 58.0962V57.802C82.2022 57.9029 82.2526 57.8945 82.2526 57.9365C82.2526 57.9786 82.2022 58.0374 82.2022 58.0878V58.0962ZM84.1858 55.6503C84.1796 55.5793 84.1974 55.5083 84.2362 55.4486C84.2424 55.5196 84.2246 55.5906 84.1858 55.6503ZM84.4295 55.0788L84.2866 55.2469C84.3964 55.0413 84.4622 54.8152 84.4799 54.5829L84.5808 54.3223L84.4379 55.0704L84.4295 55.0788ZM84.7237 54.0113C84.7483 53.9777 84.7841 53.9539 84.8246 53.9441L84.7237 54.0113ZM85.1608 53.2128V53.0195C85.1608 53.07 85.2112 53.112 85.2112 53.154L85.1608 53.2128ZM85.7407 49.3465C85.793 49.2882 85.8596 49.2447 85.934 49.2204C85.9078 49.2256 85.8839 49.239 85.8658 49.2586C85.8476 49.2782 85.8362 49.3031 85.8332 49.3297C85.8085 49.3633 85.7728 49.3871 85.7323 49.3969V49.3465H85.7407ZM85.7407 49.5398L85.6903 49.6911C85.688 49.6638 85.6912 49.6363 85.6999 49.6103C85.7086 49.5842 85.7225 49.5603 85.7407 49.5398ZM85.4465 50.2122L85.3457 50.5652C85.2448 50.5652 85.2028 50.6409 85.1019 50.6493C85.2952 50.4728 85.2952 50.3803 85.4381 50.2122H85.4465ZM84.8918 51.3721L84.5976 51.9521C84.5472 51.9521 84.5472 51.8176 84.5472 51.7672C84.5402 51.6704 84.5715 51.5747 84.6344 51.5008C84.6973 51.4269 84.7867 51.3807 84.8834 51.3721H84.8918ZM84.5976 52.0025C84.5428 52.0475 84.4751 52.074 84.4043 52.0782C84.4591 52.0332 84.5268 52.0067 84.5976 52.0025ZM84.2614 52.49C84.2669 52.3661 84.3014 52.2451 84.3623 52.137C84.3504 52.2598 84.3162 52.3794 84.2614 52.49C84.2399 52.573 84.2231 52.6572 84.211 52.7422C84.1992 52.6548 84.217 52.5661 84.2614 52.49ZM84.211 53.0279C84.0022 53.3233 83.8087 53.6291 83.631 53.9441C83.631 53.4566 83.6815 53.2128 84.211 53.0279ZM82.7065 56.7514H82.656C82.656 56.8523 82.656 56.8943 82.5552 56.9615C82.5552 56.8607 82.5552 56.7682 82.656 56.7514C82.7065 56.6001 82.7989 56.4824 82.7989 56.4404C82.7862 56.5471 82.7519 56.65 82.6981 56.743L82.7065 56.7514ZM82.8073 55.9613C82.8578 55.9613 82.8578 56.0538 82.8578 56.2471C82.8166 56.1578 82.7993 56.0593 82.8073 55.9613ZM83.0511 55.684L83.1015 55.4318C83.1133 55.5191 83.0955 55.6079 83.0511 55.684ZM83.1519 55.3814L83.2024 54.9863C83.2066 55.1199 83.1896 55.2532 83.1519 55.3814ZM83.4461 58.1467V57.9533C83.4461 58.0038 83.4965 58.0458 83.4965 58.0878L83.4461 58.1467ZM83.3957 54.5241C83.4966 54.3644 83.589 54.1542 83.6394 54.0534C83.6459 54.1404 83.6285 54.2276 83.589 54.3055L83.3957 54.5325V54.5241ZM83.6394 57.1044C83.6449 56.9644 83.6792 56.8271 83.7403 56.701C83.7521 56.7804 83.769 56.859 83.7907 56.9363C83.7931 56.9569 83.7911 56.9777 83.7851 56.9974C83.7791 57.0172 83.7691 57.0355 83.7557 57.0513C83.7423 57.067 83.7258 57.0799 83.7073 57.089C83.6887 57.0982 83.6685 57.1034 83.6478 57.1044H83.6394ZM91.7252 50.893V51.0863C91.6747 51.0863 91.6747 51.0863 91.6747 51.0863C91.6985 51.0385 91.7155 50.9876 91.7252 50.9351V50.893ZM91.5823 51.4478C91.588 51.5484 91.5708 51.649 91.5319 51.742C91.5135 51.725 91.4994 51.7041 91.4907 51.6807C91.4819 51.6573 91.4787 51.6323 91.4814 51.6075C91.4814 51.557 91.4814 51.557 91.5823 51.4478ZM89.5987 57.3314L89.5482 57.3902C89.5482 57.2473 89.5987 57.2389 89.6491 57.1801C89.6309 57.2005 89.617 57.2245 89.6083 57.2505C89.5996 57.2765 89.5964 57.304 89.5987 57.3314ZM90.2795 55.5327C90.3447 55.2544 90.4585 54.9897 90.6157 54.751C90.5229 55.0194 90.4105 55.2807 90.2795 55.5327ZM90.809 58.693C90.8033 58.5924 90.8205 58.4918 90.8594 58.3988C90.8652 58.4994 90.8479 58.6 90.809 58.693ZM90.8594 54.129L90.7166 54.1963C90.6867 54.2229 90.6624 54.2551 90.6451 54.2912C90.6278 54.3273 90.6178 54.3664 90.6157 54.4064C90.6193 54.3107 90.6548 54.219 90.7166 54.1458L91.2041 52.4648C91.1032 53.0111 91.0107 53.5575 90.8679 54.1458L90.8594 54.129ZM91.2461 57.7012C91.4898 57.2305 91.6327 56.7178 91.826 56.2555C92.2127 55.1796 93.7172 50.0021 94.003 49.5314C93.7592 50.6325 92.406 56.9027 91.2377 57.718L91.2461 57.7012ZM94.0114 49.4221C94.0114 49.3213 93.9609 49.2372 93.9609 49.1364C93.9609 49.0355 94.0618 48.9262 94.2047 48.901C94.1126 49.0602 94.0473 49.2334 94.0114 49.4137V49.4221ZM94.1122 48.3883L94.2131 48.859C94.1163 48.7151 94.0664 48.5448 94.0702 48.3715L94.1122 48.3883Z" fill="white"/>
<path fill-rule="evenodd" clip-rule="evenodd" d="M15.0536 0H94.0113V19.3318L91.9269 21.576V2.08447H16.0958V21.7861C15.4192 21.5912 14.7141 21.5145 14.0114 21.5592V0H15.0536ZM94.0113 65.8794V80H14.0114V63.1897C14.7285 63.0662 15.4282 62.8574 16.0958 62.5678V77.9155H91.9269V68.0311C92.3219 67.6949 92.7001 67.3335 93.0616 66.9552C93.423 66.577 93.7088 66.2492 94.0113 65.8794Z" fill="white"/>
<path fill-rule="evenodd" clip-rule="evenodd" d="M39.0754 8.78336H39.5041V12.9859H39.0838V8.78336H39.0754ZM41.286 12.9859V8.78336H41.3784L44.1942 12.0193V8.78336H44.6144V12.9859H44.5472L41.7483 9.78357V12.9859H41.286ZM46.0349 9.17V8.75814H48.3463V9.17H47.4049V12.9859H46.9763V9.19521L46.0349 9.17ZM49.7836 8.75814H52.2042V9.17H50.2038V10.498H52.179V10.9267H50.2038V12.6077H52.179V13.0195H49.7836V8.81698V8.75814ZM53.776 8.75814H54.6165C54.9371 8.7478 55.2578 8.76749 55.5747 8.81698C55.8152 8.86717 56.0316 8.99757 56.1883 9.18681C56.3483 9.38335 56.4319 9.63112 56.4236 9.88443C56.4291 10.0972 56.3737 10.3072 56.2639 10.4896C56.1541 10.6657 55.9927 10.8037 55.8016 10.8846C55.5333 10.9852 55.2475 11.0309 54.9611 11.0191L56.4825 12.9859H55.9613L54.44 11.0191H54.1963V12.9859H53.7928V8.78336L53.776 8.75814ZM54.1963 9.17V10.6073H54.9275C55.1409 10.6166 55.3543 10.5881 55.5579 10.5232C55.6893 10.4724 55.8012 10.3812 55.8773 10.2627C55.9545 10.1454 55.9954 10.008 55.995 9.86762C55.9958 9.7298 55.9547 9.59498 55.8773 9.48098C55.8055 9.36716 55.6996 9.27891 55.5747 9.22883C55.3732 9.16826 55.1628 9.14267 54.9527 9.15319L54.1963 9.17ZM58.0794 8.75814H58.4997V12.9607H58.0794V8.75814ZM62.282 8.64888C62.5789 8.64114 62.8743 8.69376 63.1502 8.80357C63.4262 8.91337 63.677 9.07807 63.8874 9.28767C64.3016 9.70761 64.5338 10.2738 64.5338 10.8636C64.5338 11.4535 64.3016 12.0196 63.8874 12.4396C63.6834 12.6489 63.4387 12.8144 63.1684 12.9257C62.8981 13.037 62.6079 13.0918 62.3156 13.0868C62.0207 13.0931 61.7276 13.0389 61.4543 12.9276C61.1811 12.8163 60.9336 12.6502 60.727 12.4396C60.5283 12.2412 60.3709 12.0053 60.2641 11.7456C60.1573 11.4859 60.1033 11.2075 60.1051 10.9267C60.1028 10.5319 60.2042 10.1435 60.3992 9.80038C60.5895 9.46218 60.8667 9.18099 61.2022 8.98592C61.5377 8.79085 61.9192 8.689 62.3072 8.6909L62.282 8.64888ZM62.282 9.06073C61.9685 9.06022 61.6606 9.14444 61.3911 9.30448C61.118 9.46069 60.8917 9.68703 60.7355 9.96008C60.5756 10.2562 60.5 10.5906 60.5169 10.9267C60.5158 11.1614 60.5611 11.394 60.6501 11.6111C60.7392 11.8283 60.8703 12.0257 61.0358 12.1921C61.2014 12.3584 61.3982 12.4904 61.615 12.5805C61.8317 12.6706 62.0641 12.717 62.2988 12.717C62.6168 12.7198 62.93 12.6386 63.2066 12.4816C63.4822 12.3289 63.7094 12.1017 63.8622 11.826C64.0254 11.5539 64.1152 11.244 64.1227 10.9267C64.1314 10.5936 64.047 10.2646 63.879 9.97689C63.7196 9.70558 63.4903 9.48206 63.215 9.32969C62.9395 9.16905 62.6261 9.0849 62.3072 9.08594L62.282 9.06073ZM66.2072 8.75814H67.0477C67.3682 8.7478 67.689 8.76749 68.0059 8.81698C68.2464 8.86717 68.4627 8.99757 68.6195 9.18681C68.7795 9.38335 68.8631 9.63112 68.8548 9.88443C68.8603 10.0972 68.8049 10.3072 68.6951 10.4896C68.5853 10.6657 68.4239 10.8037 68.2328 10.8846C67.9645 10.9852 67.6787 11.0309 67.3923 11.0191L68.922 13.0111H68.4009L66.8796 11.0443H66.6358V13.0111H66.2156V8.80857L66.2072 8.75814ZM66.6274 9.17V10.6073H67.3587C67.5721 10.6166 67.7855 10.5881 67.9891 10.5232C68.1205 10.4724 68.2323 10.3812 68.3085 10.2627C68.3857 10.1454 68.4266 10.008 68.4261 9.86762C68.427 9.7298 68.3859 9.59498 68.3085 9.48098C68.2367 9.36716 68.1308 9.27891 68.0059 9.22883C67.8044 9.16826 67.594 9.14267 67.3839 9.15319L66.6274 9.17Z" fill="white"/>
<path fill-rule="evenodd" clip-rule="evenodd" d="M41.8323 73.5785V69.3759H42.6728C43.1374 69.3548 43.6024 69.4058 44.0513 69.5272C44.4462 69.6609 44.784 69.9246 45.0095 70.2753C45.2542 70.6442 45.3857 71.0766 45.3877 71.5192C45.3953 71.9098 45.2996 72.2954 45.1103 72.6371C44.9469 72.9398 44.6986 73.1881 44.3959 73.3515C44.0102 73.5221 43.5899 73.5998 43.1688 73.5785H41.8323ZM42.2358 73.175H42.7233C43.1298 73.1931 43.5369 73.1564 43.9336 73.0658C44.2388 72.9714 44.5027 72.7757 44.6817 72.511C44.868 72.2177 44.9617 71.875 44.9506 71.5276C44.9614 71.1583 44.8588 70.7946 44.6565 70.4854C44.4569 70.1921 44.1586 69.9804 43.8159 69.8886C43.3974 69.7913 42.9679 69.749 42.5384 69.7626H42.2358V73.175ZM47.0687 69.3507H49.4894V69.7626H47.4638V71.0906H49.439V71.5024H47.4638V73.1834H49.439V73.5953H47.0687V69.3927V69.3507ZM50.5989 72.7884L50.9603 72.5699C51.2125 73.035 51.4926 73.2675 51.8008 73.2675C51.9416 73.2682 52.0804 73.2335 52.2043 73.1666C52.3233 73.1062 52.4225 73.0128 52.49 72.8977C52.5554 72.7915 52.5902 72.6693 52.5909 72.5447C52.5891 72.393 52.5391 72.2458 52.448 72.1244C52.2415 71.8635 51.998 71.6342 51.7252 71.4436C51.4846 71.2767 51.2645 71.082 51.0696 70.8636C50.9237 70.6794 50.8438 70.4515 50.8426 70.2164C50.8412 70.0393 50.8877 69.8651 50.9771 69.7121C51.0655 69.5626 51.1935 69.4404 51.3469 69.3591C51.5064 69.2709 51.6858 69.2246 51.8681 69.2246C52.0659 69.2239 52.2603 69.2762 52.4312 69.3759C52.6516 69.5182 52.8404 69.7041 52.9859 69.9223L52.6413 70.1828C52.5298 70.0196 52.3904 69.8773 52.2295 69.7626C52.1179 69.6955 51.9899 69.6606 51.8597 69.6617C51.7051 69.6549 51.5542 69.7093 51.4394 69.813C51.3867 69.8623 51.3451 69.9223 51.3176 69.989C51.29 70.0557 51.2771 70.1275 51.2797 70.1996C51.2801 70.2924 51.3001 70.3841 51.3385 70.4686C51.3908 70.5757 51.462 70.6725 51.5487 70.7544C51.6075 70.8048 51.784 70.9477 52.095 71.1746C52.3863 71.371 52.6421 71.6154 52.8515 71.8975C52.9801 72.0859 53.0502 72.3081 53.0532 72.5363C53.0595 72.6937 53.0311 72.8505 52.9701 72.9958C52.9091 73.141 52.817 73.2711 52.7002 73.3768C52.5892 73.4855 52.4578 73.5712 52.3135 73.6289C52.1693 73.6866 52.015 73.7152 51.8597 73.713C51.6114 73.7141 51.3684 73.6409 51.162 73.5028C50.916 73.3232 50.7171 73.0867 50.5821 72.8136L50.5989 72.7884ZM54.7258 69.3507H55.1461V73.5533H54.7258V69.3507ZM61.0212 70.0567L60.6934 70.3677C60.471 70.1444 60.2088 69.9648 59.9202 69.8382C59.6552 69.7219 59.369 69.6618 59.0797 69.6617C58.7476 69.6615 58.4208 69.7453 58.1299 69.9054C57.8403 70.0578 57.5988 70.2877 57.4323 70.5694C57.2606 70.8295 57.1645 71.1321 57.1549 71.4436C57.1543 71.7635 57.2415 72.0775 57.407 72.3513C57.5767 72.6357 57.8208 72.8682 58.1131 73.0237C58.4178 73.1873 58.759 73.2712 59.1049 73.2675C59.507 73.281 59.9007 73.1498 60.2144 72.8977C60.5109 72.6635 60.704 72.3226 60.7523 71.9479H59.4075V71.536H61.2314C61.249 71.8265 61.2066 72.1174 61.1068 72.3907C61.007 72.664 60.852 72.9139 60.6514 73.1246C60.4465 73.3211 60.2037 73.4739 59.9378 73.5736C59.6719 73.6733 59.3885 73.7179 59.1049 73.7046C58.7518 73.7146 58.401 73.6441 58.0792 73.4985C57.7574 73.3528 57.4729 73.1359 57.2473 72.8641C56.9016 72.4721 56.713 71.9662 56.7178 71.4436C56.7163 71.0505 56.8208 70.6643 57.0204 70.3257C57.2165 69.9724 57.5077 69.6812 57.8609 69.4852C58.227 69.2864 58.638 69.1851 59.0544 69.191C59.4028 69.1886 59.7483 69.2542 60.0715 69.3843C60.4155 69.5326 60.729 69.7435 60.996 70.0063L61.0212 70.0567ZM62.8872 73.5785V69.3759H62.9796L65.7954 72.6119V69.3507H66.2156V73.5533H66.1232L63.3242 70.3509V73.5533L62.8872 73.5785Z" fill="white"/>
</svg>
