<svg width="172" height="140" viewBox="0 0 172 140" fill="none" xmlns="http://www.w3.org/2000/svg">
<g clip-path="url(#clip0)">
<path fill-rule="evenodd" clip-rule="evenodd" d="M23.0637 54.7173C22.654 56.7828 22.1186 58.8213 21.4604 60.8215C20.269 65.2342 19.004 69.5145 17.9891 73.9125L15.2826 85.6797C14.6259 88.2591 14.256 90.9031 14.1794 93.5637C14.1145 94.4648 14.2295 95.3698 14.5178 96.226C15.2207 97.8175 16.4164 99.1412 17.9285 100.002C19.4406 100.862 21.1892 101.215 22.9166 101.006C24.1891 100.718 25.3964 100.194 26.4761 99.462C29.3701 97.6116 31.8696 95.2071 33.8306 92.3869C41.541 80.861 47.4022 68.2007 51.2019 54.8644C52.4028 50.4876 53.0308 45.9735 53.07 41.4351C53.0554 39.0819 52.5419 36.7587 51.5632 34.6187C50.5844 32.4787 49.1629 30.5707 47.3923 29.0207C46.627 28.4462 45.8037 27.9532 44.9359 27.5498L44.6859 27.6675C45.156 29.1726 45.721 30.6465 46.3774 32.0802C47.2154 34.5039 47.5897 37.0637 47.4806 39.6259C47.3077 43.2556 46.6751 46.8488 45.5978 50.3193C42.2883 62.7042 32.6245 85.8415 22.8724 93.902C22.1076 94.5345 21.1809 95.0199 20.4161 95.6523C20.5514 94.2648 20.8073 92.8917 21.1809 91.5485L22.7989 83.841C23.652 79.6343 24.7552 75.4863 25.7407 71.2502C26.9321 66.3962 27.8588 61.5128 28.6825 56.7177C28.859 55.6734 29.5356 53.0257 29.5356 52.0844C29.5356 50.7311 26.4909 47.2304 25.0494 47.451C24.461 47.5393 19.71 50.9224 18.6951 51.5107C14.3707 54.1436 6.92792 58.3651 2.25047 59.1005C1.66211 59.1888 0.9855 59.1005 0.382432 59.2182C0.228167 59.2203 0.0786508 59.2719 -0.0441284 59.3653C0.224181 60.5333 0.922682 61.5573 1.9122 62.2334C2.90172 62.9094 4.10962 63.1878 5.29523 63.0131C8.33998 62.5277 12.2526 60.3949 15.1208 58.924C17.5772 57.6002 20.3719 55.5557 23.0048 54.7173H23.0637ZM44.1269 68.9408C41.6705 75.354 34.6396 89.2539 29.6239 93.9461C29.7083 93.744 29.8223 93.5557 29.9622 93.3872C32.2912 90.1663 34.4135 86.801 36.3165 83.3115C38.6846 79.2077 40.9792 75.0304 42.9355 70.7353C43.8622 68.7202 44.5388 66.661 45.3919 64.6753C45.7058 63.7056 46.1045 62.7655 46.5833 61.8658C46.8008 61.6172 46.9748 61.3338 47.0981 61.0274V61.1157L44.1563 68.9556L44.1269 68.9408ZM34.7132 80.5904C35.1423 79.661 35.6337 78.7617 36.1841 77.8986C35.9454 78.6647 35.5718 79.382 35.0809 80.0167C33.9777 81.8847 30.5947 88.8421 29.0649 89.6952C30.7565 86.5475 32.801 83.591 34.7426 80.5756L34.7132 80.5904ZM32.8893 86.7828C33.0511 86.5034 33.7424 85.459 34.3602 84.2529C33.3452 86.1945 31.6537 89.6805 30.4623 90.2983C31.2271 89.0774 32.0656 87.9301 32.8304 86.7828H32.8893ZM37.0372 79.6931L36.9489 79.8696C36.4593 81.176 35.775 82.4009 34.9191 83.5027C34.8308 83.6057 34.8308 83.6792 34.7426 83.694C35.5271 82.4693 36.2345 81.197 36.8607 79.8843L37.0372 79.6931ZM38.2433 74.3685C38.2276 74.2855 38.1978 74.2059 38.1551 74.1331C38.1551 73.9566 38.2433 73.8684 38.4051 73.7507C38.3843 73.9656 38.3244 74.1749 38.2286 74.3685H38.2433ZM36.7724 77.0602L36.6842 77.1632C36.5889 77.4619 36.4103 77.7273 36.1694 77.928C36.3395 77.623 36.5417 77.337 36.7724 77.0749V77.0602ZM39.1406 75.6628V75.9129C39.1406 76.0894 39.0523 76.1777 38.8905 76.2953L39.1406 75.6628ZM37.5373 78.8841C37.6164 78.5812 37.7621 78.2998 37.9639 78.0604H38.0521C37.8347 78.309 37.6606 78.5924 37.5373 78.8988V78.8841ZM37.3608 79.0753C37.449 78.9724 37.449 78.8988 37.5373 78.8841C37.6255 78.8694 37.449 79.0606 37.3608 79.0753ZM27.5499 91.4897C27.6382 91.3867 27.7264 91.372 27.7264 91.2985C27.7264 91.2249 27.6382 91.4014 27.6382 91.475L27.5499 91.4897ZM39.8466 70.8236V70.7353H39.9349L39.8466 70.8236ZM65.4402 71.206L65.352 71.7208L66.0286 70.9413L65.9403 71.4561L66.1904 70.8971H66.0139L66.1904 70.603V70.853L66.3669 70.4853H66.4551L66.7934 69.8381H66.9699C65.1686 74.0317 63.0441 78.0791 60.6157 81.9436C59.3507 84.1793 58.1593 86.4887 56.806 88.6509C54.8456 91.8592 52.7249 94.9667 50.4518 97.9616C50.2411 98.2108 49.9831 98.4158 49.6928 98.5647C49.4025 98.7137 49.0855 98.8037 48.7602 98.8295C46.3038 99.2119 44.5241 98.1382 44.5241 95.5935C44.7027 90.8196 45.4734 86.0863 46.8187 81.5023C47.8186 78.0469 48.4981 74.5067 48.8485 70.9266V70.603C48.8485 70.1764 48.5984 69.794 48.5984 69.3674C48.5984 68.9408 49.1133 68.7791 49.3633 68.6614C53.0994 68.5878 56.1441 70.0587 56.1441 74.1184C55.9187 77.356 55.2353 80.5453 54.1143 83.591L52.2168 90.2247C52.2168 90.313 52.1286 90.3277 52.1286 90.4012C52.1713 90.474 52.2012 90.5536 52.2168 90.6366C54.585 87.2976 56.6295 83.6645 58.7476 80.1932C60.0126 78.134 61.5423 76.1924 62.8956 74.1919C63.5572 73.0131 64.2942 71.8782 65.1019 70.7942L64.6753 71.6179L65.2637 70.853C63.9105 73.3535 62.2189 75.7364 61.1158 78.3693C61.7204 77.6298 62.257 76.8372 62.7191 76.0012C63.4164 74.2818 64.3255 72.6561 65.4255 71.1619L65.4402 71.206ZM54.1731 55.0262L54.4232 55.3203H54.8498V55.894C55.0792 55.7647 55.2795 55.5895 55.4381 55.3792L56.2912 55.6734L56.1147 56.2911H57.1296V57.1443L57.5562 56.9972C57.807 57.1132 58.0201 57.2975 58.171 57.5291C58.3219 57.7606 58.4045 58.0299 58.4093 58.3063C58.4093 60.3361 57.4827 62.263 57.4827 64.3075C57.4827 65.4107 57.821 66.5433 57.821 67.6465C57.6037 67.8355 57.3395 67.9625 57.0561 68.0142C56.4677 68.1024 56.0412 67.6612 55.4381 67.8377C53.4083 66.9698 51.6285 63.425 51.6285 61.0568C51.6285 59.7919 52.5552 55.1733 54.1731 54.982V55.0262ZM51.7903 92.3281C52.5552 90.6807 53.7466 89.2245 54.7321 87.636C56.203 85.0325 57.7768 82.4878 59.2183 79.899C60.2987 78.092 61.5498 76.3927 62.9544 74.8244C59.4831 80.3697 56.0853 85.915 52.6581 91.4456C52.3932 91.7626 52.1082 92.0622 51.805 92.3428L51.7903 92.3281ZM48.5396 95.3729C49.1268 92.2068 49.9178 89.082 50.9077 86.018C51.3209 83.9392 51.9469 81.9085 52.7758 79.9579C51.4226 85.0913 49.9811 90.2541 48.7014 95.3435H48.5249L48.5396 95.3729ZM61.4541 79.4283V79.7667L61.7777 79.4283C61.7389 79.4478 61.6961 79.4579 61.6527 79.4579C61.6093 79.4579 61.5664 79.4478 61.5276 79.4283C61.7569 78.9874 61.9536 78.5302 62.116 78.0604L61.1011 79.6637L61.5276 79.4283H61.4541ZM63.2486 76.4865H63.0868L63.3368 76.0159V75.6776C63.0229 76.1086 62.7658 76.5782 62.572 77.0749L62.9103 76.8543L63.0868 76.4865C63.175 76.4865 63.175 76.7219 63.175 76.8102C63.2317 76.7122 63.2574 76.5994 63.2486 76.4865ZM63.7634 75.3098L64.0134 74.9274C64.0134 74.5891 64.1899 74.3096 64.1899 73.9713L63.4251 75.5305L63.7634 75.3098V75.5599L63.9252 75.2804H63.7634V75.3098ZM56.0559 87.5477L56.8208 86.4887C56.3942 86.6357 56.0559 86.8564 56.0559 87.3712V87.5477ZM59.2772 82.7967L59.6155 82.4878C59.8892 82.0211 60.1158 81.5284 60.2921 81.0169C60.0012 81.6313 59.6619 82.2216 59.2772 82.782V82.7967ZM65.4696 71.1472C65.7429 70.7931 65.9429 70.388 66.058 69.9558H65.8815C65.7752 70.3839 65.6325 70.8022 65.4549 71.206L65.4696 71.1472ZM55.0116 89.1068L55.7764 88.1361C55.3499 88.2831 55.1881 88.7391 55.0116 89.1068ZM65.3078 71.7061C65.2797 71.982 65.1607 72.2407 64.9695 72.4416L65.3078 72.3092L65.3961 71.9562L65.3078 71.7208V71.7061ZM53.07 78.9871C52.9817 79.1636 52.9817 79.4283 52.8935 79.5166V79.0018H53.07V78.9871ZM64.1752 75.0157H63.9987V75.2657L64.1752 74.9862C64.1645 74.862 64.1955 74.7378 64.2635 74.6332H64.1752C64.1752 74.7215 64.087 74.898 64.1752 74.9715V75.0157ZM62.9103 77.2514L63.1603 76.9572H62.9838C62.9519 76.9931 62.9276 77.035 62.9124 77.0805C62.8972 77.126 62.8915 77.1742 62.8956 77.222L62.9103 77.2514ZM65.3667 72.6328L65.6167 72.2504L65.4402 72.368L65.352 72.6328H65.3667ZM66.2933 70.5294H66.3816V70.2794L66.2933 70.5441V70.5294ZM66.2933 70.6177V70.5294H66.1904V70.603L66.2786 70.5L66.2933 70.6177ZM63.3515 76.2365H63.2486V76.413C63.3368 76.31 63.3368 76.31 63.3368 76.2365H63.3515ZM66.3963 70.5H66.308V70.603L66.3963 70.5ZM76.3837 82.3701L74.9128 81.4288C74.4877 81.6432 74.088 81.9047 73.7214 82.2083C71.7156 84.1489 69.2746 85.5812 66.6022 86.3857C66.501 86.0915 66.4416 85.7845 66.4257 85.4737C66.4257 79.3695 67.6171 71.8091 72.8682 67.0875C73.3675 66.6135 73.9979 66.3009 74.6774 66.1903L75.2658 66.102C74.7409 67.2955 74.4513 68.579 74.4127 69.8822C74.3557 70.4759 74.4308 71.0747 74.6324 71.636C74.834 72.1972 75.1573 72.707 75.5789 73.1287C76.0006 73.5503 76.5104 73.8736 77.0716 74.0752C77.6329 74.2768 78.2317 74.3519 78.8254 74.2949C78.5466 73.5284 78.3494 72.7346 78.237 71.9268C78.237 70.4559 78.9136 69.1026 78.9136 67.6612C78.8959 67.143 78.7493 66.6375 78.4871 66.1903C77.772 64.7973 76.6548 63.6514 75.2805 62.9012C73.9061 62.1511 72.3379 61.8313 70.7796 61.9835C64.337 62.9984 60.0126 75.3834 60.0126 80.7963C60.0126 85.6355 63.4104 90.2689 68.6615 89.4452C71.9186 88.4781 74.7929 86.5191 76.8838 83.841C77.1339 83.4586 77.2221 83.0173 77.4722 82.6496C77.3435 82.6432 77.2175 82.6113 77.1013 82.5558C76.9852 82.5002 76.8812 82.4221 76.7955 82.326L76.1189 83.1056L76.369 82.2966L76.3837 82.3701ZM70.8678 66.6021H70.7796L70.0147 66.9698C68.5438 67.7935 66.7934 71.7944 66.2786 73.3241H66.3669C66.5416 72.8187 66.8002 72.3463 67.1317 71.9268C68.166 70.0082 69.4198 68.2164 70.8678 66.5874V66.6021ZM65.352 68.4849C65.6903 67.9259 66.9699 65.7784 67.5583 65.6755C66.9795 66.725 66.2344 67.6738 65.352 68.4849ZM67.22 68.4849C67.3247 68.1152 67.5113 67.7738 67.7659 67.4861C68.0205 67.1983 68.3367 66.9716 68.6909 66.8228C68.2643 67.3964 67.7642 67.8965 67.22 68.4849ZM76.0454 67.1758H75.9571C75.9571 67.0875 75.9571 67.0875 76.0454 66.9993V67.1758ZM76.4866 82.1642V82.3701H76.3984C76.3984 82.2819 76.4866 82.2672 76.4866 82.1936V82.1642ZM107.743 43.7591C107.743 44.4357 108.42 44.4945 108.935 44.5092C106.978 47.1863 99.4474 49.0543 96.3879 50.0398C93.55 60.3792 91.3687 70.8876 89.8571 81.5023C88.9494 87.0472 88.4577 92.6523 88.3862 98.2705C88.4094 100.454 88.6959 102.627 89.2393 104.742C89.3106 104.955 89.3405 105.18 89.3276 105.404C89.3276 106.169 88.2244 106.596 87.6361 106.684C87.386 106.684 87.2977 106.478 87.2095 106.331L86.6947 107.169C85.6798 106.816 84.5766 106.743 83.5617 106.39C80.4287 105.272 80.4287 99.5061 80.4287 96.5349C80.6096 87.424 81.4601 78.3388 82.9733 69.3527C83.3116 67.264 83.4881 65.1165 83.9 63.0131C84.3265 60.5714 84.9149 58.1003 85.2532 55.6586C85.4055 55.0835 85.5185 54.4987 85.5915 53.9083C85.5915 53.4817 84.8266 53.5994 84.5766 53.6435C83.7235 53.7759 82.7968 54.0112 81.9437 54.1436L82.0319 54.0407C81.0524 53.8242 80.1637 53.3105 79.4873 52.5698L79.5755 52.055L78.8107 51.7461C78.838 51.4094 78.9664 51.0889 79.179 50.8264C79.3916 50.564 79.6785 50.3718 80.0021 50.2752C81.8701 49.4662 83.8117 48.9955 85.6798 48.2747C87.586 45.5863 89.1799 42.6896 90.4308 39.6406C91.46 37.2789 92.6189 34.9759 93.9021 32.7421C94.2404 32.0949 94.5787 31.5359 95.373 31.4183L96.3879 31.7713L95.7995 33.2422C96.3143 32.6538 96.6526 32.0949 97.0645 31.5212L97.4028 31.9772L98.0794 31.786L97.6529 33.0363L98.3295 32.3302L99.2561 32.5214V33.3746L99.9328 33.0951C100.448 33.4334 101.286 33.7276 101.286 34.4924C101.286 34.8307 98.2412 44.0386 98.2412 44.0386C98.8442 43.9087 99.4386 43.7417 100.021 43.5385C101.449 43.0322 102.929 42.6869 104.434 42.5088C105.047 42.3047 105.711 42.3192 106.315 42.5498C106.918 42.7805 107.423 43.213 107.743 43.7738V43.7591ZM85.9592 99.6532C86.7839 83.2275 89.2827 66.9289 93.4167 51.0106L92.6518 51.2165C90.6799 58.4712 89.1522 65.8394 88.0773 73.28C86.7723 80.7117 86.0055 88.2279 85.7827 95.77C85.7565 97.062 85.8155 98.3543 85.9592 99.6385V99.6532ZM90.7102 51.7755C89.1805 53.9671 85.312 78.0751 85.312 81.5464V81.973C86.0769 76.9425 86.7829 71.9121 87.6802 66.9404C88.5774 61.9688 89.71 56.8648 90.7249 51.7902L90.7102 51.7755ZM84.3412 74.3979C85.5327 67.1758 86.5476 59.8948 88.3274 52.658C87.1359 54.7173 84.3412 71.2502 84.3412 73.9713V74.3979ZM95.4465 44.421C96.2996 42.0823 96.9174 39.773 97.8147 37.346C97.5646 37.8167 97.2263 38.1991 96.9615 38.5815C96.0089 40.7361 95.2173 42.9583 94.5934 45.23H94.7699C95.1965 45.23 95.3583 44.8034 95.4465 44.4504V44.421ZM83.3263 82.2819C83.5764 79.9579 83.9147 77.5309 84.253 75.1775H84.0029L83.1645 82.3701H83.341L83.3263 82.2819ZM93.3284 43.3178C92.7867 44.0843 92.4661 44.9849 92.4018 45.9213C92.9442 45.1552 93.2648 44.2544 93.3284 43.3178ZM93.2402 56.5559C93.4219 56.078 93.5646 55.586 93.6667 55.085C93.4897 55.2824 93.3595 55.5171 93.2856 55.7718C93.2118 56.0264 93.1962 56.2944 93.2402 56.5559ZM93.755 55.085C93.8298 54.5867 93.9429 54.095 94.0933 53.6141C93.8389 53.8876 93.6881 54.2414 93.6667 54.6143C93.6526 54.7858 93.683 54.9581 93.755 55.1144V55.085ZM85.1061 84.1941V83.0026H85.0179C85.0179 83.4292 84.9296 83.7822 84.9296 84.2088H85.1061V84.1941ZM84.7678 86.7828L84.8561 85.1648H84.7678L84.6796 86.7828H84.7678ZM92.4753 60.645C92.2988 60.7627 92.137 60.8656 92.137 61.1157C92.137 61.3657 92.2253 61.351 92.2253 61.5275L92.4753 60.645ZM91.9605 62.4248L92.2105 61.6158C92.1193 61.6374 92.0372 61.6876 91.9764 61.759C91.9156 61.8304 91.8791 61.9194 91.8722 62.0129C91.8722 62.1894 91.9605 62.2483 91.9605 62.4248ZM94.4169 51.7019C94.5293 51.6377 94.6209 51.5426 94.6809 51.4279C94.7408 51.3132 94.7666 51.1837 94.7552 51.0547V50.7164L94.4169 51.7019ZM82.6497 88.5479V87.3712H82.5615V88.4744L82.6497 88.5479ZM82.988 84.856V83.841H82.8998V84.856H82.988ZM89.7247 74.1478H89.9012V73.633H89.7247V74.1478ZM92.4312 59.733C92.4175 59.9863 92.4474 60.24 92.5194 60.4832C92.5194 60.2331 92.6077 59.9684 92.6077 59.7036H92.4312V59.733ZM90.6514 68.9114H90.8279C90.842 68.7399 90.8116 68.5677 90.7396 68.4113H90.6514V68.9261V68.9114ZM90.4013 70.2205H90.5779V69.6322H90.4896L90.4013 70.2352V70.2205ZM91.0779 66.4697C91.1662 66.4697 91.1662 66.4697 91.2545 66.4697V65.8814H91.1956L91.1074 66.3962L91.0779 66.4697ZM84.4295 90.666H84.5177V89.8129H84.4295V90.666ZM94.3433 52.2315C94.2225 52.5442 94.1386 52.87 94.0933 53.2022L94.3433 52.5698V52.2315ZM89.9306 72.824H90.1072C90.1203 72.681 90.0895 72.5373 90.0189 72.4122H89.9306V72.8387V72.824ZM87.4007 47.2157C87.3094 47.2373 87.2274 47.2875 87.1666 47.3589C87.1057 47.4303 87.0693 47.5193 87.0624 47.6128V47.7894L87.4007 47.2304V47.2157ZM89.5188 75.6187H89.607V74.9421H89.5188V75.6187ZM90.9897 67.7641V67.0875H90.9014V67.7641H90.9897ZM95.5642 33.6393V33.4628C95.3887 33.781 95.2458 34.1161 95.1376 34.463L95.5642 33.6393ZM91.4163 65.4107V64.8223H91.328V65.4107H91.4163ZM89.1217 78.737V78.1487H89.0334V78.737H89.1217ZM91.1956 53.923V54.4231L91.3721 53.9671H91.1956V53.923ZM91.6222 64.2193H91.7104V63.7045H91.6222V64.2193ZM92.6371 59.2329H92.8136V58.8064C92.7195 58.9423 92.659 59.0985 92.6371 59.2623V59.2329ZM91.9605 63.1602V62.6454L91.784 63.1014H91.9605V63.1602ZM93.3137 56.6736V56.5853L93.2255 56.6883C93.2255 56.9383 93.1372 57.1295 93.1372 57.3796L93.3137 56.6736ZM87.739 88.5332H87.8273V88.1066C87.7495 88.2398 87.7184 88.3951 87.739 88.5479V88.5332ZM90.1954 71.2796H90.2837V70.9413H90.1954V71.2796ZM88.8422 80.2226H88.9304C88.8422 80.2226 88.8422 79.9873 88.8422 79.899H88.7539C88.7539 79.9873 88.7539 80.1491 88.8422 80.2226ZM89.357 77.0014V76.6631H89.2687V77.0014H89.357ZM88.4303 83.6792V83.3409H88.3421V83.6792H88.4303ZM89.7247 60.4979C89.7361 60.6503 89.7056 60.8029 89.6365 60.9392H89.7247L89.813 60.4979H89.7247ZM89.4747 61.6452H89.4305V61.8953H89.5188V61.6305L89.4747 61.6452ZM90.5779 56.8059V56.5559L90.4013 56.8354H90.5779V56.8059ZM94.9905 38.3903V38.5668L95.2406 38.3609H94.9905V38.3903ZM87.5625 91.1073V90.8572H87.4743V91.1073H87.5625ZM88.0773 85.6944H88.1656V85.4443H88.0773V85.6944ZM91.0191 55.4821L90.7691 55.7763H90.8573L91.0338 55.4086L91.0191 55.4821ZM90.2542 58.4239H90.166V58.674H90.2542V58.4239ZM95.0052 34.7866C95.0963 34.6823 95.1573 34.5552 95.1818 34.4189C95.0907 34.5232 95.0297 34.6503 95.0052 34.7866ZM88.651 81.8553L88.7392 81.5023H88.651V81.8406V81.8553ZM84.5766 88.342V88.5185H84.6648V88.342H84.5766ZM93.9903 36.5958C94.0975 36.4672 94.1595 36.3071 94.1668 36.1398L93.9903 36.5958ZM92.8872 58.3798V58.2033C92.8552 58.2391 92.8309 58.2811 92.8158 58.3266C92.8006 58.3721 92.7948 58.4202 92.7989 58.4681L92.8872 58.3651V58.3798ZM91.5339 53.0846H91.4457V53.2611C91.5339 53.1581 91.5339 53.1581 91.5339 53.0846ZM94.1374 36.1546C94.2285 36.0502 94.2895 35.9231 94.3139 35.7868L94.1374 36.1546ZM89.9454 59.6154L89.8571 59.7919H89.9454V59.6154ZM90.622 45.2741C90.5337 45.2741 90.5337 45.2741 90.5337 45.3771L90.622 45.2741ZM93.0784 57.3649C93.0464 57.4007 93.0221 57.4427 93.007 57.4882C92.9918 57.5337 92.9861 57.5818 92.9901 57.6297L93.0784 57.3649ZM93.755 55.0556L93.6667 55.1585H93.755V55.0703V55.0556ZM93.3284 43.2884C93.3284 43.2002 93.4167 43.1854 93.4167 43.1119C93.4167 43.0384 93.3284 43.2149 93.3284 43.2884ZM93.9168 36.7576C93.9168 36.8459 93.8285 36.8606 93.8285 36.9341C93.8285 37.0077 93.9168 36.8312 93.9168 36.7576ZM103.066 60.748C98.9914 61.3951 95.4318 71.3531 95.4318 74.8391V75.8541C95.4318 81.1052 99.3297 84.9001 104.669 84.0617C105.272 83.9495 105.866 83.7971 106.449 83.6057C108.357 82.8836 110.031 81.6525 111.288 80.0461C116.113 74.795 121.584 65.9696 121.584 59.1005C121.584 55.4527 117.26 51.6431 113.612 52.2167C109.964 52.7904 106.655 58.2327 104.625 61.1745L103.154 60.7332L103.066 60.748ZM101.492 80.5904C109.273 77.2514 115.289 66.6462 116.642 58.8358C116.766 58.2638 116.849 57.6838 116.892 57.1001C116.893 56.7324 116.807 56.3697 116.642 56.0411C113.847 56.4823 107.993 64.4399 107.993 67.1464C108.004 67.5345 108.121 67.9122 108.331 68.2388C108.541 68.5654 108.836 68.8285 109.185 68.9997C109.093 69.1589 108.97 69.2981 108.823 69.4092C108.677 69.5204 108.51 69.6011 108.332 69.6469C105.963 70.0146 104.86 68.3231 103.581 66.9257C102.162 70.1296 101.33 73.5622 101.124 77.0602C101.073 78.2486 101.197 79.4381 101.492 80.5904ZM117.672 67.3523C117.76 69.9705 113.097 75.4422 111.406 77.6486C111.529 77.315 111.702 77.0025 111.921 76.7219C114.075 73.761 115.998 70.6383 117.672 67.3817V67.3523ZM107.375 64.131C108.965 61.6432 110.694 59.2468 112.553 56.953V56.8648H112.465C112.377 56.8648 112.377 56.9677 112.288 56.9825C110.508 58.5416 107.802 61.8511 107.375 64.1163V64.131ZM103.478 63.8957L103.566 63.7192C102.517 65.0241 101.737 66.5239 101.271 68.1319C102.127 66.8113 102.865 65.4185 103.478 63.9692V63.8957ZM106.522 60.4538L106.772 60.2478C107.905 58.5588 109.179 56.9693 110.582 55.4968H110.406C108.914 56.9834 107.606 58.6425 106.508 60.4391L106.522 60.4538ZM111.523 73.3977C112.066 72.3682 112.69 71.3844 113.391 70.4559C112.933 71.5317 112.302 72.5253 111.523 73.3977ZM112.788 73.7066V73.6183L114.745 70.6765C114.23 71.6914 113.48 72.6622 112.877 73.6183L112.788 73.7066ZM100.198 64.7194L101.492 62.9543C100.913 63.4186 100.466 64.0274 100.198 64.7194ZM107.905 60.7921C108.332 60.0419 108.92 59.4389 109.376 58.7917C108.788 59.381 108.292 60.0554 107.905 60.7921ZM102.389 63.5279L101.624 64.837C101.997 64.4815 102.263 64.0277 102.389 63.5279ZM114.73 70.7059C114.726 70.6581 114.732 70.61 114.747 70.5645C114.762 70.5189 114.786 70.477 114.818 70.4412L114.73 70.7059ZM132.528 52.055C131.675 59.1741 125.335 75.5893 119.29 80.002L116.348 79.4578L116.524 79.1783C117.899 77.5487 119.12 75.7958 120.172 73.9419C124.316 66.7525 127.183 58.8994 128.645 50.7311C125.423 49.0396 120.937 47.2892 120.937 42.7883C120.937 40.4937 122.967 37.3754 125.423 36.993C126.133 36.8721 126.862 36.9329 127.541 37.1695C128.874 37.5485 130.056 38.3326 130.923 39.4132C131.79 40.4937 132.299 41.8171 132.381 43.2002C132.557 45.0388 132.807 46.8627 132.896 48.716C135.89 49.8329 138.736 51.315 141.368 53.1287C142.016 53.6219 142.533 54.2652 142.877 55.0033C143.22 55.7413 143.379 56.5518 143.339 57.3649C143.339 59.9095 141.736 64.3958 140.883 67.0728C139.412 71.8091 136.646 79.2665 136.646 83.9293C136.623 85.027 136.823 86.118 137.235 87.1358L139.603 87.3565L139.515 88.0478H139.603L140.029 87.4742L140.706 87.3712C140.87 87.6686 140.956 88.0025 140.956 88.342C140.956 89.9453 138.411 90.8572 137.146 91.0631C131.645 91.9604 129.439 86.371 129.439 81.7082C129.439 76.0306 132.999 66.2344 135.028 60.4832C135.746 58.7229 136.24 56.8798 136.499 54.9967C136.499 52.9669 134.131 52.4815 132.601 52.055H132.528ZM134.44 83.4733C134.69 82.2525 134.778 81.0463 135.028 79.8255C136.025 75.3676 137.297 70.9758 138.838 66.6757C139.858 64.0143 140.598 61.2537 141.044 58.4386H140.868C138.853 64.4693 136.985 70.603 135.205 76.6483C134.673 78.3696 134.386 80.1571 134.352 81.9583C134.34 82.4502 134.37 82.9422 134.44 83.4292V83.4733ZM128.556 47.3481C128.556 47.0098 128.645 46.5685 128.645 46.2302C128.645 44.6269 128.218 41.0379 127.291 40.0083C126.465 40.8289 125.981 41.9331 125.938 43.0972C125.933 43.9815 126.178 44.8493 126.644 45.6012C127.109 46.353 127.777 46.9584 128.571 47.3481H128.556ZM138.735 60.4979L138.485 60.7921L134.337 73.6477C133.749 75.604 133.484 77.678 133.072 79.6196L133.263 79.4283C134.028 76.766 134.617 74.0449 135.47 71.3678C136.816 67.8283 137.922 64.2015 138.779 60.5126L138.735 60.4979ZM137.264 59.5565C136.726 60.4643 136.352 61.4603 136.161 62.4983L132.087 75.5158L131.16 79.0459C131.886 77.3333 132.481 75.5681 132.94 73.7654C134.411 69.0438 135.984 64.3811 137.264 59.6007V59.5565ZM130.91 54.8644C130.733 54.982 130.733 55.1438 130.66 55.335C129.406 59.6911 127.908 63.9733 126.174 68.1613C127.953 65.9255 130.586 57.6297 130.925 54.9232L130.91 54.8644ZM127.439 59.6448L126.674 62.1453C127.088 61.3187 127.399 60.4443 127.6 59.5418L127.439 59.6595V59.6448ZM124.776 41.9205C124.953 41.4645 125.026 40.9497 125.203 40.4496C124.906 40.7446 124.723 41.1356 124.688 41.5527C124.675 41.6958 124.706 41.8395 124.776 41.9646V41.9205ZM124.261 67.7641L123.585 69.235C123.983 68.844 124.223 68.3207 124.261 67.7641ZM127.571 59.3653L127.821 58.218C127.703 58.3818 127.619 58.5682 127.576 58.7656C127.533 58.963 127.532 59.1672 127.571 59.3653ZM122.996 39.92L122.482 40.7585L122.658 40.9056C122.721 40.5621 122.835 40.2299 122.996 39.92ZM132.91 80.3109H133.087C133.087 80.1344 132.999 80.0755 132.999 79.899C132.929 80.0353 132.899 80.1879 132.91 80.3403V80.3109ZM131.057 54.2466V53.9083H130.91V54.2466H131.057ZM137.411 59.0123H137.323V59.3506C137.391 59.2461 137.422 59.1218 137.411 58.9976V59.0123ZM136.896 76.4865V76.2365H136.793V76.4865H136.896ZM136.646 77.0308V77.2808H136.793V77.0308H136.646ZM137.573 73.6624L137.485 73.8389H137.661C137.666 73.7955 137.66 73.7517 137.645 73.7108C137.63 73.6699 137.605 73.6332 137.573 73.6036V73.6624ZM137.823 73.28V73.0299H137.735V73.28H137.823ZM138.75 60.3361L138.926 60.0566H138.75V60.3067V60.3361ZM131.204 53.217V52.9522H131.116V53.2022L131.204 53.217ZM128.262 57.0707H128.174C128.185 57.1949 128.154 57.3192 128.086 57.4237C128.177 57.3194 128.238 57.1923 128.262 57.056V57.0707ZM136.132 79.4283V79.2518H136.058V79.4283H136.132ZM140.206 65.8961V65.7196H140.118V65.8961H140.206ZM139.191 68.426V68.6025H139.279V68.426H139.191ZM128.601 55.6881L128.424 56.0558L128.674 55.6734L128.601 55.6881ZM137.235 75.2216V75.0157C137.146 75.0157 137.146 75.1186 137.146 75.1922L137.235 75.2216ZM139.014 69.0144V69.1321C139.103 69.1321 139.103 69.0291 139.103 68.9556L139.014 69.0144ZM128.718 55.0262L128.806 54.9232L128.718 54.7614V55.0115V55.0262ZM135.926 80.252V80.0755H135.837C135.837 80.1638 135.837 80.1638 135.926 80.2373V80.252ZM140.25 65.1606V65.2489H140.338V65.1606H140.25ZM138.294 71.3972V71.309H138.264C138.264 71.3972 138.264 71.3972 138.353 71.309L138.294 71.3972ZM136.087 71.3972H136.058H136.146V71.309L136.087 71.3972ZM135.661 72.5593V72.6475L135.749 72.5445L135.661 72.5593ZM138.367 70.8677L138.456 70.7648C138.367 70.7648 138.367 70.7648 138.367 70.8677ZM135.911 71.9268H135.823H135.911V71.8385V71.9268ZM141.5 61.0421H141.589V60.9539L141.5 61.0568V61.0421ZM137.352 74.5008V74.4126L137.264 74.5155L137.352 74.5008ZM140.485 64.5135H140.397H140.485V64.4252V64.5135ZM138.853 69.6322V69.7204L138.941 69.6175L138.853 69.6322ZM138.514 64.0869V63.9986L138.426 64.1016L138.514 64.0869ZM128.086 57.512L127.997 57.7767C128.029 57.7409 128.054 57.699 128.069 57.6535C128.084 57.6079 128.09 57.5598 128.086 57.512ZM137.235 67.9406V67.8524L137.146 67.9553L137.235 67.9406ZM134.778 75.8688H134.867V75.7805L134.778 75.8835V75.8688ZM169.874 44.2298C169.675 44.4797 169.41 44.6684 169.109 44.774C168.986 44.871 168.899 45.0052 168.859 45.1564C168.859 44.9799 168.859 44.9064 169.109 44.774L168.933 43.4502L167.918 44.5387C166.79 46.0617 165.851 47.7164 165.123 49.4662C162.038 56.9913 157.898 64.0389 152.826 70.397V69.4704C153.929 64.5429 155.533 59.7183 155.533 54.7614C155.533 51.2018 153.915 47.0392 150.017 46.8921C150.017 47.907 150.267 48.9661 150.267 49.981C150.267 52.9228 149.002 56.2911 148.149 59.2182C147.09 62.8219 145.619 67.3964 145.619 70.8677C145.619 74.6038 147.575 75.2804 150.282 76.2365L151.135 76.5307C151.522 76.7382 151.965 76.8155 152.4 76.7513C155.621 76.2512 161.049 67.1611 162.696 64.2928C162.69 66.109 162.518 67.9209 162.181 69.7057C160.49 79.6343 159.386 89.4746 155.489 99.2413C154.297 102.183 152.179 106.802 149.811 109.199L147.943 111.023C147.32 109.541 146.919 107.975 146.751 106.375C146.77 105.264 146.913 104.159 147.178 103.08C147.178 102.992 147.266 102.904 147.266 102.816C148.131 98.8227 149.402 94.929 151.061 91.1955C151.922 88.393 153.535 85.8799 155.724 83.9293C154.777 83.3524 153.699 83.0282 152.591 82.9879C149.12 83.5321 143.765 98.197 142.927 101.374C142.45 103.298 142.223 105.276 142.25 107.258C142.25 109.714 142.765 112.009 144.957 113.141C146.526 113.941 148.298 114.254 150.046 114.039C152.299 113.514 154.321 112.276 155.812 110.508C162.005 104.022 165.564 93.2842 167.094 85.1648C167.771 81.5759 168.197 77.8104 168.565 74.2508C168.933 70.6912 169.241 66.7639 169.58 62.9837C169.783 59.8287 170.151 56.6865 170.683 53.57C170.859 52.4374 171.109 51.3048 171.36 50.1575L172.036 46.495C171.36 45.6713 170.565 45.0241 169.918 44.2886L169.874 44.2298ZM152.664 85.7679C152.596 85.8724 152.565 85.9967 152.576 86.1209C152.577 86.0989 152.572 86.077 152.563 86.0569C152.554 86.0368 152.54 86.0191 152.523 86.005C152.506 85.9908 152.486 85.9807 152.465 85.9753C152.444 85.9699 152.421 85.9694 152.4 85.9738C152.488 85.7973 152.576 85.7826 152.65 85.7679H152.664ZM151.311 88.2684L151.561 87.636C151.561 87.886 151.385 88.0919 151.385 88.342C151.208 88.342 151.208 88.5332 150.958 88.5773C151.046 88.4008 151.208 88.3714 151.296 88.2684H151.311ZM143.677 102.963V102.374C143.765 102.374 143.765 102.61 143.765 102.698C143.77 102.746 143.764 102.794 143.749 102.839C143.733 102.885 143.709 102.927 143.677 102.963ZM143.854 101.668V101.153C143.854 101.33 143.942 101.315 143.942 101.389C143.942 101.462 143.854 101.565 143.854 101.654V101.668ZM147.325 97.388C147.314 97.2638 147.345 97.1395 147.413 97.035C147.424 97.1592 147.393 97.2835 147.325 97.388ZM147.752 96.3878L147.502 96.682C147.694 96.3223 147.809 95.9266 147.84 95.52L148.016 95.064L147.766 96.3731L147.752 96.3878ZM148.266 94.5198C148.31 94.4609 148.372 94.4192 148.443 94.4021L148.266 94.5198ZM149.031 93.1224V92.7841C149.031 92.8723 149.12 92.9459 149.12 93.0194L149.031 93.1224ZM150.046 86.3563C150.138 86.2543 150.254 86.1782 150.385 86.1356C150.339 86.1447 150.297 86.1681 150.265 86.2025C150.233 86.2368 150.213 86.2804 150.208 86.3269C150.165 86.3857 150.102 86.4274 150.032 86.4445V86.3563H150.046ZM150.046 86.6946L149.958 86.9593C149.954 86.9115 149.96 86.8634 149.975 86.8179C149.99 86.7723 150.014 86.7304 150.046 86.6946ZM149.531 87.8713L149.355 88.4891C149.178 88.4891 149.105 88.6214 148.928 88.6362C149.267 88.3273 149.267 88.1655 149.517 87.8713H149.531ZM148.561 89.9011L148.046 90.9161C147.958 90.9161 147.958 90.6807 147.958 90.5925C147.945 90.4231 148 90.2557 148.11 90.1263C148.22 89.997 148.377 89.9161 148.546 89.9011H148.561ZM148.046 91.0043C147.95 91.083 147.831 91.1293 147.707 91.1367C147.803 91.058 147.922 91.0116 148.046 91.0043ZM147.457 91.8574C147.467 91.6405 147.527 91.4289 147.634 91.2396C147.613 91.4546 147.553 91.6639 147.457 91.8574C147.42 92.0027 147.39 92.1501 147.369 92.2987C147.349 92.1459 147.38 91.9906 147.457 91.8574ZM147.369 92.7988C147.004 93.3156 146.665 93.8508 146.354 94.4021C146.354 93.549 146.443 93.1224 147.369 92.7988ZM144.736 99.3149H144.648C144.648 99.4914 144.648 99.5649 144.472 99.6826C144.472 99.5061 144.472 99.3443 144.648 99.3149C144.736 99.0501 144.898 98.8442 144.898 98.7706C144.876 98.9573 144.816 99.1375 144.722 99.3002L144.736 99.3149ZM144.913 97.9322C145.001 97.9322 145.001 98.094 145.001 98.4323C144.929 98.276 144.899 98.1038 144.913 97.9322ZM145.339 97.4468L145.428 97.0056C145.448 97.1584 145.417 97.3137 145.339 97.4468ZM145.516 96.9173L145.604 96.226C145.611 96.4596 145.582 96.693 145.516 96.9173ZM146.031 101.757V101.418C146.031 101.507 146.119 101.58 146.119 101.654L146.031 101.757ZM145.942 95.417C146.119 95.1375 146.281 94.7698 146.369 94.5933C146.38 94.7457 146.35 94.8983 146.281 95.0346L145.942 95.4317V95.417ZM146.369 99.9327C146.379 99.6877 146.439 99.4473 146.545 99.2266C146.566 99.3656 146.596 99.5032 146.634 99.6385C146.638 99.6744 146.634 99.7108 146.624 99.7454C146.613 99.78 146.596 99.8121 146.572 99.8397C146.549 99.8672 146.52 99.8897 146.488 99.9057C146.455 99.9217 146.42 99.9309 146.384 99.9327H146.369ZM160.519 89.0627V89.401C160.431 89.401 160.431 89.401 160.431 89.401C160.472 89.3173 160.502 89.2282 160.519 89.1363V89.0627ZM160.269 90.0335C160.279 90.2096 160.249 90.3856 160.181 90.5483C160.149 90.5187 160.124 90.482 160.109 90.4411C160.093 90.4003 160.088 90.3564 160.092 90.313C160.092 90.2247 160.092 90.2247 160.269 90.0335ZM156.798 100.33L156.709 100.433C156.709 100.183 156.798 100.168 156.886 100.065C156.854 100.101 156.83 100.143 156.814 100.188C156.799 100.234 156.794 100.282 156.798 100.33ZM157.989 97.1821C158.103 96.695 158.302 96.2319 158.577 95.8141C158.415 96.2839 158.218 96.7411 157.989 97.1821ZM158.916 102.713C158.906 102.537 158.936 102.361 159.004 102.198C159.014 102.374 158.984 102.55 158.916 102.713ZM159.004 94.7257L158.754 94.8434C158.702 94.8899 158.659 94.9464 158.629 95.0095C158.599 95.0726 158.581 95.1412 158.577 95.2111C158.584 95.0436 158.646 94.8831 158.754 94.7551L159.607 91.8133C159.431 92.7694 159.269 93.7255 159.019 94.7551L159.004 94.7257ZM159.681 100.977C160.107 100.153 160.357 99.256 160.696 98.447C161.372 96.5643 164.005 87.5036 164.505 86.6799C164.079 88.6067 161.71 99.5796 159.666 101.006L159.681 100.977ZM164.52 86.4887C164.52 86.3121 164.432 86.1651 164.432 85.9885C164.432 85.812 164.608 85.6208 164.858 85.5767C164.697 85.8553 164.583 86.1584 164.52 86.4739V86.4887ZM164.696 84.6794L164.873 85.5032C164.704 85.2514 164.616 84.9534 164.623 84.65L164.696 84.6794Z" fill="#1A1A18"/>
<path fill-rule="evenodd" clip-rule="evenodd" d="M26.3437 0H164.52V33.8306L160.872 37.7579V3.64783H28.1677V38.1257C26.9836 37.7847 25.7496 37.6503 24.5198 37.7285V0H26.3437ZM164.52 115.289V140H24.5198V110.582C25.7748 110.366 26.9994 110 28.1677 109.494V136.352H160.872V119.054C161.563 118.466 162.225 117.834 162.858 117.172C163.49 116.51 163.99 115.936 164.52 115.289Z" fill="#1A1A18"/>
<path fill-rule="evenodd" clip-rule="evenodd" d="M68.382 15.3709H69.1322V22.7254H68.3967V15.3709H68.382ZM72.2505 22.7254V15.3709H72.4123L77.3398 21.0339V15.3709H78.0752V22.7254H77.9576L73.0595 17.1213V22.7254H72.2505ZM80.561 16.0475V15.3268H84.606V16.0475H82.9586V22.7254H82.2084V16.0917L80.561 16.0475ZM87.1212 15.3268H91.3574V16.0475H87.8567V18.3716H91.3133V19.1217H87.8567V22.0635H91.3133V22.7842H87.1212V15.4298V15.3268ZM94.108 15.3268H95.5789C96.1398 15.3087 96.7012 15.3432 97.2557 15.4298C97.6766 15.5176 98.0552 15.7458 98.3295 16.077C98.6095 16.4209 98.7558 16.8545 98.7413 17.2978C98.7509 17.6702 98.654 18.0376 98.4619 18.3568C98.2697 18.665 97.9872 18.9064 97.6529 19.0482C97.1832 19.2242 96.6831 19.3042 96.182 19.2835L98.8443 22.7254H97.9323L95.27 19.2835H94.8435V22.7254H94.1374V15.3709L94.108 15.3268ZM94.8435 16.0475V18.5628H96.1231C96.4966 18.579 96.8701 18.5292 97.2263 18.4157C97.4563 18.3268 97.652 18.1671 97.7853 17.9597C97.9203 17.7545 97.9919 17.5141 97.9912 17.2684C97.9926 17.0272 97.9208 16.7913 97.7853 16.5918C97.6596 16.3926 97.4743 16.2381 97.2557 16.1505C96.9031 16.0445 96.535 15.9997 96.1673 16.0181L94.8435 16.0475ZM101.639 15.3268H102.374V22.6813H101.639V15.3268ZM108.993 15.1356C109.513 15.122 110.03 15.2141 110.513 15.4063C110.996 15.5984 111.435 15.8867 111.803 16.2535C112.528 16.9884 112.934 17.9791 112.934 19.0114C112.934 20.0437 112.528 21.0344 111.803 21.7693C111.446 22.1357 111.018 22.4252 110.545 22.62C110.072 22.8147 109.564 22.9107 109.052 22.9019C108.536 22.913 108.023 22.8182 107.545 22.6234C107.067 22.4286 106.634 22.1379 106.272 21.7693C105.924 21.4222 105.649 21.0094 105.462 20.5548C105.275 20.1003 105.181 19.6131 105.184 19.1217C105.18 18.431 105.357 17.7513 105.699 17.1507C106.032 16.5589 106.517 16.0668 107.104 15.7254C107.691 15.384 108.359 15.2058 109.038 15.2091L108.993 15.1356ZM108.993 15.8563C108.445 15.8554 107.906 16.0028 107.434 16.2829C106.956 16.5562 106.56 16.9523 106.287 17.4302C106.007 17.9485 105.875 18.5335 105.905 19.1217C105.903 19.5325 105.982 19.9395 106.138 20.3196C106.294 20.6996 106.523 21.0451 106.813 21.3362C107.102 21.6273 107.447 21.8583 107.826 22.016C108.205 22.1736 108.612 22.2547 109.023 22.2547C109.579 22.2596 110.127 22.1176 110.611 21.8429C111.094 21.5756 111.491 21.178 111.759 20.6956C112.045 20.2193 112.202 19.677 112.215 19.1217C112.23 18.5388 112.082 17.9631 111.788 17.4596C111.509 16.9848 111.108 16.5937 110.626 16.327C110.144 16.0459 109.596 15.8986 109.038 15.9004L108.993 15.8563ZM115.863 15.3268H117.333C117.894 15.3087 118.456 15.3432 119.01 15.4298C119.431 15.5176 119.81 15.7458 120.084 16.077C120.364 16.4209 120.51 16.8545 120.496 17.2978C120.505 17.6702 120.409 18.0376 120.216 18.3568C120.024 18.665 119.742 18.9064 119.407 19.0482C118.938 19.2242 118.438 19.3042 117.937 19.2835L120.614 22.7695H119.702L117.039 19.3276H116.613V22.7695H115.877V15.4151L115.863 15.3268ZM116.598 16.0475V18.5628H117.878C118.251 18.579 118.625 18.5292 118.981 18.4157C119.211 18.3268 119.407 18.1671 119.54 17.9597C119.675 17.7545 119.747 17.5141 119.746 17.2684C119.747 17.0272 119.675 16.7913 119.54 16.5918C119.414 16.3926 119.229 16.2381 119.01 16.1505C118.658 16.0445 118.29 15.9997 117.922 16.0181L116.598 16.0475Z" fill="#1A1A18"/>
<path fill-rule="evenodd" clip-rule="evenodd" d="M73.2065 128.762V121.408H74.6774C75.4904 121.371 76.3041 121.46 77.0897 121.673C77.7808 121.906 78.372 122.368 78.7665 122.982C79.1948 123.627 79.4248 124.384 79.4284 125.159C79.4417 125.842 79.2742 126.517 78.943 127.115C78.657 127.645 78.2225 128.079 77.6928 128.365C77.0178 128.663 76.2823 128.8 75.5453 128.762H73.2065ZM73.9126 128.056H74.7657C75.4771 128.088 76.1895 128.024 76.8838 127.865C77.4179 127.7 77.8797 127.357 78.1929 126.894C78.5189 126.381 78.6829 125.781 78.6636 125.173C78.6825 124.527 78.5028 123.89 78.1488 123.349C77.7995 122.836 77.2775 122.466 76.6779 122.305C75.9453 122.135 75.1938 122.061 74.4421 122.084H73.9126V128.056ZM82.3702 121.364H86.6064V122.084H83.0616V124.408H86.5182V125.129H83.0616V128.071H86.5182V128.792H82.3702V121.437V121.364ZM88.548 127.38L89.1805 126.997C89.6218 127.811 90.1121 128.218 90.6514 128.218C90.8978 128.219 91.1406 128.159 91.3574 128.042C91.5657 127.936 91.7393 127.772 91.8575 127.571C91.9718 127.385 92.0329 127.171 92.034 126.953C92.0309 126.688 91.9433 126.43 91.784 126.218C91.4225 125.761 90.9964 125.36 90.519 125.026C90.098 124.734 89.7129 124.393 89.3717 124.011C89.1164 123.689 88.9765 123.29 88.9746 122.879C88.9721 122.569 89.0534 122.264 89.2099 121.996C89.3645 121.734 89.5885 121.521 89.8571 121.378C90.1362 121.224 90.45 121.143 90.7691 121.143C91.1153 121.142 91.4555 121.233 91.7546 121.408C92.1402 121.657 92.4706 121.982 92.7254 122.364L92.1223 122.82C91.9271 122.534 91.6832 122.285 91.4015 122.084C91.2062 121.967 90.9822 121.906 90.7544 121.908C90.4839 121.896 90.2197 121.991 90.0189 122.173C89.9266 122.259 89.8539 122.364 89.8057 122.481C89.7575 122.597 89.7349 122.723 89.7394 122.849C89.74 123.012 89.7751 123.172 89.8424 123.32C89.9339 123.507 90.0585 123.677 90.2101 123.82C90.3131 123.908 90.622 124.158 91.1662 124.555C91.6759 124.899 92.1236 125.327 92.49 125.82C92.7151 126.15 92.8379 126.539 92.843 126.938C92.854 127.214 92.8044 127.488 92.6976 127.742C92.5909 127.997 92.4296 128.224 92.2252 128.409C92.0311 128.6 91.8011 128.75 91.5486 128.851C91.2962 128.952 91.0262 129.001 90.7544 128.998C90.3198 129 89.8946 128.872 89.5335 128.63C89.103 128.315 88.7548 127.902 88.5186 127.424L88.548 127.38ZM95.7701 121.364H96.5056V128.718H95.7701V121.364ZM106.787 122.599L106.213 123.143C105.824 122.753 105.365 122.438 104.86 122.217C104.397 122.013 103.896 121.908 103.389 121.908C102.808 121.907 102.236 122.054 101.727 122.334C101.22 122.601 100.798 123.003 100.506 123.496C100.206 123.952 100.038 124.481 100.021 125.026C100.02 125.586 100.173 126.136 100.462 126.615C100.759 127.112 101.186 127.519 101.698 127.791C102.231 128.078 102.828 128.224 103.433 128.218C104.137 128.242 104.826 128.012 105.375 127.571C105.894 127.161 106.232 126.564 106.316 125.909H103.963V125.188H107.155C107.186 125.696 107.111 126.205 106.937 126.684C106.762 127.162 106.491 127.599 106.14 127.968C105.781 128.312 105.356 128.579 104.891 128.754C104.426 128.928 103.93 129.006 103.433 128.983C102.816 129 102.202 128.877 101.639 128.622C101.075 128.367 100.578 127.988 100.183 127.512C99.5778 126.826 99.2478 125.941 99.2561 125.026C99.2535 124.338 99.4364 123.662 99.7857 123.07C100.129 122.452 100.638 121.942 101.257 121.599C101.897 121.251 102.616 121.074 103.345 121.084C103.955 121.08 104.559 121.195 105.125 121.422C105.727 121.682 106.276 122.051 106.743 122.511L106.787 122.599ZM110.053 128.762V121.408H110.214L115.142 127.071V121.364H115.877V128.718H115.715L110.817 123.114V128.718L110.053 128.762Z" fill="#1A1A18"/>
</g>
<defs>
<clipPath id="clip0">
<rect width="171.992" height="140" fill="white"/>
</clipPath>
</defs>
</svg>
