<svg width="70" height="70" viewBox="0 0 70 70" fill="none" xmlns="http://www.w3.org/2000/svg">
<path d="M34.9999 0C19.6082 0 7.12793 12.4782 7.12793 27.8699C7.12793 51.0359 34.9999 70 34.9999 70C34.9999 70 62.8719 49.6409 62.8719 27.8678C62.8719 12.4761 50.3916 0 34.9999 0Z" fill="#1A1A18"/>
<path fill-rule="evenodd" clip-rule="evenodd" d="M31.7466 23.0429C31.5383 24.1106 31.2662 25.1643 30.9316 26.1982C30.3259 28.4791 29.6829 30.6916 29.167 32.9649L27.7912 39.0474C27.4574 40.3807 27.2693 41.7474 27.2304 43.1227C27.1974 43.5884 27.2559 44.0562 27.4024 44.4988C27.7597 45.3215 28.3675 46.0057 29.1362 46.4506C29.9049 46.8954 30.7937 47.0775 31.6718 46.9698C32.3187 46.8208 32.9324 46.5501 33.4813 46.1715C34.9524 45.215 36.223 43.9722 37.2199 42.5144C41.1394 36.5567 44.1188 30.0125 46.0504 23.1189C46.6609 20.8566 46.9801 18.5232 47 16.1773C46.9926 14.961 46.7315 13.7601 46.234 12.6539C45.7365 11.5478 45.0139 10.5615 44.1138 9.76031C43.7248 9.46334 43.3063 9.20852 42.8651 9L42.738 9.06082C42.977 9.83883 43.2642 10.6007 43.5979 11.3418C44.0239 12.5946 44.2141 13.9177 44.1587 15.2421C44.0708 17.1184 43.7492 18.9757 43.2016 20.7696C41.5192 27.1714 36.6068 39.131 31.6494 43.2975C31.2606 43.6245 30.7895 43.8754 30.4007 44.2023C30.4695 43.4851 30.5996 42.7753 30.7895 42.081L31.612 38.097C32.0457 35.9225 32.6065 33.7785 33.1074 31.5888C33.7131 29.0798 34.1842 26.5555 34.6029 24.0769C34.6926 23.5371 35.0366 22.1686 35.0366 21.682C35.0366 20.9825 33.4888 19.1729 32.756 19.287C32.4569 19.3326 30.0418 21.0813 29.5259 21.3854C27.3276 22.7464 23.5442 24.9285 21.1664 25.3086C20.8673 25.3542 20.5234 25.3086 20.2168 25.3695C20.1384 25.3705 20.0624 25.3972 20 25.4455C20.1364 26.0492 20.4915 26.5785 20.9945 26.928C21.4975 27.2774 22.1115 27.4213 22.7142 27.3311C24.262 27.0801 26.2509 25.9777 27.7089 25.2174C28.9576 24.5331 30.3783 23.4763 31.7167 23.0429H31.7466ZM42.4539 30.3951C41.2052 33.71 37.6311 40.895 35.0814 43.3204C35.1243 43.2159 35.1823 43.1185 35.2534 43.0314C36.4373 41.3666 37.5162 39.6271 38.4835 37.8233C39.6873 35.7021 40.8538 33.5428 41.8482 31.3227C42.3193 30.281 42.6633 29.2166 43.0969 28.1902C43.2565 27.689 43.4592 27.2031 43.7026 26.738C43.8131 26.6095 43.9016 26.463 43.9643 26.3046V26.3503L42.4688 30.4027L42.4539 30.3951ZM37.6685 36.4167C37.8866 35.9363 38.1364 35.4715 38.4162 35.0254C38.2949 35.4214 38.105 35.7921 37.8554 36.1202C37.2947 37.0858 35.5749 40.6821 34.7973 41.1231C35.6572 39.496 36.6965 37.9678 37.6835 36.4091L37.6685 36.4167ZM36.7413 39.6176C36.8236 39.4732 37.175 38.9334 37.4891 38.3099C36.9731 39.3135 36.1133 41.1155 35.5076 41.4348C35.8964 40.8037 36.3226 40.2107 36.7114 39.6176H36.7413ZM38.8499 35.953L38.805 36.0442C38.5561 36.7195 38.2083 37.3526 37.7732 37.9222C37.7283 37.9754 37.7283 38.0134 37.6835 38.021C38.0823 37.388 38.4419 36.7303 38.7602 36.0518L38.8499 35.953ZM39.463 33.2006C39.4551 33.1578 39.4399 33.1166 39.4182 33.079C39.4182 32.9878 39.463 32.9421 39.5453 32.8813C39.5347 32.9924 39.5043 33.1006 39.4556 33.2006H39.463ZM38.7153 34.592L38.6705 34.6452C38.622 34.7997 38.5312 34.9368 38.4088 35.0406C38.4952 34.8829 38.598 34.7351 38.7153 34.5996V34.592ZM39.9191 33.8697V33.999C39.9191 34.0902 39.8743 34.1358 39.792 34.1966L39.9191 33.8697ZM39.1041 35.5348C39.1443 35.3782 39.2184 35.2328 39.321 35.109H39.3658C39.2553 35.2375 39.1668 35.384 39.1041 35.5424V35.5348ZM39.0144 35.6336C39.0593 35.5804 39.0593 35.5424 39.1041 35.5348C39.149 35.5272 39.0593 35.626 39.0144 35.6336ZM34.0271 42.0506C34.072 41.9974 34.1169 41.9898 34.1169 41.9518C34.1169 41.9138 34.072 42.005 34.072 42.043L34.0271 42.0506ZM40.278 31.3683V31.3227H40.3229L40.278 31.3683Z" fill="white"/>
</svg>
