<svg width="30" height="30" viewBox="0 0 30 30" fill="none" xmlns="http://www.w3.org/2000/svg">
<g clip-path="url(#clip0)">
<path d="M27.8939 1.33594H24.4735C24.2306 1.33594 24.034 1.53255 24.034 1.77539C24.034 2.01801 24.2306 2.21484 24.4735 2.21484H27.8939C27.9747 2.21484 28.0404 2.28053 28.0404 2.36133V19.5797C28.0404 19.8223 28.2372 20.0191 28.4798 20.0191C28.7227 20.0191 28.9193 19.8223 28.9193 19.5797V2.36133C28.9193 1.79576 28.4594 1.33594 27.8939 1.33594Z" fill="#9ABBCA"/>
<path d="M28.4798 21.0539C28.2372 21.0539 28.0403 21.2505 28.0403 21.4933V27.4212C28.0403 28.3262 27.3043 29.0625 26.3993 29.0625C25.4943 29.0625 24.7582 28.3262 24.7582 27.4212V17.6463C24.7582 16.2567 23.6275 15.1263 22.238 15.1263C20.8484 15.1263 19.718 16.2567 19.718 17.6463V20.6188C19.718 21.5238 18.9816 22.2599 18.0769 22.2599C17.1719 22.2599 16.4356 21.5238 16.4356 20.6188V18.4252L18.6724 16.1881C18.9778 15.883 19.0805 15.452 18.9839 15.0608L24.375 9.66975C24.8385 9.20627 24.8385 8.45187 24.375 7.98838L18.6012 2.21483H22.5595C22.8024 2.21483 22.999 2.018 22.999 1.77538C22.999 1.53254 22.8024 1.33593 22.5595 1.33593H17.7223L16.6757 0.289021C16.2119 -0.174465 15.4578 -0.174465 14.9943 0.289021L9.60366 5.67942C9.51074 5.65653 9.41484 5.64326 9.31642 5.64326C8.99896 5.64326 8.70027 5.76686 8.47573 5.99139L6.14411 8.32324C5.68063 8.78673 5.68063 9.54089 6.14411 10.0044L9.23631 13.0968C7.87858 14.4229 6.28533 15.6287 4.4957 16.6822C3.97523 16.9887 3.47901 17.3764 3.02056 17.8347C2.19384 18.6616 1.59096 19.6231 1.32317 20.5423C1.02906 21.5526 1.16661 22.4089 1.7109 22.9532C2.0739 23.3162 2.57218 23.4938 3.14759 23.4938C3.98987 23.4935 4.99695 23.1127 5.98412 22.3759C6.17844 22.2306 6.2185 21.9552 6.07339 21.7609C5.92805 21.5664 5.6527 21.5263 5.45838 21.6716C4.20205 22.6091 2.88758 22.8868 2.33231 22.3317C2.02973 22.0289 1.96953 21.4666 2.16706 20.7882C2.39411 20.0086 2.91802 19.1805 3.6422 18.4563C4.04801 18.0505 4.48517 17.7083 4.94157 17.4398C6.79551 16.3483 8.44781 15.0968 9.85772 13.7184L10.9456 14.8061C9.56704 16.2162 8.31574 17.8685 7.22421 19.7225C7.08779 19.9541 6.92735 20.1873 6.74699 20.4155C6.59661 20.606 6.62911 20.8825 6.81954 21.0328C6.90011 21.0965 6.99624 21.1274 7.09168 21.1274C7.22146 21.1274 7.35009 21.0701 7.43684 20.9603C7.64192 20.7007 7.82525 20.4343 7.98158 20.1683C9.03535 18.3785 10.2411 16.7852 11.5672 15.4275L14.6594 18.5197C14.884 18.7445 15.1824 18.8681 15.5001 18.8681C15.5191 18.8681 15.5379 18.8662 15.5567 18.8653V20.6188C15.5567 22.0083 16.6873 23.1388 18.0769 23.1388C19.4664 23.1388 20.5969 22.0083 20.5969 20.6188V17.6463C20.5969 16.7415 21.3332 16.0052 22.2382 16.0052C23.143 16.0052 23.8793 16.7413 23.8793 17.6463V27.4212C23.8793 28.8109 25.0097 29.9414 26.3993 29.9414C27.789 29.9414 28.9195 28.8109 28.9195 27.4212V21.4933C28.9193 21.2505 28.7226 21.0539 28.4798 21.0539ZM15.6157 0.910436C15.7366 0.789586 15.9332 0.789586 16.054 0.910436L23.7534 8.61003C23.8742 8.73065 23.8742 8.92749 23.7534 9.04811L18.4836 14.3179L16.428 12.2623L17.3184 11.3719C17.49 11.2001 17.49 10.922 17.3184 10.7503C17.1467 10.5789 16.8684 10.5789 16.6969 10.7503L15.8064 11.6407L12.694 8.52832L13.5846 7.63797C13.7563 7.46653 13.7563 7.18821 13.5846 7.01655C13.4129 6.84512 13.1346 6.84489 12.9632 7.01655L12.0726 7.9069L11.5991 7.43335L15.1037 3.9287C15.2754 3.75681 15.2754 3.47872 15.1037 3.30706C14.932 3.1354 14.6537 3.1354 14.4823 3.30706L10.9774 6.8117L10.3459 6.18022L15.6157 0.910436ZM15.2811 17.8983L6.76553 9.38296C6.64468 9.26211 6.64468 9.0655 6.76553 8.94465L9.09738 6.61303C9.15597 6.55444 9.23379 6.52217 9.31642 6.52217C9.39927 6.52217 9.47709 6.55444 9.53569 6.61303L18.051 15.1284C18.1719 15.2492 18.1719 15.4458 18.051 15.5667L15.7194 17.8983C15.6608 17.9569 15.583 17.9892 15.5001 17.9892C15.4173 17.9892 15.3397 17.9569 15.2811 17.8983Z" fill="#9ABBCA"/>
<path d="M9.83047 10.1849C9.65881 10.0132 9.38049 10.0132 9.20882 10.1849C9.03716 10.3566 9.03716 10.6347 9.20882 10.8063L13.8579 15.4554C13.9437 15.541 14.0561 15.584 14.1687 15.584C14.2811 15.584 14.3935 15.541 14.4793 15.4554C14.651 15.2835 14.651 15.0054 14.4793 14.8337L9.83047 10.1849Z" fill="#9ABBCA"/>
<path d="M25.9875 10.6218H25.9829C25.74 10.6218 25.5457 10.8184 25.5457 11.0613C25.5457 11.3041 25.7446 11.5007 25.9875 11.5007C26.2303 11.5007 26.4269 11.3041 26.4269 11.0613C26.4269 10.8184 26.2303 10.6218 25.9875 10.6218Z" fill="#9ABBCA"/>
<path d="M26.3496 11.8228C26.1067 11.826 25.9149 12.0251 25.9179 12.2677C25.9209 12.5085 26.1193 12.7017 26.3594 12.7017H26.3651C26.6078 12.6985 26.8021 12.4993 26.7991 12.2567C26.7961 12.0159 26.6 11.8228 26.3597 11.8228C26.3578 11.8228 26.356 11.8228 26.3542 11.8228H26.3496Z" fill="#9ABBCA"/>
<path d="M23.622 13.1768C23.3791 13.1768 23.1848 13.3734 23.1848 13.6162C23.1848 13.8588 23.3837 14.0557 23.6266 14.0557C23.8694 14.0557 24.066 13.8588 24.066 13.6162C24.066 13.3734 23.8694 13.1768 23.6266 13.1768H23.622Z" fill="#9ABBCA"/>
</g>
<defs>
<clipPath id="clip0">
<rect width="30" height="30" fill="white"/>
</clipPath>
</defs>
</svg>
