<svg width="30" height="30" viewBox="0 0 30 30" fill="none" xmlns="http://www.w3.org/2000/svg">
<g clip-path="url(#clip0)">
<path d="M5.77588 5.54048L4.70683 5.0613C4.36207 4.90673 4.08703 4.63175 3.93257 4.28698L3.45345 3.21794C3.38261 3.05997 3.22564 2.95825 3.05256 2.95825C2.87941 2.95825 2.7225 3.05985 2.65166 3.21794L2.17254 4.28698C2.01802 4.63175 1.74298 4.90673 1.39828 5.0613L0.329176 5.54054C0.171207 5.61132 0.0694885 5.76835 0.0694885 5.94144C0.0694885 6.11453 0.171149 6.2715 0.329176 6.34228L1.39822 6.8214C1.74298 6.97597 2.01802 7.25095 2.17248 7.59572L2.6516 8.66476C2.72244 8.82273 2.87941 8.92445 3.0525 8.92445C3.22564 8.92445 3.38256 8.82285 3.45339 8.66476L3.93252 7.59572C4.08703 7.25095 4.36201 6.97597 4.70677 6.8214L5.77582 6.34228C5.93379 6.2715 6.0355 6.11447 6.0355 5.94138C6.03556 5.76824 5.93384 5.6112 5.77588 5.54048ZM4.34748 6.01966C3.80572 6.26253 3.37359 6.69455 3.13072 7.23636L3.0525 7.41091L2.97427 7.23636C2.7314 6.6946 2.29939 6.26247 1.75752 6.01966L1.58297 5.94138L1.75752 5.8631C2.29933 5.62023 2.7314 5.18822 2.97427 4.6464L3.0525 4.47185L3.13072 4.6464C3.37359 5.18816 3.80566 5.62029 4.34748 5.8631L4.52203 5.94138L4.34748 6.01966Z" fill="#9ABBCA"/>
<path d="M28.9322 24.7975L27.8631 24.3184C27.5184 24.1638 27.2434 23.8888 27.0888 23.5441L26.6097 22.475C26.5389 22.317 26.3819 22.2153 26.2088 22.2153C26.0357 22.2153 25.8787 22.3169 25.8079 22.475L25.3288 23.5441C25.1742 23.8888 24.8993 24.1638 24.5545 24.3184L23.4854 24.7975C23.3275 24.8683 23.2257 25.0253 23.2257 25.1984C23.2257 25.3715 23.3273 25.5285 23.4854 25.5993L24.5545 26.0784C24.8993 26.233 25.1742 26.508 25.3288 26.8527L25.8079 27.9218C25.8787 28.0797 26.0357 28.1815 26.2088 28.1815C26.3819 28.1815 26.5389 28.0799 26.6097 27.9218L27.0888 26.8527C27.2434 26.508 27.5184 26.233 27.8631 26.0784L28.9322 25.5993C29.0902 25.5285 29.1919 25.3715 29.1919 25.1984C29.1919 25.0253 29.0902 24.8682 28.9322 24.7975ZM27.5038 25.2766C26.962 25.5194 26.5299 25.9514 26.2871 26.4933L26.2088 26.6679L26.1305 26.4933C25.8877 25.9516 25.4557 25.5194 24.9139 25.2766L24.7393 25.1983L24.9139 25.12C25.4556 24.8771 25.8877 24.4451 26.1305 23.9033L26.2088 23.7287L26.2871 23.9033C26.53 24.4451 26.962 24.8772 27.5038 25.12L27.6783 25.1983L27.5038 25.2766Z" fill="#9ABBCA"/>
<path d="M19.6627 2.29869L18.7127 1.87295C18.4174 1.74053 18.1818 1.50492 18.0493 1.20961L17.6235 0.259688C17.5529 0.101602 17.3958 0 17.2227 0C17.0496 0 16.8926 0.101602 16.8218 0.259688L16.3961 1.20967C16.2637 1.50498 16.0281 1.74059 15.7328 1.87295L14.7828 2.29869C14.6248 2.36953 14.5231 2.5265 14.5231 2.69965C14.523 2.87268 14.6247 3.02971 14.7827 3.10049L15.7327 3.52629C16.028 3.65871 16.2636 3.89432 16.396 4.18963L16.8217 5.13961C16.8925 5.29758 17.0495 5.3993 17.2226 5.3993C17.3957 5.3993 17.5528 5.2977 17.6235 5.13961L18.0493 4.18969C18.1818 3.89432 18.4174 3.65871 18.7127 3.52629L19.6627 3.10049C19.8207 3.02971 19.9224 2.87268 19.9224 2.69959C19.9223 2.52645 19.8207 2.36941 19.6627 2.29869ZM18.3533 2.72449C17.861 2.94521 17.4683 3.33791 17.2476 3.83027L17.2227 3.88576L17.1978 3.83027C16.9771 3.33797 16.5844 2.94527 16.0921 2.72449L16.0366 2.69959L16.0921 2.67475C16.5844 2.45396 16.9771 2.06127 17.1978 1.56896L17.2227 1.51348L17.2476 1.56902C17.4683 2.06133 17.861 2.45402 18.3534 2.67475L18.4088 2.69959L18.3533 2.72449Z" fill="#9ABBCA"/>
<path d="M29.3948 2.86421L27.187 0.656401C26.448 -0.0824072 25.2458 -0.0824072 24.5069 0.656401C24.3353 0.828022 24.3353 1.10617 24.5069 1.27779C24.6785 1.44929 24.9567 1.44929 25.1282 1.27779C25.5246 0.88146 26.1692 0.88146 26.5656 1.27779L28.7735 3.48554C29.1698 3.88193 29.1698 4.52681 28.7735 4.92308L27.1739 6.52263L23.5286 2.87722L23.8461 2.55976C24.0177 2.3882 24.0177 2.11 23.8461 1.93849C23.6746 1.76693 23.3964 1.76687 23.2249 1.93843L17.2297 7.93345C16.9499 7.8223 16.6646 7.7248 16.3739 7.64306L16.0418 5.30318C16.011 5.08656 15.8256 4.9256 15.6068 4.9256H12.3931C12.1743 4.9256 11.9889 5.08656 11.9581 5.30318L11.626 7.64312C10.9628 7.82962 10.3257 8.09353 9.72509 8.4305L7.83556 7.01084C7.66071 6.87941 7.41573 6.89675 7.26099 7.05138L4.98854 9.32376C4.83386 9.47851 4.81651 9.72343 4.94794 9.89833L6.36767 11.7879C6.03069 12.3884 5.76673 13.0255 5.58022 13.6888L3.24022 14.0209C3.0236 14.0517 2.86264 14.2371 2.86264 14.4559V17.6696C2.86264 17.8884 3.0236 18.0738 3.24022 18.1046L5.5804 18.4367C5.66173 18.7245 5.75894 19.0107 5.87097 19.2922L2.50751 22.6557C2.44985 22.7133 2.41042 22.7854 2.39161 22.8634L1.16354 26.3379L1.16348 26.338L0.0761592 29.4144C0.0197333 29.5739 0.0600459 29.7517 0.179694 29.8715C0.263542 29.9553 0.375866 30.0001 0.490417 30.0001C0.53946 30.0001 0.588913 29.9919 0.636784 29.975L7.18774 27.6595C7.26386 27.6412 7.3361 27.6029 7.39552 27.5436L10.7542 24.1848C11.0409 24.2996 11.3324 24.3991 11.6259 24.4819L11.958 26.8221C11.9888 27.0387 12.1743 27.1997 12.393 27.1997H15.6067C15.8255 27.1997 16.0109 27.0387 16.0417 26.8221L16.3738 24.4821C17.037 24.2956 17.6742 24.0317 18.2747 23.6948L20.1643 25.1144C20.3391 25.2458 20.5841 25.2285 20.7389 25.0739L23.0113 22.8014C23.166 22.6467 23.1833 22.4018 23.0518 22.2269L21.6321 20.3373C21.9691 19.7367 22.2331 19.0995 22.4195 18.4364L24.7595 18.1043C24.9761 18.0736 25.1371 17.8882 25.1371 17.6693V14.4556C25.1371 14.2369 24.9761 14.0515 24.7595 14.0206L22.4195 13.6885C22.3362 13.3922 22.2366 13.1014 22.1227 12.8164L29.3948 5.54429C30.1337 4.80548 30.1337 3.6032 29.3948 2.86421ZM1.211 28.8401L1.75973 27.2876L2.7635 28.2914L1.211 28.8401ZM3.68161 27.9669L2.08423 26.3696L3.00239 23.7718L6.27937 27.0487L3.68161 27.9669ZM24.2584 14.8371V17.2881L22.0071 17.6076C21.8293 17.6329 21.6847 17.7638 21.6421 17.9383C21.452 18.7155 21.1452 19.4563 20.73 20.1401C20.6368 20.2936 20.6464 20.4883 20.7543 20.6319L22.1203 22.4498L20.3872 24.1829L18.5693 22.817C18.4257 22.709 18.231 22.6994 18.0775 22.7927C17.3938 23.2078 16.653 23.5146 15.8757 23.7047C15.7012 23.7474 15.5703 23.8919 15.545 24.0697L15.2255 26.321H12.7745L12.455 24.0697C12.4298 23.8919 12.2989 23.7473 12.1244 23.7047C11.8942 23.6484 11.6645 23.5807 11.4372 23.502L13.8384 21.1008C13.8946 21.1029 13.9478 21.1039 14.0001 21.1039C16.7799 21.1039 19.0414 18.8424 19.0414 16.0626C19.0414 15.9408 19.0356 15.8203 19.027 15.7006C19.027 15.6996 19.027 15.6987 19.027 15.6977C19.0267 15.6947 19.0263 15.6917 19.0261 15.6886C19.0206 15.6139 19.0137 15.5397 19.0049 15.466C19.0049 15.4656 19.0048 15.4651 19.0048 15.4647C18.7217 13.0815 16.7705 11.2038 14.3545 11.035C14.3502 11.0347 14.346 11.0341 14.3418 11.0338C14.3408 11.0338 14.3399 11.0338 14.339 11.0338C14.2268 11.0263 14.1141 11.0211 14 11.0211C11.2202 11.0211 8.95868 13.2827 8.95868 16.0625C8.95868 16.1077 8.95944 16.1539 8.96103 16.2022L8.2831 16.8801C8.27238 16.8909 8.2623 16.902 8.25292 16.9135C8.18724 16.9941 8.15443 17.0924 8.15443 17.1909C8.15443 17.3033 8.19732 17.4157 8.2831 17.5015C8.29382 17.5122 8.30495 17.5222 8.31649 17.5316C8.443 17.6348 8.61362 17.6569 8.75911 17.598C8.81202 17.5765 8.86153 17.5443 8.90443 17.5015L14.4777 11.9282C16.3797 12.1466 17.9044 13.664 18.1319 15.5648L16.7566 16.9401C16.585 17.1117 16.585 17.3898 16.7566 17.5614C16.8424 17.6472 16.9549 17.69 17.0672 17.69C17.1796 17.69 17.2921 17.6471 17.3779 17.5614L18.0867 16.8527C17.7658 18.5154 16.4529 19.8283 14.7901 20.1493L16.1306 18.8087C16.3022 18.6371 16.3022 18.359 16.1306 18.1874C15.959 18.0159 15.6809 18.0159 15.5093 18.1874C15.5092 18.1875 15.5093 18.1874 15.5092 18.1875L7.08491 26.6117L3.4395 22.9663L7.65696 18.7489C7.69985 18.706 7.73208 18.6564 7.75347 18.6035C7.77491 18.5506 7.78564 18.4944 7.78564 18.4383C7.78564 18.3259 7.74275 18.2134 7.65696 18.1276C7.61407 18.0847 7.5645 18.0525 7.51165 18.0311C7.37946 17.9775 7.22642 17.9909 7.1046 18.0713C7.08023 18.0874 7.05708 18.1062 7.03564 18.1277L6.55458 18.6086C6.47835 18.3866 6.41255 18.1626 6.35765 17.9383C6.31499 17.7639 6.17044 17.6329 5.99267 17.6077L3.74138 17.2882V14.8372L5.99267 14.5176C6.17044 14.4924 6.31499 14.3615 6.35765 14.1871C6.54778 13.4096 6.85464 12.6689 7.26972 11.9853C7.36294 11.8318 7.35333 11.637 7.2454 11.4934L5.8794 9.6755L7.61255 7.94242L9.43048 9.30835C9.57409 9.41628 9.76886 9.42584 9.92237 9.33267C10.606 8.91748 11.3468 8.61068 12.1241 8.4206C12.2986 8.37789 12.4294 8.23345 12.4547 8.05556L12.7743 5.80427H15.2252L15.5447 8.0555C15.57 8.23328 15.7009 8.37783 15.8753 8.42048C16.3145 8.52789 16.7415 8.67396 17.1537 8.85443C17.1543 8.85466 17.1547 8.85496 17.1552 8.85519C17.2356 8.89041 17.315 8.92679 17.3936 8.96423C17.3951 8.96494 17.3965 8.96564 17.398 8.96634C17.4724 9.00191 17.5458 9.03853 17.6184 9.07591C17.6381 9.08611 17.6576 9.09677 17.6772 9.10714C17.7333 9.13667 17.7891 9.16644 17.844 9.19703C17.9224 9.24103 18.0002 9.28591 18.0772 9.33261C18.1156 9.35593 18.1566 9.37281 18.1987 9.3833C18.325 9.41488 18.4615 9.38916 18.5691 9.30824L20.3871 7.9423L22.1201 9.67527L20.7542 11.4933C20.7002 11.565 20.6709 11.6496 20.6666 11.7355C20.6624 11.8213 20.6832 11.9084 20.7299 11.9852C20.7762 12.0615 20.8206 12.1387 20.8643 12.2164C20.8935 12.2688 20.9219 12.322 20.9503 12.3755C20.9617 12.397 20.9733 12.4184 20.9845 12.44C21.0204 12.5094 21.0555 12.5796 21.0896 12.6508C21.0911 12.654 21.0927 12.6572 21.0942 12.6603C21.1308 12.7368 21.1664 12.8141 21.2007 12.8921C21.201 12.8928 21.2015 12.8935 21.2019 12.8942C21.3853 13.3109 21.5334 13.7427 21.6421 14.187C21.6847 14.3615 21.8292 14.4924 22.0071 14.5177L24.2584 14.8371ZM13.1822 11.981L9.91827 15.245C10.2464 13.6043 11.5416 12.3091 13.1822 11.981ZM21.7293 11.9672C21.6975 11.9072 21.6654 11.8472 21.6321 11.7878L23.0518 9.89822C23.1831 9.72337 23.1659 9.47839 23.0112 9.32365L20.7388 7.05126C20.584 6.89658 20.3391 6.87918 20.1643 7.01072L18.2747 8.43044C18.2104 8.39435 18.1455 8.35955 18.0804 8.32521L20.5988 5.80691L24.2442 9.45226L21.7293 11.9672ZM24.8656 8.83093L21.2203 5.18564L22.9072 3.49861L26.5526 7.14402L24.8656 8.83093Z" fill="#9ABBCA"/>
</g>
<defs>
<clipPath id="clip0">
<rect width="30" height="30" fill="white"/>
</clipPath>
</defs>
</svg>
