<svg width="30" height="30" viewBox="0 0 30 30" fill="none" xmlns="http://www.w3.org/2000/svg">
<g clip-path="url(#clip0)">
<path d="M27.8792 7.30614C27.7531 7.09579 27.4807 7.02759 27.2704 7.15347C27.06 7.27936 26.9918 7.55173 27.1177 7.76207C28.4225 9.94217 29.1124 12.445 29.1124 15C29.1124 22.7818 22.7818 29.1124 15 29.1124C7.21848 29.1124 0.887604 22.7818 0.887604 15C0.887604 7.21825 7.21848 0.887604 15 0.887604C19.2963 0.887604 23.3066 2.80975 26.0026 6.1615C26.1562 6.35239 26.4354 6.38283 26.6265 6.22925C26.8174 6.07567 26.8478 5.7962 26.694 5.60509C23.8289 2.043 19.5664 0 15 0C10.9934 0 7.22649 1.56029 4.39339 4.39339C1.56029 7.22649 0 10.9932 0 15C0 19.0068 1.56029 22.7735 4.39339 25.6066C7.22649 28.4397 10.9934 30 15 30C19.0068 30 22.7735 28.4397 25.6066 25.6066C28.4397 22.7735 30 19.0068 30 15C30 12.2843 29.2667 9.62402 27.8792 7.30614Z" fill="#9ABBCA"/>
<path d="M15 2.9585C8.36037 2.9585 2.95853 8.36034 2.95853 15C2.95853 21.6396 8.36037 27.0414 15 27.0414C21.6396 27.0414 27.0415 21.6396 27.0415 15C27.0415 8.36034 21.6396 2.9585 15 2.9585ZM20.955 24.4269L20.5914 23.797C20.4689 23.5849 20.1974 23.5121 19.9853 23.6345C19.7731 23.7572 19.7003 24.0287 19.8228 24.2408L20.1871 24.8719C18.7596 25.6247 17.1506 26.0772 15.4438 26.1442V25.4141C15.4438 25.1692 15.2451 24.9703 15 24.9703C14.7549 24.9703 14.5562 25.1692 14.5562 25.4141V26.1442C12.8497 26.0772 11.2404 25.6247 9.81308 24.8719L10.1772 24.2408C10.2999 24.0287 10.2271 23.7572 10.015 23.6345C9.80278 23.5121 9.53133 23.5849 9.40865 23.797L9.04495 24.4269C7.6474 23.5409 6.45927 22.3528 5.57327 20.955L6.20293 20.5916C6.41533 20.4689 6.48811 20.1974 6.36543 19.9852C6.24298 19.7731 5.97153 19.7003 5.75912 19.8227L5.12833 20.1871C4.37531 18.7598 3.92303 17.1505 3.85597 15.4438H4.58588C4.83101 15.4438 5.02968 15.2451 5.02968 15.0002C5.02968 14.7551 4.83101 14.5564 4.58588 14.5564H3.85574C3.92281 12.8496 4.37531 11.2404 5.1281 9.81305L5.75912 10.1774C5.82893 10.2177 5.90538 10.2369 5.98068 10.2369C6.13403 10.2369 6.28304 10.1573 6.36543 10.0149C6.48788 9.80275 6.4151 9.5313 6.20293 9.40862L5.57304 9.04515C6.45927 7.64737 7.64717 6.45924 9.04495 5.57324L9.40865 6.20312C9.49081 6.34549 9.64005 6.42514 9.7934 6.42514C9.8687 6.42514 9.94492 6.40591 10.0147 6.36563C10.2269 6.24295 10.2997 5.9715 10.1772 5.75932L9.81285 5.1283C11.2404 4.3755 12.8494 3.923 14.5562 3.85594V4.58607C14.5562 4.83098 14.7549 5.02988 15 5.02988C15.2451 5.02988 15.4438 4.83098 15.4438 4.58607V3.85571C17.1503 3.92278 18.7596 4.37527 20.1869 5.12807L19.8228 5.75909C19.7001 5.97127 19.7729 6.24272 19.985 6.3654C20.0551 6.40569 20.1313 6.42491 20.2066 6.42491C20.36 6.42491 20.5092 6.34526 20.5914 6.2029L20.955 5.57301C22.3526 6.45901 23.5407 7.64714 24.4267 9.04492L23.7968 9.40839C23.5847 9.53107 23.5119 9.80252 23.6346 10.0147C23.7167 10.1571 23.866 10.2367 24.0193 10.2367C24.0946 10.2367 24.1708 10.2175 24.2406 10.1772L24.8717 9.81282C25.6247 11.2401 26.077 12.8494 26.144 14.5562H25.4141C25.169 14.5562 24.9703 14.7548 24.9703 14.9997C24.9703 15.2449 25.169 15.4435 25.4141 15.4435H26.144C26.077 17.1503 25.6247 18.7596 24.8717 20.1869L24.2406 19.8225C24.0285 19.7001 23.757 19.7726 23.6346 19.985C23.5119 20.1972 23.5847 20.4686 23.7968 20.5913L24.4267 20.9548C23.541 22.3528 22.3528 23.5409 20.955 24.4269Z" fill="#9ABBCA"/>
<path d="M20.083 18.1165L17.2057 15.2397C17.2142 15.1609 17.2188 15.0811 17.2188 15C17.2188 14.3026 16.8951 13.6796 16.3905 13.2727V7.4261C16.3905 7.05508 16.2463 6.70604 15.983 6.44191C15.7201 6.17984 15.3708 6.03564 15 6.03564C14.2332 6.03564 13.6093 6.65935 13.6093 7.4261V8.52565C13.6093 8.77078 13.808 8.96945 14.0531 8.96945C14.2982 8.96945 14.4969 8.77078 14.4969 8.52565V7.4261C14.4969 7.1487 14.7226 6.92302 15 6.92302C15.1346 6.92302 15.2612 6.97543 15.3555 7.0695C15.4504 7.16495 15.5029 7.29152 15.5029 7.4261V12.8394C15.3413 12.8016 15.173 12.7812 15 12.7812C14.827 12.7812 14.6587 12.8016 14.4969 12.8394V10.5918C14.4969 10.3466 14.2982 10.148 14.0531 10.148C13.808 10.148 13.6093 10.3466 13.6093 10.5918V13.2727C13.1046 13.6796 12.781 14.3026 12.781 15C12.781 15.4516 12.9169 15.8718 13.1495 16.2227L8.65059 20.7216C8.47733 20.8951 8.47733 21.1759 8.65059 21.3494C8.73734 21.436 8.85086 21.4792 8.96439 21.4792C9.07791 21.4792 9.19167 21.436 9.27818 21.3494L13.7773 16.8503C14.128 17.0831 14.5484 17.219 15 17.219C15.0863 17.219 15.1714 17.2135 15.2552 17.2039C15.2728 17.2325 15.2939 17.2598 15.3186 17.2847L18.1165 20.083C18.3785 20.3463 18.7283 20.4911 19.1006 20.4911C19.4717 20.4911 19.8209 20.3465 20.0837 20.0837C20.2531 19.9141 20.3696 19.7116 20.4332 19.4964C20.5728 19.0233 20.4563 18.4898 20.0837 18.1169C20.0835 18.1167 20.0832 18.1167 20.083 18.1165ZM13.6686 15C13.6686 14.266 14.266 13.6686 15 13.6686C15.734 13.6686 16.3314 14.266 16.3314 15C16.3314 15.7341 15.734 16.3314 15 16.3314C14.266 16.3314 13.6686 15.7341 13.6686 15ZM19.4561 19.4561C19.3609 19.5511 19.2348 19.6035 19.1006 19.6035C19.0837 19.6035 19.067 19.6028 19.0505 19.6012C18.9347 19.5898 18.8276 19.5394 18.7445 19.4561L16.1721 16.883C16.4596 16.7034 16.7033 16.4596 16.883 16.1721L19.4561 18.7448C19.6523 18.9407 19.6523 19.26 19.4561 19.4561Z" fill="#9ABBCA"/>
</g>
<defs>
<clipPath id="clip0">
<rect width="30" height="30" fill="white"/>
</clipPath>
</defs>
</svg>
